<svg width="251" height="47" viewBox="0 0 251 47" fill="none" xmlns="http://www.w3.org/2000/svg">
<path d="M50.4008 22.9957C50.4008 10.2876 40.3608 0 27.5096 0C18.8752 0 11.4456 4.63949 7.6304 11.6996L18.6744 22.794C18.6744 17.9528 22.6904 13.9185 27.5096 13.9185C32.5296 13.9185 36.3448 17.9528 36.3448 22.794C36.3448 27.6352 32.5296 31.6695 27.5096 31.6695H8.4336C3.8152 31.6695 0 35.5022 0 40.3434V45.7897H27.5096C40.3608 45.7897 50.4008 35.5021 50.4008 22.9957Z" fill="#0DBDFF"/>
<path d="M154.214 20.1717H164.857C169.074 20.1717 171.082 18.1545 171.082 14.5236C171.082 10.8927 168.873 8.87554 164.857 8.87554H154.214V20.1717ZM160.439 29.0472H154.214V45.7897H144.576V5.24464C144.576 2.4206 146.785 0 149.797 0H165.058C174.897 0 180.921 6.0515 180.921 14.5236C180.921 21.382 177.106 26.6266 170.479 28.4421L182.326 45.7897H170.881L160.439 29.0472ZM251 44.5794C249.193 45.7897 246.984 46.5966 244.574 46.5966C237.948 46.5966 234.936 42.1588 234.936 35.7039V2.4206L243.972 0.201717V35.7039C243.972 37.5193 244.775 38.5279 246.382 38.5279C246.783 38.5279 247.386 38.3262 247.988 38.1245L251 44.5794ZM235.137 44.5794C233.33 45.7897 231.121 46.5966 228.711 46.5966C222.085 46.5966 219.073 42.1588 219.073 35.7039V6.25322L228.109 4.03434V35.9056C228.109 37.721 228.912 38.7296 230.518 38.7296C230.92 38.7296 231.522 38.5279 232.125 38.3262L235.137 44.5794ZM206.824 29.2489C206.824 24.0043 203.41 20.1717 198.39 20.1717C193.37 20.1717 189.957 23.8026 189.957 29.2489C189.957 34.6953 193.37 38.3262 198.39 38.3262C203.41 38.3262 206.824 34.6953 206.824 29.2489ZM180.72 29.2489C180.72 18.9614 188.15 11.9013 198.39 11.9013C208.631 11.9013 216.262 18.9614 216.262 29.2489C216.262 39.5365 208.832 46.5966 198.39 46.5966C188.15 46.5966 180.72 39.5365 180.72 29.2489ZM76.7056 27.2318L83.1312 9.6824L89.5568 27.2318H76.7056ZM76.304 3.22747L59.6376 45.7897H69.6776L73.292 36.1073H92.9704L96.5848 45.7897H106.625L88.7536 0H81.1232C78.9144 0 77.1072 1.2103 76.304 3.22747ZM122.89 38.3262C117.87 38.3262 114.456 34.6953 114.456 29.2489C114.456 23.8026 117.87 20.1717 122.89 20.1717C127.91 20.1717 131.323 23.8026 131.323 29.2489C131.323 34.6953 127.91 38.3262 122.89 38.3262ZM130.721 16.1373C128.512 13.515 125.098 12.103 121.082 12.103C112.247 12.103 105.219 19.1631 105.219 29.4506C105.219 39.7382 112.247 47 120.882 47C125.5 47 129.114 44.9828 131.323 41.5536L131.725 45.9914H139.757V0H135.942C133.13 0 130.721 2.21888 130.721 5.24464V16.1373Z" fill="#333333"/>
</svg>
