<svg width="90" height="90" viewBox="0 0 90 90" fill="none" xmlns="http://www.w3.org/2000/svg">
<g clip-path="url(#clip0_1473_812)">
<path d="M10.8008 11.4258H10.8173C11.7875 11.4258 12.5661 10.6389 12.5661 9.66797C12.5661 8.69705 11.771 7.91016 10.8008 7.91016C9.82987 7.91016 9.04297 8.69705 9.04297 9.66797C9.04297 10.6389 9.82987 11.4258 10.8008 11.4258Z" fill="#BDA76A"/>
<path d="M18.7969 11.4258H18.8134C19.7843 11.4258 20.5629 10.6389 20.5629 9.66797C20.5629 8.69705 19.7678 7.91016 18.7969 7.91016C17.826 7.91016 17.0391 8.69705 17.0391 9.66797C17.0391 10.6389 17.826 11.4258 18.7969 11.4258Z" fill="#BDA76A"/>
<path d="M26.7969 11.4258H26.8134C27.7836 11.4258 28.5629 10.6389 28.5629 9.66797C28.5629 8.69705 27.7671 7.91016 26.7969 7.91016C25.826 7.91016 25.0391 8.69705 25.0391 9.66797C25.0391 10.6389 25.826 11.4258 26.7969 11.4258Z" fill="#BDA76A"/>
<path d="M40.5625 11.4251H65.038C66.0089 11.4251 66.7958 10.6382 66.7958 9.66728C66.7958 8.69705 66.0089 7.91016 65.038 7.91016H40.5625C39.5923 7.91016 38.8047 8.69705 38.8047 9.66728C38.8047 10.6382 39.5916 11.4251 40.5625 11.4251Z" fill="#BDA76A"/>
<path d="M74.3516 47.2837C73.8895 47.2837 73.4356 47.4711 73.1087 47.7987C72.7819 48.1255 72.5938 48.5787 72.5938 49.0408C72.5938 49.5036 72.7819 49.9568 73.1087 50.2836C73.4356 50.6105 73.8895 50.7986 74.3516 50.7986C74.8137 50.7986 75.2669 50.6105 75.5937 50.2836C75.9205 49.9568 76.1094 49.5036 76.1094 49.0408C76.1094 48.5787 75.9212 48.1255 75.5937 47.7987C75.2669 47.4711 74.8137 47.2837 74.3516 47.2837Z" fill="#BDA76A"/>
<path d="M37.5562 31.1118H35.3672C34.3963 31.1118 33.6094 31.8987 33.6094 32.8696V45.5252C33.6094 46.4961 34.3963 47.283 35.3672 47.283H37.5562C42.0139 47.283 45.6415 43.6562 45.6415 39.1978C45.6415 34.7394 42.0146 31.1118 37.5562 31.1118ZM37.5562 43.7674H37.125V34.6274H37.5562C40.0762 34.6274 42.1258 36.6778 42.1258 39.1978C42.1258 41.7177 40.0762 43.7674 37.5562 43.7674Z" fill="#BDA76A"/>
<path d="M25.6708 32.3093C25.4305 31.5938 24.7596 31.1118 24.005 31.1118C23.2504 31.1118 22.5795 31.5938 22.3392 32.3093L18.0806 44.9649C17.771 45.885 18.2653 46.882 19.1855 47.1917C20.1062 47.5014 21.1026 47.0063 21.4122 46.0862L21.542 45.701H26.468L26.5971 46.0862C26.8443 46.8202 27.5289 47.2837 28.2629 47.2837C28.449 47.2837 28.6378 47.2542 28.8239 47.1917C29.744 46.882 30.2391 45.885 29.9287 44.9649L25.6708 32.3093ZM22.7244 42.186L24.005 38.3813L25.2849 42.186H22.7244Z" fill="#BDA76A"/>
<path d="M89.3093 75.2674L77.3575 63.3156L81.5701 59.1037C82.0096 58.6636 82.1847 58.0236 82.0288 57.4215C81.8736 56.8193 81.4115 56.3434 80.8134 56.1718L55.3691 48.8439V25.8385C55.3691 24.8683 54.5822 24.0814 53.6113 24.0814H10.0189C9.04862 24.0814 8.26172 24.8683 8.26172 25.8385V52.5566C8.26172 53.5275 9.04862 54.3144 10.0189 54.3144H48.0913L51.129 64.8606H5.09766C4.12812 64.8606 3.33985 64.0723 3.33985 63.1028V19.1595H72.595V42.0104C72.595 42.9806 73.3819 43.7675 74.3528 43.7675C75.323 43.7675 76.1106 42.9806 76.1106 42.0104V5.44922C76.1106 2.54128 73.7451 0.175781 70.8371 0.175781H5.09766C2.18971 0.175781 -0.175781 2.54128 -0.175781 5.44922V63.1028C-0.175781 66.0107 2.18971 68.3762 5.09766 68.3762H52.1411L55.8229 81.1616C55.9953 81.7596 56.4705 82.2217 57.0726 82.3769C57.6741 82.5321 58.3148 82.3584 58.7549 81.9182L62.9668 77.7064L74.9186 89.6581C75.2482 89.9877 75.6952 90.1724 76.1614 90.1724C76.6276 90.1724 77.0746 89.9877 77.4042 89.6581L89.3093 77.753C89.9959 77.0664 89.9959 75.9533 89.3093 75.2674ZM5.09766 3.69141H70.8371C71.806 3.69141 72.595 4.47968 72.595 5.44922V15.6439H3.33985V5.44922C3.33985 4.47968 4.12812 3.69141 5.09766 3.69141ZM11.7767 50.7988V27.5963H51.8534V47.8311L48.7711 46.9432C48.1559 46.7668 47.4939 46.9371 47.0414 47.3896C46.5889 47.8421 46.4186 48.5047 46.5951 49.1192L47.0792 50.7988H11.7767ZM76.1614 85.9289L64.2103 73.9772C63.867 73.6339 63.4172 73.4622 62.9675 73.4622C62.5171 73.4622 62.0673 73.6339 61.724 73.9772L58.3766 77.3253L50.853 51.2018L76.9764 58.7247L73.6291 62.0728C73.2995 62.4017 73.1141 62.8494 73.1141 63.3156C73.1141 63.7812 73.2995 64.2289 73.6291 64.5585L85.5808 76.5095L76.1614 85.9289Z" fill="#BDA76A"/>
<path d="M22.2824 61.345C23.2533 61.345 24.0402 60.5581 24.0402 59.5879C24.0402 58.617 23.2533 57.8301 22.2824 57.8301H10.2695C9.29862 57.8301 8.51172 58.617 8.51172 59.5879C8.51172 60.5581 9.29862 61.345 10.2695 61.345H22.2824Z" fill="#BDA76A"/>
<path d="M30.4687 60.8307C30.7956 60.5039 30.9837 60.05 30.9837 59.5879C30.9837 59.1258 30.7962 58.6719 30.4687 58.3451C30.1419 58.0182 29.6887 57.8301 29.2259 57.8301C28.7638 57.8301 28.3106 58.0182 27.9837 58.3451C27.6569 58.6719 27.4688 59.1258 27.4688 59.5879C27.4688 60.05 27.6562 60.5039 27.9837 60.8307C28.3106 61.1576 28.7638 61.3457 29.2259 61.3457C29.6887 61.3457 30.1419 61.1576 30.4687 60.8307Z" fill="#BDA76A"/>
</g>
<defs>
<clipPath id="clip0_1473_812">
<rect width="90" height="90" fill="white"/>
</clipPath>
</defs>
</svg>
