<svg width="25" height="25" viewBox="0 0 25 25" fill="none" xmlns="http://www.w3.org/2000/svg">
<path d="M12.5 0C5.59131 0 0 5.59082 0 12.5C0 19.4087 5.59082 25 12.5 25C19.4087 25 25 19.4092 25 12.5C25 5.59131 19.4092 0 12.5 0ZM9.52568 17.7729C9.52568 17.7729 5.2082 13.4537 4.89785 13.1439C4.20747 12.4536 4.20747 11.3301 4.89785 10.6403C5.58999 9.94819 6.70933 9.94819 7.40146 10.6403L10.1966 13.4354C10.5441 13.783 11.1082 13.7806 11.4528 13.4313L17.59 7.20562C18.2798 6.50581 19.4068 6.50107 20.1025 7.19678C20.7875 7.88184 20.7917 9.00059 20.1113 9.69097C13.4466 16.453 12.181 17.7724 12.181 17.7724C11.4493 18.504 10.258 18.5046 9.52568 17.7729Z" fill="white"/>
</svg>
