<svg width="130" height="130" viewBox="0 0 130 130" fill="none" xmlns="http://www.w3.org/2000/svg">
<g clip-path="url(#clip0_694_14)">
<path d="M6.98857 115.847H0V85.6238L14.6877 70.9362C16.6442 68.9796 18.8853 67.3651 21.3537 66.1345C24.891 64.3622 28.8562 63.4275 32.8143 63.4275H52.4194C57.045 63.4275 60.8065 67.189 60.8065 71.8146C60.8065 76.4402 57.045 80.2017 52.4194 80.2017H41.9355L44.452 83.5588C44.8462 84.083 45.4728 84.3952 46.129 84.3952H56.0109L87.4646 64.738C88.8344 63.88 90.4132 63.4275 92.0318 63.4275C96.7813 63.4275 100.645 67.2914 100.645 72.0409V72.519C100.645 75.4061 99.2108 78.0865 96.81 79.6877L65.1382 100.801C62.721 102.415 59.9045 103.266 56.9989 103.266H27.2581C25.0036 103.266 22.7686 104.011 20.9698 105.363L6.98857 115.847ZM4.19355 111.653H5.59208L18.4533 102.008C20.9739 100.115 24.1006 99.0727 27.2581 99.0727H56.9989C59.0742 99.0727 61.0849 98.4645 62.8131 97.3117L94.4828 76.1986C95.7155 75.3775 96.4516 74.0015 96.4516 72.519V72.0409C96.4516 69.6042 94.4685 67.621 92.0318 67.621C91.2015 67.621 90.3917 67.8514 89.6893 68.2916L57.2149 88.5888H46.129C44.1602 88.5888 42.2774 87.6489 41.099 86.0722L37.3222 81.0402L30.6131 86.0722L28.0966 82.7182L37.0437 76.0081H52.4194C54.7322 76.0081 56.6129 74.1274 56.6129 71.8146C56.6129 69.5018 54.7322 67.621 52.4194 67.621H32.8143C29.5012 67.621 26.1861 68.4032 23.2263 69.8857C21.1623 70.9147 19.2866 72.2671 17.6526 73.9011L4.19355 87.3602V111.653Z" fill="black"/>
<path d="M20.9677 39.3043L2.87283 19.1955C1.0187 17.1407 0 14.4798 0 11.7124C0 5.54394 5.01977 0.52417 11.1883 0.52417H11.9264C14.145 0.52417 16.2899 1.17429 18.1328 2.40287L20.9677 4.29386L23.8047 2.40492C25.6456 1.17429 27.7925 0.52417 30.0091 0.52417H30.7472C36.9157 0.52417 41.9355 5.54394 41.9355 11.7124C41.9355 14.4798 40.9168 17.1407 39.0627 19.1955L20.9677 39.3043Z" fill="#BDA76A"/>
<path d="M109.032 129.466L90.9373 109.357C89.0831 107.302 88.0645 104.641 88.0645 101.874C88.0645 95.7053 93.0842 90.6855 99.2527 90.6855H99.9909C102.209 90.6855 104.354 91.3357 106.197 92.5642L109.032 94.4552L111.869 92.5663C113.71 91.3357 115.857 90.6855 118.074 90.6855H118.812C124.98 90.6855 130 95.7053 130 101.874C130 104.641 128.981 107.302 127.127 109.357L109.032 129.466Z" fill="#BDA76A"/>
<path d="M58.709 113.75H62.9025V117.944H58.709V113.75Z" fill="black"/>
<path d="M58.709 122.137H62.9025V126.331H58.709V122.137Z" fill="black"/>
<path d="M62.9023 117.943H67.0959V122.137H62.9023V117.943Z" fill="black"/>
<path d="M54.5156 117.943H58.7092V122.137H54.5156V117.943Z" fill="black"/>
<path d="M8.38672 48.75H12.5803V52.9435H8.38672V48.75Z" fill="black"/>
<path d="M8.38672 57.1372H12.5803V61.3308H8.38672V57.1372Z" fill="black"/>
<path d="M12.5801 52.9434H16.7736V57.1369H12.5801V52.9434Z" fill="black"/>
<path d="M4.19336 52.9436H8.38691V57.1372H4.19336V52.9436Z" fill="black"/>
<path d="M113.227 65.5244H117.42V69.718H113.227V65.5244Z" fill="black"/>
<path d="M113.227 73.9111H117.42V78.1047H113.227V73.9111Z" fill="black"/>
<path d="M117.42 69.7178H121.613V73.9113H117.42V69.7178Z" fill="black"/>
<path d="M109.033 69.7178H113.227V73.9113H109.033V69.7178Z" fill="black"/>
<path d="M96.4512 0.524414H100.645V4.71796H96.4512V0.524414Z" fill="black"/>
<path d="M96.4512 8.91113H100.645V13.1047H96.4512V8.91113Z" fill="black"/>
<path d="M100.645 4.71777H104.838V8.91132H100.645V4.71777Z" fill="black"/>
<path d="M92.2578 4.71777H96.4514V8.91132H92.2578V4.71777Z" fill="black"/>
<path d="M25.1621 109.557H29.3557V113.75H25.1621V109.557Z" fill="black"/>
<path d="M25.1621 117.943H29.3557V122.137H25.1621V117.943Z" fill="black"/>
<path d="M29.3555 113.75H33.549V117.944H29.3555V113.75Z" fill="black"/>
<path d="M20.9668 113.75H25.1603V117.944H20.9668V113.75Z" fill="black"/>
<path d="M97.1863 59.2338H77.5813C72.9557 59.2338 69.1942 55.4723 69.1942 50.8467C69.1942 46.2211 72.9557 42.4596 77.5813 42.4596H88.0652L85.5486 39.1046C85.1544 38.5804 84.5299 38.2661 83.8716 38.2661H73.9897L42.5361 57.9233C41.1662 58.7813 39.5875 59.2338 37.9688 59.2338C33.2193 59.2338 29.3555 55.3699 29.3555 50.6205V50.1423C29.3555 47.2572 30.7898 44.5769 33.1907 42.9756L64.8604 21.8625C67.2796 20.249 70.0962 19.3951 73.0018 19.3951H102.743C104.997 19.3951 107.232 18.6508 109.031 17.2983L123.012 6.81445H130.001V37.0375L115.313 51.7251C113.359 53.6796 111.117 55.2942 108.649 56.5289C105.11 58.2991 101.144 59.2338 97.1863 59.2338ZM77.5813 46.6532C75.2685 46.6532 73.3877 48.5339 73.3877 50.8467C73.3877 53.1595 75.2685 55.0403 77.5813 55.0403H97.1863C100.497 55.0403 103.815 54.2581 106.774 52.7756C108.838 51.7446 110.714 50.3921 112.348 48.7581L125.807 35.3011V11.008H124.409L111.547 20.6534C109.027 22.5444 105.9 23.5886 102.743 23.5886H73.0018C70.9265 23.5886 68.9157 24.1988 67.1875 25.3496L35.5158 46.4627C34.2851 47.2838 33.549 48.6598 33.549 50.1423V50.6205C33.549 53.0571 35.5321 55.0403 37.9688 55.0403C38.7991 55.0403 39.609 54.8079 40.3113 54.3697L72.7857 34.0725H83.8716C85.8424 34.0725 87.7232 35.0144 88.9037 36.5891L92.6785 41.6211L99.3875 36.5891L101.902 39.9431L92.9569 46.6532H77.5813Z" fill="black"/>
</g>
<defs>
<clipPath id="clip0_694_14">
<rect width="130" height="130" fill="white"/>
</clipPath>
</defs>
</svg>
