<svg width="909" height="503" viewBox="0 0 909 503" fill="none" xmlns="http://www.w3.org/2000/svg">
<path d="M154.581 275.626C152.28 270.983 153.929 268.194 157.209 262.647C157.642 261.916 158.097 261.145 158.566 260.328C162.174 254.059 160.612 251.051 158.252 246.499C157.705 245.454 157.104 244.294 156.494 242.952C154.581 238.756 154.681 238.231 155.227 235.318C155.546 233.629 155.979 231.315 156.261 227.229C156.776 219.741 157.478 209.492 151.911 203.603C148.919 200.439 144.368 198.864 138.579 198.969C122.941 199.197 121.488 206.095 119.807 214.085C119.379 216.112 118.937 218.212 118.249 220.394C116.232 226.767 118.951 229.849 121.351 232.565C123.547 235.058 125.624 237.409 124.895 242.486C123.843 249.813 125.137 252.749 126.635 256.15C127.574 258.282 128.64 260.697 129.264 264.751L129.423 265.783C130.128 270.358 129.78 274.132 128.38 277.105C127.729 278.489 126.895 280.265 125.843 282.721C121.966 291.783 122.563 294.353 124.157 301.22C124.627 303.256 125.196 305.698 125.761 308.848C128.038 321.549 125.911 326.411 125.865 326.516C125.679 326.905 125.702 327.366 125.929 327.731C126.157 328.096 126.562 328.324 126.995 328.324H135.358C135.682 328.324 135.991 328.201 136.224 327.977C136.656 327.567 146.75 317.819 144.209 310.122C142.596 305.246 145.256 301.964 150.08 296.015C151.415 294.367 152.895 292.545 154.458 290.464C159.605 283.606 159.605 281.835 156.908 278.877C156.166 278.064 155.328 277.142 154.576 275.626H154.581Z" fill="black"/>
<path d="M122.577 285.396C120.285 281.475 120.723 277.247 121.192 272.764C121.734 267.546 122.294 262.149 118.891 256.52C117.53 254.265 116.455 252.571 115.584 251.201C112.551 246.431 112.159 245.814 110.779 239.108C109.444 232.643 104.343 232.013 100.238 231.506C97.8653 231.21 95.6287 230.936 94.0663 229.758C90.6728 227.206 84.1318 227.493 79.7726 230.374C75.8825 232.949 74.3839 237.008 75.55 241.81C78.3559 253.375 88.0582 271.326 98.257 273.535C100.065 273.928 101.181 274.453 101.578 275.092C102.065 275.882 101.696 277.352 101.227 279.215C100.498 282.118 99.5005 286.09 100.726 291.24C101.737 295.49 101.45 297.307 101.245 298.64C100.826 301.325 100.949 302.379 106.465 308.671C115.102 318.523 119.028 327.484 119.069 327.571C119.27 328.032 119.721 328.329 120.222 328.329H127.478C127.815 328.329 128.138 328.192 128.38 327.95C128.617 327.708 128.744 327.379 128.735 327.042C128.703 325.718 127.901 294.481 122.59 285.401L122.577 285.396Z" fill="black"/>
<path d="M168.142 330.698C167.855 329.337 167.559 328.091 167.263 326.95C166.967 325.808 166.675 324.781 166.397 323.863C166.393 323.845 166.388 323.827 166.379 323.809C165.632 321.366 163.373 319.709 160.826 319.709H94.7231C92.1632 319.709 89.9084 321.385 89.1614 323.841C88.879 324.763 88.5829 325.799 88.2868 326.95C87.9908 328.086 87.6947 329.337 87.4077 330.698C85.3078 340.335 83.6088 355.369 86.1004 374.845C87.7903 387.788 93.5388 404.657 98.1987 411.921C99.2645 413.587 101.109 414.582 103.082 414.582H152.45C154.422 414.582 156.262 413.587 157.333 411.925C162.002 404.657 167.745 387.793 169.408 374.845C171.941 355.369 170.237 340.335 168.142 330.698Z" fill="black"/>
<g opacity="0.5">
<path style="mix-blend-mode:multiply" opacity="0.55" d="M0.0318604 414.478C0.0318604 423.49 56.9338 430.794 127.127 430.794C197.316 430.794 254.218 423.49 254.218 414.478C254.218 405.466 197.316 398.161 127.127 398.161C56.9338 398.161 0.0318604 405.466 0.0318604 414.478Z" fill="url(#paint0_radial_603_118)"/>
</g>
<g opacity="0.5">
<path style="mix-blend-mode:multiply" opacity="0.55" d="M640.745 414.822C640.745 422.869 700.795 429.39 774.875 429.39C848.951 429.39 909 422.869 909 414.822C909 406.774 848.951 400.253 774.875 400.253C700.799 400.253 640.745 406.774 640.745 414.822Z" fill="url(#paint1_radial_603_118)"/>
</g>
<path d="M851.074 220.262V401.389C851.074 408.972 844.934 415.126 837.368 415.126H760.473C752.907 415.126 746.767 408.972 746.767 401.389V220.267C746.767 212.683 752.907 206.529 760.473 206.529H837.368C844.934 206.529 851.074 212.683 851.074 220.267V220.262Z" fill="url(#paint2_linear_603_118)"/>
<path d="M848.532 220.279V401.37C848.532 407.519 843.554 412.509 837.418 412.509H760.428C754.292 412.509 749.314 407.519 749.314 401.37V220.279C749.314 214.13 754.292 209.14 760.428 209.14H837.418C843.554 209.14 848.532 214.13 848.532 220.279Z" fill="black"/>
<path d="M843.135 220.472H754.712V394.349H843.135V220.472Z" fill="#F9F9F9"/>
<path d="M746.855 236.313H746.682C746.297 236.313 745.985 236.626 745.985 237.012V250.631C745.985 251.016 746.297 251.329 746.682 251.329H746.855C747.24 251.329 747.552 251.016 747.552 250.631V237.012C747.552 236.626 747.24 236.313 746.855 236.313Z" fill="url(#paint3_linear_603_118)"/>
<path d="M746.855 256.018H746.682C746.297 256.018 745.985 256.33 745.985 256.716V270.335C745.985 270.72 746.297 271.033 746.682 271.033H746.855C747.24 271.033 747.552 270.72 747.552 270.335V256.716C747.552 256.33 747.24 256.018 746.855 256.018Z" fill="url(#paint4_linear_603_118)"/>
<path d="M851.074 278.89C850.641 278.89 850.291 278.539 850.291 278.105V257.072C850.291 256.639 850.641 256.287 851.074 256.287C851.507 256.287 851.858 256.639 851.858 257.072V278.105C851.858 278.539 851.507 278.89 851.074 278.89Z" fill="url(#paint5_linear_603_118)"/>
<path d="M805.528 403.913C805.528 407.57 802.567 410.538 798.919 410.538C795.27 410.538 792.309 407.57 792.309 403.913C792.309 400.257 795.27 397.289 798.919 397.289C802.567 397.289 805.528 400.257 805.528 403.913Z" fill="white"/>
<path d="M805.163 216.432H792.682C791.962 216.432 791.379 215.843 791.379 215.126C791.379 214.405 791.967 213.82 792.682 213.82H805.163C805.882 213.82 806.465 214.409 806.465 215.126C806.465 215.847 805.878 216.432 805.163 216.432Z" fill="white"/>
<path d="M834.207 286.488H763.622C762.432 286.488 761.467 287.455 761.467 288.648V310.078C761.467 311.27 762.432 312.237 763.622 312.237H834.207C835.397 312.237 836.362 311.27 836.362 310.078V288.648C836.362 287.455 835.397 286.488 834.207 286.488Z" fill="#D8D8D8"/>
<path d="M793.252 320.043H764.792C762.96 320.043 761.476 321.531 761.476 323.367V380.721C761.476 382.557 762.96 384.045 764.792 384.045H793.252C795.083 384.045 796.568 382.557 796.568 380.721V323.367C796.568 321.531 795.083 320.043 793.252 320.043Z" fill="#D8D8D8"/>
<path d="M804.968 320.043H833.423C835.254 320.043 836.739 321.531 836.739 323.367V380.717C836.739 382.552 835.254 384.041 833.423 384.041H804.968C803.136 384.041 801.651 382.552 801.651 380.717V323.367C801.651 321.531 803.136 320.043 804.968 320.043Z" fill="#D8D8D8"/>
<path d="M836.37 234.1V276.553C836.37 278.63 834.685 280.301 832.63 280.301H765.192C763.138 280.301 761.475 278.63 761.475 276.553V234.1C761.475 232.023 763.143 230.352 765.192 230.352H832.63C834.685 230.352 836.37 232.023 836.37 234.1Z" fill="#D8D8D8"/>
<path d="M836.37 264.09V276.553C836.37 278.63 834.685 280.301 832.63 280.301H765.192C763.138 280.301 761.475 278.63 761.475 276.553V264.09L785.025 247.202L806.543 263.916L820.7 253.123L836.37 264.09Z" fill="#B5B5B5"/>
<path d="M813.718 244.102C813.718 247.672 810.83 250.567 807.268 250.567C803.706 250.567 800.818 247.672 800.818 244.102C800.818 240.532 803.706 237.638 807.268 237.638C810.83 237.638 813.718 240.532 813.718 244.102Z" fill="#B5B5B5"/>
<path d="M849.084 201.877C849.954 202.365 851.061 202.05 851.549 201.178L853.225 198.17C853.712 197.293 853.398 196.188 852.528 195.7C851.654 195.211 850.551 195.526 850.064 196.398L848.388 199.407C847.9 200.279 848.214 201.388 849.084 201.877Z" fill="black"/>
<path d="M856.175 212.596C856.598 212.834 857.086 212.888 857.55 212.761L860.857 211.82C861.322 211.688 861.709 211.382 861.946 210.962C862.183 210.537 862.238 210.049 862.106 209.579C861.841 208.647 860.798 208.063 859.869 208.328L856.558 209.268C855.596 209.542 855.036 210.546 855.309 211.51C855.442 211.975 855.747 212.363 856.17 212.601L856.175 212.596Z" fill="black"/>
<path d="M835.418 200.379C835.555 200.863 835.874 201.242 836.279 201.471C836.684 201.699 837.176 201.772 837.655 201.635C838.616 201.361 839.176 200.357 838.903 199.393L837.964 196.074C837.691 195.111 836.689 194.549 835.728 194.823C834.767 195.097 834.207 196.102 834.48 197.065L835.418 200.384V200.379Z" fill="black"/>
<g opacity="0.5">
<path style="mix-blend-mode:multiply" opacity="0.55" d="M4.31971e-08 478.463C4.31971e-08 492.014 203.483 503 454.502 503C705.513 503 909 492.014 909 478.463C909 464.913 705.513 453.927 454.502 453.927C203.487 453.927 -0.00342347 464.913 4.31971e-08 478.463Z" fill="url(#paint6_radial_603_118)"/>
</g>
<path d="M250.474 114.286H682.768C691.637 114.286 698.834 121.504 698.834 130.388V393.377H234.404V130.388C234.404 121.499 241.605 114.286 250.47 114.286H250.474Z" fill="black"/>
<path d="M680.226 374.727V132.936L253.011 132.936V374.727H680.226Z" fill="#F9F9F9"/>
<path d="M793.834 461.908L139.225 462.04L234.403 393.377H698.833L793.834 461.908Z" fill="url(#paint7_linear_603_118)"/>
<path d="M411.09 435.072L396.514 453.265H536.724L522.152 435.072H411.09Z" fill="black"/>
<path d="M728.445 428.74L695.207 404.566H238.028L204.79 428.74H728.445Z" fill="black"/>
<path d="M140.733 461.506H792.509C793.83 461.506 794.905 462.583 794.905 463.907V469.664C794.905 474.449 791.028 478.334 786.255 478.334H146.983C142.209 478.334 138.333 474.449 138.333 469.664V463.907C138.333 462.583 139.408 461.506 140.729 461.506H140.733Z" fill="url(#paint8_linear_603_118)"/>
<path d="M480.761 358.461C481.453 358.461 482.014 357.9 482.014 357.206V149.531C482.014 148.837 481.453 148.275 480.761 148.275C480.069 148.275 479.508 148.837 479.508 149.531V357.206C479.508 357.9 480.069 358.461 480.761 358.461Z" fill="#B5B5B5"/>
<path opacity="0.6" d="M461.191 157.086V349.649C461.191 354.516 457.251 358.46 452.399 358.46H204.79C199.935 358.46 195.995 354.516 195.995 349.649V157.086C195.995 152.219 199.935 148.274 204.79 148.274H452.399C457.255 148.274 461.191 152.223 461.191 157.086Z" fill="#BDA76A"/>
<path d="M461.191 157.086V165.627H195.99V157.086C195.99 152.219 199.931 148.274 204.786 148.274H452.395C457.251 148.274 461.187 152.223 461.187 157.086H461.191Z" fill="#BDA76A"/>
<path d="M427.884 160.144C429.452 158.574 429.452 156.028 427.884 154.457C426.317 152.887 423.775 152.887 422.208 154.457C420.64 156.028 420.64 158.574 422.208 160.144C423.775 161.715 426.316 161.715 427.884 160.144Z" fill="#F9F9F9"/>
<path d="M440.201 157.301C440.201 159.525 438.406 161.323 436.187 161.323C433.969 161.323 432.174 159.525 432.174 157.301C432.174 155.078 433.969 153.279 436.187 153.279C438.406 153.279 440.201 155.078 440.201 157.301Z" fill="#F9F9F9"/>
<path d="M450.164 160.144C451.732 158.573 451.732 156.026 450.164 154.456C448.597 152.885 446.056 152.885 444.489 154.456C442.922 156.026 442.922 158.573 444.489 160.144C446.056 161.715 448.597 161.715 450.164 160.144Z" fill="#F9F9F9"/>
<path d="M441.523 197.472H216.37C215.701 197.472 215.159 196.928 215.159 196.257C215.159 195.586 215.701 195.043 216.37 195.043H441.523C442.192 195.043 442.734 195.586 442.734 196.257C442.734 196.928 442.192 197.472 441.523 197.472Z" fill="white"/>
<path d="M441.523 204.393H216.37C215.701 204.393 215.159 203.849 215.159 203.178C215.159 202.507 215.701 201.964 216.37 201.964H441.523C442.192 201.964 442.734 202.507 442.734 203.178C442.734 203.849 442.192 204.393 441.523 204.393Z" fill="white"/>
<path d="M441.523 211.315H216.37C215.701 211.315 215.159 210.771 215.159 210.1C215.159 209.429 215.701 208.886 216.37 208.886H441.523C442.192 208.886 442.734 209.429 442.734 210.1C442.734 210.771 442.192 211.315 441.523 211.315Z" fill="white"/>
<path d="M441.523 218.235H216.37C215.701 218.235 215.159 217.692 215.159 217.021C215.159 216.35 215.701 215.807 216.37 215.807H441.523C442.192 215.807 442.734 216.35 442.734 217.021C442.734 217.692 442.192 218.235 441.523 218.235Z" fill="white"/>
<path d="M441.523 225.156H216.37C215.701 225.156 215.159 224.613 215.159 223.942C215.159 223.271 215.701 222.728 216.37 222.728H441.523C442.193 222.728 442.735 223.271 442.735 223.942C442.735 224.613 442.193 225.156 441.523 225.156Z" fill="white"/>
<path d="M441.523 232.077H216.37C215.701 232.077 215.159 231.534 215.159 230.863C215.159 230.192 215.701 229.648 216.37 229.648H441.523C442.193 229.648 442.735 230.192 442.735 230.863C442.735 231.534 442.193 232.077 441.523 232.077Z" fill="white"/>
<path d="M441.523 238.998H216.37C215.701 238.998 215.159 238.455 215.159 237.784C215.159 237.113 215.701 236.569 216.37 236.569H441.523C442.193 236.569 442.735 237.113 442.735 237.784C442.735 238.455 442.193 238.998 441.523 238.998Z" fill="white"/>
<path d="M441.523 245.919H216.37C215.701 245.919 215.159 245.376 215.159 244.705C215.159 244.034 215.701 243.49 216.37 243.49H441.523C442.192 243.49 442.734 244.034 442.734 244.705C442.734 245.376 442.192 245.919 441.523 245.919Z" fill="white"/>
<path d="M377.21 252.84H216.37C215.701 252.84 215.159 252.297 215.159 251.626C215.159 250.954 215.701 250.411 216.37 250.411H377.21C377.879 250.411 378.421 250.954 378.421 251.626C378.421 252.297 377.879 252.84 377.21 252.84Z" fill="white"/>
<path d="M276.233 173.312H217.431C216.176 173.312 215.158 174.331 215.158 175.59V186.14C215.158 187.398 216.176 188.418 217.431 188.418H276.233C277.488 188.418 278.506 187.398 278.506 186.14V175.59C278.506 174.331 277.488 173.312 276.233 173.312Z" fill="black"/>
<path d="M221.186 180.857L225.222 178.748V179.647C225.222 179.716 225.203 179.78 225.171 179.835C225.14 179.889 225.08 179.94 225.003 179.981L223.154 180.93C223.076 180.971 222.994 181.008 222.908 181.035C222.821 181.063 222.73 181.09 222.63 181.113C222.73 181.136 222.821 181.163 222.908 181.191C222.994 181.218 223.076 181.254 223.154 181.296L225.003 182.25C225.08 182.291 225.135 182.341 225.171 182.396C225.203 182.451 225.222 182.514 225.222 182.583V183.482L221.186 181.369V180.857Z" fill="#F9F9F9"/>
<path d="M234.035 184.373H232.723V181.309H229.443V184.373H228.132V177.36H229.443V180.378H232.723V177.36H234.035V184.373Z" fill="#F9F9F9"/>
<path d="M239.861 177.356V178.392H236.759V180.337H239.2V181.342H236.759V183.323H239.861V184.364H235.447V177.352H239.861V177.356Z" fill="#F9F9F9"/>
<path d="M247.141 184.373H246.134C246.02 184.373 245.929 184.345 245.856 184.286C245.784 184.231 245.733 184.158 245.697 184.076L245.173 182.647H242.276L241.752 184.076C241.725 184.149 241.675 184.218 241.602 184.281C241.525 184.341 241.433 184.373 241.324 184.373H240.313L243.06 177.36H244.39L247.136 184.373H247.141ZM242.613 181.725H244.845L243.993 179.392C243.952 179.287 243.911 179.168 243.866 179.027C243.82 178.885 243.775 178.735 243.729 178.57C243.684 178.735 243.638 178.89 243.597 179.031C243.552 179.173 243.511 179.296 243.47 179.406L242.618 181.729L242.613 181.725Z" fill="#F9F9F9"/>
<path d="M254.073 180.866C254.073 181.382 253.986 181.852 253.818 182.282C253.645 182.711 253.408 183.08 253.098 183.391C252.788 183.701 252.415 183.943 251.982 184.112C251.545 184.286 251.062 184.368 250.534 184.368H247.864V177.355H250.534C251.062 177.355 251.545 177.442 251.982 177.616C252.419 177.789 252.788 178.031 253.098 178.337C253.408 178.647 253.649 179.017 253.818 179.446C253.991 179.876 254.073 180.35 254.073 180.862V180.866ZM252.743 180.866C252.743 180.483 252.693 180.136 252.588 179.83C252.483 179.524 252.338 179.264 252.146 179.054C251.955 178.844 251.723 178.679 251.454 178.565C251.181 178.451 250.875 178.396 250.534 178.396H249.172V183.332H250.534C250.875 183.332 251.185 183.277 251.454 183.163C251.727 183.049 251.959 182.889 252.146 182.674C252.338 182.464 252.483 182.204 252.588 181.898C252.693 181.592 252.743 181.25 252.743 180.862V180.866Z" fill="#F9F9F9"/>
<path d="M259.509 177.356V178.392H256.407V180.337H258.849V181.342H256.407V183.323H259.509V184.364H255.095V177.352H259.509V177.356Z" fill="#F9F9F9"/>
<path d="M261.98 181.629V184.368H260.677V177.355H262.809C263.287 177.355 263.697 177.406 264.035 177.502C264.376 177.602 264.654 177.739 264.873 177.917C265.091 178.095 265.251 178.31 265.351 178.556C265.451 178.803 265.501 179.077 265.501 179.373C265.501 179.611 265.465 179.834 265.396 180.044C265.328 180.254 265.228 180.446 265.096 180.615C264.964 180.789 264.804 180.935 264.613 181.067C264.422 181.195 264.203 181.3 263.957 181.378C264.121 181.473 264.262 181.606 264.381 181.779L266.134 184.368H264.964C264.85 184.368 264.754 184.345 264.677 184.299C264.599 184.254 264.531 184.19 264.476 184.108L263.005 181.861C262.95 181.779 262.891 181.715 262.823 181.683C262.755 181.647 262.659 181.629 262.531 181.629H261.976H261.98ZM261.98 180.693H262.791C263.037 180.693 263.251 180.661 263.433 180.601C263.615 180.542 263.766 180.455 263.884 180.346C264.003 180.236 264.089 180.108 264.148 179.962C264.208 179.812 264.235 179.652 264.235 179.474C264.235 179.118 264.116 178.844 263.884 178.652C263.652 178.46 263.292 178.364 262.814 178.364H261.98V180.693Z" fill="#F9F9F9"/>
<path d="M268.45 183.482V182.583C268.45 182.514 268.469 182.451 268.5 182.396C268.532 182.341 268.592 182.291 268.669 182.25L270.518 181.296C270.669 181.222 270.842 181.159 271.042 181.113C270.942 181.09 270.851 181.063 270.764 181.035C270.678 181.008 270.596 180.971 270.518 180.93L268.669 179.981C268.592 179.94 268.537 179.889 268.5 179.835C268.469 179.78 268.45 179.716 268.45 179.647V178.748L272.486 180.857V181.369L268.45 183.482Z" fill="#F9F9F9"/>
<path d="M441.523 287.09H216.37C215.701 287.09 215.159 286.547 215.159 285.876C215.159 285.204 215.701 284.661 216.37 284.661H441.523C442.192 284.661 442.734 285.204 442.734 285.876C442.734 286.547 442.192 287.09 441.523 287.09Z" fill="white"/>
<path d="M441.523 294.011H216.37C215.701 294.011 215.159 293.468 215.159 292.796C215.159 292.125 215.701 291.582 216.37 291.582H441.523C442.193 291.582 442.735 292.125 442.735 292.796C442.735 293.468 442.193 294.011 441.523 294.011Z" fill="white"/>
<path d="M441.523 300.933H216.37C215.701 300.933 215.159 300.389 215.159 299.718C215.159 299.047 215.701 298.504 216.37 298.504H441.523C442.193 298.504 442.735 299.047 442.735 299.718C442.735 300.389 442.193 300.933 441.523 300.933Z" fill="white"/>
<path d="M441.523 307.854H216.37C215.701 307.854 215.159 307.31 215.159 306.639C215.159 305.968 215.701 305.425 216.37 305.425H441.523C442.192 305.425 442.734 305.968 442.734 306.639C442.734 307.31 442.192 307.854 441.523 307.854Z" fill="white"/>
<path d="M441.523 314.775H216.37C215.701 314.775 215.159 314.232 215.159 313.561C215.159 312.89 215.701 312.347 216.37 312.347H441.523C442.192 312.347 442.734 312.89 442.734 313.561C442.734 314.232 442.192 314.775 441.523 314.775Z" fill="white"/>
<path d="M441.523 321.694H216.37C215.701 321.694 215.159 321.151 215.159 320.48C215.159 319.809 215.701 319.266 216.37 319.266H441.523C442.192 319.266 442.734 319.809 442.734 320.48C442.734 321.151 442.192 321.694 441.523 321.694Z" fill="white"/>
<path d="M441.523 328.617H216.37C215.701 328.617 215.159 328.074 215.159 327.403C215.159 326.732 215.701 326.188 216.37 326.188H441.523C442.193 326.188 442.735 326.732 442.735 327.403C442.735 328.074 442.193 328.617 441.523 328.617Z" fill="white"/>
<path d="M441.523 335.538H216.37C215.701 335.538 215.159 334.995 215.159 334.324C215.159 333.653 215.701 333.109 216.37 333.109H441.523C442.193 333.109 442.735 333.653 442.735 334.324C442.735 334.995 442.193 335.538 441.523 335.538Z" fill="white"/>
<path d="M377.21 342.46H216.37C215.701 342.46 215.159 341.917 215.159 341.246C215.159 340.575 215.701 340.031 216.37 340.031H377.21C377.879 340.031 378.421 340.575 378.421 341.246C378.421 341.917 377.879 342.46 377.21 342.46Z" fill="white"/>
<path d="M276.233 262.93H217.432C216.176 262.93 215.159 263.95 215.159 265.208V275.758C215.159 277.017 216.176 278.037 217.432 278.037H276.233C277.488 278.037 278.506 277.017 278.506 275.758V265.208C278.506 263.95 277.488 262.93 276.233 262.93Z" fill="black"/>
<path d="M225.964 270.476L230 268.367V269.267C230 269.335 229.982 269.399 229.95 269.454C229.918 269.509 229.859 269.559 229.781 269.6L227.932 270.549C227.855 270.591 227.773 270.627 227.686 270.654C227.6 270.682 227.508 270.709 227.408 270.732C227.508 270.755 227.6 270.782 227.686 270.81C227.773 270.837 227.855 270.874 227.932 270.915L229.781 271.869C229.859 271.91 229.914 271.96 229.95 272.015C229.982 272.07 230 272.134 230 272.202V273.101L225.964 270.988V270.476Z" fill="#F9F9F9"/>
<path d="M262.796 273.101V272.202C262.796 272.134 262.815 272.07 262.846 272.015C262.878 271.96 262.937 271.91 263.015 271.869L264.864 270.915C265.015 270.842 265.188 270.778 265.388 270.732C265.288 270.709 265.197 270.682 265.11 270.654C265.024 270.627 264.942 270.591 264.864 270.549L263.015 269.6C262.937 269.559 262.883 269.509 262.846 269.454C262.815 269.399 262.796 269.335 262.796 269.267V268.367L266.832 270.476V270.988L262.796 273.101Z" fill="#F9F9F9"/>
<path d="M233.593 274.047V267.053H236.003C236.458 267.053 236.85 267.098 237.173 267.185C237.497 267.272 237.761 267.395 237.971 267.559C238.18 267.719 238.33 267.916 238.426 268.144C238.522 268.372 238.572 268.632 238.572 268.92C238.572 269.084 238.549 269.24 238.499 269.39C238.449 269.541 238.376 269.682 238.276 269.81C238.176 269.938 238.043 270.061 237.889 270.166C237.734 270.271 237.547 270.363 237.333 270.436C238.289 270.65 238.772 271.171 238.772 271.992C238.772 272.289 238.718 272.563 238.604 272.814C238.49 273.065 238.326 273.284 238.112 273.467C237.898 273.65 237.629 273.791 237.315 273.896C237 274.001 236.641 274.051 236.235 274.051H233.602L233.593 274.047ZM234.891 270.08H235.93C236.372 270.08 236.704 269.997 236.932 269.838C237.16 269.678 237.274 269.422 237.274 269.071C237.274 268.719 237.169 268.445 236.964 268.29C236.759 268.135 236.436 268.057 235.998 268.057H234.887V270.08H234.891ZM234.891 270.979V273.029H236.208C236.449 273.029 236.65 273.001 236.814 272.942C236.978 272.883 237.105 272.805 237.205 272.709C237.306 272.613 237.374 272.499 237.419 272.371C237.465 272.244 237.483 272.107 237.483 271.961C237.483 271.814 237.46 271.673 237.41 271.55C237.36 271.431 237.287 271.326 237.183 271.239C237.078 271.152 236.946 271.089 236.786 271.043C236.627 270.997 236.431 270.974 236.203 270.974H234.891V270.979Z" fill="#F9F9F9"/>
<path d="M246.574 270.549C246.574 271.061 246.487 271.535 246.319 271.974C246.15 272.412 245.909 272.791 245.599 273.106C245.289 273.425 244.921 273.672 244.483 273.855C244.051 274.033 243.568 274.124 243.039 274.124C242.511 274.124 242.028 274.033 241.595 273.855C241.158 273.677 240.785 273.425 240.475 273.106C240.165 272.786 239.924 272.407 239.755 271.974C239.587 271.535 239.5 271.061 239.5 270.549C239.5 270.038 239.587 269.563 239.755 269.125C239.924 268.687 240.165 268.308 240.475 267.993C240.785 267.673 241.158 267.427 241.595 267.244C242.033 267.066 242.511 266.975 243.039 266.975C243.568 266.975 244.046 267.066 244.483 267.244C244.916 267.427 245.289 267.673 245.599 267.993C245.909 268.312 246.146 268.687 246.319 269.125C246.487 269.563 246.574 270.038 246.574 270.549ZM245.244 270.549C245.244 270.166 245.194 269.823 245.094 269.518C244.993 269.212 244.848 268.956 244.656 268.741C244.465 268.527 244.237 268.367 243.964 268.253C243.691 268.139 243.385 268.084 243.044 268.084C242.702 268.084 242.397 268.139 242.124 268.253C241.85 268.367 241.618 268.527 241.427 268.741C241.235 268.956 241.09 269.212 240.985 269.518C240.88 269.823 240.83 270.166 240.83 270.549C240.83 270.933 240.88 271.275 240.985 271.581C241.09 271.887 241.235 272.143 241.427 272.357C241.618 272.567 241.85 272.732 242.124 272.841C242.397 272.955 242.702 273.01 243.044 273.01C243.385 273.01 243.691 272.955 243.964 272.841C244.237 272.727 244.465 272.567 244.656 272.357C244.848 272.147 244.993 271.887 245.094 271.581C245.194 271.275 245.244 270.933 245.244 270.549Z" fill="#F9F9F9"/>
<path d="M253.795 270.55C253.795 271.061 253.708 271.531 253.54 271.961C253.371 272.39 253.13 272.759 252.82 273.07C252.51 273.38 252.141 273.618 251.704 273.791C251.271 273.96 250.788 274.047 250.26 274.047H247.595V267.053H250.26C250.788 267.053 251.267 267.139 251.704 267.313C252.137 267.486 252.51 267.724 252.82 268.034C253.13 268.34 253.366 268.71 253.54 269.139C253.708 269.568 253.795 270.038 253.795 270.55ZM252.469 270.55C252.469 270.166 252.419 269.824 252.314 269.518C252.209 269.212 252.064 268.957 251.877 268.742C251.686 268.532 251.458 268.368 251.185 268.258C250.911 268.144 250.606 268.089 250.264 268.089H248.907V273.015H250.264C250.606 273.015 250.911 272.96 251.185 272.846C251.458 272.732 251.686 272.572 251.877 272.362C252.068 272.152 252.214 271.892 252.314 271.586C252.419 271.28 252.469 270.938 252.469 270.554V270.55Z" fill="#F9F9F9"/>
<path d="M257.53 271.33V274.047H256.232V271.33L253.69 267.053H254.833C254.947 267.053 255.034 267.08 255.102 267.135C255.166 267.19 255.225 267.258 255.27 267.345L256.55 269.682C256.623 269.819 256.687 269.952 256.742 270.075C256.796 270.198 256.847 270.322 256.892 270.44C256.933 270.317 256.983 270.194 257.033 270.07C257.088 269.947 257.152 269.815 257.225 269.682L258.495 267.345C258.532 267.272 258.582 267.208 258.655 267.149C258.728 267.089 258.814 267.057 258.924 267.057H260.072L257.534 271.335L257.53 271.33Z" fill="#F9F9F9"/>
<path opacity="0.6" d="M657.529 148.271H505.408C502.195 148.271 499.591 150.881 499.591 154.101V225.033C499.591 228.253 502.195 230.863 505.408 230.863H657.529C660.741 230.863 663.345 228.253 663.345 225.033V154.101C663.345 150.881 660.741 148.271 657.529 148.271Z" fill="#BDA76A"/>
<path d="M582.744 172.65C573.424 172.65 565.867 180.224 565.867 189.565C565.867 198.906 573.424 206.484 582.744 206.484C592.063 206.484 599.62 198.91 599.62 189.565C599.62 180.22 592.068 172.65 582.744 172.65ZM578.635 196.217V182.923L590.123 189.565L578.635 196.212V196.217Z" fill="white"/>
<path opacity="0.6" d="M522.156 358.46H506.455C502.665 358.46 499.591 355.379 499.591 351.58V250.247C499.591 246.444 502.665 243.362 506.455 243.362H656.476C660.266 243.362 663.341 246.444 663.341 250.247V351.58C663.341 355.379 660.266 358.46 656.476 358.46H522.152" fill="#BDA76A"/>
<path d="M663.341 250.247V260.72H499.591V250.247C499.591 246.444 502.665 243.362 506.455 243.362H656.476C660.266 243.362 663.341 246.444 663.341 250.247Z" fill="#BDA76A"/>
<path d="M632.339 252.042C632.339 254.265 630.545 256.064 628.326 256.064C626.108 256.064 624.313 254.265 624.313 252.042C624.313 249.818 626.108 248.02 628.326 248.02C630.545 248.02 632.339 249.818 632.339 252.042Z" fill="#F9F9F9"/>
<path d="M643.476 252.042C643.476 254.265 641.682 256.064 639.463 256.064C637.245 256.064 635.45 254.265 635.45 252.042C635.45 249.818 637.245 248.02 639.463 248.02C641.682 248.02 643.476 249.818 643.476 252.042Z" fill="#F9F9F9"/>
<path d="M654.613 252.042C654.613 254.265 652.818 256.064 650.6 256.064C648.381 256.064 646.587 254.265 646.587 252.042C646.587 249.818 648.381 248.02 650.6 248.02C652.818 248.02 654.613 249.818 654.613 252.042Z" fill="#F9F9F9"/>
<path d="M644.73 291.811H519.137C518.468 291.811 517.926 292.354 517.926 293.025C517.926 293.696 518.468 294.239 519.137 294.239H644.73C645.399 294.239 645.941 293.696 645.941 293.025C645.941 292.354 645.399 291.811 644.73 291.811Z" fill="white"/>
<path d="M644.73 298.731H519.138C518.468 298.731 517.926 299.275 517.926 299.946C517.926 300.617 518.468 301.16 519.138 301.16H644.73C645.4 301.16 645.942 300.617 645.942 299.946C645.942 299.275 645.4 298.731 644.73 298.731Z" fill="white"/>
<path d="M644.73 305.652H519.137C518.468 305.652 517.926 306.196 517.926 306.867C517.926 307.538 518.468 308.081 519.137 308.081H644.73C645.399 308.081 645.941 307.538 645.941 306.867C645.941 306.196 645.399 305.652 644.73 305.652Z" fill="white"/>
<path d="M644.73 312.574H519.137C518.468 312.574 517.926 313.118 517.926 313.789C517.926 314.46 518.468 315.003 519.137 315.003H644.73C645.399 315.003 645.941 314.46 645.941 313.789C645.941 313.118 645.399 312.574 644.73 312.574Z" fill="white"/>
<path d="M644.73 319.495H519.137C518.468 319.495 517.926 320.038 517.926 320.709C517.926 321.381 518.468 321.924 519.137 321.924H644.73C645.399 321.924 645.941 321.381 645.941 320.709C645.941 320.038 645.399 319.495 644.73 319.495Z" fill="white"/>
<path d="M644.73 326.416H519.138C518.468 326.416 517.926 326.959 517.926 327.63C517.926 328.302 518.468 328.845 519.138 328.845H644.73C645.4 328.845 645.942 328.302 645.942 327.63C645.942 326.959 645.4 326.416 644.73 326.416Z" fill="white"/>
<path d="M644.73 333.337H519.138C518.468 333.337 517.926 333.88 517.926 334.551C517.926 335.222 518.468 335.766 519.138 335.766H644.73C645.4 335.766 645.942 335.222 645.942 334.551C645.942 333.88 645.4 333.337 644.73 333.337Z" fill="white"/>
<path d="M602.905 340.258H519.138C518.468 340.258 517.926 340.801 517.926 341.472C517.926 342.143 518.468 342.687 519.138 342.687H602.905C603.575 342.687 604.117 342.143 604.117 341.472C604.117 340.801 603.575 340.258 602.905 340.258Z" fill="white"/>
<path d="M578.071 270.144H519.269C518.014 270.144 516.996 271.164 516.996 272.422V282.972C516.996 284.23 518.014 285.25 519.269 285.25H578.071C579.326 285.25 580.344 284.23 580.344 282.972V272.422C580.344 271.164 579.326 270.144 578.071 270.144Z" fill="black"/>
<path d="M527.8 277.69L531.835 275.581V276.48C531.835 276.549 531.817 276.613 531.785 276.668C531.753 276.722 531.694 276.773 531.617 276.814L529.767 277.763C529.69 277.804 529.608 277.841 529.521 277.868C529.435 277.896 529.344 277.923 529.244 277.946C529.344 277.969 529.435 277.996 529.521 278.024C529.608 278.051 529.69 278.087 529.767 278.129L531.617 279.083C531.694 279.124 531.749 279.174 531.785 279.229C531.817 279.284 531.835 279.348 531.835 279.416V280.315L527.8 278.202V277.69Z" fill="#F9F9F9"/>
<path d="M564.628 280.315V279.416C564.628 279.348 564.646 279.284 564.678 279.229C564.71 279.174 564.769 279.124 564.847 279.083L566.696 278.129C566.847 278.055 567.02 277.992 567.22 277.946C567.12 277.923 567.029 277.896 566.942 277.868C566.856 277.841 566.774 277.804 566.696 277.763L564.847 276.814C564.769 276.773 564.715 276.722 564.678 276.668C564.646 276.613 564.628 276.549 564.628 276.48V275.581L568.664 277.69V278.202L564.628 280.315Z" fill="#F9F9F9"/>
<path d="M535.428 281.266V274.271H537.837C538.293 274.271 538.685 274.317 539.008 274.404C539.331 274.491 539.596 274.614 539.805 274.778C540.015 274.938 540.165 275.134 540.261 275.363C540.356 275.591 540.406 275.851 540.406 276.139C540.406 276.303 540.384 276.458 540.333 276.609C540.283 276.76 540.21 276.901 540.11 277.029C540.01 277.157 539.878 277.28 539.723 277.385C539.568 277.49 539.381 277.581 539.167 277.654C540.124 277.869 540.607 278.389 540.607 279.211C540.607 279.508 540.552 279.782 540.438 280.033C540.324 280.284 540.16 280.503 539.946 280.686C539.732 280.868 539.463 281.01 539.149 281.115C538.835 281.22 538.475 281.27 538.07 281.27H535.437L535.428 281.266ZM536.726 277.298H537.764C538.206 277.298 538.539 277.216 538.766 277.056C538.994 276.897 539.108 276.641 539.108 276.289C539.108 275.938 539.003 275.664 538.798 275.509C538.593 275.353 538.27 275.276 537.833 275.276H536.721V277.298H536.726ZM536.726 278.198V280.248H538.042C538.284 280.248 538.484 280.22 538.648 280.161C538.812 280.101 538.94 280.024 539.04 279.928C539.14 279.832 539.208 279.718 539.254 279.59C539.299 279.462 539.318 279.325 539.318 279.179C539.318 279.033 539.295 278.892 539.245 278.768C539.195 278.65 539.122 278.545 539.017 278.458C538.912 278.371 538.78 278.307 538.621 278.262C538.461 278.216 538.265 278.193 538.038 278.193H536.726V278.198Z" fill="#F9F9F9"/>
<path d="M548.411 277.768C548.411 278.279 548.325 278.754 548.156 279.192C547.988 279.631 547.746 280.01 547.436 280.325C547.127 280.644 546.758 280.891 546.32 281.073C545.888 281.251 545.405 281.343 544.877 281.343C544.348 281.343 543.865 281.251 543.433 281.073C542.995 280.895 542.622 280.644 542.312 280.325C542.002 280.005 541.761 279.626 541.592 279.192C541.424 278.754 541.337 278.279 541.337 277.768C541.337 277.257 541.424 276.782 541.592 276.344C541.761 275.905 542.002 275.526 542.312 275.211C542.622 274.892 542.995 274.645 543.433 274.463C543.87 274.28 544.348 274.193 544.877 274.193C545.405 274.193 545.883 274.285 546.32 274.463C546.753 274.645 547.127 274.892 547.436 275.211C547.746 275.531 547.983 275.905 548.156 276.344C548.325 276.782 548.411 277.257 548.411 277.768ZM547.081 277.768C547.081 277.385 547.031 277.042 546.931 276.736C546.831 276.43 546.685 276.175 546.494 275.96C546.302 275.746 546.074 275.586 545.801 275.472C545.528 275.358 545.223 275.303 544.881 275.303C544.539 275.303 544.234 275.358 543.961 275.472C543.688 275.586 543.455 275.746 543.264 275.96C543.073 276.175 542.927 276.43 542.822 276.736C542.717 277.042 542.667 277.385 542.667 277.768C542.667 278.152 542.717 278.494 542.822 278.8C542.927 279.106 543.073 279.361 543.264 279.576C543.455 279.786 543.688 279.95 543.961 280.06C544.234 280.174 544.539 280.229 544.881 280.229C545.223 280.229 545.528 280.174 545.801 280.06C546.074 279.946 546.302 279.786 546.494 279.576C546.685 279.366 546.831 279.106 546.931 278.8C547.031 278.494 547.081 278.152 547.081 277.768Z" fill="#F9F9F9"/>
<path d="M555.632 277.769C555.632 278.28 555.545 278.75 555.377 279.179C555.208 279.608 554.967 279.978 554.657 280.289C554.347 280.599 553.978 280.837 553.541 281.01C553.108 281.179 552.626 281.266 552.097 281.266H549.432V274.271H552.097C552.626 274.271 553.104 274.358 553.541 274.532C553.974 274.705 554.347 274.943 554.657 275.253C554.967 275.559 555.204 275.929 555.377 276.358C555.545 276.787 555.632 277.257 555.632 277.769ZM554.306 277.769C554.306 277.385 554.256 277.043 554.151 276.737C554.047 276.431 553.901 276.175 553.714 275.961C553.523 275.751 553.295 275.586 553.022 275.477C552.749 275.363 552.443 275.308 552.102 275.308H550.744V280.234H552.102C552.443 280.234 552.749 280.179 553.022 280.065C553.295 279.951 553.523 279.791 553.714 279.581C553.905 279.371 554.051 279.111 554.151 278.805C554.256 278.499 554.306 278.157 554.306 277.773V277.769Z" fill="#F9F9F9"/>
<path d="M559.368 278.544V281.261H558.069V278.544L555.528 274.267H556.671C556.785 274.267 556.871 274.294 556.94 274.349C557.003 274.404 557.063 274.472 557.108 274.559L558.388 276.896C558.461 277.033 558.525 277.166 558.58 277.289C558.634 277.412 558.684 277.535 558.73 277.654C558.771 277.531 558.821 277.408 558.871 277.284C558.921 277.161 558.989 277.029 559.062 276.896L560.333 274.559C560.37 274.486 560.42 274.422 560.493 274.362C560.566 274.303 560.652 274.271 560.761 274.271H561.909L559.372 278.549L559.368 278.544Z" fill="#F9F9F9"/>
<path d="M633.929 27.2466V24.8863L643.768 21.2568V23.6445L637.008 26.0642L643.768 28.4838V30.8761L633.929 27.2466Z" fill="black"/>
<path d="M653.461 15.4814H656.326L648 36.6557H645.135L653.461 15.4814Z" fill="black"/>
<path d="M657.692 30.881V28.4887L664.452 26.0691L657.692 23.6494V21.2617L667.531 24.8912V27.2515L657.692 30.881Z" fill="black"/>
<path d="M148.86 98.0181C148.86 80.4231 134.58 66.1152 117.029 66.1152C99.4783 66.1152 85.1981 80.4277 85.1981 98.0181C85.1981 115.609 98.7176 129.14 115.617 129.885L117.029 171.881L118.441 129.885C135.34 129.14 148.86 115.134 148.86 98.0181ZM117.029 125.972C101.646 125.972 89.1337 113.431 89.1337 98.0181C89.1337 82.6054 101.646 70.0597 117.029 70.0597C132.411 70.0597 144.924 82.6008 144.924 98.0181C144.924 113.435 132.411 125.972 117.029 125.972Z" fill="#BDA76A"/>
<path d="M111.262 85.5459V106.843C111.262 108.816 112.128 109.523 113.503 109.523C114.879 109.523 115.745 108.816 115.745 106.843V85.5459H119.835V106.569C119.835 110.989 117.63 113.513 113.38 113.513C109.131 113.513 106.926 110.989 106.926 106.569V85.5459H111.253H111.262Z" fill="black"/>
<path d="M122.8 85.5459H127.127V113.157H122.8V85.5459Z" fill="black"/>
<path d="M794.062 63.0206C794.062 40.011 775.387 21.293 752.434 21.293C729.481 21.293 710.805 40.011 710.805 63.0206C710.805 86.0301 728.474 103.712 750.561 104.698L752.434 188.29L754.306 104.698C776.393 103.712 794.062 85.3955 794.062 63.0206ZM752.434 100.913C731.585 100.913 714.622 83.9163 714.622 63.0206C714.622 42.1248 731.58 25.1233 752.434 25.1233C773.287 25.1233 790.245 42.1248 790.245 63.0206C790.245 83.9163 773.287 100.913 752.434 100.913Z" fill="#BDA76A"/>
<path d="M748.946 78.4747H744.053L743.22 72.8684H737.271L736.433 78.4747H731.983L736.916 47.5625H744.008L748.941 78.4747H748.946ZM737.886 68.6728H742.555L740.218 53.041L737.886 68.6728Z" fill="black"/>
<path d="M765.562 55.205V59.2225C765.562 64.1668 763.179 66.8604 758.337 66.8604H756.046V78.4747H751.199V47.5625H758.337C763.184 47.5625 765.562 50.2561 765.562 55.205ZM756.046 51.9818V62.4502H758.337C759.877 62.4502 760.715 61.7426 760.715 59.5375V54.8991C760.715 52.6894 759.877 51.9818 758.337 51.9818H756.046Z" fill="black"/>
<path d="M768.04 47.5625H772.886V78.4747H768.04V47.5625Z" fill="black"/>
<path d="M676.741 26.0683C676.741 11.6919 665.075 0 650.731 0C636.387 0 624.722 11.6965 624.722 26.0683C624.722 40.4402 635.65 51.3788 649.351 52.1001L650.731 89.5728L652.112 52.1001C665.813 51.3788 676.741 39.9791 676.741 26.0683ZM650.731 48.8633C638.191 48.8633 627.983 38.6368 627.983 26.0683C627.983 13.4998 638.187 3.26881 650.731 3.26881C663.276 3.26881 673.475 13.4953 673.475 26.0683C673.475 38.6414 663.271 48.8633 650.731 48.8633Z" fill="#BDA76A"/>
<path d="M212.718 6.94336C192.63 6.94336 176.291 23.324 176.291 43.4573C176.291 63.5906 191.756 79.0673 211.092 79.9256L212.718 138.677L214.344 79.9256C233.676 79.0673 249.145 63.0428 249.145 43.4573C249.145 23.8718 232.801 6.94336 212.718 6.94336ZM212.718 75.4515C195.113 75.4515 180.791 61.1025 180.791 43.4573C180.791 25.8121 195.113 11.4585 212.718 11.4585C230.323 11.4585 244.64 25.8121 244.64 43.4573C244.64 61.1025 230.319 75.4515 212.718 75.4515Z" fill="#BDA76A"/>
<path d="M204.651 47.7537L204.892 52.5839C205.038 55.2409 205.757 56.0125 207.447 56.0125H208.217V60.3587H205.516C202.532 60.3587 200.41 58.6695 200.168 54.999L199.781 48.5298C199.635 46.3111 199.157 45.6308 197.13 45.6308V41.2846C199.153 41.2846 199.635 40.6089 199.781 38.3856L200.168 31.9164C200.41 28.2458 202.528 26.5566 205.516 26.5566H208.217V30.9029H207.447C205.762 30.9029 205.038 31.6744 204.892 34.3315L204.651 39.1617C204.555 40.9467 203.976 42.8322 201.521 43.4577C203.976 44.0831 204.555 45.9687 204.651 47.7583V47.7537Z" fill="black"/>
<path d="M220.79 39.1568L220.548 34.3266C220.402 31.6696 219.683 30.898 217.993 30.898H217.223V26.5518H219.924C222.912 26.5518 225.03 28.241 225.272 31.9115L225.659 38.3807C225.805 40.604 226.283 41.2797 228.31 41.2797V45.6259C226.288 45.6259 225.805 46.3016 225.659 48.5249L225.272 54.9941C225.03 58.6647 222.912 60.3539 219.924 60.3539H217.223V56.0076H217.993C219.678 56.0076 220.402 55.2361 220.548 52.579L220.79 47.7488C220.885 45.9592 221.464 44.0783 223.924 43.4482C221.468 42.8228 220.89 40.9373 220.79 39.1522V39.1568Z" fill="black"/>
<g opacity="0.5">
<path style="mix-blend-mode:multiply" opacity="0.55" d="M241.409 447.348C241.409 450.635 273.495 453.301 313.074 453.301C352.653 453.301 384.739 450.635 384.739 447.348C384.739 444.061 352.653 441.395 313.074 441.395C273.495 441.395 241.404 444.061 241.409 447.348Z" fill="url(#paint9_radial_603_118)"/>
</g>
<path d="M313.074 447.348C312.915 447.348 312.755 447.321 312.609 447.262C303.814 443.851 296.648 438.679 291.31 431.876C286.96 426.338 283.799 419.7 281.908 412.14C278.579 398.823 280.241 386.565 280.61 384.246C280.697 383.702 281.12 383.269 281.662 383.173C290.171 381.671 290.804 374.398 290.791 372.207C290.791 371.622 291.182 371.106 291.743 370.956L312.732 365.267C312.842 365.235 312.956 365.222 313.07 365.222C313.183 365.222 313.297 365.235 313.407 365.267L334.396 370.956C334.961 371.111 335.353 371.622 335.348 372.207C335.339 374.398 335.968 381.671 344.477 383.173C345.019 383.269 345.442 383.698 345.529 384.246C345.898 386.569 347.561 398.823 344.231 412.14C342.34 419.696 339.179 426.338 334.829 431.876C329.491 438.674 322.325 443.851 313.53 447.262C313.379 447.321 313.224 447.348 313.065 447.348H313.074Z" fill="#BDA76A"/>
<path d="M312.783 441.865C305.235 438.647 299.126 433.94 294.617 427.872C290.672 422.567 287.889 416.162 286.336 408.839C284.482 400.078 284.855 391.988 285.247 387.948C285.275 387.66 285.466 387.414 285.739 387.313C292.777 384.729 294.913 378.872 295.56 375.612C295.615 375.329 295.824 375.106 296.102 375.033L312.883 370.485C313.01 370.449 313.147 370.449 313.275 370.485L330.055 375.033C330.333 375.106 330.543 375.334 330.597 375.612C331.244 378.872 333.376 384.729 340.418 387.313C340.691 387.414 340.878 387.66 340.91 387.948C341.302 391.988 341.68 400.078 339.821 408.839C338.268 416.162 335.485 422.567 331.54 427.872C327.031 433.94 320.922 438.647 313.375 441.865C313.188 441.947 312.974 441.947 312.787 441.865H312.783Z" fill="#BDA76A"/>
<path d="M313.074 440.738C305.79 437.601 299.887 433.041 295.532 427.183C291.688 422.011 288.973 415.756 287.456 408.597C285.671 400.161 285.99 392.354 286.363 388.3C293.574 385.542 295.888 379.571 296.63 376.069L313.074 371.613L329.518 376.069C330.26 379.571 332.574 385.542 339.785 388.3C340.158 392.349 340.482 400.161 338.692 408.597C337.175 415.756 334.456 422.011 330.616 427.183C326.261 433.041 320.362 437.601 313.074 440.738Z" fill="url(#paint10_linear_603_118)"/>
<path d="M330.547 395.617L326.024 391.084L309.972 407.172L302.993 400.178L298.47 404.712L309.972 416.221L330.547 395.617Z" fill="#BDA76A"/>
<path d="M458.107 36.3957H420.715V28.1826H452.5L458.107 36.3957Z" fill="black"/>
<path d="M512.522 36.3955H420.715V91.034H512.522V36.3955Z" fill="black"/>
<path d="M477.381 55.1281C477.531 56.7625 477.663 61.0997 476.939 64.4963C476.328 67.3816 475.231 69.9017 473.682 71.9835C471.928 74.3438 469.55 76.1837 466.612 77.4437C463.679 76.1791 461.301 74.3438 459.543 71.9835C457.994 69.9017 456.901 67.3816 456.286 64.4963C455.566 61.0951 455.694 56.758 455.844 55.1281C462.408 50.9325 470.803 50.9325 477.367 55.1281H477.381Z" fill="url(#paint11_linear_603_118)"/>
<path d="M473.572 60.1959L471.773 58.3926L465.396 64.7887L462.622 62.0084L460.823 63.8117L465.396 68.3862L473.572 60.1959Z" fill="black"/>
<defs>
<radialGradient id="paint0_radial_603_118" cx="0" cy="0" r="1" gradientUnits="userSpaceOnUse" gradientTransform="translate(126.224 416.022) rotate(180) scale(118.783 15.2821)">
<stop/>
<stop offset="0.07" stop-color="#1F1F1F"/>
<stop offset="0.21" stop-color="#595959"/>
<stop offset="0.36" stop-color="#8C8C8C"/>
<stop offset="0.5" stop-color="#B5B5B5"/>
<stop offset="0.64" stop-color="#D5D5D5"/>
<stop offset="0.77" stop-color="#ECECEC"/>
<stop offset="0.89" stop-color="#FAFAFA"/>
<stop offset="1" stop-color="white"/>
</radialGradient>
<radialGradient id="paint1_radial_603_118" cx="0" cy="0" r="1" gradientUnits="userSpaceOnUse" gradientTransform="translate(770.877 410.526) rotate(180) scale(125.457 13.4863)">
<stop/>
<stop offset="0.07" stop-color="#1F1F1F"/>
<stop offset="0.21" stop-color="#595959"/>
<stop offset="0.36" stop-color="#8C8C8C"/>
<stop offset="0.5" stop-color="#B5B5B5"/>
<stop offset="0.64" stop-color="#D5D5D5"/>
<stop offset="0.77" stop-color="#ECECEC"/>
<stop offset="0.89" stop-color="#FAFAFA"/>
<stop offset="1" stop-color="white"/>
</radialGradient>
<linearGradient id="paint2_linear_603_118" x1="798.918" y1="437.802" x2="798.918" y2="199.914" gradientUnits="userSpaceOnUse">
<stop stop-color="#0D0D0D"/>
<stop offset="0.15" stop-color="#171717"/>
<stop offset="0.41" stop-color="#343434"/>
<stop offset="0.59" stop-color="#4D4D4D"/>
<stop offset="1" stop-color="#363636"/>
</linearGradient>
<linearGradient id="paint3_linear_603_118" x1="745.883" y1="252.015" x2="745.883" y2="236.955" gradientUnits="userSpaceOnUse">
<stop/>
<stop offset="0.22" stop-color="#929497"/>
<stop offset="0.82" stop-color="#808184"/>
<stop offset="0.84" stop-color="#737476"/>
<stop offset="0.92" stop-color="#353537"/>
<stop offset="0.97" stop-color="#0E0E0F"/>
<stop offset="1"/>
</linearGradient>
<linearGradient id="paint4_linear_603_118" x1="-123.231" y1="271.779" x2="-122.828" y2="256.718" gradientUnits="userSpaceOnUse">
<stop/>
<stop offset="0.22" stop-color="#929497"/>
<stop offset="0.82" stop-color="#808184"/>
<stop offset="0.84" stop-color="#737476"/>
<stop offset="0.92" stop-color="#353537"/>
<stop offset="0.97" stop-color="#0E0E0F"/>
<stop offset="1"/>
</linearGradient>
<linearGradient id="paint5_linear_603_118" x1="850.08" y1="279.655" x2="850.08" y2="256.987" gradientUnits="userSpaceOnUse">
<stop/>
<stop offset="0.22" stop-color="#929497"/>
<stop offset="0.82" stop-color="#808184"/>
<stop offset="0.84" stop-color="#737476"/>
<stop offset="0.92" stop-color="#353537"/>
<stop offset="0.97" stop-color="#0E0E0F"/>
<stop offset="1"/>
</linearGradient>
<radialGradient id="paint6_radial_603_118" cx="0" cy="0" r="1" gradientUnits="userSpaceOnUse" gradientTransform="translate(458.307 478.36) rotate(-180) scale(424.203 22.913)">
<stop/>
<stop offset="0.07" stop-color="#1F1F1F"/>
<stop offset="0.21" stop-color="#595959"/>
<stop offset="0.36" stop-color="#8C8C8C"/>
<stop offset="0.5" stop-color="#B5B5B5"/>
<stop offset="0.64" stop-color="#D5D5D5"/>
<stop offset="0.77" stop-color="#ECECEC"/>
<stop offset="0.89" stop-color="#FAFAFA"/>
<stop offset="1" stop-color="white"/>
</radialGradient>
<linearGradient id="paint7_linear_603_118" x1="113.065" y1="427.709" x2="841.384" y2="427.709" gradientUnits="userSpaceOnUse">
<stop stop-color="#D0D2D3"/>
<stop offset="0.19" stop-color="#DADCDD"/>
<stop offset="0.47" stop-color="#F3F3F5"/>
<stop offset="0.61" stop-color="#E7E8EA"/>
<stop offset="1" stop-color="#CBCCD0"/>
</linearGradient>
<linearGradient id="paint8_linear_603_118" x1="466.621" y1="447.837" x2="466.621" y2="478.717" gradientUnits="userSpaceOnUse">
<stop stop-color="#CBCCD0"/>
<stop offset="0.38" stop-color="#E7E8EA"/>
<stop offset="0.52" stop-color="#F3F3F5"/>
<stop offset="0.59" stop-color="#DCDCDF"/>
<stop offset="0.68" stop-color="#C2C2C6"/>
<stop offset="0.79" stop-color="#AFAFB4"/>
<stop offset="0.89" stop-color="#A3A4A9"/>
<stop offset="1" stop-color="#A0A1A6"/>
</linearGradient>
<radialGradient id="paint9_radial_603_118" cx="0" cy="0" r="1" gradientUnits="userSpaceOnUse" gradientTransform="translate(307.943 449.565) rotate(180) scale(67.0287 5.58802)">
<stop/>
<stop offset="0.07" stop-color="#1F1F1F"/>
<stop offset="0.21" stop-color="#595959"/>
<stop offset="0.36" stop-color="#8C8C8C"/>
<stop offset="0.5" stop-color="#B5B5B5"/>
<stop offset="0.64" stop-color="#D5D5D5"/>
<stop offset="0.77" stop-color="#ECECEC"/>
<stop offset="0.89" stop-color="#FAFAFA"/>
<stop offset="1" stop-color="white"/>
</radialGradient>
<linearGradient id="paint10_linear_603_118" x1="313.074" y1="369.271" x2="313.074" y2="469.924" gradientUnits="userSpaceOnUse">
<stop stop-color="#F2F2F2"/>
<stop offset="0.25" stop-color="#EEEEEF"/>
<stop offset="0.44" stop-color="#E5E5E5"/>
<stop offset="0.61" stop-color="#D4D5D6"/>
<stop offset="0.77" stop-color="#BDBEC0"/>
<stop offset="0.92" stop-color="#A0A1A4"/>
<stop offset="1" stop-color="#8E8F93"/>
</linearGradient>
<linearGradient id="paint11_linear_603_118" x1="466.622" y1="51.1197" x2="466.622" y2="88.2043" gradientUnits="userSpaceOnUse">
<stop stop-color="#F2F2F2"/>
<stop offset="0.25" stop-color="#EEEEEF"/>
<stop offset="0.44" stop-color="#E5E5E5"/>
<stop offset="0.61" stop-color="#D4D5D6"/>
<stop offset="0.77" stop-color="#BDBEC0"/>
<stop offset="0.92" stop-color="#A0A1A4"/>
<stop offset="1" stop-color="#8E8F93"/>
</linearGradient>
</defs>
</svg>
