<svg width="917" height="511" viewBox="0 0 917 511" fill="none" xmlns="http://www.w3.org/2000/svg">
<g filter="url(#filter0_d_617_3116)">
<path d="M158.581 275.626C156.281 270.983 157.93 268.194 161.21 262.647C161.642 261.916 162.098 261.145 162.567 260.328C166.175 254.059 164.612 251.051 162.253 246.499C161.706 245.454 161.105 244.294 160.494 242.952C158.581 238.756 158.682 238.231 159.228 235.318C159.547 233.629 159.98 231.315 160.262 227.229C160.777 219.741 161.478 209.492 155.912 203.603C152.919 200.439 148.369 198.864 142.579 198.969C126.942 199.197 125.489 206.095 123.808 214.085C123.38 216.112 122.938 218.212 122.25 220.394C120.232 226.767 122.952 229.849 125.352 232.565C127.548 235.058 129.625 237.409 128.896 242.486C127.844 249.813 129.137 252.749 130.636 256.15C131.574 258.282 132.64 260.697 133.264 264.751L133.424 265.783C134.128 270.358 133.78 274.132 132.381 277.105C131.729 278.489 130.896 280.265 129.843 282.721C125.967 291.783 126.564 294.353 128.158 301.22C128.627 303.256 129.197 305.698 129.761 308.848C132.039 321.549 129.912 326.411 129.866 326.516C129.679 326.905 129.702 327.366 129.93 327.731C130.158 328.096 130.563 328.324 130.996 328.324H139.359C139.682 328.324 139.992 328.201 140.224 327.977C140.657 327.567 150.751 317.819 148.209 310.122C146.597 305.246 149.257 301.964 154.081 296.015C155.416 294.367 156.896 292.545 158.458 290.464C163.606 283.606 163.606 281.835 160.909 278.877C160.166 278.064 159.328 277.142 158.577 275.626H158.581Z" fill="#F9F9F9"/>
<path d="M126.577 285.396C124.286 281.475 124.723 277.247 125.192 272.764C125.735 267.546 126.295 262.149 122.892 256.52C121.53 254.265 120.455 252.571 119.585 251.201C116.551 246.431 116.16 245.814 114.78 239.108C113.445 232.643 108.343 232.013 104.239 231.506C101.866 231.21 99.6294 230.936 98.067 229.758C94.6735 227.206 88.1324 227.493 83.7732 230.374C79.8832 232.949 78.3846 237.008 79.5507 241.81C82.3566 253.375 92.0589 271.326 102.258 273.535C104.066 273.928 105.182 274.453 105.578 275.092C106.066 275.882 105.697 277.352 105.228 279.215C104.499 282.118 103.501 286.09 104.727 291.24C105.738 295.49 105.451 297.307 105.246 298.64C104.827 301.325 104.95 302.379 110.466 308.671C119.102 318.523 123.029 327.484 123.07 327.571C123.27 328.032 123.721 328.329 124.222 328.329H131.478C131.816 328.329 132.139 328.192 132.38 327.95C132.617 327.708 132.745 327.379 132.736 327.042C132.704 325.718 131.902 294.481 126.591 285.401L126.577 285.396Z" fill="#F9F9F9"/>
<path d="M172.142 330.698C171.855 329.337 171.559 328.091 171.263 326.95C170.967 325.808 170.676 324.781 170.398 323.863C170.393 323.845 170.389 323.827 170.38 323.809C169.633 321.366 167.373 319.709 164.827 319.709H98.7238C96.1639 319.709 93.9091 321.385 93.1621 323.841C92.8797 324.763 92.5836 325.799 92.2875 326.95C91.9914 328.086 91.6953 329.337 91.4084 330.698C89.3085 340.335 87.6094 355.369 90.1011 374.845C91.791 387.788 97.5395 404.657 102.199 411.921C103.265 413.587 105.11 414.582 107.082 414.582H156.45C158.423 414.582 160.263 413.587 161.333 411.925C166.002 404.657 171.746 387.793 173.409 374.845C175.941 355.369 174.238 340.335 172.142 330.698Z" fill="#F9F9F9"/>
<g opacity="0.5">
<path d="M4.03223 414.478C4.03223 423.49 60.9341 430.794 131.128 430.794C201.317 430.794 258.219 423.49 258.219 414.478C258.219 405.466 201.317 398.161 131.128 398.161C60.9341 398.161 4.03223 405.466 4.03223 414.478Z" fill="url(#paint0_radial_617_3116)"/>
</g>
<g opacity="0.5">
<path d="M644.746 414.822C644.746 422.869 704.795 429.39 778.875 429.39C852.951 429.39 913 422.869 913 414.822C913 406.774 852.951 400.253 778.875 400.253C704.799 400.253 644.746 406.774 644.746 414.822Z" fill="url(#paint1_radial_617_3116)"/>
</g>
<path d="M855.073 220.262V401.389C855.073 408.972 848.933 415.126 841.367 415.126H764.473C756.907 415.126 750.767 408.972 750.767 401.389V220.267C750.767 212.683 756.907 206.529 764.473 206.529H841.367C848.933 206.529 855.073 212.683 855.073 220.267V220.262Z" fill="url(#paint2_linear_617_3116)"/>
<path d="M852.531 220.279V401.37C852.531 407.519 847.553 412.509 841.417 412.509H764.427C758.292 412.509 753.313 407.519 753.313 401.37V220.279C753.313 214.13 758.292 209.14 764.427 209.14H841.417C847.553 209.14 852.531 214.13 852.531 220.279Z" fill="#F9F9F9"/>
<path d="M847.135 220.472H758.712V394.349H847.135V220.472Z" fill="black"/>
<path d="M750.855 236.313H750.682C750.297 236.313 749.985 236.626 749.985 237.012V250.631C749.985 251.016 750.297 251.329 750.682 251.329H750.855C751.24 251.329 751.552 251.016 751.552 250.631V237.012C751.552 236.626 751.24 236.313 750.855 236.313Z" fill="url(#paint3_linear_617_3116)"/>
<path d="M750.855 256.018H750.682C750.297 256.018 749.985 256.33 749.985 256.716V270.335C749.985 270.72 750.297 271.033 750.682 271.033H750.855C751.24 271.033 751.552 270.72 751.552 270.335V256.716C751.552 256.33 751.24 256.018 750.855 256.018Z" fill="url(#paint4_linear_617_3116)"/>
<path d="M855.074 278.89C854.641 278.89 854.29 278.539 854.29 278.105V257.072C854.29 256.639 854.641 256.287 855.074 256.287C855.507 256.287 855.858 256.639 855.858 257.072V278.105C855.858 278.539 855.507 278.89 855.074 278.89Z" fill="url(#paint5_linear_617_3116)"/>
<path d="M809.528 403.913C809.528 407.57 806.567 410.538 802.918 410.538C799.27 410.538 796.309 407.57 796.309 403.913C796.309 400.257 799.27 397.289 802.918 397.289C806.567 397.289 809.528 400.257 809.528 403.913Z" fill="black"/>
<path d="M809.163 216.432H796.682C795.962 216.432 795.379 215.843 795.379 215.126C795.379 214.405 795.967 213.82 796.682 213.82H809.163C809.882 213.82 810.466 214.409 810.466 215.126C810.466 215.847 809.878 216.432 809.163 216.432Z" fill="black"/>
<path d="M838.207 286.488H767.622C766.432 286.488 765.467 287.455 765.467 288.648V310.078C765.467 311.27 766.432 312.237 767.622 312.237H838.207C839.397 312.237 840.361 311.27 840.361 310.078V288.648C840.361 287.455 839.397 286.488 838.207 286.488Z" fill="#D8D8D8"/>
<path d="M797.252 320.043H768.792C766.96 320.043 765.476 321.531 765.476 323.367V380.721C765.476 382.557 766.96 384.045 768.792 384.045H797.252C799.083 384.045 800.568 382.557 800.568 380.721V323.367C800.568 321.531 799.083 320.043 797.252 320.043Z" fill="#D8D8D8"/>
<path d="M808.968 320.043H837.423C839.254 320.043 840.739 321.531 840.739 323.367V380.717C840.739 382.552 839.254 384.041 837.423 384.041H808.968C807.137 384.041 805.652 382.552 805.652 380.717V323.367C805.652 321.531 807.137 320.043 808.968 320.043Z" fill="#D8D8D8"/>
<path d="M840.369 234.1V276.553C840.369 278.63 838.684 280.301 836.63 280.301H769.192C767.137 280.301 765.475 278.63 765.475 276.553V234.1C765.475 232.023 767.142 230.352 769.192 230.352H836.63C838.684 230.352 840.369 232.023 840.369 234.1Z" fill="#D8D8D8"/>
<path d="M840.369 264.09V276.553C840.369 278.63 838.684 280.301 836.63 280.301H769.192C767.137 280.301 765.475 278.63 765.475 276.553V264.09L789.025 247.202L810.543 263.916L824.7 253.123L840.369 264.09Z" fill="#B5B5B5"/>
<path d="M817.718 244.102C817.718 247.672 814.83 250.567 811.268 250.567C807.706 250.567 804.818 247.672 804.818 244.102C804.818 240.532 807.706 237.638 811.268 237.638C814.83 237.638 817.718 240.532 817.718 244.102Z" fill="#B5B5B5"/>
<path d="M853.084 201.877C853.954 202.365 855.061 202.05 855.548 201.178L857.225 198.17C857.712 197.293 857.398 196.188 856.528 195.7C855.653 195.211 854.551 195.526 854.063 196.398L852.387 199.407C851.9 200.279 852.214 201.388 853.084 201.877Z" fill="#F9F9F9"/>
<path d="M860.175 212.596C860.599 212.834 861.086 212.888 861.551 212.761L864.858 211.82C865.322 211.688 865.71 211.382 865.946 210.962C866.183 210.537 866.238 210.049 866.106 209.579C865.842 208.647 864.799 208.063 863.869 208.328L860.558 209.268C859.597 209.542 859.036 210.546 859.31 211.51C859.442 211.975 859.747 212.363 860.171 212.601L860.175 212.596Z" fill="#F9F9F9"/>
<path d="M839.418 200.379C839.555 200.863 839.873 201.242 840.279 201.471C840.684 201.699 841.176 201.772 841.655 201.635C842.616 201.361 843.176 200.357 842.903 199.393L841.964 196.074C841.691 195.111 840.689 194.549 839.728 194.823C838.767 195.097 838.206 196.102 838.48 197.065L839.418 200.384V200.379Z" fill="#F9F9F9"/>
<g opacity="0.5">
<path d="M4 478.463C4 492.014 207.483 503 458.502 503C709.513 503 913 492.014 913 478.463C913 464.913 709.513 453.927 458.502 453.927C207.487 453.927 3.99658 464.913 4 478.463Z" fill="url(#paint6_radial_617_3116)"/>
</g>
<path d="M254.474 114.286H686.769C695.637 114.286 702.834 121.504 702.834 130.388V393.377H238.404V130.388C238.404 121.499 245.606 114.286 254.47 114.286H254.474Z" fill="#F9F9F9"/>
<path d="M684.227 374.727V132.936L257.011 132.936V374.727H684.227Z" fill="black"/>
<path d="M797.834 461.908L143.225 462.04L238.403 393.377H702.833L797.834 461.908Z" fill="url(#paint7_linear_617_3116)"/>
<path d="M415.091 435.072L400.515 453.265H540.724L526.153 435.072H415.091Z" fill="black"/>
<path d="M732.446 428.74L699.207 404.566H242.029L208.79 428.74H732.446Z" fill="black"/>
<path d="M144.734 461.506H796.509C797.83 461.506 798.905 462.583 798.905 463.907V469.664C798.905 474.449 795.029 478.334 790.255 478.334H150.983C146.209 478.334 142.333 474.449 142.333 469.664V463.907C142.333 462.583 143.408 461.506 144.729 461.506H144.734Z" fill="url(#paint8_linear_617_3116)"/>
<path d="M484.76 358.461C485.453 358.461 486.013 357.9 486.013 357.206V149.531C486.013 148.837 485.453 148.275 484.76 148.275C484.068 148.275 483.508 148.837 483.508 149.531V357.206C483.508 357.9 484.068 358.461 484.76 358.461Z" fill="#B5B5B5"/>
<path opacity="0.6" d="M465.19 157.086V349.649C465.19 354.516 461.25 358.46 456.399 358.46H208.79C203.934 358.46 199.994 354.516 199.994 349.649V157.086C199.994 152.219 203.934 148.274 208.79 148.274H456.399C461.255 148.274 465.19 152.223 465.19 157.086Z" fill="#BDA76A"/>
<path d="M465.191 157.086V165.627H199.99V157.086C199.99 152.219 203.93 148.274 208.786 148.274H456.395C461.251 148.274 465.186 152.223 465.186 157.086H465.191Z" fill="#BDA76A"/>
<path d="M431.884 160.144C433.451 158.574 433.451 156.028 431.884 154.457C430.316 152.887 427.775 152.887 426.207 154.457C424.64 156.028 424.64 158.574 426.207 160.144C427.775 161.715 430.316 161.715 431.884 160.144Z" fill="#F9F9F9"/>
<path d="M444.2 157.301C444.2 159.525 442.405 161.323 440.187 161.323C437.968 161.323 436.174 159.525 436.174 157.301C436.174 155.078 437.968 153.279 440.187 153.279C442.405 153.279 444.2 155.078 444.2 157.301Z" fill="#F9F9F9"/>
<path d="M454.164 160.144C455.731 158.573 455.731 156.026 454.164 154.456C452.597 152.885 450.056 152.885 448.489 154.456C446.922 156.026 446.922 158.573 448.489 160.144C450.056 161.715 452.597 161.715 454.164 160.144Z" fill="#F9F9F9"/>
<path d="M445.523 197.472H220.37C219.7 197.472 219.158 196.928 219.158 196.257C219.158 195.586 219.7 195.043 220.37 195.043H445.523C446.192 195.043 446.734 195.586 446.734 196.257C446.734 196.928 446.192 197.472 445.523 197.472Z" fill="white"/>
<path d="M445.523 204.393H220.37C219.7 204.393 219.158 203.849 219.158 203.178C219.158 202.507 219.7 201.964 220.37 201.964H445.523C446.192 201.964 446.734 202.507 446.734 203.178C446.734 203.849 446.192 204.393 445.523 204.393Z" fill="white"/>
<path d="M445.523 211.315H220.37C219.7 211.315 219.158 210.771 219.158 210.1C219.158 209.429 219.7 208.886 220.37 208.886H445.523C446.192 208.886 446.734 209.429 446.734 210.1C446.734 210.771 446.192 211.315 445.523 211.315Z" fill="white"/>
<path d="M445.523 218.235H220.37C219.7 218.235 219.158 217.692 219.158 217.021C219.158 216.35 219.7 215.807 220.37 215.807H445.523C446.192 215.807 446.734 216.35 446.734 217.021C446.734 217.692 446.192 218.235 445.523 218.235Z" fill="white"/>
<path d="M445.523 225.156H220.37C219.701 225.156 219.159 224.613 219.159 223.942C219.159 223.271 219.701 222.728 220.37 222.728H445.523C446.192 222.728 446.735 223.271 446.735 223.942C446.735 224.613 446.192 225.156 445.523 225.156Z" fill="white"/>
<path d="M445.523 232.077H220.37C219.701 232.077 219.159 231.534 219.159 230.863C219.159 230.192 219.701 229.648 220.37 229.648H445.523C446.192 229.648 446.735 230.192 446.735 230.863C446.735 231.534 446.192 232.077 445.523 232.077Z" fill="white"/>
<path d="M445.523 238.998H220.37C219.701 238.998 219.159 238.455 219.159 237.784C219.159 237.113 219.701 236.569 220.37 236.569H445.523C446.192 236.569 446.735 237.113 446.735 237.784C446.735 238.455 446.192 238.998 445.523 238.998Z" fill="white"/>
<path d="M445.523 245.919H220.37C219.7 245.919 219.158 245.376 219.158 244.705C219.158 244.034 219.7 243.49 220.37 243.49H445.523C446.192 243.49 446.734 244.034 446.734 244.705C446.734 245.376 446.192 245.919 445.523 245.919Z" fill="white"/>
<path d="M381.21 252.84H220.37C219.7 252.84 219.158 252.297 219.158 251.626C219.158 250.954 219.7 250.411 220.37 250.411H381.21C381.879 250.411 382.421 250.954 382.421 251.626C382.421 252.297 381.879 252.84 381.21 252.84Z" fill="white"/>
<path d="M280.233 173.312H221.431C220.176 173.312 219.158 174.331 219.158 175.59V186.14C219.158 187.398 220.176 188.418 221.431 188.418H280.233C281.488 188.418 282.506 187.398 282.506 186.14V175.59C282.506 174.331 281.488 173.312 280.233 173.312Z" fill="black"/>
<path d="M225.186 180.857L229.221 178.748V179.647C229.221 179.716 229.203 179.78 229.171 179.835C229.139 179.889 229.08 179.94 229.003 179.981L227.153 180.93C227.076 180.971 226.994 181.008 226.907 181.035C226.821 181.063 226.73 181.09 226.629 181.113C226.73 181.136 226.821 181.163 226.907 181.191C226.994 181.218 227.076 181.254 227.153 181.296L229.003 182.25C229.08 182.291 229.135 182.341 229.171 182.396C229.203 182.451 229.221 182.514 229.221 182.583V183.482L225.186 181.369V180.857Z" fill="#F9F9F9"/>
<path d="M238.035 184.373H236.723V181.309H233.444V184.373H232.132V177.36H233.444V180.378H236.723V177.36H238.035V184.373Z" fill="#F9F9F9"/>
<path d="M243.86 177.356V178.392H240.758V180.337H243.2V181.342H240.758V183.323H243.86V184.364H239.446V177.352H243.86V177.356Z" fill="#F9F9F9"/>
<path d="M251.141 184.373H250.134C250.02 184.373 249.929 184.345 249.856 184.286C249.783 184.231 249.733 184.158 249.697 184.076L249.173 182.647H246.276L245.752 184.076C245.725 184.149 245.675 184.218 245.602 184.281C245.524 184.341 245.433 184.373 245.324 184.373H244.313L247.059 177.36H248.39L251.136 184.373H251.141ZM246.613 181.725H248.845L247.993 179.392C247.952 179.287 247.911 179.168 247.866 179.027C247.82 178.885 247.775 178.735 247.729 178.57C247.683 178.735 247.638 178.89 247.597 179.031C247.551 179.173 247.51 179.296 247.469 179.406L246.618 181.729L246.613 181.725Z" fill="#F9F9F9"/>
<path d="M258.073 180.866C258.073 181.382 257.986 181.852 257.818 182.282C257.645 182.711 257.408 183.08 257.098 183.391C256.788 183.701 256.415 183.943 255.982 184.112C255.545 184.286 255.062 184.368 254.534 184.368H251.864V177.355H254.534C255.062 177.355 255.545 177.442 255.982 177.616C256.419 177.789 256.788 178.031 257.098 178.337C257.408 178.647 257.649 179.017 257.818 179.446C257.991 179.876 258.073 180.35 258.073 180.862V180.866ZM256.743 180.866C256.743 180.483 256.693 180.136 256.588 179.83C256.483 179.524 256.337 179.264 256.146 179.054C255.955 178.844 255.722 178.679 255.454 178.565C255.18 178.451 254.875 178.396 254.534 178.396H253.172V183.332H254.534C254.875 183.332 255.185 183.277 255.454 183.163C255.727 183.049 255.959 182.889 256.146 182.674C256.337 182.464 256.483 182.204 256.588 181.898C256.693 181.592 256.743 181.25 256.743 180.862V180.866Z" fill="#F9F9F9"/>
<path d="M263.509 177.356V178.392H260.407V180.337H262.848V181.342H260.407V183.323H263.509V184.364H259.095V177.352H263.509V177.356Z" fill="#F9F9F9"/>
<path d="M265.98 181.629V184.368H264.678V177.355H266.81C267.288 177.355 267.698 177.406 268.035 177.502C268.376 177.602 268.654 177.739 268.873 177.917C269.092 178.095 269.251 178.31 269.351 178.556C269.451 178.803 269.502 179.077 269.502 179.373C269.502 179.611 269.465 179.834 269.397 180.044C269.328 180.254 269.228 180.446 269.096 180.615C268.964 180.789 268.805 180.935 268.613 181.067C268.422 181.195 268.203 181.3 267.957 181.378C268.121 181.473 268.263 181.606 268.381 181.779L270.135 184.368H268.964C268.85 184.368 268.755 184.345 268.677 184.299C268.6 184.254 268.531 184.19 268.477 184.108L267.005 181.861C266.951 181.779 266.892 181.715 266.823 181.683C266.755 181.647 266.659 181.629 266.532 181.629H265.976H265.98ZM265.98 180.693H266.791C267.037 180.693 267.251 180.661 267.434 180.601C267.616 180.542 267.766 180.455 267.884 180.346C268.003 180.236 268.089 180.108 268.149 179.962C268.208 179.812 268.235 179.652 268.235 179.474C268.235 179.118 268.117 178.844 267.884 178.652C267.652 178.46 267.292 178.364 266.814 178.364H265.98V180.693Z" fill="#F9F9F9"/>
<path d="M272.45 183.482V182.583C272.45 182.514 272.468 182.451 272.5 182.396C272.532 182.341 272.591 182.291 272.669 182.25L274.518 181.296C274.669 181.222 274.842 181.159 275.042 181.113C274.942 181.09 274.851 181.063 274.764 181.035C274.678 181.008 274.596 180.971 274.518 180.93L272.669 179.981C272.591 179.94 272.537 179.889 272.5 179.835C272.468 179.78 272.45 179.716 272.45 179.647V178.748L276.486 180.857V181.369L272.45 183.482Z" fill="#F9F9F9"/>
<path d="M445.523 287.09H220.37C219.7 287.09 219.158 286.547 219.158 285.876C219.158 285.204 219.7 284.661 220.37 284.661H445.523C446.192 284.661 446.734 285.204 446.734 285.876C446.734 286.547 446.192 287.09 445.523 287.09Z" fill="white"/>
<path d="M445.523 294.011H220.37C219.701 294.011 219.159 293.468 219.159 292.796C219.159 292.125 219.701 291.582 220.37 291.582H445.523C446.192 291.582 446.735 292.125 446.735 292.796C446.735 293.468 446.192 294.011 445.523 294.011Z" fill="white"/>
<path d="M445.523 300.933H220.37C219.701 300.933 219.159 300.389 219.159 299.718C219.159 299.047 219.701 298.504 220.37 298.504H445.523C446.192 298.504 446.735 299.047 446.735 299.718C446.735 300.389 446.192 300.933 445.523 300.933Z" fill="white"/>
<path d="M445.523 307.854H220.37C219.7 307.854 219.158 307.31 219.158 306.639C219.158 305.968 219.7 305.425 220.37 305.425H445.523C446.192 305.425 446.734 305.968 446.734 306.639C446.734 307.31 446.192 307.854 445.523 307.854Z" fill="white"/>
<path d="M445.523 314.775H220.37C219.7 314.775 219.158 314.232 219.158 313.561C219.158 312.89 219.7 312.347 220.37 312.347H445.523C446.192 312.347 446.734 312.89 446.734 313.561C446.734 314.232 446.192 314.775 445.523 314.775Z" fill="white"/>
<path d="M445.523 321.694H220.37C219.7 321.694 219.158 321.151 219.158 320.48C219.158 319.809 219.7 319.266 220.37 319.266H445.523C446.192 319.266 446.734 319.809 446.734 320.48C446.734 321.151 446.192 321.694 445.523 321.694Z" fill="white"/>
<path d="M445.523 328.617H220.37C219.701 328.617 219.159 328.074 219.159 327.403C219.159 326.732 219.701 326.188 220.37 326.188H445.523C446.192 326.188 446.735 326.732 446.735 327.403C446.735 328.074 446.192 328.617 445.523 328.617Z" fill="white"/>
<path d="M445.523 335.538H220.37C219.701 335.538 219.159 334.995 219.159 334.324C219.159 333.653 219.701 333.109 220.37 333.109H445.523C446.192 333.109 446.735 333.653 446.735 334.324C446.735 334.995 446.192 335.538 445.523 335.538Z" fill="white"/>
<path d="M381.21 342.46H220.37C219.7 342.46 219.158 341.917 219.158 341.246C219.158 340.575 219.7 340.031 220.37 340.031H381.21C381.879 340.031 382.421 340.575 382.421 341.246C382.421 341.917 381.879 342.46 381.21 342.46Z" fill="white"/>
<path d="M280.233 262.93H221.431C220.176 262.93 219.158 263.95 219.158 265.208V275.758C219.158 277.017 220.176 278.037 221.431 278.037H280.233C281.488 278.037 282.506 277.017 282.506 275.758V265.208C282.506 263.95 281.488 262.93 280.233 262.93Z" fill="black"/>
<path d="M229.964 270.476L234 268.367V269.267C234 269.335 233.982 269.399 233.95 269.454C233.918 269.509 233.859 269.559 233.781 269.6L231.932 270.549C231.854 270.591 231.772 270.627 231.686 270.654C231.599 270.682 231.508 270.709 231.408 270.732C231.508 270.755 231.599 270.782 231.686 270.81C231.772 270.837 231.854 270.874 231.932 270.915L233.781 271.869C233.859 271.91 233.913 271.96 233.95 272.015C233.982 272.07 234 272.134 234 272.202V273.101L229.964 270.988V270.476Z" fill="#F9F9F9"/>
<path d="M266.796 273.101V272.202C266.796 272.134 266.814 272.07 266.846 272.015C266.878 271.96 266.937 271.91 267.015 271.869L268.864 270.915C269.014 270.842 269.188 270.778 269.388 270.732C269.288 270.709 269.197 270.682 269.11 270.654C269.024 270.627 268.942 270.591 268.864 270.549L267.015 269.6C266.937 269.559 266.883 269.509 266.846 269.454C266.814 269.399 266.796 269.335 266.796 269.267V268.367L270.832 270.476V270.988L266.796 273.101Z" fill="#F9F9F9"/>
<path d="M237.593 274.047V267.053H240.003C240.458 267.053 240.85 267.098 241.173 267.185C241.497 267.272 241.761 267.395 241.97 267.559C242.18 267.719 242.33 267.916 242.426 268.144C242.522 268.372 242.572 268.632 242.572 268.92C242.572 269.084 242.549 269.24 242.499 269.39C242.449 269.541 242.376 269.682 242.276 269.81C242.175 269.938 242.043 270.061 241.888 270.166C241.734 270.271 241.547 270.363 241.333 270.436C242.289 270.65 242.772 271.171 242.772 271.992C242.772 272.289 242.717 272.563 242.604 272.814C242.49 273.065 242.326 273.284 242.112 273.467C241.898 273.65 241.629 273.791 241.315 273.896C241 274.001 240.64 274.051 240.235 274.051H237.602L237.593 274.047ZM238.891 270.08H239.93C240.372 270.08 240.704 269.997 240.932 269.838C241.16 269.678 241.274 269.422 241.274 269.071C241.274 268.719 241.169 268.445 240.964 268.29C240.759 268.135 240.435 268.057 239.998 268.057H238.887V270.08H238.891ZM238.891 270.979V273.029H240.208C240.449 273.029 240.649 273.001 240.813 272.942C240.977 272.883 241.105 272.805 241.205 272.709C241.305 272.613 241.374 272.499 241.419 272.371C241.465 272.244 241.483 272.107 241.483 271.961C241.483 271.814 241.46 271.673 241.41 271.55C241.36 271.431 241.287 271.326 241.182 271.239C241.078 271.152 240.946 271.089 240.786 271.043C240.627 270.997 240.431 270.974 240.203 270.974H238.891V270.979Z" fill="#F9F9F9"/>
<path d="M250.574 270.549C250.574 271.061 250.488 271.535 250.319 271.974C250.151 272.412 249.909 272.791 249.599 273.106C249.29 273.425 248.921 273.672 248.483 273.855C248.051 274.033 247.568 274.124 247.04 274.124C246.511 274.124 246.028 274.033 245.596 273.855C245.158 273.677 244.785 273.425 244.475 273.106C244.165 272.786 243.924 272.407 243.755 271.974C243.587 271.535 243.5 271.061 243.5 270.549C243.5 270.038 243.587 269.563 243.755 269.125C243.924 268.687 244.165 268.308 244.475 267.993C244.785 267.673 245.158 267.427 245.596 267.244C246.033 267.066 246.511 266.975 247.04 266.975C247.568 266.975 248.046 267.066 248.483 267.244C248.916 267.427 249.29 267.673 249.599 267.993C249.909 268.312 250.146 268.687 250.319 269.125C250.488 269.563 250.574 270.038 250.574 270.549ZM249.244 270.549C249.244 270.166 249.194 269.823 249.094 269.518C248.994 269.212 248.848 268.956 248.657 268.741C248.465 268.527 248.238 268.367 247.964 268.253C247.691 268.139 247.386 268.084 247.044 268.084C246.702 268.084 246.397 268.139 246.124 268.253C245.851 268.367 245.618 268.527 245.427 268.741C245.236 268.956 245.09 269.212 244.985 269.518C244.88 269.823 244.83 270.166 244.83 270.549C244.83 270.933 244.88 271.275 244.985 271.581C245.09 271.887 245.236 272.143 245.427 272.357C245.618 272.567 245.851 272.732 246.124 272.841C246.397 272.955 246.702 273.01 247.044 273.01C247.386 273.01 247.691 272.955 247.964 272.841C248.238 272.727 248.465 272.567 248.657 272.357C248.848 272.147 248.994 271.887 249.094 271.581C249.194 271.275 249.244 270.933 249.244 270.549Z" fill="#F9F9F9"/>
<path d="M257.794 270.55C257.794 271.061 257.708 271.531 257.539 271.961C257.371 272.39 257.129 272.759 256.82 273.07C256.51 273.38 256.141 273.618 255.704 273.791C255.271 273.96 254.788 274.047 254.26 274.047H251.595V267.053H254.26C254.788 267.053 255.266 267.139 255.704 267.313C256.136 267.486 256.51 267.724 256.82 268.034C257.129 268.34 257.366 268.71 257.539 269.139C257.708 269.568 257.794 270.038 257.794 270.55ZM256.469 270.55C256.469 270.166 256.419 269.824 256.314 269.518C256.209 269.212 256.064 268.957 255.877 268.742C255.685 268.532 255.458 268.368 255.184 268.258C254.911 268.144 254.606 268.089 254.264 268.089H252.907V273.015H254.264C254.606 273.015 254.911 272.96 255.184 272.846C255.458 272.732 255.685 272.572 255.877 272.362C256.068 272.152 256.214 271.892 256.314 271.586C256.419 271.28 256.469 270.938 256.469 270.554V270.55Z" fill="#F9F9F9"/>
<path d="M261.53 271.33V274.047H260.231V271.33L257.69 267.053H258.833C258.947 267.053 259.033 267.08 259.102 267.135C259.166 267.19 259.225 267.258 259.27 267.345L260.55 269.682C260.623 269.819 260.687 269.952 260.742 270.075C260.796 270.198 260.846 270.322 260.892 270.44C260.933 270.317 260.983 270.194 261.033 270.07C261.088 269.947 261.152 269.815 261.224 269.682L262.495 267.345C262.532 267.272 262.582 267.208 262.655 267.149C262.728 267.089 262.814 267.057 262.923 267.057H264.071L261.534 271.335L261.53 271.33Z" fill="#F9F9F9"/>
<path opacity="0.6" d="M661.529 148.271H509.408C506.195 148.271 503.591 150.881 503.591 154.101V225.033C503.591 228.253 506.195 230.863 509.408 230.863H661.529C664.741 230.863 667.346 228.253 667.346 225.033V154.101C667.346 150.881 664.741 148.271 661.529 148.271Z" fill="#BDA76A"/>
<path d="M586.744 172.65C577.424 172.65 569.867 180.224 569.867 189.565C569.867 198.906 577.424 206.484 586.744 206.484C596.063 206.484 603.62 198.91 603.62 189.565C603.62 180.22 596.068 172.65 586.744 172.65ZM582.635 196.217V182.923L594.123 189.565L582.635 196.212V196.217Z" fill="white"/>
<path opacity="0.6" d="M526.156 358.46H510.454C506.664 358.46 503.59 355.379 503.59 351.58V250.247C503.59 246.444 506.664 243.362 510.454 243.362H660.476C664.265 243.362 667.34 246.444 667.34 250.247V351.58C667.34 355.379 664.265 358.46 660.476 358.46H526.151" fill="#BDA76A"/>
<path d="M667.34 250.247V260.72H503.59V250.247C503.59 246.444 506.664 243.362 510.454 243.362H660.476C664.265 243.362 667.34 246.444 667.34 250.247Z" fill="#BDA76A"/>
<path d="M636.339 252.042C636.339 254.265 634.544 256.064 632.326 256.064C630.107 256.064 628.312 254.265 628.312 252.042C628.312 249.818 630.107 248.02 632.326 248.02C634.544 248.02 636.339 249.818 636.339 252.042Z" fill="#F9F9F9"/>
<path d="M647.475 252.042C647.475 254.265 645.681 256.064 643.462 256.064C641.244 256.064 639.449 254.265 639.449 252.042C639.449 249.818 641.244 248.02 643.462 248.02C645.681 248.02 647.475 249.818 647.475 252.042Z" fill="#F9F9F9"/>
<path d="M658.612 252.042C658.612 254.265 656.818 256.064 654.599 256.064C652.381 256.064 650.586 254.265 650.586 252.042C650.586 249.818 652.381 248.02 654.599 248.02C656.818 248.02 658.612 249.818 658.612 252.042Z" fill="#F9F9F9"/>
<path d="M648.73 291.811H523.137C522.468 291.811 521.926 292.354 521.926 293.025C521.926 293.696 522.468 294.239 523.137 294.239H648.73C649.399 294.239 649.941 293.696 649.941 293.025C649.941 292.354 649.399 291.811 648.73 291.811Z" fill="white"/>
<path d="M648.73 298.731H523.138C522.468 298.731 521.926 299.275 521.926 299.946C521.926 300.617 522.468 301.16 523.138 301.16H648.73C649.4 301.16 649.942 300.617 649.942 299.946C649.942 299.275 649.4 298.731 648.73 298.731Z" fill="white"/>
<path d="M648.73 305.652H523.137C522.468 305.652 521.926 306.196 521.926 306.867C521.926 307.538 522.468 308.081 523.137 308.081H648.73C649.399 308.081 649.941 307.538 649.941 306.867C649.941 306.196 649.399 305.652 648.73 305.652Z" fill="white"/>
<path d="M648.73 312.574H523.137C522.468 312.574 521.926 313.118 521.926 313.789C521.926 314.46 522.468 315.003 523.137 315.003H648.73C649.399 315.003 649.941 314.46 649.941 313.789C649.941 313.118 649.399 312.574 648.73 312.574Z" fill="white"/>
<path d="M648.73 319.495H523.137C522.468 319.495 521.926 320.038 521.926 320.709C521.926 321.381 522.468 321.924 523.137 321.924H648.73C649.399 321.924 649.941 321.381 649.941 320.709C649.941 320.038 649.399 319.495 648.73 319.495Z" fill="white"/>
<path d="M648.73 326.416H523.138C522.468 326.416 521.926 326.959 521.926 327.63C521.926 328.302 522.468 328.845 523.138 328.845H648.73C649.4 328.845 649.942 328.302 649.942 327.63C649.942 326.959 649.4 326.416 648.73 326.416Z" fill="white"/>
<path d="M648.73 333.337H523.138C522.468 333.337 521.926 333.88 521.926 334.551C521.926 335.222 522.468 335.766 523.138 335.766H648.73C649.4 335.766 649.942 335.222 649.942 334.551C649.942 333.88 649.4 333.337 648.73 333.337Z" fill="white"/>
<path d="M606.905 340.258H523.138C522.468 340.258 521.926 340.801 521.926 341.472C521.926 342.143 522.468 342.687 523.138 342.687H606.905C607.575 342.687 608.117 342.143 608.117 341.472C608.117 340.801 607.575 340.258 606.905 340.258Z" fill="white"/>
<path d="M582.07 270.144H523.269C522.014 270.144 520.996 271.164 520.996 272.422V282.972C520.996 284.23 522.014 285.25 523.269 285.25H582.07C583.326 285.25 584.343 284.23 584.343 282.972V272.422C584.343 271.164 583.326 270.144 582.07 270.144Z" fill="black"/>
<path d="M531.799 277.69L535.835 275.581V276.48C535.835 276.549 535.816 276.613 535.785 276.668C535.753 276.722 535.693 276.773 535.616 276.814L533.767 277.763C533.689 277.804 533.607 277.841 533.521 277.868C533.434 277.896 533.343 277.923 533.243 277.946C533.343 277.969 533.434 277.996 533.521 278.024C533.607 278.051 533.689 278.087 533.767 278.129L535.616 279.083C535.693 279.124 535.748 279.174 535.785 279.229C535.816 279.284 535.835 279.348 535.835 279.416V280.315L531.799 278.202V277.69Z" fill="#F9F9F9"/>
<path d="M568.627 280.315V279.416C568.627 279.348 568.645 279.284 568.677 279.229C568.709 279.174 568.768 279.124 568.846 279.083L570.695 278.129C570.845 278.055 571.018 277.992 571.219 277.946C571.119 277.923 571.027 277.896 570.941 277.868C570.854 277.841 570.772 277.804 570.695 277.763L568.846 276.814C568.768 276.773 568.713 276.722 568.677 276.668C568.645 276.613 568.627 276.549 568.627 276.48V275.581L572.663 277.69V278.202L568.627 280.315Z" fill="#F9F9F9"/>
<path d="M539.427 281.266V274.271H541.836C542.292 274.271 542.684 274.317 543.007 274.404C543.331 274.491 543.595 274.614 543.804 274.778C544.014 274.938 544.164 275.134 544.26 275.363C544.355 275.591 544.406 275.851 544.406 276.139C544.406 276.303 544.383 276.458 544.333 276.609C544.283 276.76 544.21 276.901 544.109 277.029C544.009 277.157 543.877 277.28 543.722 277.385C543.567 277.49 543.381 277.581 543.167 277.654C544.123 277.869 544.606 278.389 544.606 279.211C544.606 279.508 544.551 279.782 544.437 280.033C544.324 280.284 544.16 280.503 543.945 280.686C543.731 280.868 543.463 281.01 543.148 281.115C542.834 281.22 542.474 281.27 542.069 281.27H539.436L539.427 281.266ZM540.725 277.298H541.764C542.205 277.298 542.538 277.216 542.766 277.056C542.993 276.897 543.107 276.641 543.107 276.289C543.107 275.938 543.003 275.664 542.798 275.509C542.593 275.353 542.269 275.276 541.832 275.276H540.721V277.298H540.725ZM540.725 278.198V280.248H542.041C542.283 280.248 542.483 280.22 542.647 280.161C542.811 280.101 542.939 280.024 543.039 279.928C543.139 279.832 543.208 279.718 543.253 279.59C543.299 279.462 543.317 279.325 543.317 279.179C543.317 279.033 543.294 278.892 543.244 278.768C543.194 278.65 543.121 278.545 543.016 278.458C542.911 278.371 542.779 278.307 542.62 278.262C542.461 278.216 542.265 278.193 542.037 278.193H540.725V278.198Z" fill="#F9F9F9"/>
<path d="M552.411 277.768C552.411 278.279 552.324 278.754 552.156 279.192C551.987 279.631 551.746 280.01 551.436 280.325C551.126 280.644 550.757 280.891 550.32 281.073C549.887 281.251 549.404 281.343 548.876 281.343C548.348 281.343 547.865 281.251 547.432 281.073C546.995 280.895 546.621 280.644 546.311 280.325C546.002 280.005 545.76 279.626 545.592 279.192C545.423 278.754 545.337 278.279 545.337 277.768C545.337 277.257 545.423 276.782 545.592 276.344C545.76 275.905 546.002 275.526 546.311 275.211C546.621 274.892 546.995 274.645 547.432 274.463C547.869 274.28 548.348 274.193 548.876 274.193C549.404 274.193 549.883 274.285 550.32 274.463C550.753 274.645 551.126 274.892 551.436 275.211C551.746 275.531 551.983 275.905 552.156 276.344C552.324 276.782 552.411 277.257 552.411 277.768ZM551.081 277.768C551.081 277.385 551.031 277.042 550.93 276.736C550.83 276.43 550.684 276.175 550.493 275.96C550.302 275.746 550.074 275.586 549.801 275.472C549.527 275.358 549.222 275.303 548.881 275.303C548.539 275.303 548.234 275.358 547.96 275.472C547.687 275.586 547.455 275.746 547.263 275.96C547.072 276.175 546.926 276.43 546.822 276.736C546.717 277.042 546.667 277.385 546.667 277.768C546.667 278.152 546.717 278.494 546.822 278.8C546.926 279.106 547.072 279.361 547.263 279.576C547.455 279.786 547.687 279.95 547.96 280.06C548.234 280.174 548.539 280.229 548.881 280.229C549.222 280.229 549.527 280.174 549.801 280.06C550.074 279.946 550.302 279.786 550.493 279.576C550.684 279.366 550.83 279.106 550.93 278.8C551.031 278.494 551.081 278.152 551.081 277.768Z" fill="#F9F9F9"/>
<path d="M559.631 277.769C559.631 278.28 559.545 278.75 559.376 279.179C559.207 279.608 558.966 279.978 558.656 280.289C558.347 280.599 557.978 280.837 557.54 281.01C557.108 281.179 556.625 281.266 556.096 281.266H553.432V274.271H556.096C556.625 274.271 557.103 274.358 557.54 274.532C557.973 274.705 558.347 274.943 558.656 275.253C558.966 275.559 559.203 275.929 559.376 276.358C559.545 276.787 559.631 277.257 559.631 277.769ZM558.306 277.769C558.306 277.385 558.255 277.043 558.151 276.737C558.046 276.431 557.9 276.175 557.713 275.961C557.522 275.751 557.294 275.586 557.021 275.477C556.748 275.363 556.443 275.308 556.101 275.308H554.744V280.234H556.101C556.443 280.234 556.748 280.179 557.021 280.065C557.294 279.951 557.522 279.791 557.713 279.581C557.905 279.371 558.05 279.111 558.151 278.805C558.255 278.499 558.306 278.157 558.306 277.773V277.769Z" fill="#F9F9F9"/>
<path d="M563.366 278.544V281.261H562.068V278.544L559.526 274.267H560.67C560.784 274.267 560.87 274.294 560.938 274.349C561.002 274.404 561.061 274.472 561.107 274.559L562.387 276.896C562.46 277.033 562.524 277.166 562.578 277.289C562.633 277.412 562.683 277.535 562.729 277.654C562.77 277.531 562.82 277.408 562.87 277.284C562.92 277.161 562.988 277.029 563.061 276.896L564.332 274.559C564.368 274.486 564.418 274.422 564.491 274.362C564.564 274.303 564.651 274.271 564.76 274.271H565.908L563.371 278.549L563.366 278.544Z" fill="#F9F9F9"/>
<path d="M637.93 27.2466V24.8863L647.769 21.2568V23.6445L641.009 26.0642L647.769 28.4838V30.8761L637.93 27.2466Z" fill="url(#paint9_linear_617_3116)"/>
<path d="M657.461 15.4814H660.327L652 36.6557H649.135L657.461 15.4814Z" fill="url(#paint10_linear_617_3116)"/>
<path d="M661.692 30.881V28.4887L668.452 26.0691L661.692 23.6494V21.2617L671.531 24.8912V27.2515L661.692 30.881Z" fill="url(#paint11_linear_617_3116)"/>
<path d="M152.86 98.0181C152.86 80.4231 138.58 66.1152 121.029 66.1152C103.478 66.1152 89.1981 80.4277 89.1981 98.0181C89.1981 115.609 102.718 129.14 119.617 129.885L121.029 171.881L122.441 129.885C139.34 129.14 152.86 115.134 152.86 98.0181ZM121.029 125.972C105.646 125.972 93.1337 113.431 93.1337 98.0181C93.1337 82.6054 105.646 70.0597 121.029 70.0597C136.411 70.0597 148.924 82.6008 148.924 98.0181C148.924 113.435 136.411 125.972 121.029 125.972Z" fill="#BDA76A"/>
<path d="M115.262 85.5459V106.843C115.262 108.816 116.128 109.523 117.503 109.523C118.879 109.523 119.744 108.816 119.744 106.843V85.5459H123.835V106.569C123.835 110.989 121.63 113.513 117.38 113.513C113.13 113.513 110.926 110.989 110.926 106.569V85.5459H115.253H115.262Z" fill="url(#paint12_linear_617_3116)"/>
<path d="M126.8 85.5459H131.127V113.157H126.8V85.5459Z" fill="url(#paint13_linear_617_3116)"/>
<path d="M798.062 63.0206C798.062 40.011 779.386 21.293 756.433 21.293C733.48 21.293 714.805 40.011 714.805 63.0206C714.805 86.0301 732.474 103.712 754.561 104.698L756.433 188.29L758.306 104.698C780.393 103.712 798.062 85.3955 798.062 63.0206ZM756.433 100.913C735.585 100.913 718.622 83.9163 718.622 63.0206C718.622 42.1248 735.58 25.1233 756.433 25.1233C777.287 25.1233 794.245 42.1248 794.245 63.0206C794.245 83.9163 777.287 100.913 756.433 100.913Z" fill="#BDA76A"/>
<path d="M752.945 78.4747H748.053L747.22 72.8684H741.271L740.433 78.4747H735.982L740.916 47.5625H748.008L752.941 78.4747H752.945ZM741.886 68.6728H746.555L744.218 53.041L741.886 68.6728Z" fill="url(#paint14_linear_617_3116)"/>
<path d="M769.561 55.205V59.2225C769.561 64.1668 767.179 66.8604 762.337 66.8604H760.046V78.4747H755.199V47.5625H762.337C767.184 47.5625 769.561 50.2561 769.561 55.205ZM760.046 51.9818V62.4502H762.337C763.877 62.4502 764.715 61.7426 764.715 59.5375V54.8991C764.715 52.6894 763.877 51.9818 762.337 51.9818H760.046Z" fill="url(#paint15_linear_617_3116)"/>
<path d="M772.04 47.5625H776.887V78.4747H772.04V47.5625Z" fill="url(#paint16_linear_617_3116)"/>
<path d="M680.741 26.0683C680.741 11.6919 669.075 0 654.731 0C640.387 0 628.722 11.6965 628.722 26.0683C628.722 40.4402 639.649 51.3788 653.351 52.1001L654.731 89.5728L656.111 52.1001C669.813 51.3788 680.741 39.9791 680.741 26.0683ZM654.731 48.8633C642.191 48.8633 631.983 38.6368 631.983 26.0683C631.983 13.4998 642.187 3.26881 654.731 3.26881C667.276 3.26881 677.475 13.4953 677.475 26.0683C677.475 38.6414 667.271 48.8633 654.731 48.8633Z" fill="#BDA76A"/>
<path d="M216.718 6.94336C196.63 6.94336 180.291 23.324 180.291 43.4573C180.291 63.5906 195.755 79.0673 215.092 79.9256L216.718 138.677L218.344 79.9256C237.676 79.0673 253.145 63.0428 253.145 43.4573C253.145 23.8718 236.801 6.94336 216.718 6.94336ZM216.718 75.4515C199.113 75.4515 184.791 61.1025 184.791 43.4573C184.791 25.8121 199.113 11.4585 216.718 11.4585C234.323 11.4585 248.64 25.8121 248.64 43.4573C248.64 61.1025 234.319 75.4515 216.718 75.4515Z" fill="#BDA76A"/>
<path d="M208.651 47.7537L208.892 52.5839C209.038 55.2409 209.757 56.0125 211.447 56.0125H212.217V60.3587H209.516C206.532 60.3587 204.41 58.6695 204.168 54.999L203.781 48.5298C203.635 46.3111 203.157 45.6308 201.13 45.6308V41.2846C203.153 41.2846 203.635 40.6089 203.781 38.3856L204.168 31.9164C204.41 28.2458 206.528 26.5566 209.516 26.5566H212.217V30.9029H211.447C209.762 30.9029 209.038 31.6744 208.892 34.3315L208.651 39.1617C208.555 40.9467 207.976 42.8322 205.521 43.4577C207.976 44.0831 208.555 45.9687 208.651 47.7583V47.7537Z" fill="url(#paint17_linear_617_3116)"/>
<path d="M224.789 39.1568L224.548 34.3266C224.402 31.6696 223.682 30.898 221.992 30.898H221.223V26.5518H223.924C226.912 26.5518 229.03 28.241 229.271 31.9115L229.659 38.3807C229.804 40.604 230.283 41.2797 232.31 41.2797V45.6259C230.287 45.6259 229.804 46.3016 229.659 48.5249L229.271 54.9941C229.03 58.6647 226.912 60.3539 223.924 60.3539H221.223V56.0076H221.992C223.678 56.0076 224.402 55.2361 224.548 52.579L224.789 47.7488C224.885 45.9592 225.463 44.0783 227.923 43.4482C225.468 42.8228 224.889 40.9373 224.789 39.1522V39.1568Z" fill="url(#paint18_linear_617_3116)"/>
<g opacity="0.5">
<path style="mix-blend-mode:multiply" opacity="0.55" d="M245.409 447.348C245.409 450.635 277.495 453.301 317.074 453.301C356.653 453.301 388.739 450.635 388.739 447.348C388.739 444.061 356.653 441.395 317.074 441.395C277.495 441.395 245.404 444.061 245.409 447.348Z" fill="url(#paint19_radial_617_3116)"/>
</g>
<path d="M317.074 447.348C316.915 447.348 316.755 447.321 316.609 447.262C307.814 443.851 300.648 438.679 295.31 431.876C290.96 426.338 287.799 419.7 285.908 412.14C282.579 398.823 284.241 386.565 284.61 384.246C284.697 383.702 285.12 383.269 285.662 383.173C294.171 381.671 294.804 374.398 294.791 372.207C294.791 371.622 295.182 371.106 295.743 370.956L316.732 365.267C316.842 365.235 316.956 365.222 317.07 365.222C317.183 365.222 317.297 365.235 317.407 365.267L338.396 370.956C338.961 371.111 339.353 371.622 339.348 372.207C339.339 374.398 339.968 381.671 348.477 383.173C349.019 383.269 349.442 383.698 349.529 384.246C349.898 386.569 351.561 398.823 348.231 412.14C346.34 419.696 343.179 426.338 338.829 431.876C333.491 438.674 326.325 443.851 317.53 447.262C317.379 447.321 317.224 447.348 317.065 447.348H317.074Z" fill="#BDA76A"/>
<path d="M316.782 441.865C309.235 438.647 303.126 433.94 298.617 427.872C294.672 422.567 291.889 416.162 290.336 408.839C288.482 400.078 288.855 391.988 289.247 387.948C289.274 387.66 289.466 387.414 289.739 387.313C296.776 384.729 298.913 378.872 299.56 375.612C299.614 375.329 299.824 375.106 300.102 375.033L316.883 370.485C317.01 370.449 317.147 370.449 317.274 370.485L334.055 375.033C334.333 375.106 334.543 375.334 334.597 375.612C335.244 378.872 337.376 384.729 344.418 387.313C344.691 387.414 344.878 387.66 344.91 387.948C345.302 391.988 345.68 400.078 343.821 408.839C342.268 416.162 339.485 422.567 335.54 427.872C331.031 433.94 324.922 438.647 317.374 441.865C317.188 441.947 316.974 441.947 316.787 441.865H316.782Z" fill="#BDA76A"/>
<path d="M317.074 440.738C309.79 437.601 303.887 433.041 299.532 427.183C295.688 422.011 292.973 415.756 291.456 408.597C289.67 400.161 289.989 392.354 290.363 388.3C297.573 385.542 299.887 379.571 300.63 376.069L317.074 371.613L333.518 376.069C334.26 379.571 336.574 385.542 343.785 388.3C344.158 392.349 344.482 400.161 342.691 408.597C341.175 415.756 338.455 422.011 334.615 427.183C330.261 433.041 324.362 437.601 317.074 440.738Z" fill="url(#paint20_linear_617_3116)"/>
<path d="M334.547 395.617L330.024 391.084L313.972 407.172L306.994 400.178L302.47 404.712L313.972 416.221L334.547 395.617Z" fill="#BDA76A"/>
<path d="M462.107 36.3957H424.715V28.1826H456.5L462.107 36.3957Z" fill="#F9F9F9"/>
<path d="M516.522 36.3955H424.715V91.034H516.522V36.3955Z" fill="#F9F9F9"/>
<path d="M481.381 55.1281C481.531 56.7625 481.663 61.0997 480.939 64.4963C480.328 67.3816 479.231 69.9017 477.682 71.9835C475.928 74.3438 473.55 76.1837 470.612 77.4437C467.679 76.1791 465.301 74.3438 463.543 71.9835C461.994 69.9017 460.901 67.3816 460.286 64.4963C459.566 61.0951 459.694 56.758 459.844 55.1281C466.408 50.9325 474.803 50.9325 481.367 55.1281H481.381Z" fill="black"/>
<path d="M477.572 60.1959L475.773 58.3926L469.396 64.7887L466.621 62.0084L464.822 63.8117L469.396 68.3862L477.572 60.1959Z" fill="white"/>
</g>
<defs>
<filter id="filter0_d_617_3116" x="0" y="0" width="917" height="511" filterUnits="userSpaceOnUse" color-interpolation-filters="sRGB">
<feFlood flood-opacity="0" result="BackgroundImageFix"/>
<feColorMatrix in="SourceAlpha" type="matrix" values="0 0 0 0 0 0 0 0 0 0 0 0 0 0 0 0 0 0 127 0" result="hardAlpha"/>
<feOffset dy="4"/>
<feGaussianBlur stdDeviation="2"/>
<feComposite in2="hardAlpha" operator="out"/>
<feColorMatrix type="matrix" values="0 0 0 0 0 0 0 0 0 0 0 0 0 0 0 0 0 0 0.25 0"/>
<feBlend mode="normal" in2="BackgroundImageFix" result="effect1_dropShadow_617_3116"/>
<feBlend mode="normal" in="SourceGraphic" in2="effect1_dropShadow_617_3116" result="shape"/>
</filter>
<radialGradient id="paint0_radial_617_3116" cx="0" cy="0" r="1" gradientUnits="userSpaceOnUse" gradientTransform="translate(131.125 414.478) rotate(90) scale(16.3167 127.093)">
<stop stop-color="white"/>
<stop offset="1" stop-opacity="0"/>
</radialGradient>
<radialGradient id="paint1_radial_617_3116" cx="0" cy="0" r="1" gradientUnits="userSpaceOnUse" gradientTransform="translate(778.873 414.822) rotate(90) scale(14.5686 134.127)">
<stop stop-color="white"/>
<stop offset="0.765625" stop-opacity="0"/>
</radialGradient>
<linearGradient id="paint2_linear_617_3116" x1="802.918" y1="437.802" x2="802.918" y2="199.914" gradientUnits="userSpaceOnUse">
<stop stop-color="#0D0D0D"/>
<stop offset="0.15" stop-color="#171717"/>
<stop offset="0.41" stop-color="#343434"/>
<stop offset="0.59" stop-color="#4D4D4D"/>
<stop offset="1" stop-color="#363636"/>
</linearGradient>
<linearGradient id="paint3_linear_617_3116" x1="749.883" y1="252.015" x2="749.883" y2="236.955" gradientUnits="userSpaceOnUse">
<stop/>
<stop offset="0.22" stop-color="#929497"/>
<stop offset="0.82" stop-color="#808184"/>
<stop offset="0.84" stop-color="#737476"/>
<stop offset="0.92" stop-color="#353537"/>
<stop offset="0.97" stop-color="#0E0E0F"/>
<stop offset="1"/>
</linearGradient>
<linearGradient id="paint4_linear_617_3116" x1="-119.232" y1="271.779" x2="-118.828" y2="256.718" gradientUnits="userSpaceOnUse">
<stop/>
<stop offset="0.22" stop-color="#929497"/>
<stop offset="0.82" stop-color="#808184"/>
<stop offset="0.84" stop-color="#737476"/>
<stop offset="0.92" stop-color="#353537"/>
<stop offset="0.97" stop-color="#0E0E0F"/>
<stop offset="1"/>
</linearGradient>
<linearGradient id="paint5_linear_617_3116" x1="854.08" y1="279.655" x2="854.08" y2="256.987" gradientUnits="userSpaceOnUse">
<stop/>
<stop offset="0.22" stop-color="#929497"/>
<stop offset="0.82" stop-color="#808184"/>
<stop offset="0.84" stop-color="#737476"/>
<stop offset="0.92" stop-color="#353537"/>
<stop offset="0.97" stop-color="#0E0E0F"/>
<stop offset="1"/>
</linearGradient>
<radialGradient id="paint6_radial_617_3116" cx="0" cy="0" r="1" gradientUnits="userSpaceOnUse" gradientTransform="translate(458.5 478.463) rotate(90) scale(24.5366 454.5)">
<stop stop-color="white"/>
<stop offset="1" stop-opacity="0"/>
</radialGradient>
<linearGradient id="paint7_linear_617_3116" x1="117.065" y1="427.709" x2="845.384" y2="427.709" gradientUnits="userSpaceOnUse">
<stop stop-color="#D0D2D3"/>
<stop offset="0.19" stop-color="#DADCDD"/>
<stop offset="0.47" stop-color="#F3F3F5"/>
<stop offset="0.61" stop-color="#E7E8EA"/>
<stop offset="1" stop-color="#CBCCD0"/>
</linearGradient>
<linearGradient id="paint8_linear_617_3116" x1="470.621" y1="447.837" x2="470.621" y2="478.717" gradientUnits="userSpaceOnUse">
<stop stop-color="#CBCCD0"/>
<stop offset="0.38" stop-color="#E7E8EA"/>
<stop offset="0.52" stop-color="#F3F3F5"/>
<stop offset="0.59" stop-color="#DCDCDF"/>
<stop offset="0.68" stop-color="#C2C2C6"/>
<stop offset="0.79" stop-color="#AFAFB4"/>
<stop offset="0.89" stop-color="#A3A4A9"/>
<stop offset="1" stop-color="#A0A1A6"/>
</linearGradient>
<linearGradient id="paint9_linear_617_3116" x1="637.536" y1="26.0665" x2="648.483" y2="26.0665" gradientUnits="userSpaceOnUse">
<stop stop-color="#D0D2D3"/>
<stop offset="0.19" stop-color="#DADCDD"/>
<stop offset="0.47" stop-color="#F3F3F5"/>
<stop offset="0.61" stop-color="#E7E8EA"/>
<stop offset="1" stop-color="#CBCCD0"/>
</linearGradient>
<linearGradient id="paint10_linear_617_3116" x1="648.688" y1="26.0686" x2="661.14" y2="26.0686" gradientUnits="userSpaceOnUse">
<stop stop-color="#D0D2D3"/>
<stop offset="0.19" stop-color="#DADCDD"/>
<stop offset="0.47" stop-color="#F3F3F5"/>
<stop offset="0.61" stop-color="#E7E8EA"/>
<stop offset="1" stop-color="#CBCCD0"/>
</linearGradient>
<linearGradient id="paint11_linear_617_3116" x1="661.299" y1="26.0714" x2="672.246" y2="26.0714" gradientUnits="userSpaceOnUse">
<stop stop-color="#D0D2D3"/>
<stop offset="0.19" stop-color="#DADCDD"/>
<stop offset="0.47" stop-color="#F3F3F5"/>
<stop offset="0.61" stop-color="#E7E8EA"/>
<stop offset="1" stop-color="#CBCCD0"/>
</linearGradient>
<linearGradient id="paint12_linear_617_3116" x1="110.41" y1="99.5297" x2="124.772" y2="99.5297" gradientUnits="userSpaceOnUse">
<stop stop-color="#D0D2D3"/>
<stop offset="0.19" stop-color="#DADCDD"/>
<stop offset="0.47" stop-color="#F3F3F5"/>
<stop offset="0.61" stop-color="#E7E8EA"/>
<stop offset="1" stop-color="#CBCCD0"/>
</linearGradient>
<linearGradient id="paint13_linear_617_3116" x1="126.627" y1="99.3516" x2="131.441" y2="99.3516" gradientUnits="userSpaceOnUse">
<stop stop-color="#D0D2D3"/>
<stop offset="0.19" stop-color="#DADCDD"/>
<stop offset="0.47" stop-color="#F3F3F5"/>
<stop offset="0.61" stop-color="#E7E8EA"/>
<stop offset="1" stop-color="#CBCCD0"/>
</linearGradient>
<linearGradient id="paint14_linear_617_3116" x1="735.305" y1="63.0186" x2="754.178" y2="63.0186" gradientUnits="userSpaceOnUse">
<stop stop-color="#D0D2D3"/>
<stop offset="0.19" stop-color="#DADCDD"/>
<stop offset="0.47" stop-color="#F3F3F5"/>
<stop offset="0.61" stop-color="#E7E8EA"/>
<stop offset="1" stop-color="#CBCCD0"/>
</linearGradient>
<linearGradient id="paint15_linear_617_3116" x1="754.625" y1="63.0186" x2="770.605" y2="63.0186" gradientUnits="userSpaceOnUse">
<stop stop-color="#D0D2D3"/>
<stop offset="0.19" stop-color="#DADCDD"/>
<stop offset="0.47" stop-color="#F3F3F5"/>
<stop offset="0.61" stop-color="#E7E8EA"/>
<stop offset="1" stop-color="#CBCCD0"/>
</linearGradient>
<linearGradient id="paint16_linear_617_3116" x1="771.846" y1="63.0186" x2="777.239" y2="63.0186" gradientUnits="userSpaceOnUse">
<stop stop-color="#D0D2D3"/>
<stop offset="0.19" stop-color="#DADCDD"/>
<stop offset="0.47" stop-color="#F3F3F5"/>
<stop offset="0.61" stop-color="#E7E8EA"/>
<stop offset="1" stop-color="#CBCCD0"/>
</linearGradient>
<linearGradient id="paint17_linear_617_3116" x1="200.687" y1="43.4577" x2="213.023" y2="43.4577" gradientUnits="userSpaceOnUse">
<stop stop-color="#D0D2D3"/>
<stop offset="0.19" stop-color="#DADCDD"/>
<stop offset="0.47" stop-color="#F3F3F5"/>
<stop offset="0.61" stop-color="#E7E8EA"/>
<stop offset="1" stop-color="#CBCCD0"/>
</linearGradient>
<linearGradient id="paint18_linear_617_3116" x1="220.78" y1="43.4528" x2="233.115" y2="43.4528" gradientUnits="userSpaceOnUse">
<stop stop-color="#D0D2D3"/>
<stop offset="0.19" stop-color="#DADCDD"/>
<stop offset="0.47" stop-color="#F3F3F5"/>
<stop offset="0.61" stop-color="#E7E8EA"/>
<stop offset="1" stop-color="#CBCCD0"/>
</linearGradient>
<radialGradient id="paint19_radial_617_3116" cx="0" cy="0" r="1" gradientUnits="userSpaceOnUse" gradientTransform="translate(311.943 449.565) rotate(180) scale(67.0287 5.58802)">
<stop/>
<stop offset="0.07" stop-color="#1F1F1F"/>
<stop offset="0.21" stop-color="#595959"/>
<stop offset="0.36" stop-color="#8C8C8C"/>
<stop offset="0.5" stop-color="#B5B5B5"/>
<stop offset="0.64" stop-color="#D5D5D5"/>
<stop offset="0.77" stop-color="#ECECEC"/>
<stop offset="0.89" stop-color="#FAFAFA"/>
<stop offset="1" stop-color="white"/>
</radialGradient>
<linearGradient id="paint20_linear_617_3116" x1="317.074" y1="369.271" x2="317.074" y2="469.924" gradientUnits="userSpaceOnUse">
<stop stop-color="#F2F2F2"/>
<stop offset="0.25" stop-color="#EEEEEF"/>
<stop offset="0.44" stop-color="#E5E5E5"/>
<stop offset="0.61" stop-color="#D4D5D6"/>
<stop offset="0.77" stop-color="#BDBEC0"/>
<stop offset="0.92" stop-color="#A0A1A4"/>
<stop offset="1" stop-color="#8E8F93"/>
</linearGradient>
</defs>
</svg>
