<svg width="738" height="513" viewBox="0 0 738 513" fill="none" xmlns="http://www.w3.org/2000/svg">
<path opacity="0.6" d="M541.583 126.305V247.055C541.583 251.867 537.696 255.755 532.883 255.755H326.366C321.553 255.755 317.666 251.867 317.666 247.055V126.305C317.666 121.493 321.553 117.605 326.366 117.605H532.883C537.696 117.605 541.583 121.496 541.583 126.305Z" fill="#BDA76A"/>
<path d="M541.583 126.305V132.555H317.666V126.305C317.666 121.493 321.553 117.605 326.366 117.605H532.883C537.696 117.605 541.583 121.496 541.583 126.305Z" fill="#BDA76A"/>
<path d="M507.668 128.29C509.441 128.29 510.878 126.852 510.878 125.079C510.878 123.306 509.441 121.868 507.668 121.868C505.894 121.868 504.457 123.306 504.457 125.079C504.457 126.852 505.894 128.29 507.668 128.29Z" fill="white"/>
<path d="M517.503 128.29C519.277 128.29 520.714 126.852 520.714 125.079C520.714 123.306 519.277 121.868 517.503 121.868C515.73 121.868 514.293 123.306 514.293 125.079C514.293 126.852 515.73 128.29 517.503 128.29Z" fill="white"/>
<path d="M527.334 128.29C529.108 128.29 530.545 126.852 530.545 125.079C530.545 123.306 529.108 121.868 527.334 121.868C525.561 121.868 524.124 123.306 524.124 125.079C524.124 126.852 525.561 128.29 527.334 128.29Z" fill="white"/>
<path d="M390.252 158.35H338.021V166.282H390.252V158.35Z" fill="#9C8C60"/>
<path d="M451.154 166.394H397.171V158.234H451.154V166.394ZM398.923 164.642H449.401V159.987H398.923V164.642Z" fill="#9C8C60"/>
<path d="M501.979 175.409H338.021V176.997H501.979V175.409Z" fill="white"/>
<path d="M461.375 185.329H338.021V186.917H461.375V185.329Z" fill="white"/>
<path d="M416.393 195.249H338.021V196.837H416.393V195.249Z" fill="white"/>
<path d="M501.98 195.249H422.037V196.837H501.98V195.249Z" fill="white"/>
<path d="M501.98 185.329H467.31V186.917H501.98V185.329Z" fill="white"/>
<path d="M438.255 205.168H338.021V206.752H438.255V205.168Z" fill="white"/>
<path d="M501.979 214.675H338.021V216.263H501.979V214.675Z" fill="white"/>
<path d="M699.843 73.8021V131.473C699.843 133.772 697.986 135.626 695.69 135.626H597.054C594.755 135.626 592.901 133.769 592.901 131.473V73.8021C592.901 71.5027 594.758 69.6484 597.054 69.6484H695.69C697.986 69.6449 699.843 71.5027 699.843 73.8021Z" fill="white"/>
<path d="M699.844 73.8021V76.785H592.897V73.8021C592.897 71.5027 594.755 69.6484 597.051 69.6484H695.687C697.986 69.6449 699.844 71.5027 699.844 73.8021Z" fill="#BDA76A"/>
<path d="M683.647 74.7491C684.493 74.7491 685.178 74.0633 685.178 73.2173C685.178 72.3714 684.493 71.6855 683.647 71.6855C682.801 71.6855 682.115 72.3714 682.115 73.2173C682.115 74.0633 682.801 74.7491 683.647 74.7491Z" fill="white"/>
<path d="M688.343 74.7491C689.189 74.7491 689.875 74.0633 689.875 73.2173C689.875 72.3714 689.189 71.6855 688.343 71.6855C687.497 71.6855 686.811 72.3714 686.811 73.2173C686.811 74.0633 687.497 74.7491 688.343 74.7491Z" fill="white"/>
<path d="M693.041 74.7491C693.887 74.7491 694.573 74.0633 694.573 73.2173C694.573 72.3714 693.887 71.6855 693.041 71.6855C692.195 71.6855 691.51 72.3714 691.51 73.2173C691.51 74.0633 692.195 74.7491 693.041 74.7491Z" fill="white"/>
<g opacity="0.8">
<path d="M633.957 128.178C625.748 124.035 620.652 115.756 620.652 106.569C620.652 93.2319 631.504 82.3799 644.841 82.3799V90.3436C635.892 90.3436 628.615 97.6239 628.615 106.569C628.615 112.731 632.036 118.287 637.547 121.066L633.957 128.178Z" fill="#96834F"/>
<path d="M656.74 117.596C653.677 120.898 649.341 122.794 644.84 122.794C642.271 122.794 639.817 122.212 637.546 121.066L633.957 128.178C637.353 129.892 641.013 130.758 644.84 130.758C651.549 130.758 658.016 127.932 662.584 123.011L656.74 117.596Z" fill="#C4B386"/>
<path d="M662.584 123.011L656.74 117.596C659.531 114.588 661.062 110.673 661.062 106.568H669.026C669.03 112.688 666.741 118.528 662.584 123.011Z" fill="#BDA76A"/>
<path d="M669.03 106.569H661.066C661.066 97.6239 653.786 90.3436 644.841 90.3436V82.3799C658.178 82.3799 669.03 93.2319 669.03 106.569Z" fill="#A69054"/>
</g>
<path d="M572.667 355.369H148.542V82.842C148.542 75.1096 154.83 68.8213 162.562 68.8213H558.647C566.379 68.8213 572.667 75.1096 572.667 82.842V355.369ZM149.418 354.493H571.791V82.842C571.791 75.5933 565.895 69.6976 558.647 69.6976H162.562C155.314 69.6976 149.418 75.5933 149.418 82.842V354.493Z" fill="#F9F9F9"/>
<path d="M149.418 354.493H571.791V82.842C571.791 75.5933 565.895 69.6976 558.647 69.6976H162.562C155.314 69.6976 149.418 75.5933 149.418 82.842V354.493Z" fill="#F9F9F9"/>
<path d="M555.066 340.472H166.143C162.641 340.472 159.795 337.622 159.795 334.121V93.2805C159.795 89.7788 162.645 86.9326 166.143 86.9326H555.066C558.568 86.9326 561.417 89.7823 561.417 93.2805V334.121C561.417 337.622 558.568 340.472 555.066 340.472ZM166.143 87.8054C163.125 87.8054 160.671 90.259 160.671 93.277V334.117C160.671 337.135 163.125 339.592 166.143 339.592H555.066C558.084 339.592 560.541 337.135 560.541 334.117V93.277C560.541 90.259 558.084 87.8054 555.066 87.8054H166.143Z" fill="black"/>
<path d="M166.143 87.8054C163.125 87.8054 160.671 90.259 160.671 93.277V334.117C160.671 337.135 163.125 339.592 166.143 339.592H555.066C558.084 339.592 560.541 337.135 560.541 334.117V93.277C560.541 90.259 558.084 87.8054 555.066 87.8054H166.143Z" fill="black"/>
<path d="M180.764 75.3066H170.108V87.5747H180.764V75.3066Z" fill="#9C8C60"/>
<path d="M195.065 54.8604H184.41V87.5741H195.065V54.8604Z" fill="#9C8C60"/>
<path d="M209.367 41.9336H198.711V87.5744H209.367V41.9336Z" fill="#9C8C60"/>
<path d="M223.663 54.8604H213.007V87.5741H223.663V54.8604Z" fill="#9C8C60"/>
<path d="M237.965 16.083H227.309V87.5744H237.965V16.083Z" fill="#9C8C60"/>
<path d="M251.744 4.47363H241.088V87.5742H251.744V4.47363Z" fill="#9C8C60"/>
<path d="M336.366 68.3486H325.71V75.5728H336.366V68.3486Z" fill="#BDA76A"/>
<path d="M322.064 68.3486H311.409V87.6095H322.064V68.3486Z" fill="#BDA76A"/>
<path d="M307.767 68.3486H297.111V95.2193H307.767V68.3486Z" fill="#BDA76A"/>
<path d="M293.467 68.3486H282.811V87.6095H293.467V68.3486Z" fill="#BDA76A"/>
<path d="M279.166 68.3486H268.51V110.439H279.166V68.3486Z" fill="#BDA76A"/>
<path d="M265.386 68.3486H254.731V117.277H265.386V68.3486Z" fill="#BDA76A"/>
<path d="M360.606 82.2175C358.846 82.2175 357.413 80.7839 357.413 79.0243C357.413 77.2647 358.846 75.8311 360.606 75.8311C362.369 75.8311 363.799 77.2647 363.799 79.0243C363.799 80.7839 362.365 82.2175 360.606 82.2175ZM360.606 76.7073C359.326 76.7073 358.289 77.7484 358.289 79.0243C358.289 80.3037 359.326 81.3412 360.606 81.3412C361.885 81.3412 362.923 80.3002 362.923 79.0243C362.923 77.7449 361.885 76.7073 360.606 76.7073Z" fill="#BDA76A"/>
<path d="M597.204 368.219H125.763C118.847 368.219 101.917 362.467 101.917 354.927V354.489H621.047V354.927C621.047 362.467 604.117 368.219 597.204 368.219ZM102.818 355.369C103.512 361.945 119.608 367.346 125.763 367.346H597.204C603.36 367.346 619.455 361.948 620.146 355.369H102.818Z" fill="url(#paint0_linear_734_981)"/>
<path d="M102.818 355.369C103.512 361.945 119.608 367.346 125.763 367.346H597.204C603.36 367.346 619.455 361.948 620.146 355.369H102.818Z" fill="url(#paint1_linear_734_981)"/>
<path d="M400.476 360.406H322.703C319.685 360.406 317.225 357.949 317.225 354.927V354.489H405.951V354.927C405.951 357.949 403.494 360.406 400.476 360.406ZM318.125 355.369C318.346 357.704 320.316 359.533 322.707 359.533H400.479C402.87 359.533 404.84 357.704 405.061 355.369H318.125Z" fill="black"/>
<path d="M726.107 368.218H646.455C641.156 368.218 636.844 363.907 636.844 358.607V169.857C636.844 164.557 641.156 160.246 646.455 160.246H726.107C731.407 160.246 735.718 164.557 735.718 169.857V358.607C735.718 363.907 731.407 368.218 726.107 368.218ZM646.455 161.122C641.639 161.122 637.721 165.041 637.721 169.857V358.607C637.721 363.423 641.639 367.342 646.455 367.342H726.107C730.923 367.342 734.842 363.423 734.842 358.607V169.857C734.842 165.041 730.923 161.122 726.107 161.122H646.455Z" fill="#F9F9F9"/>
<path d="M646.455 161.122C641.639 161.122 637.721 165.041 637.721 169.857V358.607C637.721 363.423 641.639 367.342 646.455 367.342H726.107C730.923 367.342 734.842 363.423 734.842 358.607V169.857C734.842 165.041 730.923 161.122 726.107 161.122H646.455Z" fill="#F9F9F9"/>
<path d="M726.317 357.121H646.245C642.582 357.121 639.6 354.138 639.6 350.475V177.99C639.6 174.327 642.582 171.344 646.245 171.344H726.317C729.98 171.344 732.963 174.323 732.963 177.99V350.472C732.96 354.138 729.98 357.121 726.317 357.121ZM646.245 172.224C643.063 172.224 640.476 174.81 640.476 177.993V350.475C640.476 353.658 643.063 356.245 646.245 356.245H726.317C729.497 356.245 732.087 353.658 732.087 350.475V177.99C732.087 174.81 729.5 172.22 726.317 172.22H646.245V172.224Z" fill="black"/>
<path d="M646.245 172.224C643.063 172.224 640.476 174.81 640.476 177.993V350.475C640.476 353.658 643.063 356.245 646.245 356.245H726.317C729.497 356.245 732.087 353.658 732.087 350.475V177.99C732.087 174.81 729.5 172.22 726.317 172.22H646.245V172.224Z" fill="black"/>
<path d="M737.999 207.201H737.123V232.834H737.999V207.201Z" fill="#BDA76A"/>
<path d="M737.999 242.362H737.123V254.522H737.999V242.362Z" fill="#BDA76A"/>
<path d="M709.352 169.426C708.202 169.426 707.27 168.493 707.27 167.344C707.27 166.194 708.202 165.262 709.352 165.262C710.501 165.262 711.434 166.194 711.434 167.344C711.434 168.493 710.501 169.426 709.352 169.426ZM709.352 165.921C708.566 165.921 707.928 166.559 707.928 167.344C707.928 168.129 708.566 168.767 709.352 168.767C710.137 168.767 710.775 168.129 710.775 167.344C710.778 166.559 710.137 165.921 709.352 165.921Z" fill="#BDA76A"/>
<path d="M692.394 168.827H680.165C679.348 168.827 678.686 168.164 678.686 167.347C678.686 166.531 679.352 165.868 680.165 165.868H692.394C693.211 165.868 693.873 166.531 693.873 167.347C693.873 168.161 693.211 168.827 692.394 168.827ZM680.165 166.524C679.713 166.524 679.341 166.892 679.341 167.347C679.341 167.8 679.709 168.171 680.165 168.171H692.394C692.846 168.171 693.218 167.803 693.218 167.347C693.218 166.895 692.85 166.524 692.394 166.524H680.165Z" fill="#BDA76A"/>
<path d="M691.089 352.666H681.471C680.595 352.666 679.88 351.951 679.88 351.075C679.88 350.198 680.595 349.483 681.471 349.483H691.089C691.966 349.483 692.677 350.198 692.677 351.075C692.677 351.951 691.966 352.666 691.089 352.666ZM681.471 350.36C681.079 350.36 680.756 350.679 680.756 351.075C680.756 351.471 681.075 351.79 681.471 351.79H691.089C691.482 351.79 691.801 351.471 691.801 351.075C691.801 350.679 691.482 350.36 691.089 350.36H681.471Z" fill="#9C8C60"/>
<path d="M260.689 149.077V288.951C260.689 294.524 256.185 299.029 250.612 299.029H11.3838C5.81054 299.029 1.3064 294.524 1.3064 288.951V149.077C1.3064 143.504 5.81054 139 11.3838 139H250.612C256.185 139 260.689 143.504 260.689 149.077Z" fill="white" stroke="#BDA76A" stroke-width="1.56775"/>
<path d="M260.689 149.077V156.316H1.3064V149.077C1.3064 143.504 5.81054 139 11.3838 139H250.612C256.185 139 260.689 143.504 260.689 149.077Z" fill="#BDA76A"/>
<path d="M221.4 151.376C223.454 151.376 225.119 149.711 225.119 147.657C225.119 145.604 223.454 143.938 221.4 143.938C219.346 143.938 217.681 145.604 217.681 147.657C217.681 149.711 219.346 151.376 221.4 151.376Z" fill="white"/>
<path d="M232.792 151.376C234.846 151.376 236.511 149.711 236.511 147.657C236.511 145.604 234.846 143.938 232.792 143.938C230.738 143.938 229.073 145.604 229.073 147.657C229.073 149.711 230.738 151.376 232.792 151.376Z" fill="white"/>
<path d="M244.184 151.376C246.238 151.376 247.903 149.711 247.903 147.657C247.903 145.604 246.238 143.938 244.184 143.938C242.13 143.938 240.465 145.604 240.465 147.657C240.465 149.711 242.13 151.376 244.184 151.376Z" fill="white"/>
<path d="M111.665 222.543C111.665 247.78 91.1952 268.25 65.958 268.25C65.1869 268.25 64.4157 268.233 63.6621 268.18V222.561L63.6796 222.543H111.665Z" fill="#C4B386"/>
<path d="M63.6786 222.543L63.6621 222.559V222.543H63.6786Z" fill="#4738B3"/>
<path d="M63.6628 176.887V268.179C53.0421 267.671 43.3678 263.517 35.8843 256.945C30.1007 251.915 25.6141 245.448 22.9677 238.104C21.2151 233.25 20.2512 228.01 20.2512 222.542C20.2512 217.459 21.0749 212.569 22.6172 208.013C28.4533 190.592 44.4895 177.833 63.6628 176.887Z" fill="#96834F"/>
<path d="M111.667 222.542H63.6812L97.103 189.12C106.059 197.445 111.667 209.345 111.667 222.542Z" fill="#BDA76A"/>
<path d="M97.1014 189.121L63.6796 222.542H63.6621V176.888C64.4157 176.853 65.1869 176.835 65.958 176.835C77.7354 176.835 88.4962 181.304 96.5932 188.647C96.7684 188.805 96.9437 188.963 97.1014 189.121Z" fill="#A69054"/>
<path d="M185.328 181.784H138.008V190.547H185.328V181.784Z" fill="#BDA76A"/>
<path d="M242.287 200.631H138.008V202.383H242.287V200.631Z" fill="#BDA76A"/>
<path d="M242.287 211.592H138.008V213.344H242.287V211.592Z" fill="#BDA76A"/>
<path d="M242.287 222.554H138.008V224.306H242.287V222.554Z" fill="#BDA76A"/>
<path d="M201.76 233.514H138.008V235.266H201.76V233.514Z" fill="#BDA76A"/>
<path opacity="0.6" d="M487.128 171.842V266.822C487.128 270.607 484.071 273.664 480.286 273.664H317.842C314.057 273.664 311 270.604 311 266.822V171.842C311 168.057 314.06 165 317.842 165H480.286C484.071 165 487.128 168.057 487.128 171.842Z" fill="#BDA76A"/>
<path d="M487.128 171.842V176.756H311V171.842C311 168.057 314.06 165 317.842 165H480.286C484.071 165 487.128 168.057 487.128 171.842Z" fill="#BDA76A"/>
<path d="M460.453 173.402C461.847 173.402 462.977 172.272 462.977 170.878C462.977 169.484 461.847 168.354 460.453 168.354C459.059 168.354 457.929 169.484 457.929 170.878C457.929 172.272 459.059 173.402 460.453 173.402Z" fill="white"/>
<path d="M468.186 173.402C469.58 173.402 470.71 172.272 470.71 170.878C470.71 169.484 469.58 168.354 468.186 168.354C466.792 168.354 465.662 169.484 465.662 170.878C465.662 172.272 466.792 173.402 468.186 173.402Z" fill="white"/>
<path d="M475.922 173.402C477.315 173.402 478.445 172.272 478.445 170.878C478.445 169.484 477.315 168.354 475.922 168.354C474.528 168.354 473.398 169.484 473.398 170.878C473.398 172.272 474.528 173.402 475.922 173.402Z" fill="white"/>
<path d="M477.172 263.422V193.28C477.172 193.28 454.564 230.751 438.528 229.674C427.602 228.938 405.835 186.957 389.799 200.066C375.761 211.542 368.838 236.618 357.432 237.582C337.021 239.31 320.957 218.146 320.957 218.146C320.957 218.146 320.957 258.739 320.957 263.426H477.172V263.422Z" fill="#BDA76A"/>
<path d="M321.833 263.716L320.077 263.13C320.137 262.952 326.141 244.963 333.351 230.035C338.062 220.287 342.437 215.52 347.123 215.029C353.082 214.405 358.137 220.932 363.489 227.844C368.989 234.949 374.677 242.299 381.583 242.548C381.611 242.548 381.639 242.548 381.67 242.548C385.729 242.548 390.559 232.096 395.232 221.99C400.766 210.017 406.487 197.636 413.318 195.719C415.348 195.155 417.36 195.523 419.309 196.827C426.309 201.52 429.004 211.836 431.384 220.939C433.666 229.674 435.653 237.245 440.596 236.659C445.661 236.088 449.902 230.865 453.645 226.256C458.03 220.858 462.173 215.758 466.972 219.119C473.705 223.834 475.861 243.572 477.291 256.635C477.589 259.348 477.845 261.69 478.087 263.281L476.257 263.558C476.008 261.928 475.749 259.566 475.451 256.832C474.231 245.661 471.953 224.864 465.906 220.634C462.682 218.376 459.692 221.745 455.079 227.423C451.111 232.306 446.614 237.841 440.799 238.5C434.255 239.236 432.092 230.977 429.593 221.408C427.297 212.624 424.693 202.666 418.278 198.365C416.778 197.359 415.323 197.079 413.82 197.5C407.812 199.186 402.021 211.713 396.914 222.765C391.499 234.476 386.774 244.595 381.519 244.395C373.752 244.115 367.793 236.417 362.031 228.976C357.004 222.484 352.255 216.347 347.323 216.869C343.39 217.283 339.366 221.85 335.023 230.837C327.859 245.664 321.893 263.537 321.833 263.716Z" fill="#9C8C60"/>
<path d="M667.964 226.382C655.811 226.382 645.923 216.494 645.923 204.341C645.923 192.189 655.811 182.301 667.964 182.301C680.116 182.301 690.004 192.189 690.004 204.341C690.004 216.494 680.12 226.382 667.964 226.382ZM667.964 191.064C660.641 191.064 654.686 197.019 654.686 204.341C654.686 211.664 660.641 217.619 667.964 217.619C675.286 217.619 681.241 211.664 681.241 204.341C681.241 197.019 675.286 191.064 667.964 191.064Z" fill="#9C8C60"/>
<path d="M667.964 279.955C655.811 279.955 645.923 270.067 645.923 257.915C645.923 245.762 655.811 235.874 667.964 235.874C680.116 235.874 690.004 245.762 690.004 257.915C690.004 270.067 680.12 279.955 667.964 279.955ZM667.964 244.637C660.641 244.637 654.686 250.592 654.686 257.915C654.686 265.237 660.641 271.192 667.964 271.192C675.286 271.192 681.241 265.237 681.241 257.915C681.241 250.592 675.286 244.637 667.964 244.637Z" fill="#BDA76A"/>
<path d="M722.171 189.224H697.197V194.92H722.171V189.224Z" fill="#BDA76A"/>
<path d="M725.021 200.398H697.197V201.713H725.021V200.398Z" fill="#BDA76A"/>
<path d="M725.021 206.532H697.197V207.847H725.021V206.532Z" fill="#BDA76A"/>
<path d="M725.021 212.666H697.197V213.98H725.021V212.666Z" fill="#BDA76A"/>
<path d="M714.137 218.8H697.197V220.114H714.137V218.8Z" fill="#BDA76A"/>
<path d="M722.171 240.96H697.197V246.656H722.171V240.96Z" fill="#9C8C60"/>
<path d="M725.021 252.131H697.197V253.445H725.021V252.131Z" fill="#9C8C60"/>
<path d="M725.021 258.265H697.197V259.579H725.021V258.265Z" fill="#9C8C60"/>
<path d="M725.021 264.398H697.197V265.713H725.021V264.398Z" fill="#9C8C60"/>
<path d="M714.137 270.533H697.197V271.848H714.137V270.533Z" fill="#9C8C60"/>
<path d="M680.123 295.143H646.372V300.838H680.123V295.143Z" fill="#9C8C60"/>
<path d="M708.71 300.933H685.622V295.048H708.71V300.933ZM686.936 299.619H707.396V296.362H686.936V299.619Z" fill="#9C8C60"/>
<path d="M725.021 306.313H646.372V307.628H725.021V306.313Z" fill="#9C8C60"/>
<path d="M725.021 312.448H646.372V313.763H725.021V312.448Z" fill="#9C8C60"/>
<path d="M725.021 318.582H646.372V319.896H725.021V318.582Z" fill="#9C8C60"/>
<path d="M694.263 324.716H646.372V326.03H694.263V324.716Z" fill="#9C8C60"/>
<path d="M566.691 246.633C545.589 246.633 528.432 263.791 528.432 284.892C528.432 305.975 545.589 323.151 566.691 323.151C587.774 323.151 604.949 305.975 604.949 284.892C604.949 263.791 587.774 246.633 566.691 246.633ZM566.691 306.589C554.685 306.589 544.959 296.879 544.959 284.892C544.959 272.904 554.685 263.177 566.691 263.177C578.678 263.177 588.405 272.904 588.405 284.892C588.405 296.879 578.678 306.589 566.691 306.589Z" fill="#BDA76A"/>
<path d="M610.138 273.71C608.21 269.048 607.246 266.7 605.318 262.055L609.367 253.503C603.724 247.86 603.706 247.842 598.045 242.181L589.493 246.265C584.848 244.337 582.517 243.355 577.855 241.428L574.683 232.524H558.682L555.51 241.428C550.866 243.355 548.517 244.337 543.873 246.265L535.32 242.181L523.998 253.503L528.064 262.055C526.119 266.7 525.173 269.048 523.245 273.71L514.307 276.882V292.883L523.245 296.056C525.173 300.717 526.119 303.066 528.064 307.71L523.998 316.263C529.642 321.906 529.659 321.924 535.32 327.585L543.873 323.501C548.517 325.429 550.866 326.41 555.51 328.338L558.682 337.241H574.683L577.855 328.338C582.517 326.41 584.848 325.429 589.493 323.501L598.045 327.585C603.706 321.924 603.724 321.906 609.367 316.263L605.318 307.71C607.246 303.066 608.21 300.717 610.138 296.056L619.059 292.883V276.882L610.138 273.71ZM566.691 323.151C545.59 323.151 528.433 305.975 528.433 284.892C528.433 263.791 545.59 246.633 566.691 246.633C587.775 246.633 604.95 263.791 604.95 284.892C604.95 305.972 587.775 323.151 566.691 323.151Z" fill="#9C8C60"/>
<path d="M454.273 58.3691L438.875 72.0463C441.139 68.783 442.612 64.8291 442.612 61.3345C442.612 58.4182 441.609 56.231 439.786 55.1794C437.95 54.1173 435.524 54.3522 432.962 55.8314C427.813 58.8037 423.621 66.0314 423.621 71.9446C423.621 74.8644 424.623 77.0482 426.446 78.1032C427.206 78.5414 428.065 78.7587 428.994 78.7587C429.982 78.7587 431.052 78.5133 432.156 78.0226L416.046 92.3307L416.456 92.7934L454.683 58.8388L454.273 58.3691ZM426.754 77.5564C425.131 76.6205 424.241 74.6226 424.241 71.9376C424.241 66.2242 428.293 59.2384 433.27 56.3642C434.676 55.551 436.029 55.1408 437.238 55.1408C438.058 55.1408 438.815 55.3301 439.478 55.7122C441.101 56.6481 441.995 58.6425 441.995 61.331C441.995 67.0444 437.943 74.0337 432.965 76.908C430.596 78.2715 428.395 78.5028 426.754 77.5564Z" fill="url(#paint2_linear_734_981)"/>
<path d="M454.273 58.3691L438.875 72.0463C441.139 68.783 442.612 64.8291 442.612 61.3345C442.612 58.4182 441.609 56.231 439.786 55.1794C437.95 54.1173 435.524 54.3522 432.962 55.8314C427.813 58.8037 423.621 66.0314 423.621 71.9446C423.621 74.8644 424.623 77.0482 426.446 78.1032C427.206 78.5414 428.065 78.7587 428.994 78.7587C429.982 78.7587 431.052 78.5133 432.156 78.0226L416.046 92.3307L416.456 92.7934L454.683 58.8388L454.273 58.3691ZM426.754 77.5564C425.131 76.6205 424.241 74.6226 424.241 71.9376C424.241 66.2242 428.293 59.2384 433.27 56.3642C434.676 55.551 436.029 55.1408 437.238 55.1408C438.058 55.1408 438.815 55.3301 439.478 55.7122C441.101 56.6481 441.995 58.6425 441.995 61.331C441.995 67.0444 437.943 74.0337 432.965 76.908C430.596 78.2715 428.395 78.5028 426.754 77.5564Z" fill="#BDA76A"/>
<path d="M452.907 60.5035L499.505 17.8877L456.538 50.9064L452.907 60.5035Z" fill="#E6CB81"/>
<path d="M472.991 60.5035L437.95 38.1791L499.504 17.8877L472.991 60.5035Z" fill="#BDA76A"/>
<path d="M451.368 46.7282L452.907 60.5035L459.363 51.8212L499.505 17.8877L451.368 46.7282Z" fill="#9C8C60"/>
<path d="M259.512 414.399L215.845 453.188C222.266 443.927 226.445 432.721 226.445 422.805C226.445 414.529 223.598 408.329 218.435 405.346C213.223 402.338 206.349 402.994 199.076 407.193C184.47 415.626 172.584 436.125 172.584 452.886C172.584 461.165 175.43 467.363 180.597 470.349C182.753 471.593 185.189 472.21 187.821 472.21C190.625 472.21 193.65 471.509 196.791 470.121L151.104 510.7L152.272 512.015L260.683 415.721L259.512 414.399ZM181.477 468.821C176.878 466.164 174.344 460.503 174.344 452.883C174.344 436.682 185.834 416.864 199.956 408.711C203.948 406.408 207.78 405.24 211.204 405.24C213.532 405.24 215.677 405.78 217.555 406.863C222.154 409.517 224.688 415.178 224.688 422.801C224.688 439.006 213.199 458.82 199.076 466.974C192.371 470.847 186.118 471.502 181.477 468.821Z" fill="url(#paint3_linear_734_981)"/>
<path d="M259.512 414.399L215.845 453.188C222.266 443.927 226.445 432.721 226.445 422.805C226.445 414.529 223.598 408.329 218.435 405.346C213.223 402.338 206.349 402.994 199.076 407.193C184.47 415.626 172.584 436.125 172.584 452.886C172.584 461.165 175.43 467.363 180.597 470.349C182.753 471.593 185.189 472.21 187.821 472.21C190.625 472.21 193.65 471.509 196.791 470.121L151.104 510.7L152.272 512.015L260.683 415.721L259.512 414.399ZM181.477 468.821C176.878 466.164 174.344 460.503 174.344 452.883C174.344 436.682 185.834 416.864 199.956 408.711C203.948 406.408 207.78 405.24 211.204 405.24C213.532 405.24 215.677 405.78 217.555 406.863C222.154 409.517 224.688 415.178 224.688 422.801C224.688 439.006 213.199 458.82 199.076 466.974C192.371 470.847 186.118 471.502 181.477 468.821Z" fill="#BDA76A"/>
<path d="M255.644 420.449L387.795 299.591L265.942 393.235L255.644 420.449Z" fill="#E6CB81"/>
<path d="M312.602 420.449L213.22 357.146L387.795 299.591L312.602 420.449Z" fill="#BDA76A"/>
<path d="M251.276 381.387L255.643 420.449L273.947 395.829L387.795 299.591L251.276 381.387Z" fill="#9C8C60"/>
<path d="M324.3 19.6395C323.378 17.4137 322.922 16.299 322 14.0838L323.935 10.0073C321.243 7.31529 321.236 7.30829 318.537 4.60931L314.46 6.55468C312.245 5.63282 311.127 5.16663 308.912 4.24477L307.394 0H299.77L298.253 4.24477C296.037 5.16663 294.919 5.63282 292.704 6.55468L288.627 4.60931C285.928 7.30829 285.918 7.31879 283.229 10.0073L285.164 14.0838C284.242 16.299 283.787 17.4172 282.865 19.6395L278.61 21.1467V28.781L282.865 30.2882C283.787 32.514 284.242 33.6286 285.164 35.8439L283.229 39.9204C285.921 42.6088 285.928 42.6194 288.627 45.3183L292.704 43.373C294.919 44.2948 296.037 44.761 298.253 45.6829L299.77 49.9276H307.394L308.912 45.6829C311.127 44.761 312.245 44.2948 314.46 43.373L318.537 45.3183C321.236 42.6194 321.246 42.6088 323.935 39.9204L322 35.8439C322.922 33.6286 323.378 32.5105 324.3 30.2882L328.555 28.781V21.1467L324.3 19.6395ZM303.587 35.3146C297.864 35.3146 293.226 30.6808 293.226 24.9638C293.226 19.2469 297.86 14.6131 303.587 14.6131C309.304 14.6131 313.938 19.2504 313.938 24.9638C313.938 30.6808 309.304 35.3146 303.587 35.3146Z" fill="#9C8C60"/>
<path d="M303.585 44.042C293.066 44.042 284.506 35.4824 284.506 24.9634C284.506 14.4444 293.062 5.88477 303.585 5.88477C314.104 5.88477 322.66 14.4444 322.66 24.9634C322.66 35.4824 314.104 44.042 303.585 44.042ZM303.585 6.7225C293.525 6.7225 285.344 14.9071 285.344 24.9634C285.344 35.0232 293.528 43.2043 303.585 43.2043C313.641 43.2043 321.826 35.0197 321.826 24.9634C321.826 14.9036 313.641 6.7225 303.585 6.7225Z" fill="#BDA76A"/>
<defs>
<linearGradient id="paint0_linear_734_981" x1="81.1713" y1="361.354" x2="658.756" y2="361.354" gradientUnits="userSpaceOnUse">
<stop stop-color="#D0D2D3"/>
<stop offset="0.19" stop-color="#DADCDD"/>
<stop offset="0.47" stop-color="#F3F3F5"/>
<stop offset="0.61" stop-color="#E7E8EA"/>
<stop offset="1" stop-color="#CBCCD0"/>
</linearGradient>
<linearGradient id="paint1_linear_734_981" x1="81.1713" y1="361.354" x2="658.756" y2="361.354" gradientUnits="userSpaceOnUse">
<stop stop-color="#D0D2D3"/>
<stop offset="0.19" stop-color="#DADCDD"/>
<stop offset="0.47" stop-color="#F3F3F5"/>
<stop offset="0.61" stop-color="#E7E8EA"/>
<stop offset="1" stop-color="#CBCCD0"/>
</linearGradient>
<linearGradient id="paint2_linear_734_981" x1="457.783" y1="46.4018" x2="411.89" y2="84.9296" gradientUnits="userSpaceOnUse">
<stop stop-color="white"/>
<stop offset="0.0401" stop-color="#F5F5F5"/>
<stop offset="0.5192" stop-color="#808080"/>
<stop offset="0.8485" stop-color="#363636"/>
<stop offset="1" stop-color="#1A1A1A"/>
</linearGradient>
<linearGradient id="paint3_linear_734_981" x1="269.471" y1="380.46" x2="139.314" y2="489.727" gradientUnits="userSpaceOnUse">
<stop stop-color="white"/>
<stop offset="0.0401" stop-color="#F5F5F5"/>
<stop offset="0.5192" stop-color="#808080"/>
<stop offset="0.8485" stop-color="#363636"/>
<stop offset="1" stop-color="#1A1A1A"/>
</linearGradient>
</defs>
</svg>
