<svg width="203" height="137" viewBox="0 0 203 137" fill="none" xmlns="http://www.w3.org/2000/svg">
<path d="M23.9167 0H0V88.9589L23.9167 88.9589V0Z" fill="#4285F4"/>
<path d="M47.3961 77.137H42.7294V41.2362H55.1252C58.1877 41.2362 60.8127 42.2455 63.1461 44.264C65.3336 46.2825 66.5002 48.8778 66.5002 51.9055C66.5002 54.9333 65.3336 57.5286 63.1461 59.5471C60.9586 61.5656 58.1877 62.5748 55.1252 62.5748H47.3961V77.137ZM47.3961 58.1053H55.2711C57.1669 58.1053 58.7711 57.3844 59.9377 56.0868C61.1044 54.7891 61.6877 53.3473 61.6877 51.7614C61.6877 50.1754 61.1044 48.7336 59.9377 47.436C58.7711 46.1384 57.1669 45.4174 55.2711 45.4174H47.3961V58.1053Z" fill="#757575"/>
<path d="M77.4375 77.8571C74.8125 77.8571 72.625 77.1362 70.875 75.5502C69.125 74.1084 68.25 72.0899 68.25 69.6389C68.25 66.8995 69.2708 64.8809 71.4583 63.295C73.5 61.709 76.125 60.9881 79.1875 60.9881C81.9583 60.9881 84.1458 61.4206 85.8958 62.4299V61.709C85.8958 59.8347 85.3125 58.3929 84 57.3836C82.6875 56.2302 81.2291 55.7976 79.3333 55.7976C78.0208 55.7976 76.7083 56.086 75.6875 56.8069C74.5208 57.3836 73.7916 58.2487 73.5 59.4021L69.2708 57.5278C69.8541 56.086 71.0208 54.6442 72.625 53.4907C74.375 52.1931 76.5625 51.6164 79.3333 51.6164C82.5416 51.6164 85.1666 52.4815 87.2083 54.3558C89.25 56.2302 90.4166 58.8254 90.4166 62.1415V76.992H85.8958V73.5317H85.75C83.7083 76.5595 80.9375 77.8571 77.4375 77.8571ZM78.1666 73.6759C80.0625 73.6759 81.8125 72.955 83.4166 71.5132C85.0208 70.0714 85.75 68.3413 85.75 66.4669C84.4375 65.4577 82.3958 64.881 79.7708 64.881C77.4375 64.881 75.8333 65.3135 74.6666 66.3228C73.5 67.332 72.9166 68.4854 72.9166 69.7831C72.9166 70.9365 73.5 71.9458 74.5208 72.6667C75.5416 73.3876 76.7083 73.6759 78.1666 73.6759Z" fill="#757575"/>
<path d="M99.8961 52.4827V56.5198H100.042C100.625 55.078 101.646 53.9245 103.104 53.2036C104.563 52.3386 106.167 51.906 107.917 51.906C108.354 51.906 108.938 51.906 109.521 52.0502V56.5198C108.938 56.5198 108.209 56.3756 107.625 56.3756C105.438 56.3756 103.542 56.9523 102.084 58.2499C100.625 59.5475 99.8961 61.2777 99.8961 63.5846V76.9933H95.2295V52.4827H99.8961ZM125.563 77.4258C122.938 77.4258 121.042 76.7049 119.584 75.4073C118.271 73.9655 117.542 72.0912 117.542 69.6401V56.8081H113.167V52.6269H117.542V45.1296H122.209V52.6269H128.334V56.8081H122.209V69.3518C122.209 72.0912 123.375 73.3888 125.563 73.3888C126.438 73.3888 127.167 73.2446 127.75 72.9563L129.354 76.8491C128.188 77.2817 127.021 77.4258 125.563 77.4258Z" fill="#757575"/>
<path d="M137.375 52.4815V55.9418H137.521C138.25 54.7884 139.271 53.7791 140.729 52.914C142.188 52.049 143.792 51.6164 145.396 51.6164C148.459 51.6164 150.792 52.6257 152.396 54.3558C154 56.2302 154.875 58.6812 154.875 61.8532V76.8479H150.209V62.5741C150.209 57.9603 148.167 55.7976 144.084 55.7976C142.188 55.7976 140.584 56.5185 139.417 58.1045C138.25 59.6905 137.521 61.4206 137.521 63.4392V76.992H132.854V52.4815H137.375Z" fill="#757575"/>
<path d="M171.646 77.8571C167.854 77.8571 164.792 76.5595 162.458 74.1085C160.125 71.6574 158.958 68.4854 158.958 64.7368C158.958 61.1323 160.125 58.1045 162.312 55.5093C164.646 52.914 167.562 51.6164 171.062 51.6164C174.708 51.6164 177.771 52.7698 179.958 55.2209C182.146 57.5278 183.312 60.8439 183.312 64.7368V65.6019H163.625C163.771 68.0529 164.646 70.0714 166.104 71.5132C167.708 72.955 169.458 73.6759 171.5 73.6759C174.854 73.6759 177.042 72.2341 178.354 69.4947L182.583 71.2249C181.708 73.0992 180.396 74.6852 178.646 75.9828C176.75 77.2804 174.417 77.8571 171.646 77.8571ZM178.354 61.8532C178.208 60.4114 177.625 59.1138 176.458 57.8161C175.292 56.5185 173.542 55.9418 171.062 55.9418C169.312 55.9418 167.854 56.5185 166.542 57.5278C165.229 58.537 164.354 59.9788 163.917 61.8532H178.354Z" fill="#757575"/>
<path d="M192.354 77.1369H187.688V52.6263H192.208V56.6633H192.354C192.792 55.3657 193.812 54.2123 195.271 53.3472C196.729 52.4821 198.187 52.0496 199.5 52.0496C200.812 52.0496 202.125 52.1938 203 52.6263L201.25 56.9517C200.667 56.6633 199.792 56.6633 198.771 56.6633C197.021 56.6633 195.562 57.3842 194.25 58.6818C192.938 59.9795 192.354 61.7096 192.354 63.8723V77.1369Z" fill="#757575"/>
<path d="M53.3749 33.0174C47.2499 33.0174 41.9999 28.1153 41.9999 22.0597C41.9999 16.0042 47.1041 11.102 53.3749 11.102C56.7291 11.102 59.2082 12.3997 60.9582 14.1298L58.7707 16.2925C57.4582 15.1391 55.7082 14.1298 53.2291 14.1298C48.7082 14.1298 45.2082 17.7343 45.2082 22.2039C45.2082 26.6735 48.7082 30.2779 53.2291 30.2779C56.1457 30.2779 57.7499 29.1245 58.9166 28.1153C59.7916 27.2502 60.3749 25.9526 60.5207 24.3666H53.2291V21.3388H63.4374C63.5832 21.9155 63.5832 22.6364 63.5832 23.3573C63.5832 25.6642 62.9999 28.4036 60.9582 30.4221C59.2082 31.8639 56.7291 33.0174 53.3749 33.0174Z" fill="#4285F4"/>
<path d="M80.0624 25.8084C80.0624 29.8454 76.8541 32.8732 72.9166 32.8732C68.9791 32.8732 65.7708 29.8454 65.7708 25.8084C65.7708 21.6272 68.9791 18.7436 72.9166 18.7436C76.8541 18.7436 80.0624 21.7713 80.0624 25.8084ZM76.8541 25.8084C76.8541 23.2131 74.9583 21.483 72.7708 21.483C70.5833 21.483 68.6874 23.2131 68.6874 25.8084C68.6874 28.4036 70.5833 30.1338 72.7708 30.1338C74.9583 30.1338 76.8541 28.4036 76.8541 25.8084Z" fill="#EA4335"/>
<path d="M96.3958 25.8084C96.3958 29.8454 93.1874 32.8732 89.2499 32.8732C85.3124 32.8732 82.1041 29.8454 82.1041 25.8084C82.1041 21.6272 85.3124 18.7436 89.2499 18.7436C93.1874 18.7436 96.3958 21.7713 96.3958 25.8084ZM93.1874 25.8084C93.1874 23.2131 91.2916 21.483 89.1041 21.483C86.9166 21.483 85.0208 23.2131 85.0208 25.8084C85.0208 28.4036 86.9166 30.1338 89.1041 30.1338C91.2916 30.1338 93.1874 28.4036 93.1874 25.8084Z" fill="#FBBC05"/>
<path d="M111.854 19.1761V31.8639C111.854 37.0544 108.791 39.2171 105 39.2171C101.5 39.2171 99.4579 36.9102 98.5829 35.0359L101.354 33.8824C101.791 35.0359 103.104 36.4777 105 36.4777C107.333 36.4777 108.791 35.0359 108.791 32.2965V31.2872H108.645C107.916 32.1523 106.604 32.8732 104.854 32.8732C101.208 32.8732 97.9996 29.8454 97.9996 25.8084C97.9996 21.7713 101.354 18.7436 104.854 18.7436C106.604 18.7436 107.916 19.4645 108.645 20.3295H108.791V19.1761H111.854ZM109.083 25.9526C109.083 23.5015 107.333 21.6272 105.291 21.6272C103.104 21.6272 101.354 23.5015 101.354 25.9526C101.354 28.4036 103.104 30.2779 105.291 30.2779C107.479 30.1338 109.083 28.4036 109.083 25.9526Z" fill="#4285F4"/>
<path d="M118.125 11.6788V32.5848H114.917V11.6788H118.125Z" fill="#34A853"/>
<path d="M130.958 28.2594L133.437 29.8454C132.708 30.9988 130.812 33.0174 127.458 33.0174C123.375 33.0174 120.312 29.8454 120.312 25.9526C120.312 21.7713 123.375 18.8877 127.021 18.8877C130.812 18.8877 132.562 21.7713 133.146 23.3573L133.437 24.2224L123.812 28.1153C124.542 29.557 125.708 30.2779 127.312 30.2779C129.062 30.1338 130.083 29.4129 130.958 28.2594ZM123.375 25.6642L129.792 23.069C129.5 22.2039 128.333 21.6272 127.167 21.6272C125.562 21.483 123.375 22.9248 123.375 25.6642Z" fill="#EA4335"/>
<path d="M5.57175 95.7735C5.54794 95.5746 5.45137 95.4203 5.28203 95.3105C5.1127 95.2006 4.905 95.1457 4.65893 95.1457C4.47902 95.1457 4.32159 95.1744 4.18665 95.232C4.05303 95.2895 3.94852 95.3687 3.87312 95.4694C3.79903 95.5701 3.76199 95.6845 3.76199 95.8127C3.76199 95.9199 3.78779 96.0122 3.83938 96.0893C3.8923 96.1652 3.95977 96.2286 4.04179 96.2796C4.12381 96.3293 4.2098 96.3705 4.29976 96.4032C4.38972 96.4346 4.4724 96.4601 4.54781 96.4797L4.96056 96.5896C5.0664 96.6171 5.18414 96.655 5.31378 96.7034C5.44475 96.7518 5.56977 96.8178 5.68883 96.9015C5.80922 96.9839 5.90844 97.0899 5.98649 97.2194C6.06454 97.3489 6.10357 97.5078 6.10357 97.6961C6.10357 97.9132 6.04602 98.1094 5.93093 98.2847C5.81716 98.4599 5.65047 98.5992 5.43086 98.7026C5.21258 98.8059 4.94733 98.8576 4.63512 98.8576C4.34408 98.8576 4.09206 98.8111 3.87907 98.7182C3.6674 98.6254 3.50071 98.4959 3.379 98.3298C3.25862 98.1637 3.19049 97.9708 3.17461 97.751H3.68261C3.69584 97.9028 3.74744 98.0283 3.8374 98.1277C3.92868 98.2258 4.04377 98.2991 4.18268 98.3475C4.32291 98.3945 4.47372 98.4181 4.63512 98.4181C4.82298 98.4181 4.99165 98.388 5.14114 98.3278C5.29063 98.2664 5.40903 98.1814 5.49635 98.0728C5.58366 97.9629 5.62732 97.8347 5.62732 97.6883C5.62732 97.5548 5.58961 97.4463 5.51421 97.3626C5.4388 97.2789 5.33958 97.2109 5.21655 97.1586C5.09352 97.1062 4.96056 97.0605 4.81769 97.0212L4.31762 96.88C4.00012 96.7897 3.74876 96.6609 3.56355 96.4935C3.37834 96.3261 3.28574 96.107 3.28574 95.8362C3.28574 95.6113 3.34725 95.4151 3.47028 95.2477C3.59464 95.0789 3.76133 94.9482 3.97035 94.8553C4.1807 94.7611 4.41552 94.714 4.67481 94.714C4.93675 94.714 5.16958 94.7605 5.37331 94.8533C5.57705 94.9449 5.73844 95.0704 5.85751 95.23C5.97789 95.3896 6.04139 95.5707 6.04801 95.7735H5.57175Z" fill="#757575"/>
<path d="M6.84921 99.917V95.7735H7.30165V96.2522H7.35721C7.39161 96.1998 7.43923 96.1331 7.50009 96.052C7.56226 95.9697 7.6509 95.8964 7.76599 95.8323C7.88241 95.7669 8.03984 95.7342 8.23828 95.7342C8.49493 95.7342 8.72115 95.7977 8.91694 95.9245C9.11273 96.0514 9.26553 96.2312 9.37534 96.464C9.48514 96.6968 9.54004 96.9715 9.54004 97.288C9.54004 97.6072 9.48514 97.8838 9.37534 98.1179C9.26553 98.3507 9.1134 98.5312 8.91893 98.6594C8.72445 98.7863 8.50022 98.8497 8.24622 98.8497C8.05042 98.8497 7.89366 98.8177 7.77592 98.7536C7.65818 98.6882 7.56756 98.6143 7.50406 98.5319C7.44055 98.4482 7.39161 98.3788 7.35721 98.3239H7.31752V99.917H6.84921ZM7.30958 97.2802C7.30958 97.5078 7.34332 97.7085 7.41079 97.8825C7.47826 98.0551 7.57682 98.1905 7.70646 98.2886C7.83611 98.3854 7.99486 98.4338 8.18272 98.4338C8.37851 98.4338 8.54189 98.3828 8.67286 98.2808C8.80515 98.1774 8.90437 98.0388 8.97052 97.8648C9.03799 97.6896 9.07172 97.4947 9.07172 97.2802C9.07172 97.0683 9.03865 96.8773 8.9725 96.7073C8.90768 96.536 8.80912 96.4006 8.67683 96.3012C8.54586 96.2005 8.38116 96.1501 8.18272 96.1501C7.99221 96.1501 7.83214 96.1979 7.70249 96.2934C7.57285 96.3875 7.47495 96.5196 7.4088 96.6897C7.34266 96.8584 7.30958 97.0552 7.30958 97.2802Z" fill="#757575"/>
<path d="M11.5324 98.8497C11.2387 98.8497 10.9853 98.7856 10.7723 98.6574C10.5607 98.528 10.3973 98.3475 10.2822 98.116C10.1684 97.8831 10.1115 97.6124 10.1115 97.3037C10.1115 96.9951 10.1684 96.723 10.2822 96.4876C10.3973 96.2508 10.5574 96.0664 10.7624 95.9343C10.9688 95.8009 11.2096 95.7342 11.4847 95.7342C11.6435 95.7342 11.8003 95.7604 11.955 95.8127C12.1098 95.865 12.2507 95.95 12.3777 96.0677C12.5047 96.1842 12.6059 96.3385 12.6813 96.5307C12.7567 96.723 12.7944 96.9597 12.7944 97.241V97.4371H10.4449V97.0369H12.3182C12.3182 96.8669 12.2838 96.7152 12.215 96.5818C12.1475 96.4483 12.051 96.3431 11.9253 96.2659C11.8009 96.1887 11.6541 96.1501 11.4847 96.1501C11.2982 96.1501 11.1368 96.1959 11.0006 96.2875C10.8656 96.3777 10.7618 96.4954 10.689 96.6406C10.6162 96.7858 10.5799 96.9414 10.5799 97.1075V97.3744C10.5799 97.6019 10.6195 97.7949 10.6989 97.9531C10.7796 98.1101 10.8914 98.2297 11.0343 98.3121C11.1772 98.3932 11.3432 98.4338 11.5324 98.4338C11.6554 98.4338 11.7665 98.4168 11.8657 98.3828C11.9663 98.3475 12.0529 98.2951 12.1257 98.2258C12.1985 98.1552 12.2547 98.0676 12.2944 97.9629L12.7468 98.0885C12.6992 98.2402 12.6192 98.3736 12.5067 98.4887C12.3943 98.6025 12.2553 98.6914 12.09 98.7555C11.9246 98.8183 11.7387 98.8497 11.5324 98.8497Z" fill="#757575"/>
<path d="M14.7451 98.8497C14.4593 98.8497 14.2133 98.783 14.0069 98.6496C13.8005 98.5162 13.6418 98.3324 13.5307 98.0983C13.4195 97.8642 13.364 97.5967 13.364 97.2959C13.364 96.9898 13.4208 96.7197 13.5346 96.4856C13.6497 96.2502 13.8098 96.0664 14.0148 95.9343C14.2212 95.8009 14.462 95.7342 14.7372 95.7342C14.9515 95.7342 15.1446 95.7735 15.3166 95.8519C15.4886 95.9304 15.6295 96.0403 15.7393 96.1815C15.8491 96.3228 15.9172 96.4876 15.9437 96.6759H15.4754C15.4396 96.5386 15.3603 96.417 15.2372 96.311C15.1155 96.2038 14.9515 96.1501 14.7451 96.1501C14.5625 96.1501 14.4025 96.1972 14.2649 96.2914C14.1286 96.3843 14.0221 96.5157 13.9454 96.6857C13.87 96.8545 13.8323 97.0526 13.8323 97.2802C13.8323 97.513 13.8693 97.7157 13.9434 97.8884C14.0188 98.061 14.1246 98.1951 14.2609 98.2906C14.3985 98.386 14.5599 98.4338 14.7451 98.4338C14.8668 98.4338 14.9773 98.4128 15.0765 98.371C15.1757 98.3291 15.2597 98.269 15.3285 98.1905C15.3973 98.112 15.4462 98.0179 15.4754 97.908H15.9437C15.9172 98.0859 15.8517 98.2461 15.7472 98.3887C15.644 98.5299 15.5071 98.6424 15.3364 98.7261C15.1671 98.8085 14.97 98.8497 14.7451 98.8497Z" fill="#757575"/>
<path d="M16.6283 98.7869V95.7735H17.0966V98.7869H16.6283ZM16.8664 95.2712C16.7751 95.2712 16.6964 95.2405 16.6303 95.179C16.5654 95.1175 16.533 95.0436 16.533 94.9573C16.533 94.871 16.5654 94.7971 16.6303 94.7356C16.6964 94.6741 16.7751 94.6434 16.8664 94.6434C16.9577 94.6434 17.0357 94.6741 17.1006 94.7356C17.1667 94.7971 17.1998 94.871 17.1998 94.9573C17.1998 95.0436 17.1667 95.1175 17.1006 95.179C17.0357 95.2405 16.9577 95.2712 16.8664 95.2712Z" fill="#757575"/>
<path d="M18.8513 98.8576C18.6582 98.8576 18.4829 98.8216 18.3254 98.7496C18.168 98.6764 18.043 98.5711 17.9504 98.4338C17.8578 98.2951 17.8115 98.1277 17.8115 97.9315C17.8115 97.7589 17.8459 97.6189 17.9147 97.5117C17.9835 97.4031 18.0754 97.3181 18.1905 97.2566C18.3056 97.1952 18.4326 97.1494 18.5715 97.1193C18.7117 97.0879 18.8526 97.0631 18.9942 97.0448C19.1794 97.0212 19.3295 97.0036 19.4446 96.9918C19.561 96.9787 19.6457 96.9571 19.6986 96.927C19.7529 96.897 19.78 96.8447 19.78 96.7701V96.7544C19.78 96.5608 19.7264 96.4104 19.6193 96.3032C19.5134 96.1959 19.3527 96.1423 19.137 96.1423C18.9135 96.1423 18.7382 96.1907 18.6112 96.2875C18.4842 96.3843 18.3949 96.4876 18.3433 96.5975L17.8988 96.4405C17.9782 96.2574 18.084 96.1148 18.2163 96.0128C18.3499 95.9095 18.4954 95.8375 18.6529 95.797C18.8116 95.7551 18.9677 95.7342 19.1212 95.7342C19.2191 95.7342 19.3315 95.746 19.4585 95.7695C19.5868 95.7918 19.7105 95.8382 19.8296 95.9088C19.95 95.9795 20.0499 96.0861 20.1292 96.2286C20.2086 96.3712 20.2483 96.5621 20.2483 96.8015V98.7869H19.78V98.3788H19.7562C19.7244 98.4442 19.6715 98.5142 19.5974 98.5888C19.5233 98.6633 19.4248 98.7268 19.3018 98.7791C19.1787 98.8314 19.0286 98.8576 18.8513 98.8576ZM18.9227 98.4416C19.1079 98.4416 19.264 98.4057 19.3911 98.3337C19.5194 98.2618 19.6159 98.1689 19.6808 98.0551C19.7469 97.9413 19.78 97.8217 19.78 97.6961V97.2723C19.7601 97.2959 19.7165 97.3175 19.649 97.3371C19.5829 97.3554 19.5061 97.3717 19.4188 97.3861C19.3328 97.3992 19.2488 97.411 19.1668 97.4214C19.0861 97.4306 19.0206 97.4384 18.9704 97.445C18.8486 97.4607 18.7349 97.4862 18.629 97.5215C18.5245 97.5555 18.4399 97.6072 18.375 97.6765C18.3115 97.7445 18.2798 97.8374 18.2798 97.9551C18.2798 98.116 18.34 98.2376 18.4604 98.32C18.5821 98.4011 18.7362 98.4416 18.9227 98.4416Z" fill="#757575"/>
<path d="M21.5714 94.769V98.7869H21.1031V94.769H21.5714Z" fill="#757575"/>
<path d="M22.4292 98.7869V95.7735H22.8975V98.7869H22.4292ZM22.6673 95.2712C22.576 95.2712 22.4973 95.2405 22.4311 95.179C22.3663 95.1175 22.3339 95.0436 22.3339 94.9573C22.3339 94.871 22.3663 94.7971 22.4311 94.7356C22.4973 94.6741 22.576 94.6434 22.6673 94.6434C22.7586 94.6434 22.8366 94.6741 22.9014 94.7356C22.9676 94.7971 23.0007 94.871 23.0007 94.9573C23.0007 95.0436 22.9676 95.1175 22.9014 95.179C22.8366 95.2405 22.7586 95.2712 22.6673 95.2712Z" fill="#757575"/>
<path d="M23.6679 98.7869V98.4338L25.3983 96.2365V96.2051H23.7235V95.7735H26.0016V96.1423L24.3188 98.3239V98.3553H26.0571V98.7869H23.6679Z" fill="#757575"/>
<path d="M27.9691 98.8497C27.6754 98.8497 27.422 98.7856 27.2091 98.6574C26.9974 98.528 26.834 98.3475 26.7189 98.116C26.6051 97.8831 26.5483 97.6124 26.5483 97.3037C26.5483 96.9951 26.6051 96.723 26.7189 96.4876C26.834 96.2508 26.9941 96.0664 27.1991 95.9343C27.4055 95.8009 27.6463 95.7342 27.9214 95.7342C28.0802 95.7342 28.237 95.7604 28.3918 95.8127C28.5465 95.865 28.6874 95.95 28.8144 96.0677C28.9414 96.1842 29.0426 96.3385 29.118 96.5307C29.1934 96.723 29.2311 96.9597 29.2311 97.241V97.4371H26.8816V97.0369H28.7549C28.7549 96.8669 28.7205 96.7152 28.6517 96.5818C28.5842 96.4483 28.4877 96.3431 28.362 96.2659C28.2376 96.1887 28.0908 96.1501 27.9214 96.1501C27.7349 96.1501 27.5735 96.1959 27.4373 96.2875C27.3023 96.3777 27.1985 96.4954 27.1257 96.6406C27.0529 96.7858 27.0166 96.9414 27.0166 97.1075V97.3744C27.0166 97.6019 27.0563 97.7949 27.1356 97.9531C27.2163 98.1101 27.3281 98.2297 27.471 98.3121C27.6139 98.3932 27.7799 98.4338 27.9691 98.4338C28.0921 98.4338 28.2032 98.4168 28.3025 98.3828C28.403 98.3475 28.4896 98.2951 28.5624 98.2258C28.6352 98.1552 28.6914 98.0676 28.7311 97.9629L29.1835 98.0885C29.1359 98.2402 29.0559 98.3736 28.9434 98.4887C28.831 98.6025 28.6921 98.6914 28.5267 98.7555C28.3613 98.8183 28.1755 98.8497 27.9691 98.8497Z" fill="#757575"/>
<path d="M31.0945 98.8497C30.8405 98.8497 30.6163 98.7863 30.4218 98.6594C30.2273 98.5312 30.0752 98.3507 29.9654 98.1179C29.8556 97.8838 29.8007 97.6072 29.8007 97.288C29.8007 96.9715 29.8556 96.6968 29.9654 96.464C30.0752 96.2312 30.228 96.0514 30.4238 95.9245C30.6196 95.7977 30.8458 95.7342 31.1024 95.7342C31.3009 95.7342 31.4576 95.7669 31.5727 95.8323C31.6891 95.8964 31.7778 95.9697 31.8386 96.052C31.9008 96.1331 31.9491 96.1998 31.9835 96.2522H32.0232V94.769H32.4915V98.7869H32.0391V98.3239H31.9835C31.9491 98.3788 31.9002 98.4482 31.8367 98.5319C31.7732 98.6143 31.6825 98.6882 31.5648 98.7536C31.4471 98.8177 31.2903 98.8497 31.0945 98.8497ZM31.158 98.4338C31.3458 98.4338 31.5046 98.3854 31.6342 98.2886C31.7639 98.1905 31.8624 98.0551 31.9299 97.8825C31.9974 97.7085 32.0311 97.5078 32.0311 97.2802C32.0311 97.0552 31.9981 96.8584 31.9319 96.6897C31.8658 96.5196 31.7679 96.3875 31.6382 96.2934C31.5086 96.1979 31.3485 96.1501 31.158 96.1501C30.9596 96.1501 30.7942 96.2005 30.6619 96.3012C30.5309 96.4006 30.4324 96.536 30.3662 96.7073C30.3014 96.8773 30.269 97.0683 30.269 97.2802C30.269 97.4947 30.3021 97.6896 30.3682 97.8648C30.4357 98.0388 30.5349 98.1774 30.6659 98.2808C30.7982 98.3828 30.9622 98.4338 31.158 98.4338Z" fill="#757575"/>
<path d="M34.9859 98.7869V95.7735H35.4542V98.7869H34.9859ZM35.224 95.2712C35.1327 95.2712 35.054 95.2405 34.9879 95.179C34.923 95.1175 34.8906 95.0436 34.8906 94.9573C34.8906 94.871 34.923 94.7971 34.9879 94.7356C35.054 94.6741 35.1327 94.6434 35.224 94.6434C35.3153 94.6434 35.3933 94.6741 35.4582 94.7356C35.5243 94.7971 35.5574 94.871 35.5574 94.9573C35.5574 95.0436 35.5243 95.1175 35.4582 95.179C35.3933 95.2405 35.3153 95.2712 35.224 95.2712Z" fill="#757575"/>
<path d="M36.7803 96.9741V98.7869H36.312V95.7735H36.7644V96.2443H36.8041C36.8755 96.0913 36.984 95.9683 37.1295 95.8755C37.275 95.7813 37.4629 95.7342 37.6931 95.7342C37.8995 95.7342 38.08 95.7761 38.2348 95.8598C38.3896 95.9422 38.51 96.0677 38.596 96.2365C38.682 96.4039 38.725 96.6158 38.725 96.8721V98.7869H38.2567V96.9035C38.2567 96.6668 38.1945 96.4824 38.0701 96.3503C37.9458 96.2168 37.7751 96.1501 37.5581 96.1501C37.4087 96.1501 37.275 96.1822 37.1573 96.2463C37.0409 96.3104 36.9489 96.4039 36.8815 96.5268C36.814 96.6498 36.7803 96.7989 36.7803 96.9741Z" fill="#757575"/>
<path d="M39.9221 98.8183C39.8242 98.8183 39.7402 98.7837 39.67 98.7143C39.5999 98.645 39.5649 98.562 39.5649 98.4652C39.5649 98.3684 39.5999 98.2853 39.67 98.216C39.7402 98.1467 39.8242 98.112 39.9221 98.112C40.02 98.112 40.104 98.1467 40.1741 98.216C40.2442 98.2853 40.2792 98.3684 40.2792 98.4652C40.2792 98.5293 40.2627 98.5881 40.2296 98.6417C40.1979 98.6954 40.1549 98.7385 40.1007 98.7712C40.0477 98.8026 39.9882 98.8183 39.9221 98.8183ZM39.9221 96.5818C39.8242 96.5818 39.7402 96.5471 39.67 96.4778C39.5999 96.4085 39.5649 96.3254 39.5649 96.2286C39.5649 96.1318 39.5999 96.0488 39.67 95.9795C39.7402 95.9101 39.8242 95.8755 39.9221 95.8755C40.02 95.8755 40.104 95.9101 40.1741 95.9795C40.2442 96.0488 40.2792 96.1318 40.2792 96.2286C40.2792 96.2927 40.2627 96.3516 40.2296 96.4052C40.1979 96.4588 40.1549 96.502 40.1007 96.5347C40.0477 96.5661 39.9882 96.5818 39.9221 96.5818Z" fill="#757575"/>
<path d="M32.9584 128.896L27.2709 111.738H21.4376L26.8334 127.598C27.1251 128.463 27.8543 128.896 28.7293 128.896H32.9584Z" fill="#0F9D58"/>
<path d="M15.6049 128.896L21.4376 111.738H27.2709L21.8757 127.598C21.5841 128.463 20.8549 128.896 19.9799 128.896H15.6049Z" fill="#4285F4"/>
<path d="M24.2087 120.245L32.9584 128.896L27.1254 111.738L24.2087 120.245Z" fill="url(#paint0_radial_656_275)"/>
<path d="M21.7299 127.454C21.4382 128.319 20.7091 128.752 19.8341 128.752H15.6049V128.896H19.9799C20.7091 128.896 21.4382 128.319 21.7299 127.454Z" fill="#1A237E"/>
<path d="M28.5838 128.752C27.7088 128.752 26.9796 128.176 26.688 127.455C26.9796 128.32 27.7088 128.897 28.5838 128.752L32.9588 128.897V128.752H28.5838Z" fill="#263238"/>
<path d="M27.1254 111.738L32.8126 128.896H32.9584L27.1254 111.738Z" fill="white"/>
<path d="M27.1254 111.738L21.2924 111.739L15.4588 128.896H19.8338C20.7088 128.896 21.4379 128.319 21.7296 127.598L24.2088 120.389L26.6879 127.598C26.9796 128.463 27.7088 128.896 28.5838 128.896L32.9584 128.896L27.1254 111.738Z" fill="url(#paint1_radial_656_275)" fill-opacity="0.1"/>
<path d="M5.03094 133.916C5.00713 133.717 4.91056 133.563 4.74122 133.453C4.57189 133.343 4.36419 133.288 4.11812 133.288C3.93821 133.288 3.78078 133.317 3.64584 133.374C3.51222 133.432 3.40771 133.511 3.33231 133.612C3.25822 133.713 3.22118 133.827 3.22118 133.955C3.22118 134.062 3.24698 134.155 3.29857 134.232C3.35149 134.308 3.41896 134.371 3.50098 134.422C3.583 134.472 3.66899 134.513 3.75895 134.546C3.84891 134.577 3.93159 134.603 4.007 134.622L4.41975 134.732C4.52559 134.76 4.64333 134.797 4.77297 134.846C4.90394 134.894 5.02896 134.96 5.14802 135.044C5.26841 135.126 5.36763 135.232 5.44568 135.362C5.52374 135.491 5.56276 135.65 5.56276 135.839C5.56276 136.056 5.50521 136.252 5.39012 136.427C5.27635 136.602 5.10966 136.742 4.89005 136.845C4.67177 136.948 4.40652 137 4.09431 137C3.80327 137 3.55125 136.954 3.33826 136.861C3.12659 136.768 2.9599 136.638 2.83819 136.472C2.71781 136.306 2.64968 136.113 2.6338 135.893H3.1418C3.15503 136.045 3.20663 136.171 3.29659 136.27C3.38787 136.368 3.50296 136.442 3.64187 136.49C3.7821 136.537 3.93291 136.561 4.09431 136.561C4.28217 136.561 4.45084 136.53 4.60033 136.47C4.74982 136.409 4.86822 136.324 4.95554 136.215C5.04285 136.105 5.08651 135.977 5.08651 135.831C5.08651 135.697 5.0488 135.589 4.9734 135.505C4.89799 135.421 4.79877 135.353 4.67574 135.301C4.55271 135.249 4.41975 135.203 4.27688 135.164L3.77681 135.022C3.45931 134.932 3.20795 134.803 3.02274 134.636C2.83753 134.469 2.74493 134.249 2.74493 133.979C2.74493 133.754 2.80644 133.558 2.92947 133.39C3.05383 133.221 3.22052 133.091 3.42954 132.998C3.63989 132.904 3.87471 132.856 4.134 132.856C4.39594 132.856 4.62877 132.903 4.83251 132.996C5.03624 133.087 5.19763 133.213 5.3167 133.372C5.43708 133.532 5.50058 133.713 5.5072 133.916H5.03094Z" fill="#757575"/>
<path d="M7.58634 136.992C7.29265 136.992 7.03931 136.928 6.82632 136.8C6.61465 136.67 6.45127 136.49 6.33618 136.258C6.22241 136.026 6.16552 135.755 6.16552 135.446C6.16552 135.138 6.22241 134.865 6.33618 134.63C6.45127 134.393 6.61135 134.209 6.8164 134.077C7.02278 133.943 7.26355 133.877 7.53872 133.877C7.69747 133.877 7.85424 133.903 8.00902 133.955C8.1638 134.007 8.30469 134.092 8.43169 134.21C8.55869 134.327 8.6599 134.481 8.73531 134.673C8.81071 134.865 8.84842 135.102 8.84842 135.383V135.58H6.4989V135.179H8.37216C8.37216 135.009 8.33777 134.858 8.26897 134.724C8.2015 134.591 8.10493 134.486 7.97925 134.408C7.8549 134.331 7.70805 134.293 7.53872 134.293C7.35218 134.293 7.19079 134.338 7.05453 134.43C6.91959 134.52 6.81574 134.638 6.74298 134.783C6.67022 134.928 6.63384 135.084 6.63384 135.25V135.517C6.63384 135.744 6.67352 135.937 6.7529 136.096C6.8336 136.253 6.94538 136.372 7.08826 136.455C7.23114 136.536 7.39716 136.576 7.58634 136.576C7.70938 136.576 7.8205 136.559 7.91972 136.525C8.02026 136.49 8.10692 136.438 8.17968 136.368C8.25244 136.298 8.30866 136.21 8.34835 136.105L8.80079 136.231C8.75316 136.383 8.67313 136.516 8.56068 136.631C8.44823 136.745 8.30932 136.834 8.14396 136.898C7.97859 136.961 7.79272 136.992 7.58634 136.992Z" fill="#757575"/>
<path d="M10.4578 137C10.2646 137 10.0893 136.964 9.93189 136.892C9.77446 136.819 9.64945 136.714 9.55684 136.576C9.46424 136.438 9.41794 136.27 9.41794 136.074C9.41794 135.901 9.45233 135.761 9.52112 135.654C9.58992 135.546 9.68186 135.461 9.79695 135.399C9.91205 135.338 10.0391 135.292 10.178 135.262C10.3182 135.23 10.4591 135.206 10.6006 135.187C10.7858 135.164 10.936 135.146 11.0511 135.134C11.1675 135.121 11.2522 135.1 11.3051 135.069C11.3593 135.039 11.3865 134.987 11.3865 134.913V134.897C11.3865 134.703 11.3329 134.553 11.2257 134.446C11.1199 134.338 10.9591 134.285 10.7435 134.285C10.5199 134.285 10.3446 134.333 10.2176 134.43C10.0906 134.527 10.0013 134.63 9.94975 134.74L9.50525 134.583C9.58463 134.4 9.69046 134.257 9.82275 134.155C9.95637 134.052 10.1019 133.98 10.2593 133.939C10.4181 133.898 10.5742 133.877 10.7276 133.877C10.8255 133.877 10.938 133.888 11.065 133.912C11.1933 133.934 11.317 133.981 11.4361 134.051C11.5564 134.122 11.6563 134.229 11.7357 134.371C11.8151 134.514 11.8548 134.705 11.8548 134.944V136.929H11.3865V136.521H11.3626C11.3309 136.587 11.278 136.657 11.2039 136.731C11.1298 136.806 11.0312 136.869 10.9082 136.922C10.7852 136.974 10.635 137 10.4578 137ZM10.5292 136.584C10.7144 136.584 10.8705 136.548 10.9975 136.476C11.1258 136.404 11.2224 136.311 11.2872 136.198C11.3534 136.084 11.3865 135.964 11.3865 135.839V135.415C11.3666 135.438 11.323 135.46 11.2555 135.48C11.1893 135.498 11.1126 135.514 11.0253 135.529C10.9393 135.542 10.8553 135.553 10.7733 135.564C10.6926 135.573 10.6271 135.581 10.5768 135.587C10.4551 135.603 10.3413 135.629 10.2355 135.664C10.131 135.698 10.0463 135.75 9.9815 135.819C9.918 135.887 9.88625 135.98 9.88625 136.098C9.88625 136.258 9.94645 136.38 10.0668 136.462C10.1885 136.544 10.3427 136.584 10.5292 136.584Z" fill="#757575"/>
<path d="M12.7095 136.929V133.916H13.162V134.371H13.1937C13.2493 134.222 13.3498 134.101 13.4954 134.008C13.6409 133.915 13.8049 133.869 13.9875 133.869C14.0219 133.869 14.0649 133.869 14.1165 133.871C14.1681 133.872 14.2071 133.874 14.2336 133.877V134.348C14.2177 134.344 14.1813 134.338 14.1244 134.33C14.0689 134.321 14.01 134.316 13.9478 134.316C13.7996 134.316 13.6673 134.347 13.5509 134.408C13.4358 134.469 13.3445 134.552 13.2771 134.659C13.2109 134.765 13.1779 134.886 13.1779 135.022V136.929H12.7095Z" fill="#757575"/>
<path d="M15.9342 136.992C15.6484 136.992 15.4024 136.925 15.196 136.792C14.9896 136.659 14.8309 136.475 14.7197 136.241C14.6086 136.007 14.553 135.739 14.553 135.438C14.553 135.132 14.6099 134.862 14.7237 134.628C14.8388 134.393 14.9989 134.209 15.2039 134.077C15.4103 133.943 15.6511 133.877 15.9262 133.877C16.1406 133.877 16.3337 133.916 16.5057 133.994C16.6777 134.073 16.8186 134.183 16.9284 134.324C17.0382 134.465 17.1063 134.63 17.1328 134.818H16.6644C16.6287 134.681 16.5493 134.559 16.4263 134.453C16.3046 134.346 16.1406 134.293 15.9342 134.293C15.7516 134.293 15.5915 134.34 15.454 134.434C15.3177 134.527 15.2112 134.658 15.1345 134.828C15.0591 134.997 15.0214 135.195 15.0214 135.423C15.0214 135.655 15.0584 135.858 15.1325 136.031C15.2079 136.203 15.3137 136.338 15.45 136.433C15.5876 136.528 15.749 136.576 15.9342 136.576C16.0559 136.576 16.1664 136.555 16.2656 136.513C16.3648 136.472 16.4488 136.411 16.5176 136.333C16.5864 136.254 16.6353 136.16 16.6644 136.05H17.1328C17.1063 136.228 17.0408 136.389 16.9363 136.531C16.8331 136.672 16.6962 136.785 16.5255 136.869C16.3562 136.951 16.1591 136.992 15.9342 136.992Z" fill="#757575"/>
<path d="M18.2857 135.117V136.929H17.8174V132.911H18.2857V134.387H18.3254C18.3968 134.231 18.504 134.108 18.6468 134.016C18.791 133.923 18.9829 133.877 19.2223 133.877C19.43 133.877 19.6119 133.918 19.768 134C19.9241 134.081 20.0452 134.206 20.1312 134.375C20.2185 134.542 20.2621 134.756 20.2621 135.015V136.929H19.7938V135.046C19.7938 134.807 19.731 134.622 19.6053 134.491C19.4809 134.359 19.3083 134.293 19.0874 134.293C18.9339 134.293 18.7963 134.325 18.6746 134.389C18.5542 134.453 18.459 134.546 18.3889 134.669C18.3201 134.792 18.2857 134.941 18.2857 135.117Z" fill="#757575"/>
<path d="M23.5875 137C23.3943 137 23.219 136.964 23.0616 136.892C22.9042 136.819 22.7792 136.714 22.6866 136.576C22.594 136.438 22.5477 136.27 22.5477 136.074C22.5477 135.901 22.5821 135.761 22.6508 135.654C22.7196 135.546 22.8116 135.461 22.9267 135.399C23.0418 135.338 23.1688 135.292 23.3077 135.262C23.4479 135.23 23.5888 135.206 23.7304 135.187C23.9156 135.164 24.0657 135.146 24.1808 135.134C24.2972 135.121 24.3819 135.1 24.4348 135.069C24.4891 135.039 24.5162 134.987 24.5162 134.913V134.897C24.5162 134.703 24.4626 134.553 24.3554 134.446C24.2496 134.338 24.0889 134.285 23.8732 134.285C23.6497 134.285 23.4744 134.333 23.3474 134.43C23.2204 134.527 23.1311 134.63 23.0795 134.74L22.635 134.583C22.7143 134.4 22.8202 134.257 22.9525 134.155C23.0861 134.052 23.2316 133.98 23.389 133.939C23.5478 133.898 23.7039 133.877 23.8574 133.877C23.9553 133.877 24.0677 133.888 24.1947 133.912C24.323 133.934 24.4467 133.981 24.5658 134.051C24.6862 134.122 24.786 134.229 24.8654 134.371C24.9448 134.514 24.9845 134.705 24.9845 134.944V136.929H24.5162V136.521H24.4924C24.4606 136.587 24.4077 136.657 24.3336 136.731C24.2595 136.806 24.161 136.869 24.0379 136.922C23.9149 136.974 23.7648 137 23.5875 137ZM23.6589 136.584C23.8441 136.584 24.0002 136.548 24.1272 136.476C24.2556 136.404 24.3521 136.311 24.417 136.198C24.4831 136.084 24.5162 135.964 24.5162 135.839V135.415C24.4963 135.438 24.4527 135.46 24.3852 135.48C24.3191 135.498 24.2423 135.514 24.155 135.529C24.069 135.542 23.985 135.553 23.903 135.564C23.8223 135.573 23.7568 135.581 23.7065 135.587C23.5848 135.603 23.4711 135.629 23.3652 135.664C23.2607 135.698 23.176 135.75 23.1112 135.819C23.0477 135.887 23.016 135.98 23.016 136.098C23.016 136.258 23.0762 136.38 23.1966 136.462C23.3183 136.544 23.4724 136.584 23.6589 136.584Z" fill="#757575"/>
<path d="M26.9902 136.992C26.7362 136.992 26.512 136.929 26.3175 136.802C26.123 136.674 25.9709 136.493 25.8611 136.26C25.7513 136.026 25.6964 135.75 25.6964 135.43C25.6964 135.114 25.7513 134.839 25.8611 134.607C25.9709 134.374 26.1237 134.194 26.3195 134.067C26.5153 133.94 26.7415 133.877 26.9981 133.877C27.1966 133.877 27.3534 133.909 27.4685 133.975C27.5849 134.039 27.6735 134.112 27.7344 134.194C27.7965 134.276 27.8448 134.342 27.8792 134.395H27.9189V132.911H28.3872V136.929H27.9348V136.466H27.8792C27.8448 136.521 27.7959 136.591 27.7324 136.674C27.6689 136.757 27.5783 136.831 27.4605 136.896C27.3428 136.96 27.186 136.992 26.9902 136.992ZM27.0537 136.576C27.2416 136.576 27.4003 136.528 27.53 136.431C27.6596 136.333 27.7582 136.198 27.8256 136.025C27.8931 135.851 27.9268 135.65 27.9268 135.423C27.9268 135.198 27.8938 135.001 27.8276 134.832C27.7615 134.662 27.6636 134.53 27.5339 134.436C27.4043 134.34 27.2442 134.293 27.0537 134.293C26.8553 134.293 26.6899 134.343 26.5576 134.444C26.4266 134.543 26.3281 134.678 26.2619 134.85C26.1971 135.02 26.1647 135.211 26.1647 135.423C26.1647 135.637 26.1978 135.832 26.2639 136.007C26.3314 136.181 26.4306 136.32 26.5616 136.423C26.6939 136.525 26.8579 136.576 27.0537 136.576Z" fill="#757575"/>
<path d="M31.469 134.591L31.0483 134.709C31.0218 134.639 30.9828 134.572 30.9312 134.506C30.8809 134.44 30.8121 134.385 30.7248 134.342C30.6375 134.298 30.5257 134.277 30.3895 134.277C30.2029 134.277 30.0475 134.319 29.9231 134.404C29.8001 134.488 29.7386 134.595 29.7386 134.724C29.7386 134.839 29.7809 134.93 29.8656 134.997C29.9503 135.064 30.0826 135.119 30.2625 135.164L30.7149 135.274C30.9874 135.339 31.1905 135.439 31.3241 135.574C31.4577 135.707 31.5245 135.879 31.5245 136.09C31.5245 136.262 31.4743 136.417 31.3737 136.553C31.2745 136.689 31.1356 136.796 30.957 136.874C30.7784 136.953 30.5707 136.992 30.3339 136.992C30.023 136.992 29.7657 136.925 29.562 136.792C29.3583 136.659 29.2293 136.464 29.175 136.207L29.6195 136.098C29.6619 136.26 29.7419 136.381 29.8596 136.462C29.9787 136.544 30.1341 136.584 30.326 136.584C30.5443 136.584 30.7176 136.538 30.8459 136.447C30.9755 136.354 31.0404 136.243 31.0404 136.113C31.0404 136.009 31.0033 135.921 30.9292 135.85C30.8551 135.778 30.7414 135.725 30.5879 135.689L30.0799 135.572C29.8008 135.506 29.5957 135.405 29.4647 135.268C29.3351 135.129 29.2703 134.956 29.2703 134.748C29.2703 134.578 29.3186 134.427 29.4151 134.297C29.513 134.166 29.646 134.063 29.814 133.988C29.9833 133.914 30.1752 133.877 30.3895 133.877C30.6911 133.877 30.9279 133.942 31.0999 134.073C31.2732 134.204 31.3962 134.376 31.469 134.591Z" fill="#757575"/>
<defs>
<radialGradient id="paint0_radial_656_275" cx="0" cy="0" r="1" gradientUnits="userSpaceOnUse" gradientTransform="translate(9.77106 70.9948) scale(270.135 91.9201)">
<stop stop-color="#263238" stop-opacity="0.2"/>
<stop offset="1" stop-color="#263238" stop-opacity="0.02"/>
</radialGradient>
<radialGradient id="paint1_radial_656_275" cx="0" cy="0" r="1" gradientUnits="userSpaceOnUse" gradientTransform="translate(55.5459 27.1956) scale(216.588 147.399)">
<stop stop-color="white"/>
<stop offset="1" stop-color="white" stop-opacity="0"/>
</radialGradient>
</defs>
</svg>
