<svg width="396" height="344" viewBox="0 0 396 344" fill="none" xmlns="http://www.w3.org/2000/svg">
<g clip-path="url(#clip0_2282_28)">
<path d="M385.614 241.328C371.837 233.388 349.575 233.388 335.888 241.328C322.201 249.268 322.271 262.142 336.048 270.082C349.825 278.022 372.087 278.022 385.775 270.082C399.462 262.142 399.392 249.268 385.614 241.328Z" fill="#8E6C38"/>
<path d="M42.6926 166.372L40.5615 167.6L40.5815 174.242C40.5815 174.911 41.0618 175.191 41.6521 174.851C42.2424 174.512 42.7127 173.683 42.7127 173.014L42.6926 166.372ZM41.5921 156.684C41.0017 157.024 40.5315 157.843 40.5315 158.512L40.5515 165.154L42.6826 163.925L42.6626 157.283C42.6626 156.614 42.1824 156.345 41.5921 156.684Z" fill="#8E6C38"/>
<path d="M48.4756 160.599L42.6925 163.935L40.5614 165.164L34.7783 168.499C34.188 168.839 33.7178 169.658 33.7178 170.327C33.7178 171.006 34.198 171.276 34.7883 170.936L40.5714 167.6L42.7025 166.372L48.4856 163.036C49.0759 162.697 49.5462 161.868 49.5462 161.198C49.5462 160.529 49.0659 160.26 48.4756 160.599Z" fill="#8E6C38"/>
<path d="M264.761 18.5668L262.629 19.7953L262.649 26.437C262.649 27.1161 263.13 27.3858 263.72 27.0462C264.31 26.7066 264.781 25.8777 264.781 25.2085L264.761 18.5668ZM263.66 8.87892C263.07 9.21849 262.599 10.0375 262.599 10.7066L262.619 17.3483L264.75 16.1199L264.73 9.47817C264.73 8.79902 264.25 8.53934 263.66 8.87892Z" fill="#8E6C38"/>
<path d="M270.543 12.794L264.76 16.1298L262.629 17.3583L256.846 20.6941C256.256 21.0337 255.786 21.8527 255.786 22.5219C255.786 23.191 256.266 23.4707 256.856 23.1311L262.639 19.7953L264.77 18.5668L270.553 15.231C271.144 14.8914 271.614 14.0624 271.614 13.3933C271.614 12.7241 271.134 12.4544 270.543 12.794Z" fill="#8E6C38"/>
<path d="M221.948 317.164L219.817 318.392L219.837 325.034C219.837 325.703 220.317 325.983 220.907 325.643C221.498 325.303 221.968 324.474 221.968 323.805L221.948 317.164ZM220.847 307.476C220.257 307.815 219.787 308.634 219.787 309.303L219.807 315.945L221.938 314.717L221.918 308.075C221.918 307.406 221.437 307.136 220.847 307.476Z" fill="#8E6C38"/>
<path d="M227.731 311.391L221.948 314.727L219.817 315.955L214.033 319.291C213.443 319.63 212.973 320.449 212.973 321.119C212.973 321.788 213.453 322.067 214.043 321.728L219.827 318.392L221.958 317.164L227.741 313.828C228.331 313.488 228.801 312.659 228.801 311.99C228.801 311.321 228.321 311.051 227.731 311.391Z" fill="#8E6C38"/>
<path d="M153.131 336.01C159.715 332.375 159.885 322.996 153.441 319.121L152.121 318.332C136.852 309.164 117.912 308.574 102.104 316.784L84.6748 325.833L101.534 335.541C117.462 344.719 137.033 344.899 153.131 336.01Z" fill="#8E6C38"/>
<path d="M127.758 344C118.413 344 109.078 341.613 100.783 336.829L83.9245 327.121C83.4542 326.851 83.1641 326.342 83.1741 325.793C83.1841 325.243 83.4943 324.754 83.9845 324.494L101.414 315.446C117.572 307.066 137.293 307.675 152.891 317.044L154.212 317.833C157.704 319.93 159.745 323.605 159.675 327.67C159.605 331.735 157.423 335.341 153.862 337.308C145.787 341.763 136.773 343.99 127.758 343.99V344ZM87.7965 325.893L102.284 334.242C117.662 343.101 136.863 343.271 152.401 334.702C155.022 333.253 156.613 330.617 156.663 327.63C156.713 324.644 155.222 321.948 152.661 320.409L151.34 319.62C136.632 310.792 118.023 310.212 102.794 318.112L87.7965 325.893Z" fill="#8E6C38"/>
<path d="M129.499 295.521L129.439 317.623H104.035L104.105 295.521H129.499Z" fill="#F0D68F"/>
<path d="M129.439 319.121H104.045C103.645 319.121 103.265 318.961 102.985 318.682C102.705 318.402 102.544 318.013 102.544 317.623L102.604 295.521C102.604 294.692 103.275 294.023 104.105 294.023H129.499C129.899 294.023 130.279 294.182 130.559 294.462C130.839 294.742 131 295.131 131 295.521L130.939 317.623C130.939 318.452 130.269 319.121 129.439 319.121ZM105.546 316.125H127.938L127.998 297.019H105.606L105.556 316.125H105.546Z" fill="#8E6C38"/>
<path d="M122.005 285.134C126.617 287.79 129.479 291.466 129.499 295.521H104.105L104.185 310.212C97.1716 310.212 90.8082 308.564 86.1957 305.908C81.5833 303.251 78.7218 299.576 78.7018 295.521C78.6617 287.411 89.9877 280.839 104.015 280.839C111.029 280.839 117.392 282.487 122.005 285.144V285.134Z" fill="#F2E7CB"/>
<path d="M104.175 311.7C97.1315 311.7 90.4779 310.102 85.4353 307.196C80.1425 304.15 77.2109 299.995 77.1909 295.521C77.1709 292.524 78.4916 289.618 80.9929 287.101C85.8455 282.227 94.45 279.321 104.005 279.321C111.049 279.321 117.702 280.919 122.745 283.825C128.038 286.881 130.969 291.026 130.989 295.501C130.989 295.9 130.829 296.28 130.549 296.569C130.269 296.849 129.889 297.009 129.489 297.009H105.596L105.666 310.192C105.666 310.592 105.506 310.971 105.226 311.261C104.946 311.541 104.565 311.7 104.165 311.7H104.175ZM104.005 282.327C95.3605 282.327 87.3563 284.964 83.114 289.218C81.183 291.156 80.1725 293.333 80.1825 295.511C80.2025 298.876 82.5938 302.112 86.9261 304.609C91.1583 307.046 96.6912 308.474 102.654 308.684L102.584 295.531C102.584 295.131 102.744 294.752 103.025 294.462C103.305 294.182 103.685 294.022 104.085 294.022H127.818C127.207 291.206 124.916 288.559 121.234 286.432C116.652 283.785 110.529 282.327 103.995 282.327H104.005Z" fill="#8E6C38"/>
<path d="M104.175 310.202L104.115 332.305C97.1014 332.305 90.738 330.657 86.1256 328C81.5131 325.343 78.6516 321.668 78.6316 317.613L78.6916 295.511C78.7116 299.566 81.5732 303.241 86.1856 305.898C90.798 308.554 97.1514 310.202 104.175 310.202Z" fill="#F2E7CB"/>
<path d="M104.115 333.803C97.0714 333.803 90.4179 332.205 85.3752 329.298C80.0824 326.252 77.1509 322.097 77.1309 317.623L77.1909 295.511C77.1909 294.682 77.8613 294.013 78.6917 294.013C79.5221 294.013 80.1925 294.682 80.1925 295.501C80.2125 298.866 82.6038 302.102 86.9361 304.599C91.5285 307.246 97.6417 308.704 104.175 308.704C104.575 308.704 104.956 308.864 105.236 309.144C105.516 309.423 105.676 309.813 105.676 310.202L105.616 332.305C105.616 333.134 104.946 333.803 104.115 333.803ZM80.1725 302.961L80.1325 317.623C80.1525 320.979 82.5437 324.215 86.876 326.712C91.1083 329.149 96.6512 330.577 102.614 330.787L102.664 311.68C96.181 311.471 90.1077 309.903 85.4353 307.206C83.2741 305.958 81.5032 304.529 80.1725 302.971V302.961Z" fill="#8E6C38"/>
<path d="M104.175 310.202L104.115 332.305C97.1014 332.305 90.738 330.657 86.1256 328C81.5131 325.343 78.6516 321.668 78.6316 317.613L78.6916 295.511C78.7116 299.566 81.5732 303.241 86.1856 305.898C90.798 308.554 97.1514 310.202 104.175 310.202Z" fill="#F2E7CB"/>
<path d="M104.115 333.803C97.0714 333.803 90.4179 332.205 85.3752 329.298C80.0824 326.252 77.1509 322.097 77.1309 317.623L77.1909 295.511C77.1909 294.682 77.8613 294.013 78.6917 294.013C79.5221 294.013 80.1925 294.682 80.1925 295.501C80.2125 298.866 82.6038 302.102 86.9361 304.599C91.5285 307.246 97.6417 308.704 104.175 308.704C104.575 308.704 104.956 308.864 105.236 309.144C105.516 309.423 105.676 309.813 105.676 310.202L105.616 332.305C105.616 333.134 104.946 333.803 104.115 333.803ZM80.1725 302.961L80.1325 317.623C80.1525 320.979 82.5437 324.215 86.876 326.712C91.1083 329.149 96.6512 330.577 102.614 330.787L102.664 311.68C96.181 311.471 90.1077 309.903 85.4353 307.206C83.2741 305.958 81.5032 304.529 80.1725 302.971V302.961Z" fill="#8E6C38"/>
<path d="M138.994 303.231C139.044 311.341 127.698 317.913 113.68 317.913L113.6 303.221H139.004L138.994 303.231Z" fill="#BDA76A"/>
<path d="M113.68 319.411C112.85 319.411 112.179 318.742 112.179 317.923L112.099 303.231C112.099 302.831 112.259 302.452 112.54 302.162C112.82 301.883 113.2 301.723 113.6 301.723H139.004C139.834 301.723 140.504 302.392 140.504 303.211C140.524 306.207 139.204 309.114 136.702 311.62C131.85 316.494 123.245 319.401 113.68 319.401V319.411ZM115.111 304.719L115.171 316.385C123.245 316.095 130.579 313.518 134.571 309.513C136.062 308.025 137.003 306.387 137.343 304.719H115.101H115.111Z" fill="#8E6C38"/>
<path d="M138.994 303.231L138.934 325.333C138.984 333.443 127.638 340.015 113.62 340.025L113.68 317.923C127.708 317.923 139.044 311.341 138.994 303.241V303.231Z" fill="#F0D68F"/>
<path d="M113.62 341.513C113.22 341.513 112.84 341.353 112.56 341.074C112.279 340.794 112.119 340.405 112.119 340.015L112.179 317.913C112.179 317.084 112.85 316.415 113.68 316.415C122.325 316.415 130.339 313.768 134.571 309.513C136.462 307.616 137.473 305.488 137.493 303.351V303.211C137.493 302.382 138.163 301.713 138.994 301.713C139.824 301.713 140.494 302.382 140.494 303.201V303.371L140.434 325.323C140.454 328.3 139.134 331.206 136.632 333.723C131.78 338.597 123.175 341.503 113.61 341.503L113.62 341.513ZM115.181 319.381L115.131 338.487C123.195 338.197 130.529 335.621 134.521 331.616C136.442 329.678 137.463 327.511 137.443 325.333L137.483 310.792C137.243 311.071 136.983 311.351 136.702 311.63C132.11 316.245 124.136 319.101 115.181 319.391V319.381Z" fill="#8E6C38"/>
<path d="M138.994 303.231L138.934 325.333C138.984 333.443 127.638 340.015 113.62 340.025L113.68 317.923C127.708 317.923 139.044 311.341 138.994 303.241V303.231Z" fill="#F0D68F"/>
<path d="M113.62 341.513C113.22 341.513 112.84 341.353 112.56 341.074C112.279 340.794 112.119 340.405 112.119 340.015L112.179 317.913C112.179 317.084 112.85 316.415 113.68 316.415C122.325 316.415 130.339 313.768 134.571 309.513C136.462 307.616 137.473 305.488 137.493 303.351V303.211C137.493 302.382 138.163 301.713 138.994 301.713C139.824 301.713 140.494 302.382 140.494 303.201V303.371L140.434 325.323C140.454 328.3 139.134 331.206 136.632 333.723C131.78 338.597 123.175 341.503 113.61 341.503L113.62 341.513ZM115.181 319.381L115.131 338.487C123.195 338.197 130.529 335.621 134.521 331.616C136.442 329.678 137.463 327.511 137.443 325.333L137.483 310.792C137.243 311.071 136.983 311.351 136.702 311.63C132.11 316.245 124.136 319.101 115.181 319.391V319.381Z" fill="#8E6C38"/>
<path d="M319.869 198.292C288.003 179.925 236.485 179.925 204.828 198.292C173.162 216.659 173.332 246.442 205.199 264.809C237.076 283.176 288.583 283.176 320.24 264.809C351.906 246.442 351.736 216.659 319.869 198.292Z" fill="#8E6C38"/>
<path d="M298.248 190.052C298.248 189.753 298.228 189.453 298.218 189.164C298.178 187.945 298.128 186.727 298.048 185.498C298.048 185.428 298.038 185.358 298.038 185.288C297.968 184.12 297.868 182.941 297.768 181.753C297.738 181.453 297.718 181.154 297.688 180.854C297.568 179.625 297.438 178.387 297.288 177.149C297.278 177.029 297.258 176.899 297.238 176.779C297.098 175.63 296.937 174.492 296.767 173.343C296.727 173.044 296.677 172.744 296.627 172.444C296.437 171.206 296.227 169.958 296.007 168.709C295.977 168.539 295.947 168.38 295.917 168.21C295.717 167.091 295.497 165.963 295.267 164.834C295.207 164.534 295.146 164.245 295.086 163.945C294.826 162.697 294.546 161.448 294.256 160.2C294.206 160 294.156 159.8 294.106 159.59C293.846 158.482 293.566 157.383 293.286 156.275C293.215 155.985 293.135 155.695 293.065 155.406C292.735 154.157 292.395 152.909 292.035 151.65C291.965 151.421 291.905 151.191 291.835 150.971C291.515 149.873 291.184 148.784 290.844 147.685C290.754 147.406 290.674 147.136 290.584 146.856C290.194 145.608 289.784 144.36 289.363 143.111C289.283 142.861 289.193 142.612 289.103 142.362C288.733 141.283 288.353 140.195 287.963 139.116C287.863 138.856 287.773 138.587 287.673 138.327C287.212 137.079 286.742 135.84 286.262 134.602C286.162 134.342 286.052 134.072 285.952 133.813C285.531 132.734 285.091 131.665 284.651 130.587C284.551 130.337 284.451 130.097 284.351 129.848C283.831 128.609 283.31 127.381 282.76 126.152C282.72 126.052 282.68 125.953 282.63 125.853C282.54 125.643 282.44 125.443 282.35 125.233C281.98 124.394 281.599 123.556 281.209 122.727C281.059 122.397 280.909 122.067 280.749 121.738C280.249 120.669 279.738 119.59 279.218 118.532C279.198 118.492 279.178 118.452 279.158 118.412C278.618 117.313 278.067 116.215 277.507 115.126C277.347 114.806 277.177 114.487 277.007 114.157C276.587 113.338 276.156 112.529 275.726 111.72C275.556 111.401 275.386 111.091 275.226 110.772C274.646 109.693 274.055 108.614 273.455 107.536C273.415 107.466 273.375 107.396 273.335 107.326C272.765 106.317 272.194 105.308 271.614 104.31C271.434 103.99 271.244 103.68 271.054 103.361C270.583 102.562 270.103 101.763 269.623 100.974C269.443 100.674 269.263 100.385 269.083 100.085C268.442 99.0362 267.792 97.9975 267.132 96.9588C267.052 96.8289 266.962 96.6891 266.872 96.5593C266.291 95.6504 265.701 94.7515 265.111 93.8527C264.9 93.5431 264.69 93.2235 264.48 92.9138C263.96 92.1448 263.44 91.3758 262.919 90.6067C262.729 90.3371 262.549 90.0674 262.359 89.7977C261.659 88.789 260.958 87.7902 260.248 86.8015C260.128 86.6317 259.998 86.4619 259.878 86.2921C259.277 85.4632 258.677 84.6442 258.067 83.8252C257.847 83.5256 257.617 83.2259 257.396 82.9263C256.826 82.1773 256.256 81.4282 255.686 80.6891C255.495 80.4494 255.315 80.2097 255.125 79.97C254.375 79.0112 253.624 78.0724 252.864 77.1336C252.704 76.9338 252.544 76.744 252.384 76.5443C251.773 75.7952 251.153 75.0462 250.523 74.2971C250.283 74.0075 250.043 73.7278 249.802 73.4382C249.192 72.7191 248.572 72 247.941 71.2809C247.801 71.1311 247.671 70.9713 247.541 70.8115C247.491 70.7515 247.441 70.7016 247.391 70.6417C246.801 69.9725 246.201 69.3034 245.6 68.6342C245.49 68.5044 245.37 68.3845 245.26 68.2547C244.54 67.4656 243.819 66.6966 243.099 65.9176C242.879 65.6879 242.659 65.4582 242.439 65.2284C241.928 64.6891 241.418 64.1598 240.898 63.6205C240.618 63.3308 240.337 63.0512 240.057 62.7715C239.597 62.3021 239.137 61.8427 238.667 61.3733C238.366 61.0736 238.066 60.774 237.756 60.4844C237.306 60.0449 236.856 59.6055 236.395 59.176C236.085 58.8764 235.775 58.5867 235.465 58.2871C235.005 57.8577 234.544 57.4282 234.084 57.0087C233.774 56.7291 233.464 56.4394 233.164 56.1598C232.683 55.7203 232.193 55.2909 231.713 54.8614C231.423 54.6017 231.133 54.3421 230.842 54.0924C230.282 53.603 229.722 53.1236 229.152 52.6342C228.931 52.4444 228.721 52.2647 228.501 52.0749C227.721 51.4157 226.93 50.7665 226.14 50.1273C225.97 49.9875 225.8 49.8577 225.63 49.7178C225.009 49.2185 224.389 48.7191 223.759 48.2297C223.468 48.01 223.188 47.7902 222.898 47.5705C222.388 47.171 221.868 46.7815 221.347 46.392C221.027 46.1523 220.707 45.9126 220.387 45.6829C219.897 45.3233 219.406 44.9638 218.916 44.6142C218.586 44.3745 218.246 44.1448 217.916 43.9051C217.425 43.5655 216.935 43.2259 216.445 42.8864C216.115 42.6567 215.774 42.4269 215.444 42.2072C214.934 41.8676 214.434 41.5381 213.923 41.2085C213.603 40.9987 213.283 40.789 212.963 40.5892C212.403 40.2297 211.842 39.8901 211.292 39.5406C211.022 39.3708 210.742 39.201 210.472 39.0312C209.641 38.5218 208.801 38.0324 207.96 37.5431C189.07 26.6567 171.521 23.181 156.973 26.1573C152.121 27.146 147.608 28.8539 143.486 31.2409L122.695 43.2959C139.174 33.7378 161.986 35.0861 187.169 49.598C188.01 50.0774 188.84 50.5768 189.681 51.0861C189.951 51.2559 190.231 51.4257 190.501 51.5955C191.061 51.945 191.622 52.2846 192.172 52.6442C192.492 52.8539 192.812 53.0637 193.132 53.2634C193.643 53.593 194.153 53.9226 194.653 54.2622C194.983 54.4819 195.324 54.7116 195.654 54.9413C196.144 55.2809 196.634 55.6205 197.125 55.96C197.455 56.1897 197.795 56.4294 198.125 56.6691C198.615 57.0187 199.106 57.3783 199.596 57.7378C199.916 57.9775 200.236 58.2072 200.556 58.4469C201.077 58.8364 201.587 59.2259 202.107 59.6255C202.397 59.8452 202.677 60.0649 202.968 60.2846C203.598 60.774 204.218 61.2634 204.839 61.7728C205.009 61.9126 205.179 62.0424 205.349 62.1823C206.139 62.8215 206.92 63.4706 207.71 64.1298C207.93 64.3096 208.14 64.4994 208.36 64.6891C208.921 65.1685 209.491 65.6579 210.051 66.1473C210.342 66.397 210.632 66.6567 210.922 66.9163C211.402 67.3458 211.892 67.7753 212.373 68.2147C212.683 68.4944 212.993 68.784 213.303 69.0637C213.763 69.4831 214.224 69.9126 214.674 70.3421C214.984 70.6417 215.304 70.9313 215.614 71.2309C216.065 71.6604 216.515 72.0999 216.965 72.5393C217.265 72.8389 217.575 73.1286 217.876 73.4282C218.346 73.8876 218.806 74.357 219.266 74.8264C219.546 75.1061 219.827 75.3857 220.107 75.6754C220.627 76.2047 221.137 76.744 221.658 77.2834C221.878 77.5131 222.098 77.7328 222.308 77.9625C223.028 78.7316 223.759 79.5106 224.469 80.2896C224.589 80.4195 224.709 80.5593 224.829 80.6891C225.42 81.3483 226.02 82.0075 226.6 82.6666C226.79 82.8764 226.97 83.0961 227.16 83.3158C227.781 84.0249 228.401 84.744 229.011 85.4632C229.252 85.7528 229.492 86.0324 229.732 86.3221C230.352 87.0612 230.972 87.8102 231.583 88.5593C231.743 88.759 231.913 88.9588 232.073 89.1585C232.833 90.0974 233.584 91.0462 234.324 91.995C234.514 92.2347 234.704 92.4844 234.885 92.7241C235.455 93.4632 236.025 94.2022 236.585 94.9513C236.816 95.2509 237.036 95.5506 237.266 95.8602C237.876 96.6791 238.476 97.4981 239.077 98.3271C239.197 98.4969 239.327 98.6666 239.447 98.8464C240.157 99.8352 240.858 100.834 241.558 101.843C241.748 102.112 241.928 102.382 242.108 102.652C242.639 103.421 243.159 104.19 243.669 104.959C243.879 105.268 244.089 105.578 244.29 105.898C244.88 106.796 245.47 107.705 246.05 108.614C246.131 108.744 246.221 108.874 246.311 109.014C246.971 110.052 247.621 111.091 248.262 112.14C248.442 112.429 248.622 112.729 248.802 113.029C249.282 113.818 249.752 114.617 250.223 115.406C250.413 115.725 250.603 116.045 250.783 116.365C251.363 117.363 251.934 118.362 252.504 119.361C252.544 119.431 252.584 119.501 252.624 119.581C253.224 120.649 253.815 121.728 254.395 122.816C254.565 123.126 254.735 123.446 254.895 123.765C255.325 124.574 255.756 125.393 256.176 126.202C256.346 126.522 256.506 126.851 256.676 127.171C257.236 128.26 257.787 129.358 258.327 130.457C258.347 130.497 258.367 130.547 258.387 130.587C258.907 131.645 259.418 132.714 259.918 133.783C260.068 134.112 260.218 134.442 260.378 134.772C260.768 135.61 261.148 136.439 261.519 137.278C261.659 137.578 261.789 137.888 261.929 138.197C262.469 139.426 262.999 140.654 263.52 141.893C263.62 142.142 263.72 142.382 263.82 142.632C264.26 143.7 264.7 144.779 265.121 145.858C265.221 146.117 265.331 146.387 265.431 146.647C265.911 147.885 266.381 149.134 266.842 150.372C266.942 150.632 267.032 150.901 267.132 151.161C267.522 152.24 267.902 153.328 268.272 154.407C268.362 154.657 268.442 154.906 268.532 155.156C268.953 156.404 269.363 157.653 269.753 158.901C269.843 159.181 269.923 159.451 270.013 159.73C270.353 160.829 270.684 161.918 271.004 163.016C271.074 163.246 271.134 163.476 271.204 163.695C271.564 164.944 271.904 166.202 272.234 167.451C272.314 167.74 272.384 168.03 272.454 168.32C272.745 169.428 273.015 170.527 273.275 171.635C273.325 171.835 273.375 172.035 273.425 172.245C273.715 173.493 273.995 174.742 274.255 175.99C274.315 176.29 274.375 176.579 274.436 176.879C274.666 178.007 274.886 179.136 275.086 180.255C275.116 180.424 275.146 180.584 275.176 180.754C275.396 182.002 275.606 183.241 275.796 184.489C275.846 184.789 275.886 185.089 275.936 185.388C276.106 186.537 276.266 187.685 276.407 188.824C276.427 188.944 276.437 189.074 276.457 189.193C276.607 190.432 276.737 191.67 276.857 192.899C276.887 193.198 276.917 193.498 276.937 193.798C277.047 194.976 277.137 196.155 277.207 197.333C277.207 197.403 277.217 197.473 277.217 197.543C277.297 198.772 277.347 199.99 277.387 201.208C277.397 201.508 277.407 201.808 277.417 202.097C277.447 203.316 277.467 204.534 277.467 205.753C277.387 234.267 267.302 254.332 251.033 263.77L271.824 251.715C288.093 242.277 298.178 222.212 298.258 193.698C298.258 192.489 298.238 191.271 298.208 190.042L298.248 190.052Z" fill="#F0D68F"/>
<path d="M251.073 265.278C250.553 265.278 250.053 265.009 249.772 264.529C249.352 263.81 249.602 262.901 250.313 262.482L250.343 262.462C266.811 252.894 275.916 232.759 275.996 205.753C275.996 204.554 275.976 203.346 275.946 202.147L275.916 201.268C275.876 200.07 275.826 198.861 275.746 197.643V197.433C275.656 196.285 275.566 195.116 275.456 193.948L275.376 193.059C275.256 191.84 275.136 190.612 274.986 189.393L274.936 189.024C274.796 187.895 274.636 186.757 274.465 185.618L274.335 184.719C274.145 183.491 273.945 182.262 273.725 181.024L273.635 180.524C273.435 179.416 273.215 178.307 272.985 177.189L272.805 176.31C272.544 175.071 272.274 173.833 271.984 172.594L271.844 171.995C271.584 170.896 271.314 169.808 271.024 168.709L270.804 167.85C270.473 166.602 270.133 165.363 269.783 164.125L269.583 163.446C269.273 162.367 268.943 161.278 268.602 160.2L268.342 159.371C267.952 158.132 267.552 156.894 267.132 155.655L266.871 154.916C266.501 153.838 266.121 152.769 265.741 151.7L265.461 150.911C265.01 149.673 264.54 148.444 264.06 147.216L263.75 146.427C263.33 145.358 262.899 144.29 262.459 143.231L262.159 142.502C261.649 141.283 261.118 140.055 260.588 138.836L260.188 137.928C259.818 137.099 259.437 136.26 259.057 135.431L258.607 134.452C258.107 133.393 257.607 132.335 257.086 131.276L258.377 130.487L257.026 131.146C256.496 130.057 255.946 128.969 255.395 127.88L254.895 126.911C254.475 126.102 254.055 125.293 253.624 124.494L253.124 123.556C252.544 122.477 251.964 121.408 251.363 120.34L251.233 120.12C250.673 119.131 250.103 118.132 249.532 117.144L248.972 116.195C248.502 115.406 248.031 114.617 247.561 113.828L247.031 112.949C246.391 111.91 245.75 110.871 245.1 109.843L244.84 109.443C244.269 108.544 243.679 107.645 243.089 106.757L242.468 105.828C241.958 105.059 241.438 104.29 240.918 103.531L240.367 102.732C239.677 101.733 238.977 100.734 238.266 99.7553L237.896 99.2459C237.296 98.417 236.695 97.598 236.095 96.789L235.425 95.8901C234.864 95.1411 234.304 94.412 233.734 93.6729L233.174 92.9438C232.433 91.995 231.683 91.0562 230.932 90.1273L230.442 89.5381C229.832 88.789 229.221 88.0499 228.601 87.3208L227.881 86.4719C227.27 85.7528 226.66 85.0437 226.04 84.3346L225.479 83.6954C224.899 83.0362 224.309 82.377 223.719 81.7278L223.358 81.3283C222.648 80.5493 221.938 79.7803 221.217 79.0112L220.567 78.3321C220.057 77.7927 219.546 77.2634 219.026 76.7341L218.196 75.8951C217.735 75.4257 217.275 74.9663 216.815 74.5068L215.914 73.618C215.464 73.1785 215.024 72.749 214.574 72.3196L213.643 71.4307C213.193 71.0112 212.733 70.5818 212.282 70.1623L211.362 69.3233C210.882 68.8939 210.401 68.4644 209.921 68.0349L209.061 67.2759C208.5 66.7865 207.94 66.3071 207.39 65.8277L206.75 65.2784C205.969 64.6292 205.199 63.98 204.418 63.3508L203.908 62.9513C203.288 62.4519 202.677 61.9625 202.057 61.4831L201.207 60.824C200.696 60.4344 200.186 60.0449 199.676 59.6554L198.725 58.9563C198.245 58.5967 197.755 58.2472 197.265 57.8976L196.274 57.1885C195.794 56.8489 195.313 56.5193 194.823 56.1798C194.493 55.95 194.163 55.7303 193.833 55.5106C193.332 55.171 192.832 54.8414 192.332 54.5218L192.172 54.412C191.912 54.2422 191.652 54.0724 191.391 53.9026C190.841 53.553 190.291 53.2035 189.731 52.8639L188.92 52.3645C188.1 51.8651 187.269 51.3758 186.449 50.8964C162.566 37.1336 140.204 34.8964 123.475 44.5942C122.755 45.0037 121.845 44.764 121.424 44.0549C121.004 43.3358 121.254 42.4269 121.965 42.0075C121.975 42.0075 121.985 41.9975 121.995 41.9875L142.746 29.9525C147.008 27.4856 151.69 25.7078 156.683 24.6891C172.131 21.5331 190.131 25.5281 208.721 36.2547C209.571 36.744 210.411 37.2434 211.262 37.7628L212.092 38.2721C212.663 38.6217 213.223 38.9713 213.793 39.3308L214.764 39.96C215.274 40.2896 215.794 40.6292 216.305 40.9688C216.645 41.1985 216.985 41.4282 217.315 41.6579C217.815 41.9975 218.306 42.3371 218.806 42.6866C219.146 42.9263 219.476 43.156 219.816 43.4057C220.317 43.7653 220.807 44.1248 221.307 44.4844L222.278 45.2035C222.798 45.593 223.318 45.9925 223.839 46.392L224.709 47.0612C225.339 47.5505 225.97 48.0599 226.6 48.5593L227.12 48.9688C227.921 49.618 228.711 50.2671 229.502 50.9363L230.162 51.5056C230.732 51.985 231.293 52.4744 231.863 52.9738L232.733 53.7528C233.224 54.1922 233.714 54.6217 234.194 55.0612L235.125 55.9201C235.585 56.3495 236.055 56.779 236.515 57.2085C236.825 57.5081 237.146 57.8077 237.456 58.0974C237.916 58.5368 238.366 58.9763 238.827 59.4257L239.747 60.3246C240.217 60.784 240.678 61.2634 241.148 61.7328L241.998 62.5917C242.519 63.1311 243.039 63.6704 243.549 64.2097L244.209 64.8989C244.94 65.6679 245.66 66.4569 246.391 67.2459L246.731 67.6254C247.341 68.2946 247.941 68.9638 248.542 69.6429L249.102 70.2821C249.732 71.0012 250.353 71.7303 250.973 72.4594L251.703 73.3183C252.334 74.0674 252.954 74.8165 253.574 75.5755L254.065 76.1748C254.835 77.1236 255.585 78.0724 256.336 79.0412L256.896 79.7603C257.476 80.5093 258.047 81.2584 258.617 82.0175L259.297 82.9263C259.908 83.7553 260.518 84.5842 261.118 85.4132L261.489 85.9226C262.209 86.9213 262.919 87.9301 263.62 88.9488L264.18 89.7678C264.71 90.5368 265.231 91.3158 265.751 92.0949L266.381 93.0437C266.981 93.9525 267.572 94.8614 268.152 95.7703L268.412 96.1698C269.073 97.2085 269.733 98.2572 270.373 99.3158L270.914 100.205C271.394 101.004 271.874 101.803 272.344 102.602L272.905 103.561C273.495 104.569 274.075 105.578 274.646 106.587L274.766 106.806C275.366 107.875 275.956 108.964 276.547 110.052L277.057 111.011C277.487 111.83 277.917 112.649 278.348 113.468L278.848 114.447C279.408 115.546 279.958 116.654 280.509 117.753L280.569 117.873C281.089 118.941 281.609 120.02 282.109 121.109L282.57 122.097C282.96 122.936 283.34 123.785 283.72 124.624L284.131 125.543C284.681 126.782 285.211 128.02 285.731 129.258L286.042 129.997C286.492 131.076 286.922 132.165 287.352 133.243L287.662 134.032C288.153 135.281 288.623 136.539 289.083 137.788L289.373 138.587C289.764 139.675 290.154 140.764 290.524 141.853L290.784 142.602C291.214 143.86 291.625 145.119 292.015 146.377L292.275 147.216C292.615 148.325 292.945 149.423 293.275 150.532L293.476 151.221C293.836 152.489 294.186 153.748 294.516 155.006L294.746 155.885C295.036 156.994 295.307 158.112 295.577 159.221L295.727 159.83C296.017 161.089 296.297 162.347 296.567 163.605L296.747 164.504C296.977 165.643 297.198 166.781 297.408 167.91L297.498 168.409C297.728 169.668 297.928 170.926 298.118 172.175L298.258 173.084C298.428 174.242 298.588 175.401 298.738 176.559L298.788 176.939C298.938 178.187 299.068 179.436 299.189 180.674L299.269 181.583C299.379 182.782 299.469 183.97 299.549 185.159V185.278C299.639 186.607 299.689 187.845 299.739 189.074L299.769 189.982C299.799 191.221 299.819 192.449 299.819 193.678C299.739 221.803 290.084 242.856 272.644 252.984L251.903 265.019C251.903 265.019 251.873 265.039 251.863 265.049C251.623 265.189 251.363 265.248 251.113 265.248L251.073 265.278ZM146.538 35.6654C159.264 35.6654 173.362 39.9101 187.94 48.3096C188.79 48.799 189.63 49.2984 190.481 49.8177L191.311 50.3271C191.882 50.6766 192.442 51.0262 193.012 51.3857C193.282 51.5555 193.553 51.7353 193.823 51.9151L193.983 52.0249C194.493 52.3545 195.013 52.6941 195.524 53.0337C195.864 53.2634 196.194 53.4931 196.534 53.7228C197.034 54.0624 197.525 54.402 198.025 54.7515L199.035 55.4706C199.536 55.8302 200.026 56.1897 200.526 56.5493L201.497 57.2684C202.017 57.6579 202.537 58.0574 203.058 58.4569L203.928 59.1261C204.558 59.6155 205.189 60.1148 205.819 60.6242L206.339 61.0337C207.14 61.6829 207.93 62.3321 208.721 63.0012L209.381 63.5605C209.951 64.0499 210.522 64.5293 211.082 65.0287L211.952 65.8077C212.443 66.2472 212.933 66.6766 213.413 67.1161L214.344 67.975C214.804 68.4045 215.264 68.8339 215.724 69.2634L216.675 70.1623C217.135 70.6017 217.585 71.0412 218.036 71.4806L218.956 72.3795C219.426 72.8389 219.897 73.3183 220.357 73.7877L221.197 74.6367C221.717 75.176 222.238 75.7153 222.758 76.2646L223.418 76.9538C224.149 77.7228 224.879 78.5118 225.6 79.3009L225.96 79.7103C226.56 80.3695 227.15 81.0387 227.751 81.7078L228.321 82.357C228.951 83.0761 229.572 83.7952 230.192 84.5243L230.922 85.3832C231.553 86.1323 232.173 86.8814 232.783 87.6404L233.274 88.2397C234.034 89.1885 234.794 90.1373 235.545 91.0961L236.115 91.8352C236.685 92.5743 237.256 93.3233 237.826 94.0824L238.506 94.9912C239.127 95.8202 239.727 96.6492 240.327 97.4781L240.708 97.9975C241.428 98.9962 242.128 100.005 242.829 101.014L243.389 101.823C243.919 102.602 244.45 103.371 244.97 104.15L245.6 105.099C246.2 106.007 246.791 106.916 247.371 107.825L247.631 108.225C248.292 109.263 248.952 110.322 249.592 111.371L250.133 112.26C250.613 113.049 251.093 113.848 251.563 114.657L252.134 115.615C252.714 116.614 253.294 117.623 253.865 118.632L253.945 118.762C254.595 119.93 255.195 121.009 255.776 122.097L256.286 123.056C256.716 123.865 257.146 124.684 257.576 125.513L258.077 126.492C258.637 127.59 259.197 128.699 259.738 129.808L259.798 129.938C260.318 131.006 260.828 132.085 261.339 133.164L261.799 134.152C262.189 134.991 262.569 135.84 262.949 136.679L263.36 137.598C263.9 138.826 264.44 140.075 264.96 141.313L265.271 142.062C265.721 143.141 266.151 144.23 266.581 145.308L266.891 146.107C267.382 147.356 267.852 148.604 268.312 149.853L268.602 150.652C268.993 151.74 269.383 152.829 269.753 153.918L270.013 154.667C270.443 155.925 270.854 157.184 271.244 158.442L271.504 159.281C271.844 160.38 272.174 161.488 272.504 162.587L272.705 163.276C273.065 164.534 273.415 165.803 273.745 167.061L273.975 167.94C274.265 169.049 274.535 170.167 274.806 171.286L274.956 171.895C275.246 173.154 275.526 174.412 275.796 175.67L275.976 176.569C276.206 177.708 276.426 178.846 276.637 179.975L276.727 180.474C276.957 181.733 277.157 182.981 277.347 184.24L277.487 185.149C277.657 186.307 277.817 187.466 277.967 188.624L278.017 189.004C278.167 190.252 278.297 191.501 278.418 192.749L278.498 193.658C278.608 194.856 278.698 196.045 278.778 197.233V197.353C278.868 198.682 278.918 199.92 278.968 201.149L278.998 202.057C279.028 203.296 279.048 204.524 279.048 205.753C278.988 226.117 273.905 242.786 264.48 254.272L271.144 250.407C287.632 240.839 296.757 220.694 296.827 193.688C296.827 192.489 296.807 191.281 296.777 190.082L296.747 189.193C296.707 187.995 296.657 186.786 296.577 185.568L296.557 185.358C296.487 184.21 296.387 183.041 296.287 181.873L296.207 180.984C296.087 179.765 295.967 178.537 295.817 177.318L295.767 176.949C295.627 175.82 295.467 174.692 295.297 173.553L295.166 172.664C294.976 171.436 294.776 170.197 294.556 168.969L294.466 168.479C294.266 167.361 294.046 166.252 293.816 165.134L293.636 164.255C293.375 163.016 293.105 161.778 292.815 160.539L292.675 159.94C292.415 158.851 292.145 157.753 291.855 156.654L291.635 155.795C291.304 154.547 290.964 153.308 290.614 152.07L290.414 151.401C290.094 150.312 289.774 149.223 289.433 148.145L289.183 147.326C288.793 146.087 288.383 144.849 287.973 143.61L287.712 142.861C287.342 141.793 286.962 140.714 286.582 139.645L286.302 138.856C285.851 137.628 285.381 136.389 284.901 135.161L284.591 134.382C284.171 133.313 283.74 132.245 283.3 131.176L283 130.447C282.49 129.218 281.959 128 281.429 126.782L281.019 125.873C280.649 125.044 280.269 124.205 279.888 123.376L279.438 122.397C278.938 121.328 278.438 120.27 277.917 119.211L279.208 118.432L277.857 119.091C277.327 118.002 276.777 116.914 276.216 115.825L275.726 114.866C275.306 114.057 274.886 113.248 274.455 112.439L273.955 111.501C273.375 110.422 272.795 109.353 272.194 108.295L272.134 108.185C272.134 108.185 272.084 108.095 272.084 108.085C271.524 107.076 270.944 106.087 270.373 105.089L269.813 104.14C269.353 103.351 268.872 102.562 268.402 101.773L267.872 100.894C267.232 99.8552 266.591 98.8165 265.941 97.7878L265.681 97.3882C265.11 96.4894 264.52 95.5905 263.93 94.7016L263.31 93.7728C262.799 93.0037 262.279 92.2347 261.759 91.4756L261.208 90.6766C260.518 89.6779 259.818 88.6891 259.107 87.7004L258.737 87.191C258.147 86.362 257.546 85.553 256.936 84.7341L256.266 83.8452C255.706 83.0961 255.135 82.357 254.565 81.618L254.015 80.9088C253.274 79.96 252.524 79.0212 251.773 78.0824L251.293 77.4931C250.683 76.744 250.073 76.005 249.452 75.2659L248.732 74.417C248.121 73.6979 247.511 72.9887 246.891 72.2796L246.341 71.6504C245.75 70.9813 245.16 70.3221 244.56 69.6629L244.219 69.2834C243.509 68.5044 242.799 67.7353 242.078 66.9763L241.428 66.2971C240.918 65.7578 240.407 65.2284 239.897 64.7091L239.067 63.8602C238.606 63.4007 238.146 62.9313 237.686 62.4819L236.785 61.593C236.335 61.1535 235.895 60.7241 235.445 60.2946C235.135 59.995 234.824 59.7053 234.524 59.4157C234.074 58.9862 233.614 58.5668 233.154 58.1473L232.233 57.3083C231.763 56.8789 231.283 56.4494 230.792 56.02L229.932 55.2509C229.382 54.7715 228.821 54.2921 228.261 53.8127L227.611 53.2534C226.84 52.6042 226.06 51.955 225.279 51.3258L224.769 50.9163C224.149 50.417 223.538 49.9276 222.918 49.4482L222.068 48.799C221.557 48.4095 221.047 48.02 220.537 47.6304L219.576 46.9213C219.086 46.5618 218.606 46.2122 218.116 45.8626C217.785 45.6229 217.455 45.3932 217.125 45.1635C216.645 44.8239 216.155 44.4844 215.664 44.1548C215.334 43.9251 215.004 43.7053 214.674 43.4856C214.173 43.156 213.673 42.8264 213.173 42.4969L212.222 41.8776C211.672 41.5281 211.122 41.1785 210.572 40.8389L209.761 40.3396C208.941 39.8402 208.11 39.3508 207.29 38.8714C189.34 28.5243 172.071 24.6392 157.353 27.6554C152.681 28.6042 148.299 30.2622 144.326 32.5693L137.683 36.4244C140.574 35.9351 143.546 35.6854 146.608 35.6854L146.538 35.6654Z" fill="#8E6C38"/>
<path d="M251.011 263.801C286.333 243.302 286.247 177.321 250.819 116.429C215.392 55.5364 158.038 22.7914 122.717 43.2905C87.3947 63.7897 87.4804 129.77 122.908 190.663C158.335 251.555 215.689 284.3 251.011 263.801Z" fill="#BDA76A"/>
<path d="M227.26 271.421C214.524 271.421 200.436 267.176 185.859 258.777C135.482 229.743 94.6302 159.111 94.7903 101.323C94.8703 73.0986 104.585 52.005 122.135 41.9276C139.804 31.7803 163.177 34.0474 187.95 48.3196C238.326 77.3533 279.178 147.985 279.018 205.773C278.938 233.997 269.223 255.091 251.673 265.169C244.4 269.343 236.165 271.421 227.26 271.421ZM146.548 38.6717C138.163 38.6717 130.429 40.6092 123.626 44.5243C107.037 54.0524 97.8619 74.2272 97.7819 101.333C97.6218 158.162 137.803 227.635 187.349 256.19C211.152 269.903 233.464 272.18 250.163 262.582C266.751 253.054 275.926 232.879 275.996 205.773C276.156 148.944 235.975 79.4707 186.429 50.9164C172.321 42.7865 158.734 38.6717 146.528 38.6717H146.548Z" fill="#8E6C38"/>
<path d="M237.811 244.546C266.965 227.626 266.897 173.17 237.658 122.914C208.419 72.6587 161.082 45.635 131.927 62.555C102.773 79.475 102.841 133.931 132.08 184.187C161.319 234.442 208.656 261.466 237.811 244.546Z" fill="#F2E7CB"/>
<path d="M218.205 251.096C207.65 251.096 195.974 247.581 183.897 240.619C142.245 216.609 108.467 158.212 108.607 110.432C108.677 87.0412 116.732 69.553 131.309 61.1835C145.977 52.754 165.367 54.6317 185.888 66.4669C227.54 90.4769 261.318 148.874 261.178 196.644C261.108 220.035 253.054 237.523 238.476 245.893C232.433 249.358 225.589 251.086 218.205 251.086V251.096ZM151.59 58.9962C144.717 58.9962 138.373 60.5843 132.8 63.7902C119.193 71.6005 111.669 88.1798 111.609 110.452C111.479 157.273 144.576 214.502 185.398 238.032C204.958 249.308 223.278 251.176 236.985 243.306C250.593 235.496 258.117 218.916 258.177 196.644C258.307 149.823 225.209 92.5942 184.388 69.0637C172.781 62.372 161.615 58.9962 151.59 58.9962Z" fill="#8E6C38"/>
<path d="M224.512 221.676C246.339 209.009 246.287 168.239 224.397 130.615C202.506 92.9899 167.067 72.7577 145.24 85.4248C123.414 98.0919 123.466 138.862 145.356 176.486C167.246 214.111 202.686 234.343 224.512 221.676Z" fill="#BDA76A"/>
<path d="M209.831 226.946C201.867 226.946 193.062 224.3 183.958 219.056C152.671 201.029 127.298 157.164 127.408 121.268C127.458 103.621 133.561 90.407 144.587 84.0749C155.693 77.6929 170.34 79.1012 185.819 88.03C217.105 106.057 242.469 149.923 242.369 185.818C242.319 203.466 236.215 216.679 225.189 223.011C220.607 225.638 215.424 226.946 209.821 226.946H209.831ZM159.965 83.1361C154.882 83.1361 150.2 84.3047 146.087 86.6717C136.022 92.4545 130.459 104.739 130.409 121.278C130.309 156.205 155.002 198.911 185.458 216.459C199.976 224.829 213.563 226.227 223.699 220.405C233.764 214.622 239.327 202.337 239.377 185.798C239.477 150.861 214.784 108.165 184.328 90.6168C175.703 85.643 167.409 83.1261 159.965 83.1261V83.1361Z" fill="#8E6C38"/>
<path d="M210.355 197.329C224.38 189.19 224.346 162.991 210.279 138.812C196.212 114.634 173.438 101.632 159.413 109.771C145.387 117.911 145.421 144.11 159.488 168.289C173.555 192.467 196.329 205.469 210.355 197.329Z" fill="#F2E7CB"/>
<path d="M200.926 201.248C195.714 201.248 189.96 199.521 184.027 196.105C163.777 184.429 147.348 156.035 147.418 132.804C147.448 121.258 151.47 112.609 158.724 108.434C166.028 104.24 175.633 105.139 185.758 110.971C206.009 122.647 222.438 151.041 222.368 174.272C222.338 185.818 218.316 194.467 211.052 198.642C208.02 200.379 204.598 201.248 200.916 201.248H200.926ZM168.879 108.834C165.708 108.834 162.786 109.563 160.225 111.031C153.931 114.647 150.45 122.377 150.42 132.804C150.36 155.086 166.108 182.312 185.528 193.508C194.683 198.791 203.228 199.69 209.571 196.045C215.864 192.429 219.346 184.699 219.376 174.272C219.436 152 203.688 124.764 184.267 113.568C178.805 110.422 173.562 108.834 168.879 108.834Z" fill="#8E6C38"/>
<path d="M196.579 173.639C203.014 169.905 202.997 157.883 196.542 146.789C190.087 135.694 179.638 129.727 173.203 133.462C166.769 137.196 166.785 149.217 173.24 160.312C179.695 171.407 190.144 177.374 196.579 173.639Z" fill="#BDA76A"/>
<path d="M192.252 176.25C189.721 176.25 186.939 175.421 184.088 173.783C174.573 168.3 166.848 154.946 166.879 144.03C166.899 138.437 168.88 134.212 172.471 132.145C176.083 130.067 180.776 130.477 185.688 133.313C195.204 138.796 202.928 152.14 202.898 163.066C202.878 168.659 200.897 172.884 197.305 174.951C195.784 175.82 194.083 176.26 192.252 176.26V176.25ZM177.544 133.843C176.233 133.843 175.023 134.142 173.972 134.742C171.351 136.25 169.89 139.546 169.88 144.03C169.85 153.997 176.894 166.172 185.588 171.176C189.531 173.443 193.162 173.863 195.804 172.335C198.425 170.826 199.886 167.521 199.896 163.046C199.926 153.079 192.882 140.904 184.188 135.9C181.806 134.532 179.545 133.833 177.534 133.833L177.544 133.843Z" fill="#8E6C38"/>
<path d="M72.6183 223.88C72.1181 223.88 71.6278 223.63 71.3476 223.171C70.9074 222.472 71.1275 221.543 71.8279 221.104L183.397 151.79C184.097 151.351 185.028 151.571 185.468 152.27C185.908 152.969 185.688 153.898 184.988 154.337L73.4187 223.65C73.1686 223.8 72.8985 223.88 72.6283 223.88H72.6183Z" fill="#8E6C38"/>
<path d="M80.1825 217.688L64.5542 212.564L85.9055 199.74L101.374 204.524L80.1825 217.688Z" fill="#BDA76A"/>
<path d="M80.1824 219.186C80.0224 219.186 79.8623 219.166 79.7122 219.106L64.0839 213.982C63.5236 213.803 63.1234 213.313 63.0634 212.724C62.9933 212.145 63.2735 211.575 63.7837 211.276L85.1251 198.452C85.4953 198.232 85.9355 198.182 86.3457 198.302L101.814 203.086C102.374 203.256 102.784 203.745 102.854 204.325C102.935 204.904 102.654 205.473 102.164 205.783L80.9729 218.946C80.7327 219.096 80.4526 219.176 80.1824 219.176V219.186ZM68.1361 212.165L79.9823 216.05L97.7818 204.984L86.0856 201.368L68.126 212.165H68.1361Z" fill="#8E6C38"/>
<path d="M101.374 204.524L102.374 219.685L78.9019 234.537L80.1825 217.688L101.374 204.524Z" fill="#BDA76A"/>
<path d="M78.9018 236.035C78.6317 236.035 78.3715 235.965 78.1314 235.825C77.6411 235.536 77.361 234.996 77.411 234.427L78.7017 217.578C78.7417 217.099 79.0019 216.669 79.4021 216.419L100.593 203.256C101.044 202.976 101.604 202.956 102.074 203.196C102.544 203.436 102.855 203.905 102.885 204.434L103.885 219.595C103.925 220.145 103.655 220.664 103.195 220.964L79.7222 235.815C79.4721 235.975 79.202 236.045 78.9218 236.045L78.9018 236.035ZM81.6332 218.557L80.6327 231.67L100.833 218.896L100.053 207.121L81.6332 218.567V218.557Z" fill="#8E6C38"/>
<path d="M74.2693 2.89641C70.5174 0.719128 65.3246 1.02874 59.5916 4.33461C48.2055 10.8964 39.0006 26.8065 39.0407 39.8702C39.0407 43.1161 39.631 45.8827 40.6715 48.0999C40.9317 48.6592 41.2218 49.1786 41.532 49.6679C42.1623 50.6367 42.9027 51.4757 43.7331 52.1648C44.1534 52.5044 44.5936 52.814 45.0538 53.0837L56.4899 59.7154C52.7879 57.5681 50.4867 53.0038 50.4767 46.5019C50.4367 33.4382 59.6416 17.5281 71.0276 10.9663C76.7607 7.66045 81.9534 7.35084 85.7054 9.52812L74.2693 2.89641Z" fill="#F2E7CB"/>
<path d="M56.49 61.2135C56.2298 61.2135 55.9697 61.1436 55.7396 61.0137L44.3035 54.382C43.7732 54.0724 43.263 53.7229 42.7827 53.3234C41.8222 52.5343 40.9817 51.5855 40.2714 50.4869C39.9112 49.9376 39.591 49.3483 39.3109 48.7391C38.1502 46.2522 37.5499 43.2759 37.5399 39.8802C37.4999 26.3571 47.055 9.82773 58.8412 3.03622C64.8744 -0.439435 70.6175 -0.948798 75.0198 1.59802L86.4459 8.22973C87.1662 8.6492 87.4064 9.55807 86.9861 10.2772C86.5659 10.9863 85.6554 11.236 84.935 10.8165C81.5032 8.82898 76.8207 9.33834 71.7581 12.2547C60.8023 18.5668 51.9175 33.9276 51.9576 46.4919C51.9776 52.2048 53.8386 56.4395 57.2204 58.407H57.2304C57.9507 58.8265 58.1909 59.7453 57.7706 60.4644C57.4905 60.9438 56.9902 61.2135 56.47 61.2135H56.49ZM68.8465 2.99627C66.2752 2.99627 63.3836 3.87517 60.342 5.62299C49.3862 11.9351 40.5015 27.2959 40.5415 39.8602C40.5415 42.8165 41.0518 45.3733 42.0323 47.4607C42.2624 47.9501 42.5126 48.4095 42.7927 48.839C43.333 49.6779 43.9733 50.397 44.6937 50.9863C45.0439 51.2759 45.4241 51.5356 45.8143 51.7653L50.3167 54.382C49.4362 52.1249 48.986 49.4682 48.976 46.4919C48.936 32.9688 58.491 16.4395 70.2773 9.64796C72.9487 8.10988 75.5601 7.15108 78.0214 6.78154L73.519 4.16481C72.1383 3.36581 70.5674 2.96631 68.8465 2.96631V2.99627Z" fill="#8E6C38"/>
<path d="M71.0276 10.9663C82.4236 4.40451 91.6885 9.66793 91.7186 22.7316C91.7586 35.7953 82.5537 51.7154 71.1577 58.2772C59.7716 64.839 50.5067 59.5756 50.4667 46.5019C50.4267 33.4382 59.6315 17.5281 71.0176 10.9663H71.0276Z" fill="#F0D68F"/>
<path d="M61.9028 62.6118C59.6816 62.6118 57.6105 62.0924 55.7696 61.0337C51.3972 58.5269 48.986 53.3633 48.9659 46.5119C48.9259 32.9888 58.481 16.4595 70.2672 9.66796C76.2804 6.20229 82.0135 5.68294 86.4058 8.20978C90.7781 10.7166 93.1894 15.8702 93.2094 22.7316C93.2494 36.2547 83.6844 52.7841 71.8981 59.5756C68.3962 61.5931 64.9944 62.6118 61.8928 62.6118H61.9028ZM71.778 12.2647C60.8222 18.5768 51.9375 33.9376 51.9775 46.5019C51.9976 52.2447 53.8786 56.4794 57.2804 58.437C60.7122 60.4045 65.3746 59.8852 70.4173 56.9788C81.3731 50.6667 90.2678 35.2959 90.2278 22.7316C90.2078 16.9888 88.3268 12.7541 84.925 10.8065C81.4932 8.83899 76.8307 9.34836 71.778 12.2647Z" fill="#8E6C38"/>
<path d="M71.9081 40.8389L71.888 35.3558C73.9091 34.9064 74.4894 35.3858 74.4994 36.7141C74.4994 38.1623 73.589 39.6504 71.9081 40.8389ZM69.8069 32.3595C67.7759 32.769 67.2756 32.2796 67.2756 31.0112C67.2756 29.6829 68.116 28.1748 69.7869 27.0262L69.8069 32.3595ZM70.8275 21.4831C70.1972 21.8427 69.6769 22.7216 69.6769 23.4507V24.0799C66.3951 26.2771 64.174 29.7928 64.184 33.0187C64.184 36.4145 65.9849 37.0437 69.827 35.985L69.847 41.9176C68.4062 42.4369 67.1956 42.4469 65.9549 42.1373C65.7148 42.0574 65.4046 42.1273 65.0944 42.3071C64.274 42.7765 63.6437 43.8652 63.6537 44.794C63.6537 45.4232 63.9238 45.7528 64.3641 45.8327C65.9749 46.2022 67.7859 45.9725 69.7569 45.0836V46.9513C69.7569 47.6804 70.2972 47.9401 70.9175 47.5805C71.5479 47.221 72.0481 46.362 72.0481 45.633V43.8252C75.3799 41.5481 77.6311 38.0424 77.6211 34.7266C77.6211 31.5006 75.8902 30.6517 71.9081 31.8002L71.888 26.0075C72.7785 25.7378 73.669 25.6779 74.5895 25.7778C74.8496 25.8077 75.1098 25.7478 75.3799 25.598C76.2003 25.1286 76.8507 24.02 76.8507 23.0911C76.8507 22.362 76.4805 22.1323 76.0503 22.1024C74.8396 21.9226 73.5289 22.1024 71.9781 22.7815V22.1223C71.9781 21.3933 71.4778 21.1136 70.8375 21.4732L70.8275 21.4831Z" fill="#8E6C38"/>
<path d="M50.4668 49.7478C50.2066 49.7478 49.9465 49.6779 49.7164 49.5481L38.3503 42.9463C37.63 42.5268 37.3898 41.618 37.81 40.8989C38.2303 40.1798 39.1508 39.9401 39.8611 40.3595L51.2272 46.9613C51.9475 47.3808 52.1877 48.2996 51.7674 49.0087C51.4873 49.4881 50.987 49.7578 50.4668 49.7578V49.7478Z" fill="#8E6C38"/>
<path d="M51.5774 39.4207C51.3172 39.4207 51.0571 39.3508 50.827 39.221L39.4609 32.6192C38.7405 32.1997 38.5004 31.2809 38.9206 30.5718C39.3409 29.8527 40.2614 29.613 40.9717 30.0325L52.3378 36.6342C53.0581 37.0537 53.2983 37.9725 52.878 38.6816C52.5979 39.161 52.0976 39.4307 51.5774 39.4307V39.4207Z" fill="#8E6C38"/>
<path d="M55.9797 29.0936C55.7196 29.0936 55.4594 29.0237 55.2293 28.8939L43.8633 22.2921C43.1429 21.8727 42.9028 20.9638 43.323 20.2447C43.7432 19.5256 44.6637 19.2859 45.3741 19.7054L56.7401 26.3071C57.4605 26.7266 57.7006 27.6454 57.2804 28.3546C57.0002 28.834 56.5 29.1036 55.9797 29.1036V29.0936Z" fill="#8E6C38"/>
<path d="M62.363 19.4557C62.1029 19.4557 61.8427 19.3858 61.6126 19.2559L50.2466 12.6542C49.5262 12.2347 49.2861 11.3259 49.7063 10.6068C50.1265 9.88766 51.047 9.64796 51.7574 10.0674L63.1234 16.6692C63.8438 17.0887 64.0839 17.9975 63.6637 18.7166C63.3835 19.196 62.8833 19.4657 62.363 19.4657V19.4557Z" fill="#8E6C38"/>
<path d="M71.9882 11.8452C71.7281 11.8452 71.468 11.7753 71.2378 11.6455L59.8718 5.04372C59.1514 4.62425 58.9113 3.7054 59.3315 2.99628C59.7518 2.27718 60.6722 2.03748 61.3826 2.45696L72.7486 9.05871C73.469 9.47818 73.7092 10.387 73.2889 11.1061C73.0088 11.5855 72.5085 11.8552 71.9882 11.8552V11.8452Z" fill="#8E6C38"/>
<path d="M318.859 57.8077C323.591 55.0612 330.145 55.4507 337.379 59.6155C351.746 67.8951 363.353 87.97 363.303 104.439C363.293 108.534 362.562 112.02 361.251 114.826C360.921 115.526 360.561 116.185 360.161 116.794C359.36 118.022 358.43 119.071 357.379 119.94C356.849 120.37 356.299 120.759 355.709 121.099L345.523 127.121C350.196 124.414 353.087 118.652 353.117 110.462C353.167 93.9825 341.551 73.9176 327.193 65.6379C319.96 61.4731 313.406 61.0836 308.674 63.8302L318.849 57.8077H318.859Z" fill="#F0D68F"/>
<path d="M345.523 128.629C345.013 128.629 344.503 128.37 344.232 127.89C343.812 127.181 344.052 126.262 344.763 125.843L344.943 125.733C349.225 123.146 351.596 117.733 351.616 110.462C351.666 94.4919 340.37 74.9663 326.443 66.9363C319.93 63.181 313.886 62.5418 309.434 65.1286C308.724 65.5381 307.803 65.2984 307.383 64.5893C306.963 63.8801 307.203 62.9613 307.913 62.5418L318.089 56.5194C318.089 56.5194 318.089 56.5194 318.099 56.5194C323.521 53.3733 330.635 54.0125 338.119 58.3271C352.877 66.8365 364.843 87.5306 364.793 104.459C364.783 108.684 364.043 112.39 362.602 115.476C362.252 116.225 361.852 116.954 361.412 117.623C360.541 118.971 359.501 120.15 358.32 121.109C357.73 121.588 357.109 122.027 356.459 122.407L346.484 128.31C346.414 128.35 346.344 128.39 346.274 128.429C346.033 128.569 345.773 128.629 345.523 128.629ZM317.018 60.6342C320.45 60.9238 324.142 62.1623 327.934 64.3496C342.692 72.8589 354.658 93.5531 354.608 110.482C354.598 114.607 353.888 118.242 352.547 121.238L354.938 119.82C355.458 119.521 355.949 119.171 356.419 118.792C357.359 118.022 358.19 117.084 358.9 115.985C359.26 115.426 359.601 114.816 359.891 114.197C361.151 111.511 361.792 108.225 361.802 104.439C361.852 88.4694 350.556 68.9438 336.628 60.9139C330.115 57.1586 324.072 56.5194 319.619 59.0961L317.028 60.6342H317.018Z" fill="#8E6C38"/>
<path d="M327.193 65.648C312.826 57.3683 301.14 64.01 301.09 80.4894C301.039 96.9688 312.656 117.044 327.023 125.323C341.391 133.603 353.077 126.951 353.117 110.472C353.167 93.9926 341.551 73.9276 327.193 65.648Z" fill="#F0D68F"/>
<path d="M338.69 130.397C334.847 130.397 330.615 129.129 326.263 126.622C311.505 118.112 299.529 97.4182 299.579 80.4794C299.599 71.98 302.58 65.598 307.963 62.5019C313.376 59.3858 320.47 60.045 327.934 64.3396C342.692 72.849 354.658 93.5431 354.608 110.472C354.588 118.971 351.606 125.363 346.224 128.449C343.972 129.748 341.431 130.387 338.69 130.387V130.397ZM315.517 63.5706C313.296 63.5706 311.255 64.0799 309.464 65.1086C305.052 67.6455 302.6 73.1086 302.58 80.4894C302.53 96.4694 313.836 115.995 327.764 124.025C334.247 127.76 340.27 128.419 344.723 125.863C349.145 123.326 351.586 117.863 351.606 110.472C351.656 94.5019 340.36 74.9763 326.433 66.9463C322.551 64.7091 318.829 63.5706 315.517 63.5706Z" fill="#8E6C38"/>
<path d="M327.193 65.648C312.826 57.3683 301.14 64.01 301.09 80.4894C301.039 96.9688 312.656 117.044 327.023 125.323C341.391 133.603 353.077 126.951 353.117 110.472C353.167 93.9926 341.551 73.9276 327.193 65.648Z" fill="#F2E7CB"/>
<path d="M338.69 130.397C334.847 130.397 330.615 129.129 326.263 126.622C311.505 118.112 299.529 97.4182 299.579 80.4794C299.599 71.98 302.58 65.598 307.963 62.5019C313.376 59.3858 320.47 60.045 327.934 64.3396C342.692 72.849 354.658 93.5431 354.608 110.472C354.588 118.971 351.606 125.363 346.224 128.449C343.972 129.748 341.431 130.387 338.69 130.387V130.397ZM315.517 63.5706C313.296 63.5706 311.255 64.0799 309.464 65.1086C305.052 67.6455 302.6 73.1086 302.58 80.4894C302.53 96.4694 313.836 115.995 327.764 124.025C334.247 127.76 340.27 128.419 344.723 125.863C349.145 123.326 351.586 117.863 351.606 110.472C351.656 94.5019 340.36 74.9763 326.433 66.9463C322.551 64.7091 318.829 63.5706 315.517 63.5706Z" fill="#8E6C38"/>
<path d="M327.193 75.4158C326.363 75.4158 325.693 74.7466 325.693 73.9176V65.648C325.693 64.819 326.363 64.1498 327.193 64.1498C328.024 64.1498 328.694 64.819 328.694 65.648V73.9176C328.694 74.7466 328.024 75.4158 327.193 75.4158Z" fill="#8E6C38"/>
<path d="M327.193 126.222C326.363 126.222 325.693 125.553 325.693 124.724V116.454C325.693 115.625 326.363 114.956 327.193 114.956C328.024 114.956 328.694 115.625 328.694 116.454V124.724C328.694 125.553 328.024 126.222 327.193 126.222Z" fill="#8E6C38"/>
<path d="M352.397 116.125C352.127 116.125 351.856 116.055 351.606 115.895L343.302 110.732C342.602 110.292 342.381 109.373 342.822 108.664C343.262 107.965 344.182 107.745 344.893 108.185L353.197 113.348C353.898 113.788 354.118 114.707 353.677 115.416C353.397 115.875 352.907 116.125 352.407 116.125H352.397Z" fill="#8E6C38"/>
<path d="M309.394 87.5506C309.124 87.5506 308.854 87.4807 308.603 87.3209L300.299 82.1573C299.599 81.7179 299.379 80.799 299.819 80.0899C300.259 79.3808 301.18 79.1711 301.89 79.6105L310.194 84.7741C310.895 85.2135 311.115 86.1324 310.675 86.8415C310.394 87.3009 309.904 87.5506 309.404 87.5506H309.394Z" fill="#8E6C38"/>
<path d="M327.193 99.0062C326.883 99.0062 326.583 98.9063 326.323 98.7266C325.933 98.4469 325.693 97.9975 325.693 97.5181L325.603 79.9101C325.603 79.0811 326.263 78.412 327.093 78.402C327.924 78.402 328.594 79.0711 328.594 79.8901L328.674 95.4307L335.498 93.1336C336.288 92.8739 337.139 93.2934 337.399 94.0724C337.659 94.8614 337.239 95.7103 336.458 95.97L327.664 98.9263C327.504 98.9763 327.343 99.0062 327.183 99.0062H327.193Z" fill="#8E6C38"/>
<path d="M328.684 222.132L328.644 236.454L327.404 233.788L327.444 219.466L328.684 222.132Z" fill="#F0D68F"/>
<path d="M328.644 237.953C328.074 237.953 327.534 237.623 327.284 237.094L326.033 234.427C325.943 234.227 325.893 234.008 325.893 233.788L325.933 219.466C325.933 218.767 326.423 218.157 327.113 218.008C327.804 217.858 328.494 218.197 328.794 218.836L330.045 221.503C330.135 221.703 330.185 221.923 330.185 222.142L330.145 236.464C330.145 237.164 329.655 237.773 328.964 237.923C328.854 237.943 328.744 237.963 328.644 237.963V237.953Z" fill="#8E6C38"/>
<path d="M372.508 226.447L372.468 240.769L369.116 242.717L369.156 228.394L372.508 226.447Z" fill="#F0D68F"/>
<path d="M369.116 244.215C368.856 244.215 368.596 244.145 368.365 244.015C367.895 243.745 367.615 243.246 367.615 242.717L367.655 228.394C367.655 227.865 367.945 227.366 368.405 227.106L371.757 225.159C372.217 224.889 372.798 224.889 373.258 225.159C373.728 225.428 374.008 225.928 374.008 226.457L373.968 240.779C373.968 241.308 373.678 241.808 373.218 242.067L369.866 244.015C369.636 244.155 369.376 244.215 369.116 244.215ZM370.657 229.253L370.627 240.11L370.977 239.91L371.007 229.054L370.657 229.253Z" fill="#8E6C38"/>
<path d="M355.819 236.984L355.779 251.306C355.779 249.478 354.578 247.65 352.157 246.262C347.354 243.496 339.6 243.496 334.828 246.262C332.456 247.64 331.276 249.438 331.266 251.236L331.306 236.914C331.306 235.116 332.496 233.318 334.868 231.94C339.64 229.174 347.394 229.174 352.197 231.94C354.618 233.328 355.819 235.166 355.819 236.984Z" fill="#F0D68F"/>
<path d="M355.779 252.804C354.948 252.804 354.278 252.125 354.278 251.306C354.278 249.958 353.267 248.629 351.406 247.561C347.104 245.084 339.86 245.084 335.578 247.561C333.767 248.609 332.766 249.918 332.766 251.246C332.766 252.075 332.096 252.744 331.266 252.744C330.435 252.744 329.765 252.065 329.765 251.246L329.805 236.924C329.805 234.487 331.346 232.27 334.107 230.662C339.37 227.606 347.644 227.606 352.947 230.662C355.769 232.29 357.32 234.547 357.32 237.014L357.279 251.336C357.279 252.165 356.609 252.834 355.779 252.834V252.804ZM343.492 242.677C346.874 242.677 350.266 243.436 352.917 244.964C353.417 245.253 353.878 245.563 354.298 245.883L354.318 236.974C354.318 235.645 353.277 234.277 351.446 233.229C347.144 230.752 339.9 230.752 335.618 233.229C333.807 234.277 332.807 235.586 332.807 236.914L332.776 245.823C333.167 245.523 333.597 245.233 334.067 244.964C336.699 243.436 340.09 242.667 343.482 242.667L343.492 242.677Z" fill="#8E6C38"/>
<path d="M355.819 236.984L355.779 251.306C355.779 249.478 354.578 247.65 352.157 246.262C347.354 243.496 339.6 243.496 334.828 246.262C332.456 247.64 331.276 249.438 331.266 251.236L331.306 236.914C331.306 235.116 332.496 233.318 334.868 231.94C339.64 229.174 347.394 229.174 352.197 231.94C354.618 233.328 355.819 235.166 355.819 236.984Z" fill="#F0D68F"/>
<path d="M355.779 252.804C354.948 252.804 354.278 252.125 354.278 251.306C354.278 249.958 353.267 248.629 351.406 247.561C347.104 245.084 339.86 245.084 335.578 247.561C333.767 248.609 332.766 249.918 332.766 251.246C332.766 252.075 332.096 252.744 331.266 252.744C330.435 252.744 329.765 252.065 329.765 251.246L329.805 236.924C329.805 234.487 331.346 232.27 334.107 230.662C339.37 227.606 347.644 227.606 352.947 230.662C355.769 232.29 357.32 234.547 357.32 237.014L357.279 251.336C357.279 252.165 356.609 252.834 355.779 252.834V252.804ZM343.492 242.677C346.874 242.677 350.266 243.436 352.917 244.964C353.417 245.253 353.878 245.563 354.298 245.883L354.318 236.974C354.318 235.645 353.277 234.277 351.446 233.229C347.144 230.752 339.9 230.752 335.618 233.229C333.807 234.277 332.807 235.586 332.807 236.914L332.776 245.823C333.167 245.523 333.597 245.233 334.067 244.964C336.699 243.436 340.09 242.667 343.482 242.667L343.492 242.677Z" fill="#8E6C38"/>
<path d="M313.976 236.954L313.936 251.276L309.324 250.557L309.374 236.235L313.976 236.954Z" fill="#F0D68F"/>
<path d="M313.936 252.774C313.856 252.774 313.786 252.774 313.706 252.754L309.094 252.045C308.364 251.935 307.823 251.296 307.823 250.557L307.863 236.235C307.863 235.795 308.053 235.386 308.394 235.096C308.724 234.816 309.164 234.687 309.594 234.757L314.207 235.466C314.937 235.576 315.477 236.215 315.477 236.954L315.437 251.276C315.437 251.715 315.247 252.125 314.907 252.414C314.637 252.644 314.287 252.774 313.936 252.774ZM310.835 249.278L312.446 249.528L312.476 238.232L310.865 237.983L310.835 249.278Z" fill="#8E6C38"/>
<path d="M317.988 245.503L317.948 259.835L313.936 251.276L313.976 236.954L317.988 245.503Z" fill="#F0D68F"/>
<path d="M317.948 261.333C317.378 261.333 316.838 261.004 316.588 260.474L312.576 251.915C312.486 251.715 312.436 251.496 312.436 251.276L312.476 236.954C312.476 236.255 312.966 235.645 313.656 235.496C314.347 235.346 315.037 235.685 315.337 236.325L319.349 244.884C319.439 245.084 319.489 245.303 319.489 245.523L319.449 259.845C319.449 260.544 318.959 261.154 318.269 261.303C318.159 261.323 318.049 261.343 317.948 261.343V261.333ZM315.437 250.946L316.468 253.134L316.488 245.833L315.457 243.645L315.437 250.946Z" fill="#8E6C38"/>
<path d="M373.848 246.212L373.808 260.544L369.206 259.835L369.246 245.503L373.848 246.212Z" fill="#F0D68F"/>
<path d="M373.808 262.042C373.728 262.042 373.658 262.042 373.578 262.023L368.976 261.313C368.245 261.204 367.705 260.564 367.705 259.825L367.745 245.503C367.745 245.064 367.935 244.654 368.275 244.365C368.605 244.075 369.046 243.955 369.476 244.025L374.078 244.734C374.809 244.844 375.349 245.483 375.349 246.222L375.309 260.544C375.309 260.984 375.119 261.393 374.779 261.683C374.509 261.913 374.158 262.042 373.808 262.042ZM370.707 258.547L372.307 258.797L372.337 247.501L370.737 247.251L370.707 258.547Z" fill="#8E6C38"/>
<path d="M377.77 237.663L377.73 251.985L373.808 260.544L373.848 246.212L377.77 237.663Z" fill="#F0D68F"/>
<path d="M373.808 262.042C373.698 262.042 373.598 262.032 373.488 262.002C372.798 261.853 372.307 261.243 372.307 260.534L372.347 246.212C372.347 246.002 372.397 245.783 372.487 245.593L376.41 237.044C376.7 236.404 377.41 236.055 378.1 236.205C378.791 236.355 379.281 236.964 379.281 237.673L379.241 251.995C379.241 252.205 379.191 252.424 379.101 252.614L375.179 261.164C374.929 261.703 374.388 262.042 373.818 262.042H373.808ZM375.349 246.552L375.329 253.633L376.229 251.675L376.249 244.594L375.349 246.552Z" fill="#8E6C38"/>
<path d="M369.246 245.503L369.206 259.835L358.41 266.097L358.45 251.765L369.246 245.503Z" fill="#F0D68F"/>
<path d="M358.41 267.595C358.15 267.595 357.89 267.526 357.66 267.396C357.189 267.126 356.909 266.627 356.909 266.097L356.949 251.775C356.949 251.246 357.239 250.747 357.7 250.487L368.495 244.225C368.966 243.955 369.536 243.955 369.996 244.225C370.466 244.494 370.747 244.994 370.747 245.523L370.707 259.845C370.707 260.375 370.416 260.874 369.956 261.134L359.16 267.396C358.93 267.536 358.67 267.595 358.41 267.595ZM359.951 252.634L359.921 263.491L367.715 258.976L367.745 248.12L359.951 252.634Z" fill="#8E6C38"/>
<path d="M328.854 251.765L328.814 266.097L325.463 268.045L325.503 253.713L328.854 251.765Z" fill="#F0D68F"/>
<path d="M325.463 269.543C325.202 269.543 324.942 269.473 324.712 269.343C324.242 269.074 323.962 268.574 323.962 268.045L324.002 253.723C324.002 253.194 324.292 252.694 324.752 252.434L328.104 250.487C328.564 250.217 329.145 250.217 329.605 250.487C330.075 250.757 330.355 251.256 330.355 251.785L330.315 266.107C330.315 266.637 330.025 267.136 329.565 267.396L326.213 269.343C325.983 269.483 325.723 269.543 325.463 269.543ZM327.003 254.582L326.973 265.438L327.324 265.238L327.354 254.382L327.003 254.582Z" fill="#8E6C38"/>
<path d="M325.502 253.713L325.462 268.045L314.587 261.773L314.637 247.451L325.502 253.713Z" fill="#F0D68F"/>
<path d="M325.463 269.543C325.202 269.543 324.942 269.473 324.712 269.343L313.846 263.081C313.376 262.812 313.096 262.312 313.096 261.783L313.136 247.461C313.136 246.921 313.426 246.432 313.886 246.162C314.347 245.893 314.927 245.893 315.387 246.162L326.253 252.425C326.723 252.694 327.003 253.194 327.003 253.723L326.963 268.045C326.963 268.584 326.673 269.074 326.213 269.343C325.983 269.473 325.723 269.543 325.463 269.543ZM316.098 260.924L323.972 265.458L324.002 254.592L316.128 250.057L316.098 260.934V260.924Z" fill="#8E6C38"/>
<path d="M343.662 254.062L343.622 268.385L328.814 266.097L328.854 251.765L343.662 254.062Z" fill="#F0D68F"/>
<path d="M343.622 269.883C343.542 269.883 343.472 269.883 343.392 269.863L328.584 267.576C327.854 267.466 327.314 266.827 327.314 266.087L327.354 251.765C327.354 251.326 327.544 250.916 327.884 250.627C328.214 250.347 328.654 250.217 329.085 250.287L343.892 252.574C344.623 252.684 345.163 253.323 345.163 254.062L345.123 268.385C345.123 268.824 344.933 269.233 344.593 269.523C344.323 269.753 343.972 269.883 343.622 269.883ZM330.315 264.809L342.121 266.637L342.151 255.341L330.345 253.513L330.315 264.809Z" fill="#8E6C38"/>
<path d="M359.691 254.432L359.651 268.754L344.873 271.051L344.913 256.719L359.691 254.432Z" fill="#F0D68F"/>
<path d="M344.873 272.549C344.513 272.549 344.172 272.419 343.892 272.19C343.562 271.9 343.372 271.491 343.372 271.051L343.412 256.729C343.412 255.99 343.952 255.361 344.683 255.251L359.461 252.954C359.901 252.884 360.341 253.014 360.671 253.293C361.001 253.583 361.192 253.993 361.192 254.432L361.151 268.754C361.151 269.493 360.611 270.122 359.881 270.232L345.103 272.529C345.023 272.539 344.953 272.549 344.873 272.549ZM346.414 258.007L346.384 269.303L358.16 267.476L358.19 256.18L346.414 258.007Z" fill="#8E6C38"/>
<path d="M344.912 256.719L344.872 271.051L343.622 268.385L343.662 254.062L344.912 256.719Z" fill="#F0D68F"/>
<path d="M344.873 272.549C344.303 272.549 343.762 272.22 343.512 271.69L342.262 269.024C342.171 268.824 342.121 268.604 342.121 268.385L342.161 254.062C342.161 253.363 342.652 252.754 343.342 252.604C344.032 252.454 344.723 252.794 345.023 253.433L346.274 256.1C346.364 256.3 346.414 256.519 346.414 256.739L346.374 271.061C346.374 271.76 345.883 272.37 345.193 272.519C345.083 272.539 344.973 272.559 344.873 272.559V272.549Z" fill="#8E6C38"/>
<path d="M369.246 245.503L358.45 251.765L359.691 254.422L344.913 256.719L343.662 254.052L328.854 251.765L325.503 253.713L314.637 247.451L317.989 245.503L313.976 236.944L309.364 236.235L313.276 227.675L317.889 228.384L328.684 222.122L327.434 219.456L342.221 217.169L343.472 219.835L358.28 222.122L361.632 220.175L372.497 226.437L369.146 228.384L373.158 236.944L377.77 237.653L373.848 246.202L369.246 245.493V245.503ZM334.928 241.958C339.73 244.724 347.494 244.724 352.257 241.958C357.029 239.191 356.999 234.707 352.197 231.93C347.394 229.164 339.64 229.164 334.868 231.93C330.105 234.697 330.125 239.181 334.928 241.948V241.958Z" fill="#F2E7CB"/>
<path d="M344.913 258.217C344.343 258.217 343.802 257.888 343.552 257.358L342.642 255.421L329.145 253.333L326.253 255.011C325.793 255.281 325.212 255.281 324.752 255.011L313.886 248.749C313.426 248.479 313.136 247.99 313.136 247.451C313.136 246.911 313.416 246.422 313.886 246.152L316.058 244.894L312.966 238.302L309.144 237.713C308.684 237.643 308.274 237.353 308.053 236.944C307.833 236.534 307.813 236.035 308.013 235.615L311.925 227.056C312.206 226.447 312.856 226.097 313.516 226.197L317.598 226.826L326.753 221.523L326.083 220.105C325.883 219.675 325.893 219.186 326.123 218.767C326.343 218.347 326.753 218.057 327.214 217.988L342.001 215.7C342.652 215.601 343.312 215.94 343.592 216.549L344.503 218.487L358 220.574L360.891 218.896C361.352 218.627 361.932 218.627 362.392 218.896L373.258 225.159C373.718 225.428 374.008 225.918 374.008 226.457C374.008 226.996 373.728 227.486 373.258 227.755L371.087 229.014L374.178 235.605L378 236.195C378.461 236.265 378.871 236.554 379.091 236.964C379.311 237.373 379.331 237.873 379.131 238.302L375.209 246.851C374.929 247.461 374.269 247.81 373.618 247.71L369.536 247.081L360.381 252.395L361.041 253.813C361.242 254.242 361.232 254.732 361.001 255.151C360.781 255.571 360.371 255.85 359.911 255.93L345.133 258.227C345.053 258.237 344.983 258.247 344.903 258.247L344.913 258.217ZM328.854 250.267C328.934 250.267 329.004 250.267 329.085 250.287L343.892 252.574C344.383 252.654 344.813 252.964 345.023 253.423L345.793 255.071L357.49 253.253L357.089 252.405C356.759 251.705 357.019 250.866 357.7 250.477L368.495 244.215C368.796 244.045 369.136 243.975 369.476 244.025L372.958 244.564L375.579 238.841L372.928 238.432C372.438 238.352 372.007 238.042 371.797 237.583L367.785 229.024C367.455 228.325 367.715 227.486 368.385 227.096L369.496 226.447L361.622 221.913L359.02 223.421C358.72 223.591 358.38 223.66 358.04 223.61L343.232 221.323C342.742 221.243 342.312 220.934 342.101 220.474L341.331 218.826L329.635 220.634L330.035 221.483C330.365 222.182 330.105 223.021 329.435 223.411L318.639 229.673C318.339 229.843 317.999 229.913 317.658 229.863L314.177 229.323L311.555 235.046L314.207 235.456C314.697 235.536 315.127 235.845 315.337 236.305L319.349 244.864C319.68 245.563 319.419 246.402 318.749 246.792L317.638 247.441L325.513 251.975L328.114 250.467C328.344 250.337 328.604 250.267 328.864 250.267H328.854ZM343.612 245.543C340.22 245.543 336.829 244.784 334.177 243.256C331.366 241.638 329.815 239.391 329.815 236.934C329.815 234.487 331.336 232.26 334.117 230.642C339.38 227.586 347.654 227.586 352.957 230.642C355.769 232.26 357.32 234.507 357.33 236.964C357.33 239.411 355.799 241.638 353.017 243.256C350.386 244.784 347.004 245.543 343.612 245.543ZM335.678 240.659C339.98 243.136 347.234 243.146 351.506 240.659C353.327 239.601 354.328 238.292 354.318 236.964C354.318 235.635 353.267 234.277 351.446 233.228C347.144 230.752 339.9 230.752 335.618 233.228C333.797 234.277 332.807 235.596 332.807 236.924C332.807 238.262 333.827 239.591 335.668 240.659H335.678Z" fill="#8E6C38"/>
<path d="M1.50089 138.457C1.00063 138.457 0.510366 138.207 0.230218 137.748C-0.210016 137.049 0.010101 136.12 0.710472 135.68L40.1114 111.201C40.8117 110.762 41.7422 110.981 42.1825 111.68C42.6227 112.38 42.4026 113.308 41.7022 113.748L2.29131 138.237C2.04118 138.387 1.77103 138.467 1.50089 138.467V138.457Z" fill="#8E6C38"/>
<path d="M36.4195 125.803C36.2394 125.803 36.0593 125.773 35.8892 125.703C35.1088 125.413 34.7186 124.544 35.0188 123.775L38.7307 113.988H28.2452C27.4147 113.988 26.7444 113.318 26.7444 112.489C26.7444 111.66 27.4147 110.991 28.2452 110.991H40.9019C41.3922 110.991 41.8524 111.231 42.1325 111.64C42.4127 112.05 42.4727 112.559 42.3026 113.019L37.8303 124.834C37.6001 125.433 37.0298 125.803 36.4295 125.803H36.4195Z" fill="#8E6C38"/>
<path d="M1.50089 297.139C1.00063 297.139 0.510366 296.889 0.230218 296.429C-0.210016 295.73 0.010101 294.802 0.710472 294.362L40.1114 269.883C40.8117 269.443 41.7422 269.663 42.1825 270.362C42.6227 271.061 42.4026 271.99 41.7022 272.429L2.29131 296.909C2.04118 297.059 1.77103 297.139 1.50089 297.139Z" fill="#8E6C38"/>
<path d="M36.4195 284.474C36.2394 284.474 36.0593 284.444 35.8892 284.375C35.1088 284.085 34.7186 283.216 35.0188 282.447L38.7307 272.659H28.2452C27.4147 272.659 26.7444 271.99 26.7444 271.161C26.7444 270.332 27.4147 269.663 28.2452 269.663H40.9019C41.3922 269.663 41.8524 269.903 42.1325 270.312C42.4127 270.722 42.4727 271.231 42.3026 271.69L37.8303 283.506C37.6001 284.105 37.0298 284.474 36.4295 284.474H36.4195Z" fill="#8E6C38"/>
<path d="M254.005 336.639C253.505 336.639 253.014 336.39 252.734 335.93C252.294 335.231 252.514 334.302 253.214 333.863L292.615 309.383C293.316 308.944 294.246 309.164 294.686 309.863C295.127 310.562 294.906 311.491 294.206 311.93L254.805 336.409C254.555 336.559 254.285 336.639 254.015 336.639H254.005Z" fill="#8E6C38"/>
<path d="M288.923 323.975C288.743 323.975 288.563 323.945 288.393 323.875C287.613 323.586 287.223 322.717 287.523 321.948L291.235 312.16H280.749C279.919 312.16 279.248 311.491 279.248 310.662C279.248 309.833 279.919 309.164 280.749 309.164H293.406C293.896 309.164 294.356 309.403 294.636 309.813C294.917 310.222 294.977 310.732 294.807 311.191L290.334 323.006C290.104 323.606 289.534 323.975 288.933 323.975H288.923Z" fill="#8E6C38"/>
</g>
<defs>
<clipPath id="clip0_2282_28">
<rect width="396" height="344" fill="white"/>
</clipPath>
</defs>
</svg>
