<svg width="41" height="19" viewBox="0 0 41 19" fill="none" xmlns="http://www.w3.org/2000/svg">
<path d="M9.11611 9.52334C9.48588 9.40497 9.78415 9.31567 10.0804 9.21598C11.0079 8.90447 11.8843 8.4912 12.5564 7.74564C13.6371 6.54735 14.1315 5.12685 13.535 3.58174C12.9507 2.06571 11.7433 1.23708 10.0988 1.14363C9.0916 1.08755 8.08648 1.07094 7.07523 1.10001C4.98736 1.16232 2.89745 1.11663 0.80754 1.12078C0.623677 1.12078 0.368311 1.02317 0.298852 1.30769C0.262079 1.45306 0.260036 1.6462 0.327453 1.77081C0.4582 2.02002 0.727866 1.9141 0.94033 1.92241C2.62166 1.98471 2.67682 2.00963 2.68499 3.73542C2.70542 7.6418 2.70337 11.5482 2.6952 15.4546C2.69112 17.1783 2.61349 17.2364 0.907643 17.3195C0.631849 17.332 0.292723 17.251 0.29068 17.7307C0.29068 18.2125 0.613462 18.1315 0.899472 18.1232C2.87498 18.0775 4.84844 17.9591 6.82395 18.117C7.0548 18.1357 7.33673 18.2146 7.34285 17.7951C7.34898 17.4337 7.18963 17.3361 6.85868 17.3091C5.06499 17.1658 5.01801 17.1575 4.99349 15.359C4.94038 11.2034 4.90156 7.04577 5.07929 2.89018C5.09768 2.48106 5.25907 2.33361 5.60637 2.24846C6.49096 2.02625 7.3878 2.01794 8.28669 2.07817C9.92511 2.18824 11.0589 3.15808 11.2837 4.6222C11.5472 6.33552 10.7076 7.95124 9.23256 8.54104C8.36227 8.88993 7.45113 8.98962 6.51956 8.94393C6.32752 8.93562 6.09871 8.86086 5.97818 9.09969C5.85152 9.35097 6.0742 9.47143 6.19677 9.6168C7.67789 11.3654 9.06504 13.1909 10.3419 15.0994C11.1876 16.3621 12.3153 17.2094 13.6963 17.7307C15.725 18.4949 17.7985 18.7504 19.9579 18.3745C21.3328 18.1336 22.6893 17.8532 24.0152 17.4129C24.434 17.2738 24.5667 17.0724 24.5198 16.6238C24.4421 15.899 24.4319 15.1597 24.4319 14.4411C24.4319 13.6187 24.1275 12.4993 25.3083 12.0321C25.4779 11.9656 25.4575 11.7642 25.4166 11.6043C25.3553 11.3592 25.1572 11.4028 24.9794 11.4028C23.294 11.4007 21.6086 11.3966 19.9232 11.3924C19.7005 11.3924 19.4656 11.3467 19.4349 11.6956C19.4063 12.0321 19.5616 12.1359 19.8619 12.1484C20.3542 12.1671 20.8466 12.2107 21.341 12.2397C21.9436 12.275 22.2603 12.5346 22.2603 13.2117C22.2603 13.6665 22.2807 14.1254 22.2603 14.5823C22.2603 16.8045 22.8098 16.7754 20.0458 17.2219C17.1611 17.6892 14.5176 17.1492 12.775 14.3975C12.6054 14.1296 12.3909 13.8928 12.1989 13.6374C11.1836 12.2813 10.1703 10.9231 9.11816 9.51504L9.11611 9.52334ZM30.1378 14.1171C29.9294 14.0528 29.9172 13.897 29.862 13.7786C27.9151 9.63964 25.8415 5.56089 24.0152 1.36376C23.817 0.908953 23.5964 0.711661 23.0734 0.732428C21.8619 0.780194 20.6464 0.753196 19.4329 0.732428C17.6514 0.70543 15.8802 0.771887 14.1846 1.4053C14.0007 1.47383 13.4859 1.41153 13.7331 1.83934C13.9068 2.13632 14.0293 2.74896 14.6647 2.41668C16.2847 1.56521 18.013 1.44268 19.7822 1.68981C21.0488 1.86634 22.0417 2.27961 22.6566 3.66273C24.7404 8.36451 26.9713 12.9998 29.149 17.6601C29.2246 17.82 29.2696 18.0048 29.5106 18.0048C29.7742 18.0048 29.8416 17.8221 29.9192 17.6269C30.0683 17.2447 30.2236 16.8647 30.383 16.4888C32.097 12.4412 34.0643 8.51404 35.9131 4.52874C36.0684 4.19646 36.2298 3.86626 36.3871 3.53605C36.5076 3.66066 36.5097 3.74373 36.5076 3.8268C36.4913 7.39051 36.5383 10.9542 36.4177 14.5159C36.4014 14.9956 36.3973 15.4753 36.381 15.9551C36.3585 16.5885 36.0398 16.9187 35.4085 16.927C35.0939 16.9311 34.7793 16.9519 34.4647 16.9623C34.1685 16.9727 34.1031 17.1492 34.1052 17.4192C34.1072 17.6995 34.2482 17.7639 34.4872 17.7577C36.5322 17.6954 38.5771 17.6829 40.6221 17.7577C40.998 17.7722 41.0245 17.5355 40.9857 17.2697C40.9122 16.765 40.5016 16.9664 40.2339 16.954C38.8611 16.8875 38.7017 16.7712 38.6956 15.4068C38.6793 11.409 38.6834 7.4092 38.6915 3.41145C38.6956 1.73343 38.7998 1.63166 40.4341 1.56313C40.7344 1.55067 41.0164 1.59221 41 1.12078C40.9837 0.676356 40.7099 0.742812 40.4464 0.742812C39.2104 0.742812 37.9745 0.755273 36.7385 0.734505C36.4116 0.728275 36.2564 0.850804 36.1399 1.14363C34.9428 4.10093 33.4964 6.94193 32.1685 9.83694C31.5086 11.2761 30.814 12.6987 30.1378 14.1213V14.1171Z" fill="white"/>
</svg>
