<svg width="90" height="90" viewBox="0 0 90 90" fill="none" xmlns="http://www.w3.org/2000/svg">
<path d="M55.7677 71.4809L70.9197 86.6329C75.1286 90.8418 82.424 90.8418 86.6329 86.6329C91.1224 82.424 91.1224 75.1286 86.6329 70.9197L71.4809 55.7677C74.2868 50.4365 75.9704 44.2634 75.9704 37.8098C75.9704 36.6875 75.9704 35.5651 75.6898 34.7233L86.0717 24.3414C87.1941 23.219 87.1941 21.5355 86.0717 20.4131C84.9493 19.2907 83.2658 19.2907 82.1434 20.4131L74.5674 27.9891C72.8839 21.5355 69.5168 15.9236 64.7467 11.1535C49.8753 -3.71785 26.0249 -3.71785 11.1535 11.1535C-3.71785 26.0249 -3.71785 49.8753 11.1535 64.7467C23.4996 77.0928 41.7381 79.0569 55.7677 71.4809ZM82.424 74.848C84.6687 77.0928 84.6687 80.4599 82.424 82.7046C80.1793 84.9493 76.8122 84.9493 74.5674 82.7046L60.2572 68.3944C61.6602 67.272 63.0631 66.1497 64.4661 64.7467C65.8691 63.3437 66.9914 61.9408 68.1138 60.5378L82.424 74.848ZM15.0818 15.0818C27.7085 2.45518 48.1917 2.45518 60.8184 15.0818C65.5885 19.8519 68.675 26.0249 69.7973 32.7592L64.1855 38.371L54.926 29.1115C53.8036 27.9891 52.12 27.9891 50.9977 29.1115L36.4069 43.7023L29.9532 37.2486C28.8309 36.1263 27.1473 36.1263 26.0249 37.2486L14.8012 48.4723C13.6789 49.5947 13.6789 51.2783 14.8012 52.4006C15.9236 53.523 17.6072 53.523 18.7295 52.4006L27.9891 43.1411C32.198 46.5082 35.2845 52.6812 38.371 49.5947L52.9618 35.0039L62.2214 44.2634C63.3437 45.3858 65.0273 45.3858 66.1497 44.2634L70.0779 40.3352C69.5168 48.1917 66.1497 55.2065 60.8184 60.8184C48.1917 73.4451 27.7085 73.4451 15.0818 60.8184C2.45518 48.1917 2.45518 27.7085 15.0818 15.0818Z" fill="#BDA76A"/>
</svg>
