<svg width="90" height="90" viewBox="0 0 90 90" fill="none" xmlns="http://www.w3.org/2000/svg">
<path d="M29.8615 13.2845C30.6161 13.1018 31.0803 12.3417 30.897 11.5871C30.715 10.8311 29.9522 10.3628 29.1996 10.5516C17.8033 13.3106 9.84375 23.4283 9.84375 35.1562C9.84375 49.1136 21.1988 60.4687 35.1562 60.4687C46.8869 60.4687 57.0046 52.507 59.7622 41.1073C59.9441 40.3527 59.4807 39.5926 58.7254 39.41C57.9776 39.2301 57.212 39.6915 57.028 40.4468C54.5773 50.5796 45.5837 57.6562 35.1563 57.6562C22.7499 57.6562 12.6563 47.5625 12.6563 35.1562C12.6563 24.7308 19.7314 15.7372 29.8615 13.2845Z" fill="#BDA76A"/>
<path d="M67.6087 58.9454C68.3248 56.5479 67.7697 53.8482 65.8795 51.9585L63.8944 49.9734C65.3172 47.2122 66.381 44.2218 66.9665 41.0354C67.1072 40.2718 66.6019 39.5385 65.8376 39.3984C65.0796 39.259 64.3407 39.7637 64.2007 40.5272C61.6285 54.5266 49.4138 64.6875 35.1562 64.6875C18.8725 64.6875 5.625 51.4401 5.625 35.1563C5.625 20.4875 16.5633 7.91294 31.0693 5.90588C31.8384 5.79945 32.376 5.08945 32.2696 4.31973C32.1632 3.55 31.4401 3.00823 30.6834 3.11947C14.7945 5.31811 2.8125 19.0908 2.8125 35.1563C2.8125 52.9905 17.322 67.5 35.1562 67.5C40.4654 67.5 45.5012 66.188 49.9659 63.887L51.9585 65.8796C53.329 67.2501 55.1294 67.9361 56.9298 67.9361C57.612 67.9361 58.2865 67.8056 58.9453 67.6088L76.7292 85.3933C79.1173 87.7811 83.0052 87.7811 85.3933 85.3933C87.7814 83.0045 87.7814 79.1181 85.3933 76.7292L67.6087 58.9454ZM53.947 63.891L52.4929 62.437C56.4821 59.9027 59.8866 56.5189 62.4432 52.4992L63.891 53.947C65.5355 55.5922 65.5355 58.2681 63.891 59.9133L59.9132 63.891C58.268 65.5349 55.5922 65.5362 53.947 63.891ZM83.4048 83.4048C82.1125 84.6957 80.01 84.6957 78.7177 83.4048L61.5116 66.1981C62.0526 65.7761 65.7755 62.0531 66.198 61.5117L83.4048 78.7178C84.6963 80.01 84.6963 82.1125 83.4048 83.4048Z" fill="#BDA76A"/>
<path d="M80.1562 2.8125H40.7812C36.9044 2.8125 33.75 5.96694 33.75 9.84375V29.5312C33.75 33.4081 36.9044 36.5625 40.7812 36.5625H80.1562C84.0331 36.5625 87.1875 33.4081 87.1875 29.5312V9.84375C87.1875 5.96694 84.0331 2.8125 80.1562 2.8125ZM84.375 29.5312C84.375 31.8576 82.4826 33.75 80.1562 33.75H40.7812C38.4549 33.75 36.5625 31.8576 36.5625 29.5312V9.84375C36.5625 7.51739 38.4549 5.625 40.7812 5.625H80.1562C82.4826 5.625 84.375 7.51739 84.375 9.84375V29.5312Z" fill="#BDA76A"/>
<path d="M43.9484 14.1182C45.0965 14.1182 46.0303 15.052 46.0303 16.2001C46.0303 16.9767 46.66 17.6063 47.4366 17.6063C48.2132 17.6063 48.8428 16.9767 48.8428 16.2001C48.8428 13.5016 46.6469 11.3057 43.9484 11.3057C41.2499 11.3057 39.0547 13.5016 39.0547 16.2001C39.0547 18.8986 41.2499 21.0938 43.9484 21.0938C45.0965 21.0938 46.0303 22.0276 46.0303 23.175C46.0303 24.3231 45.0965 25.2569 43.9484 25.2569C42.801 25.2569 41.8672 24.3231 41.8672 23.175C41.8672 22.3984 41.2375 21.7688 40.4609 21.7688C39.6843 21.7688 39.0547 22.3984 39.0547 23.175C39.0547 25.8735 41.2499 28.0694 43.9484 28.0694C46.6469 28.0694 48.8428 25.8735 48.8428 23.175C48.8428 20.4765 46.6469 18.2813 43.9484 18.2813C42.801 18.2813 41.8672 17.3475 41.8672 16.2001C41.8672 15.052 42.801 14.1182 43.9484 14.1182Z" fill="#BDA76A"/>
<path d="M61.8392 14.1182C62.6158 14.1182 63.2454 13.4885 63.2454 12.7119C63.2454 11.9353 62.6158 11.3057 61.8392 11.3057H54.9844C54.2078 11.3057 53.5781 11.9353 53.5781 12.7119V26.6632C53.5781 27.4398 54.2078 28.0694 54.9844 28.0694H61.8392C62.6158 28.0694 63.2454 27.4398 63.2454 26.6632C63.2454 25.8866 62.6158 25.2569 61.8392 25.2569H56.3906V21.0938H61.8392C62.6158 21.0938 63.2454 20.4641 63.2454 19.6875C63.2454 18.9109 62.6158 18.2813 61.8392 18.2813H56.3906V14.1182H61.8392Z" fill="#BDA76A"/>
<path d="M73.4991 11.3057C68.8773 11.3057 65.1172 15.0657 65.1172 19.6875C65.1172 24.3094 68.8773 28.0694 73.4991 28.0694C78.1209 28.0694 81.881 24.3094 81.881 19.6875C81.881 15.0657 78.1209 11.3057 73.4991 11.3057ZM73.4991 25.2569C70.4284 25.2569 67.9297 22.7582 67.9297 19.6875C67.9297 16.6169 70.4284 14.1182 73.4991 14.1182C76.5697 14.1182 79.0685 16.6169 79.0685 19.6875C79.0685 22.7582 76.5697 25.2569 73.4991 25.2569Z" fill="#BDA76A"/>
</svg>
