<svg width="90" height="90" viewBox="0 0 90 90" fill="none" xmlns="http://www.w3.org/2000/svg">
<g clip-path="url(#clip0_1473_835)">
<path d="M9 9C9.82843 9 10.5 8.32843 10.5 7.5C10.5 6.67157 9.82843 6 9 6C8.17157 6 7.5 6.67157 7.5 7.5C7.5 8.32843 8.17157 9 9 9Z" fill="#BDA76A"/>
<path d="M15 9C15.8284 9 16.5 8.32843 16.5 7.5C16.5 6.67157 15.8284 6 15 6C14.1716 6 13.5 6.67157 13.5 7.5C13.5 8.32843 14.1716 9 15 9Z" fill="#BDA76A"/>
<path d="M21 9C21.8284 9 22.5 8.32843 22.5 7.5C22.5 6.67157 21.8284 6 21 6C20.1716 6 19.5 6.67157 19.5 7.5C19.5 8.32843 20.1716 9 21 9Z" fill="#BDA76A"/>
<path d="M34.5 9H43.5C43.8978 9 44.2794 8.84196 44.5607 8.56066C44.842 8.27936 45 7.89782 45 7.5C45 7.10218 44.842 6.72064 44.5607 6.43934C44.2794 6.15804 43.8978 6 43.5 6H34.5C34.1022 6 33.7206 6.15804 33.4393 6.43934C33.158 6.72064 33 7.10218 33 7.5C33 7.89782 33.158 8.27936 33.4393 8.56066C33.7206 8.84196 34.1022 9 34.5 9Z" fill="#BDA76A"/>
<path d="M12 45H30C31.1935 45 32.3381 44.5259 33.182 43.682C34.0259 42.8381 34.5 41.6935 34.5 40.5V25.5C34.5 24.3065 34.0259 23.1619 33.182 22.318C32.3381 21.4741 31.1935 21 30 21H12C10.8065 21 9.66193 21.4741 8.81802 22.318C7.97411 23.1619 7.5 24.3065 7.5 25.5V40.5C7.5 41.6935 7.97411 42.8381 8.81802 43.682C9.66193 44.5259 10.8065 45 12 45ZM10.5 25.5C10.5 25.1022 10.658 24.7206 10.9393 24.4393C11.2206 24.158 11.6022 24 12 24H30C30.3978 24 30.7794 24.158 31.0607 24.4393C31.342 24.7206 31.5 25.1022 31.5 25.5V40.5C31.5 40.8978 31.342 41.2794 31.0607 41.5607C30.7794 41.842 30.3978 42 30 42H12C11.6022 42 11.2206 41.842 10.9393 41.5607C10.658 41.2794 10.5 40.8978 10.5 40.5V25.5Z" fill="#BDA76A"/>
<path d="M40.5 25.5H66C66.3978 25.5 66.7794 25.342 67.0607 25.0607C67.342 24.7794 67.5 24.3978 67.5 24C67.5 23.6022 67.342 23.2206 67.0607 22.9393C66.7794 22.658 66.3978 22.5 66 22.5H40.5C40.1022 22.5 39.7206 22.658 39.4393 22.9393C39.158 23.2206 39 23.6022 39 24C39 24.3978 39.158 24.7794 39.4393 25.0607C39.7206 25.342 40.1022 25.5 40.5 25.5Z" fill="#BDA76A"/>
<path d="M58.5 31.5H40.5C40.1022 31.5 39.7206 31.658 39.4393 31.9393C39.158 32.2206 39 32.6022 39 33C39 33.3978 39.158 33.7794 39.4393 34.0607C39.7206 34.342 40.1022 34.5 40.5 34.5H58.5C58.8978 34.5 59.2794 34.342 59.5607 34.0607C59.842 33.7794 60 33.3978 60 33C60 32.6022 59.842 32.2206 59.5607 31.9393C59.2794 31.658 58.8978 31.5 58.5 31.5Z" fill="#BDA76A"/>
<path d="M58.5 40.5H40.5C40.1022 40.5 39.7206 40.658 39.4393 40.9393C39.158 41.2206 39 41.6022 39 42C39 42.3978 39.158 42.7794 39.4393 43.0607C39.7206 43.342 40.1022 43.5 40.5 43.5H58.5C58.8978 43.5 59.2794 43.342 59.5607 43.0607C59.842 42.7794 60 42.3978 60 42C60 41.6022 59.842 41.2206 59.5607 40.9393C59.2794 40.658 58.8978 40.5 58.5 40.5Z" fill="#BDA76A"/>
<path d="M9 52.5H55.5C55.8978 52.5 56.2794 52.342 56.5607 52.0607C56.842 51.7794 57 51.3978 57 51C57 50.6022 56.842 50.2206 56.5607 49.9393C56.2794 49.658 55.8978 49.5 55.5 49.5H9C8.60218 49.5 8.22064 49.658 7.93934 49.9393C7.65804 50.2206 7.5 50.6022 7.5 51C7.5 51.3978 7.65804 51.7794 7.93934 52.0607C8.22064 52.342 8.60218 52.5 9 52.5Z" fill="#BDA76A"/>
<path d="M57 58.5H9C8.60218 58.5 8.22064 58.658 7.93934 58.9393C7.65804 59.2206 7.5 59.6022 7.5 60C7.5 60.3978 7.65804 60.7794 7.93934 61.0607C8.22064 61.342 8.60218 61.5 9 61.5H57C57.3978 61.5 57.7794 61.342 58.0607 61.0607C58.342 60.7794 58.5 60.3978 58.5 60C58.5 59.6022 58.342 59.2206 58.0607 58.9393C57.7794 58.658 57.3978 58.5 57 58.5Z" fill="#BDA76A"/>
<path d="M87 78.276V74.7645C87.0028 73.7576 86.7494 72.7665 86.2635 71.8845C85.173 69.9345 82.698 64.3125 82.5135 53.718C83.5104 53.3624 84.3496 52.666 84.8829 51.7518C85.4162 50.8376 85.6094 49.7644 85.4284 48.7216C85.2474 47.6788 84.7037 46.7335 83.8935 46.0525C83.0832 45.3716 82.0584 44.9988 81 45H80.8335C82.0449 43.8202 82.9526 42.3647 83.4791 40.7578C84.0056 39.1509 84.1351 37.4404 83.8567 35.7725C83.5782 34.1046 82.9001 32.529 81.8802 31.1802C80.8603 29.8315 79.5289 28.7498 78 28.0275V6C78 4.4087 77.3679 2.88258 76.2426 1.75736C75.1174 0.632141 73.5913 0 72 0L6 0C4.4087 0 2.88258 0.632141 1.75736 1.75736C0.632141 2.88258 0 4.4087 0 6L0 66C0 67.5913 0.632141 69.1174 1.75736 70.2426C2.88258 71.3679 4.4087 72 6 72H60.6825C60.2339 72.8524 59.9997 73.8013 60 74.7645V78.276C59.1256 78.5851 58.3681 79.1568 57.8311 79.9129C57.2941 80.6691 57.0038 81.5726 57 82.5V87C57 87.7956 57.3161 88.5587 57.8787 89.1213C58.4413 89.6839 59.2043 90 60 90H87C87.7956 90 88.5587 89.6839 89.1213 89.1213C89.6839 88.5587 90 87.7956 90 87V82.5C89.9962 81.5726 89.7059 80.6691 89.1689 79.9129C88.6319 79.1568 87.8744 78.5851 87 78.276ZM63 75H84V78H63V75ZM67.4775 54H79.5225C79.7145 63.3525 81.645 69.1245 82.9725 72H64.032C65.355 69.1245 67.2855 63.3525 67.4775 54ZM81 48C81.3978 48 81.7794 48.158 82.0607 48.4393C82.342 48.7206 82.5 49.1022 82.5 49.5C82.5 49.8978 82.342 50.2794 82.0607 50.5607C81.7794 50.842 81.3978 51 81 51H66C65.6022 51 65.2206 50.842 64.9393 50.5607C64.658 50.2794 64.5 49.8978 64.5 49.5C64.5 49.1022 64.658 48.7206 64.9393 48.4393C65.2206 48.158 65.6022 48 66 48H81ZM81 37.5C81 38.9834 80.5601 40.4334 79.736 41.6668C78.9119 42.9001 77.7406 43.8614 76.3701 44.4291C74.9997 44.9968 73.4917 45.1453 72.0368 44.8559C70.582 44.5665 69.2456 43.8522 68.1967 42.8033C67.1478 41.7544 66.4335 40.418 66.1441 38.9632C65.8547 37.5083 66.0033 36.0003 66.5709 34.6299C67.1386 33.2594 68.0999 32.0881 69.3332 31.264C70.5666 30.4399 72.0166 30 73.5 30C75.4884 30.0024 77.3947 30.7933 78.8007 32.1993C80.2067 33.6053 80.9976 35.5116 81 37.5ZM6 3H72C72.7956 3 73.5587 3.31607 74.1213 3.87868C74.6839 4.44129 75 5.20435 75 6V12H3V6C3 5.20435 3.31607 4.44129 3.87868 3.87868C4.44129 3.31607 5.20435 3 6 3ZM3 66V15H75V27.12C72.8087 26.7999 70.5724 27.1819 68.6116 28.2113C66.6509 29.2406 65.0665 30.8644 64.0856 32.8499C63.1047 34.8353 62.7777 37.0804 63.1516 39.2631C63.5254 41.4458 64.5808 43.4541 66.1665 45H66C64.9412 44.9977 63.9157 45.3698 63.1046 46.0503C62.2935 46.7309 61.7491 47.6763 61.5675 48.7194C61.3858 49.7625 61.5787 50.8362 62.112 51.7508C62.6453 52.6655 63.4848 53.3623 64.482 53.718C64.5222 58.9131 63.6933 64.0783 62.0295 69H6C5.20435 69 4.44129 68.6839 3.87868 68.1213C3.31607 67.5587 3 66.7956 3 66ZM87 87H60V82.5C60 82.1022 60.158 81.7206 60.4393 81.4393C60.7206 81.158 61.1022 81 61.5 81H85.5C85.8978 81 86.2794 81.158 86.5607 81.4393C86.842 81.7206 87 82.1022 87 82.5V87Z" fill="#BDA76A"/>
</g>
<defs>
<clipPath id="clip0_1473_835">
<rect width="90" height="90" fill="white"/>
</clipPath>
</defs>
</svg>
