<svg width="9" height="7" viewBox="0 0 9 7" fill="none" xmlns="http://www.w3.org/2000/svg">
<path d="M0.106027 2.14666C0.0353423 2.07597 0 1.99227 0 1.89554C0 1.7951 0.0353423 1.70953 0.106027 1.63885L1.03237 0.718087C1.10305 0.647403 1.18676 0.612061 1.28348 0.612061C1.38021 0.612061 1.46391 0.647403 1.5346 0.718087L4.49777 3.68126L7.46094 0.718087C7.53162 0.647403 7.61533 0.612061 7.71205 0.612061C7.80878 0.612061 7.89249 0.647403 7.96317 0.718087L8.88951 1.63885C8.96019 1.70953 8.99554 1.7951 8.99554 1.89554C8.99554 1.99227 8.96019 2.07597 8.88951 2.14666L4.74888 6.2817C4.6782 6.35239 4.59449 6.38773 4.49777 6.38773C4.40104 6.38773 4.31734 6.35239 4.24665 6.2817L0.106027 2.14666Z" fill="#262626"/>
</svg>
