<svg width="133" height="71" viewBox="0 0 133 71" fill="none" xmlns="http://www.w3.org/2000/svg">
<path d="M132.354 8.59733C132.046 9.37342 131.164 9.75465 130.389 9.44452C130.011 9.29324 92.0615 -5.42516 56.1271 10.154C34.8142 19.3945 18.4362 37.3533 7.37286 63.5209L12.1126 60.347C12.807 59.884 13.7449 60.0671 14.2124 60.763C14.6784 61.4559 14.4923 62.3969 13.7979 62.8613L3.01588 70.0806L0.0401326 57.3031C-0.150485 56.4907 0.356316 55.6768 1.17022 55.4877C1.2852 55.4605 1.40017 55.4484 1.51515 55.4484C2.20198 55.4484 2.82375 55.9204 2.98714 56.6178L4.41677 62.7569C15.7933 35.6272 32.7598 16.9875 54.9244 7.37799C67.7411 1.82133 80.7969 -0.00012207 92.417 -0.00012207C114.411 -0.00012207 131.252 6.5323 131.507 6.63366C132.282 6.94077 132.662 7.81974 132.354 8.59733Z" fill="black"/>
</svg>
