<svg width="50" height="50" viewBox="0 0 50 50" fill="none" xmlns="http://www.w3.org/2000/svg">
<g clip-path="url(#clip0_781_211)">
<path d="M32.465 12.4287C32.0095 11.9736 31.4041 11.7226 30.7602 11.7226C30.1163 11.7226 29.5109 11.9736 29.0558 12.4287C28.6003 12.8841 28.3493 13.4895 28.3493 14.1335C28.3493 14.7774 28.6003 15.3828 29.0554 15.8379L33.1623 19.9448C33.6174 20.3999 34.2232 20.6509 34.8671 20.6509C35.511 20.6509 36.116 20.3999 36.5715 19.9448L45.3461 11.1702C45.8015 10.7147 46.0522 10.1093 46.0522 9.46579C46.0522 8.82187 45.8015 8.21648 45.3461 7.761C44.891 7.30553 44.2852 7.0549 43.6413 7.0549C42.9974 7.0549 42.392 7.30553 41.9369 7.761L40.9695 8.72841C40.2527 8.18138 39.4661 7.74269 38.6326 7.42531V6.32858C38.6326 4.99916 37.5511 3.91769 36.2221 3.91769H28.6629V3.08075C28.6629 1.38206 27.2808 0 25.5821 0H17.152C15.4533 0 14.0713 1.38206 14.0713 3.08075V6.56166C14.0713 7.50542 14.8392 8.27332 15.7829 8.27332H26.9512C27.895 8.27332 28.6629 7.50542 28.6629 6.56166V5.38483H36.2217C36.742 5.38483 37.1655 5.80826 37.1655 6.32858V7.00417C36.5616 6.8821 35.9436 6.81725 35.3184 6.81725C30.1804 6.81725 26.0002 10.9974 26.0002 16.1354C26.0002 21.2734 30.1804 25.4536 35.3184 25.4536C35.9451 25.4536 36.5631 25.3906 37.1655 25.2697V47.5895C37.1655 48.1098 36.742 48.5329 36.2217 48.5329H6.51207C5.99174 48.5329 5.5687 48.1098 5.5687 47.5895V6.32858C5.5687 5.80826 5.99174 5.38483 6.51207 5.38483H11.3884C11.7935 5.38483 12.122 5.05638 12.122 4.65126C12.122 4.24614 11.7935 3.91769 11.3884 3.91769H6.51207C5.18303 3.91769 4.10156 4.99916 4.10156 6.32858V47.5895C4.10156 48.9185 5.18303 50 6.51207 50H36.2221C37.5511 50 38.6326 48.9185 38.6326 47.5895V24.8455C39.8006 24.4011 40.8779 23.7228 41.7995 22.8306C43.5421 21.1433 44.548 18.8812 44.6312 16.4608C44.6449 16.0561 44.3283 15.7166 43.9232 15.7024C43.5211 15.6891 43.1789 16.0053 43.1648 16.4104C43.0477 19.8174 40.8073 22.6303 37.7308 23.6118C37.6884 23.6217 37.6472 23.6347 37.6083 23.6519C36.8843 23.8697 36.1156 23.9864 35.3184 23.9864C30.9895 23.9864 27.4673 20.4643 27.4673 16.1354C27.4673 11.8065 30.9895 8.28438 35.3184 8.28438C36.9812 8.28438 38.5883 8.81004 39.9216 9.77631L34.8671 14.8312L32.465 12.4287ZM27.1957 6.56166C27.1957 6.6967 27.0863 6.80618 26.9512 6.80618H15.7829C15.6479 6.80618 15.5384 6.6967 15.5384 6.56166V3.08075C15.5384 2.19078 16.2621 1.46713 17.152 1.46713H25.5821C26.4717 1.46713 27.1957 2.19078 27.1957 3.08075V6.56166ZM42.9745 8.7986C43.1526 8.62007 43.3895 8.52203 43.6413 8.52203C43.8934 8.52203 44.1303 8.62045 44.3089 8.7986C44.6766 9.16634 44.6766 9.76524 44.3089 10.133L35.5339 18.9075C35.3558 19.0857 35.1189 19.1841 34.8667 19.1841C34.6146 19.1841 34.3777 19.0857 34.1995 18.9075L30.0926 14.8006C29.9145 14.6225 29.8164 14.3856 29.8164 14.1335C29.8164 13.8813 29.9145 13.6444 30.093 13.4663C30.2711 13.2881 30.508 13.1897 30.7602 13.1897C31.012 13.1897 31.2492 13.2881 31.4274 13.4663L34.3483 16.3872C34.6348 16.6737 35.099 16.6737 35.3855 16.3872L42.9745 8.7986Z" fill="white"/>
<path d="M24.0659 18.4126H15.1277C14.7226 18.4126 14.3945 18.741 14.3945 19.1462C14.3945 19.5509 14.7226 19.8793 15.1277 19.8793H24.0659C24.4711 19.8793 24.7995 19.5509 24.7995 19.1462C24.7995 18.741 24.4711 18.4126 24.0659 18.4126Z" fill="white"/>
<path d="M13.728 10.8408H8.79216C8.38704 10.8408 8.05859 11.1693 8.05859 11.5744C8.05859 11.9795 8.38704 12.308 8.79216 12.308H13.728C14.1331 12.308 14.4616 11.9795 14.4616 11.5744C14.4616 11.1693 14.1331 10.8408 13.728 10.8408Z" fill="white"/>
<path d="M15.1277 23.2827H24.0659C24.4711 23.2827 24.7995 22.9542 24.7995 22.5491C24.7995 22.1444 24.4711 21.8159 24.0659 21.8159H15.1277C14.7226 21.8159 14.3945 22.1444 14.3945 22.5491C14.3945 22.9542 14.7226 23.2827 15.1277 23.2827Z" fill="white"/>
<path d="M27.1535 27.3096H15.1277C14.7226 27.3096 14.3945 27.638 14.3945 28.0431C14.3945 28.4483 14.7226 28.7767 15.1277 28.7767H27.1535C27.5587 28.7767 27.8871 28.4483 27.8871 28.0431C27.8871 27.638 27.5587 27.3096 27.1535 27.3096Z" fill="white"/>
<path d="M15.1277 32.1795H21.1408C21.5459 32.1795 21.874 31.8511 21.874 31.446C21.874 31.0408 21.5459 30.7124 21.1408 30.7124H15.1277C14.7226 30.7124 14.3945 31.0408 14.3945 31.446C14.3945 31.8511 14.7226 32.1795 15.1277 32.1795Z" fill="white"/>
<path d="M15.1277 37.683H24.0659C24.4711 37.683 24.7995 37.3545 24.7995 36.9494C24.7995 36.5443 24.4711 36.2158 24.0659 36.2158H15.1277C14.7226 36.2158 14.3945 36.5443 14.3945 36.9494C14.3945 37.3545 14.7226 37.683 15.1277 37.683Z" fill="white"/>
<path d="M15.1277 41.0854H27.1535C27.5587 41.0854 27.8871 40.757 27.8871 40.3518C27.8871 39.9471 27.5587 39.6187 27.1535 39.6187H15.1277C14.7226 39.6187 14.3945 39.9471 14.3945 40.3518C14.3945 40.757 14.7226 41.0854 15.1277 41.0854Z" fill="white"/>
<path d="M10.3496 17.7769C8.71576 17.7769 7.38672 19.1059 7.38672 20.7397C7.38672 22.3736 8.71576 23.7026 10.3496 23.7026C11.9834 23.7026 13.3125 22.3736 13.3125 20.7397C13.3125 19.1059 11.9834 17.7769 10.3496 17.7769ZM10.3496 22.2355C9.52486 22.2355 8.85385 21.5645 8.85385 20.7397C8.85385 19.915 9.52486 19.244 10.3496 19.244C11.1743 19.244 11.8453 19.915 11.8453 20.7397C11.8453 21.5645 11.1743 22.2355 10.3496 22.2355Z" fill="white"/>
<path d="M10.3496 26.7812C8.71576 26.7812 7.38672 28.1107 7.38672 29.7441C7.38672 31.378 8.71576 32.707 10.3496 32.707C11.9834 32.707 13.3125 31.378 13.3125 29.7441C13.3125 28.1107 11.9834 26.7812 10.3496 26.7812ZM10.3496 31.2402C9.52486 31.2402 8.85385 30.5692 8.85385 29.7445C8.85385 28.9194 9.52486 28.2484 10.3496 28.2484C11.1743 28.2484 11.8453 28.9194 11.8453 29.7445C11.8453 30.5692 11.1743 31.2402 10.3496 31.2402Z" fill="white"/>
<path d="M10.3496 35.6875C8.71576 35.6875 7.38672 37.0165 7.38672 38.6504C7.38672 40.2842 8.71576 41.6133 10.3496 41.6133C11.9834 41.6133 13.3125 40.2842 13.3125 38.6504C13.3125 37.0165 11.9834 35.6875 10.3496 35.6875ZM10.3496 40.1461C9.52486 40.1461 8.85385 39.4751 8.85385 38.6504C8.85385 37.8256 9.52486 37.1546 10.3496 37.1546C11.1743 37.1546 11.8453 37.8256 11.8453 38.6504C11.8453 39.4751 11.1743 40.1461 10.3496 40.1461Z" fill="white"/>
</g>
<defs>
<clipPath id="clip0_781_211">
<rect width="50" height="50" fill="white"/>
</clipPath>
</defs>
</svg>
