<svg width="204" height="47" viewBox="0 0 204 47" fill="none" xmlns="http://www.w3.org/2000/svg">
<path d="M0 24.3429V24.2171C0 11.6998 9.31466 1.4469 22.5678 1.4469C28.0049 1.26821 33.3267 3.03076 37.5714 6.41593C38.0417 6.78131 38.4216 7.2492 38.6817 7.78357C38.9418 8.31794 39.0752 8.90456 39.0716 9.49828C39.0636 10.2022 38.8601 10.8902 38.4836 11.4862C38.1071 12.0823 37.5723 12.5631 36.9383 12.8756C36.3042 13.188 35.5957 13.3199 34.891 13.2567C34.1863 13.1935 33.5129 12.9376 32.9453 12.5174C30.068 9.97296 26.3547 8.56347 22.5052 8.55459C14.1908 8.55459 8.06431 15.474 8.06431 24.0913V24.2171C8.06431 32.8345 14.1284 39.8168 22.5052 39.8168C26.5644 39.8832 30.4895 38.3712 33.4454 35.6024C34.0816 35.0364 34.9049 34.7231 35.7584 34.722C36.7121 34.735 37.6234 35.1162 38.2999 35.7851C38.9764 36.454 39.3652 37.3583 39.3843 38.307C39.3822 38.8297 39.2698 39.3461 39.0544 39.8229C38.8391 40.2996 38.5255 40.726 38.134 41.0746C33.8348 45.0564 28.1256 47.1825 22.2552 46.9877C9.50214 46.9877 0 36.986 0 24.3429Z" fill="#388AED"/>
<path d="M42.1998 36.6711V36.5453C42.1998 29.3744 47.7635 25.8522 55.8279 25.8522C58.8435 25.8223 61.8432 26.2899 64.705 27.2361V26.4181C64.705 21.7006 61.8293 19.1847 56.5156 19.1847C54.0148 19.152 51.5312 19.6004 49.2014 20.5054C48.8166 20.6245 48.4166 20.6881 48.0136 20.694C47.5964 20.697 47.1827 20.6179 46.7963 20.4612C46.4099 20.3046 46.0585 20.0735 45.7622 19.7812C45.4659 19.489 45.2306 19.1413 45.0698 18.7582C44.909 18.3752 44.8259 17.9643 44.8253 17.5492C44.8352 16.9004 45.0359 16.2688 45.4025 15.7322C45.7691 15.1956 46.2856 14.7776 46.8883 14.5297C50.27 13.1996 53.8797 12.5373 57.5159 12.5798C62.4545 12.5798 66.1428 13.9008 68.4559 16.291C70.8939 18.6816 72.0192 22.2038 72.0192 26.5439V42.8987C72.0251 43.3812 71.9335 43.86 71.75 44.3066C71.5664 44.7533 71.2946 45.1587 70.9506 45.4989C70.6067 45.8391 70.1975 46.1071 69.7475 46.2871C69.2975 46.4671 68.8157 46.5553 68.3308 46.5466C67.8761 46.5811 67.419 46.5251 66.9862 46.3818C66.5535 46.2386 66.1538 46.011 65.8104 45.7124C65.4671 45.4138 65.187 45.0501 64.9864 44.6425C64.7859 44.235 64.669 43.7918 64.6425 43.3388V42.0807C63.3431 43.6538 61.6976 44.9087 59.8333 45.7485C57.9689 46.5883 55.9355 46.9906 53.89 46.9243C47.701 46.9243 42.1998 43.3388 42.1998 36.6711ZM64.83 34.2809V32.0165C62.4327 31.1197 59.8893 30.672 57.3283 30.6958C52.4522 30.6958 49.5764 32.7712 49.5764 36.2308V36.3566C49.5764 39.5647 52.3896 41.3885 56.0155 41.3885C61.0167 41.3885 64.83 38.4952 64.83 34.2809Z" fill="#388AED"/>
<path d="M79.0227 3.77423C79.0161 3.28034 79.1083 2.79007 79.294 2.33196C79.4796 1.87385 79.755 1.45705 80.104 1.10583C80.4531 0.754598 80.8689 0.475957 81.3272 0.286116C81.7855 0.096275 82.2772 -0.000971075 82.7737 3.7082e-05C83.2734 -0.00216588 83.7686 0.0938066 84.231 0.282453C84.6933 0.471099 85.1137 0.748707 85.468 1.09935C85.8223 1.45 86.1035 1.86678 86.2955 2.3258C86.4876 2.78482 86.5866 3.27704 86.587 3.77423V42.7733C86.5886 43.2685 86.4919 43.7591 86.3025 44.217C86.1131 44.6749 85.8348 45.0911 85.4834 45.4417C85.1321 45.7924 84.7146 46.0706 84.255 46.2605C83.7953 46.4503 83.3025 46.548 82.8049 46.548C82.3072 46.548 81.8144 46.4503 81.3548 46.2605C80.8952 46.0706 80.4777 45.7924 80.1263 45.4417C79.775 45.0911 79.4966 44.6749 79.3073 44.217C79.1179 43.7591 79.0212 43.2685 79.0227 42.7733V3.77423Z" fill="#388AED"/>
<path d="M94.4024 3.77423C94.3958 3.28034 94.488 2.79007 94.6736 2.33197C94.8593 1.87386 95.1346 1.45706 95.4837 1.10584C95.8327 0.754607 96.2485 0.475963 96.7068 0.28612C97.1651 0.0962782 97.6568 -0.000969534 98.1533 3.71349e-05C98.653 -0.0021674 99.1483 0.0938037 99.6106 0.282448C100.073 0.471093 100.493 0.748699 100.848 1.09934C101.202 1.44999 101.483 1.86677 101.675 2.32579C101.867 2.78481 101.966 3.27703 101.967 3.77423V42.7733C101.968 43.2685 101.872 43.7591 101.682 44.217C101.493 44.6749 101.214 45.0911 100.863 45.4417C100.512 45.7924 100.094 46.0706 99.6347 46.2605C99.175 46.4503 98.6823 46.548 98.1846 46.548C97.6869 46.548 97.1941 46.4503 96.7345 46.2605C96.2749 46.0706 95.8574 45.7924 95.5061 45.4417C95.1547 45.0911 94.8764 44.6749 94.687 44.217C94.4976 43.7591 94.4009 43.2685 94.4024 42.7733L94.4024 3.77423Z" fill="#388AED"/>
<path d="M113.282 3.83712C113.288 3.40813 113.46 2.99793 113.763 2.69286C114.066 2.3878 114.477 2.21168 114.908 2.2016H131.662C137.038 2.2016 141.352 3.9 143.977 6.54211C146.113 8.73228 147.303 11.6675 147.29 14.7193V14.8451C147.29 22.2043 141.852 26.4187 134.475 27.4253L146.915 43.6538C147.209 43.9622 147.386 44.3622 147.416 44.7858C147.399 45.2276 147.216 45.6471 146.903 45.9615C146.591 46.2759 146.171 46.4624 145.728 46.4842C145.434 46.4659 145.149 46.376 144.898 46.2224C144.647 46.0688 144.438 45.8562 144.29 45.6034L130.849 27.9913H116.533V44.8487C116.536 45.0626 116.496 45.2749 116.415 45.4733C116.334 45.6717 116.215 45.8522 116.064 46.0044C115.913 46.1565 115.733 46.2774 115.534 46.3598C115.336 46.4423 115.123 46.4847 114.908 46.4847C114.693 46.4847 114.48 46.4423 114.281 46.3598C114.083 46.2774 113.903 46.1565 113.752 46.0044C113.601 45.8522 113.481 45.6717 113.401 45.4733C113.32 45.2749 113.28 45.0626 113.282 44.8487V3.83712ZM131.287 25.0347C138.601 25.0347 144.04 21.3234 144.04 14.9708V14.8451C144.04 8.93193 139.414 5.22068 131.474 5.22068H116.533V25.0347H131.287Z" fill="#388AED"/>
<path d="M151.419 36.923V36.7972C151.419 30.1297 157.108 26.3556 165.36 26.3556C168.93 26.3204 172.486 26.7863 175.925 27.7396V26.3556C175.925 19.8769 171.987 16.5429 165.423 16.5429C162.276 16.5515 159.173 17.2836 156.358 18.682C156.146 18.795 155.911 18.8595 155.67 18.8706C155.292 18.8536 154.933 18.6951 154.667 18.4269C154.4 18.1587 154.245 17.8003 154.232 17.4234C154.236 17.1349 154.32 16.8531 154.474 16.6089C154.628 16.3648 154.848 16.1678 155.108 16.0398C158.387 14.477 161.974 13.6605 165.61 13.6496C169.924 13.6496 173.362 14.8449 175.675 17.1718C176.803 18.3856 177.672 19.8138 178.23 21.3704C178.789 22.927 179.026 24.58 178.926 26.2298V44.9115C178.936 45.114 178.905 45.3166 178.835 45.5069C178.764 45.6972 178.655 45.8712 178.515 46.0184C178.375 46.1655 178.206 46.2826 178.018 46.3627C177.831 46.4428 177.629 46.484 177.425 46.484C177.221 46.484 177.02 46.4428 176.832 46.3627C176.645 46.2826 176.476 46.1655 176.336 46.0184C176.195 45.8712 176.086 45.6972 176.016 45.5069C175.945 45.3166 175.914 45.114 175.925 44.9115V40.8858C174.555 42.823 172.726 44.3937 170.599 45.4582C168.472 46.5227 166.114 47.048 163.735 46.9876C157.796 46.9876 151.419 43.5908 151.419 36.923ZM175.988 34.2183V30.57C172.462 29.6199 168.826 29.1335 165.172 29.1231C158.421 29.1231 154.67 32.1426 154.67 36.6085V36.7343C154.67 41.3889 159.046 44.0939 163.922 44.0939C170.424 44.0939 175.988 40.0682 175.988 34.2183Z" fill="#388AED"/>
<path d="M187.492 3.14487C187.486 2.8972 187.53 2.65086 187.622 2.42059C187.714 2.19032 187.851 1.98084 188.026 1.80465C188.201 1.62847 188.41 1.48921 188.641 1.39518C188.871 1.30116 189.118 1.2543 189.367 1.25742C189.619 1.2531 189.87 1.29868 190.104 1.3915C190.339 1.48432 190.552 1.62253 190.733 1.79812C190.913 1.97371 191.056 2.18318 191.155 2.41437C191.253 2.64555 191.304 2.89386 191.305 3.14487V4.21398C191.304 4.46496 191.253 4.71323 191.154 4.94438C191.056 5.17553 190.913 5.38495 190.732 5.5605C190.552 5.73605 190.339 5.87423 190.104 5.96703C189.87 6.05982 189.619 6.10537 189.367 6.10105C189.118 6.10417 188.871 6.05734 188.641 5.96334C188.41 5.86935 188.201 5.73012 188.026 5.55397C187.851 5.37783 187.714 5.16839 187.622 4.93816C187.53 4.70792 187.486 4.46163 187.492 4.21398V3.14487ZM187.867 15.4735C187.86 15.2693 187.895 15.0659 187.969 14.8753C188.043 14.6848 188.155 14.511 188.298 14.3643C188.441 14.2175 188.612 14.1009 188.801 14.0212C188.99 13.9415 189.193 13.9005 189.398 13.9005C189.604 13.9005 189.807 13.9415 189.996 14.0212C190.185 14.1009 190.356 14.2175 190.499 14.3643C190.642 14.511 190.754 14.6848 190.828 14.8753C190.902 15.0659 190.936 15.2693 190.93 15.4735V44.9111C190.945 45.1148 190.918 45.3194 190.849 45.5119C190.78 45.7043 190.672 45.8803 190.53 46.0284C190.389 46.1766 190.218 46.2936 190.028 46.3721C189.839 46.4505 189.635 46.4885 189.43 46.4837C189.221 46.4899 189.014 46.4533 188.82 46.3763C188.626 46.2992 188.451 46.1833 188.304 46.0357C188.158 45.8882 188.043 45.7122 187.968 45.5187C187.893 45.3252 187.858 45.1184 187.867 44.9111L187.867 15.4735Z" fill="#388AED"/>
<path d="M200.932 1.63507C200.922 1.4326 200.954 1.23017 201.024 1.04006C201.095 0.849952 201.204 0.676116 201.344 0.529082C201.485 0.382048 201.653 0.264878 201.84 0.184668C202.028 0.104459 202.229 0.06288 202.433 0.0624495C202.64 0.0615815 202.845 0.101797 203.036 0.180742C203.227 0.259688 203.401 0.375777 203.546 0.522218C203.692 0.668659 203.807 0.842509 203.884 1.03359C203.961 1.22468 203.999 1.42916 203.996 1.63507V44.9111C204.011 45.1147 203.984 45.3194 203.915 45.5118C203.846 45.7043 203.737 45.8802 203.596 46.0284C203.455 46.1765 203.284 46.2936 203.094 46.372C202.905 46.4504 202.701 46.4885 202.495 46.4837C202.287 46.4899 202.079 46.4533 201.886 46.3762C201.692 46.2991 201.517 46.1832 201.37 46.0357C201.223 45.8881 201.109 45.7122 201.034 45.5187C200.958 45.3252 200.924 45.1184 200.932 44.9111V1.63507Z" fill="#388AED"/>
</svg>
