<svg width="62" height="57" viewBox="0 0 62 57" fill="none" xmlns="http://www.w3.org/2000/svg">
<path d="M5.91373 1C4.18299 1 2.57049 1.67102 1.6447 3.21156C1.22412 3.91176 0.999939 4.72199 0.999939 5.53879V42.3824C0.999939 44.8851 3.03595 46.9211 5.53861 46.9211H43.1529V48.2213C43.1529 49.8294 44.1535 51.2075 45.5645 51.7678C45.3949 52.1707 45.3009 52.6129 45.3009 53.0766C45.3009 54.9425 46.819 56.4605 48.6848 56.4605C50.5507 56.4605 52.0687 54.9425 52.0687 53.0766C52.0687 52.7138 52.0107 52.3643 51.9044 52.0364H54.3963C54.2901 52.3643 54.232 52.7138 54.232 53.0766C54.232 54.9425 55.7501 56.4605 57.6159 56.4605C59.4818 56.4605 60.9999 54.9426 60.9999 53.0767C60.9999 51.2109 59.4819 49.6928 57.616 49.6928H46.968C46.1566 49.6928 45.4965 49.0327 45.4965 48.2213V46.9211H57.8103C58.367 46.9211 58.8469 46.5294 58.9584 45.9842L60.976 36.1224C61.0466 35.7775 60.9585 35.4191 60.7359 35.1464C60.5134 34.8739 60.18 34.7155 59.8279 34.7155H51.7572V5.53879C51.7572 2.96406 49.6104 1.01863 47.0975 1.00012L5.91373 1ZM52.8195 37.0593L52.5749 39.6464H49.6163L49.3717 37.0598L52.8195 37.0593ZM50.0826 44.5775L49.8379 41.9903H52.3531L52.1085 44.5775H50.0826ZM43.6297 37.0598H47.0174L47.262 39.6464H44.1936L43.6297 37.0598ZM44.7046 41.9902H47.4837L47.7283 44.5773H45.2686L44.7046 41.9902ZM54.4626 44.5775L54.7073 41.9903H57.3833L56.854 44.5775H54.4626ZM57.8628 39.6464H54.929L55.1737 37.0593H58.3922L57.8628 39.6464ZM49.4131 5.53926V7.76078H9.53142C9.90607 7.08965 10.104 6.32055 10.104 5.55215C10.104 4.78352 9.9056 4.01547 9.53154 3.34387H47.1847C48.3908 3.3925 49.4131 4.28371 49.4131 5.53926ZM5.32217 3.35594C5.36599 3.35172 5.41052 3.35031 5.45506 3.34879C5.48189 3.34762 5.50826 3.34492 5.53533 3.34469C5.54306 3.34469 5.5508 3.34434 5.55853 3.34422C6.77318 3.34785 7.76025 4.3368 7.76025 5.55227C7.76025 5.8566 7.69838 6.14687 7.58646 6.4109C7.25072 7.2032 6.46521 7.76043 5.55209 7.76043C4.33439 7.76043 3.34369 6.76984 3.34369 5.55215C3.34369 4.41215 4.21217 3.47137 5.32217 3.35594ZM5.53861 44.5775C4.3283 44.5775 3.34369 43.5928 3.34369 42.3825V9.53078C3.99431 9.89336 4.7422 10.1014 5.53791 10.1038C5.54259 10.1038 5.54717 10.1045 5.55185 10.1045H49.4136V34.7157H38.2046C37.5574 34.7157 37.0328 35.2404 37.0328 35.8875C37.0328 36.5346 37.5574 37.0594 38.2046 37.0594H41.2308L42.8694 44.5775H5.53861ZM49.725 53.0767C49.725 53.6503 49.2583 54.1169 48.6848 54.1169C48.1113 54.1169 47.6447 53.6503 47.6447 53.0767C47.6447 52.5031 48.1113 52.0366 48.6848 52.0366C49.2583 52.0366 49.725 52.5031 49.725 53.0767ZM57.616 54.1169C57.0425 54.1169 56.5759 53.6503 56.5759 53.0767C56.5759 52.5031 57.0425 52.0366 57.616 52.0366C58.1895 52.0366 58.6562 52.5031 58.6562 53.0767C58.6562 53.6503 58.1895 54.1169 57.616 54.1169Z" fill="#747474"/>
<path d="M33.7113 20.5881H41.7899C43.7803 20.5881 45.3997 18.9688 45.3997 16.9783C45.3997 14.9877 43.7804 13.3683 41.7899 13.3683H33.7113C31.7209 13.3683 30.1015 14.9877 30.1015 16.9783C30.1015 18.9688 31.7209 20.5881 33.7113 20.5881ZM33.7113 15.7121H41.7899C42.4879 15.7121 43.056 16.2801 43.056 16.9783C43.056 17.6764 42.4879 18.2444 41.7899 18.2444H33.7113C33.0132 18.2444 32.4452 17.6764 32.4452 16.9783C32.4452 16.2801 33.0132 15.7121 33.7113 15.7121Z" fill="#747474"/>
<path d="M14.0504 33.1154C13.4032 33.1154 12.8785 33.6401 12.8785 34.2872C12.8785 34.9343 13.4032 35.4591 14.0504 35.4591H19.6979C20.3451 35.4591 20.8698 34.9343 20.8698 34.2872C20.8698 33.6401 20.3451 33.1154 19.6979 33.1154H14.0504Z" fill="#747474"/>
<path d="M43.8721 23.324H32.4328C31.7856 23.324 31.2609 23.8487 31.2609 24.4959C31.2609 25.143 31.7856 25.6677 32.4328 25.6677H43.8721C44.5193 25.6677 45.0439 25.143 45.0439 24.4959C45.0439 23.8487 44.5193 23.324 43.8721 23.324Z" fill="#747474"/>
<path d="M43.8721 28.1693H32.4328C31.7856 28.1693 31.2609 28.6941 31.2609 29.3412C31.2609 29.9883 31.7856 30.5131 32.4328 30.5131H43.8721C44.5193 30.5131 45.0439 29.9883 45.0439 29.3412C45.0439 28.6941 44.5193 28.1693 43.8721 28.1693Z" fill="#747474"/>
<path d="M25.546 33.637C25.1904 33.1077 24.4528 32.9584 23.9206 33.3122C23.388 33.6664 23.2452 34.407 23.5972 34.9376C23.9508 35.4703 24.6908 35.6131 25.2214 35.2611C25.7533 34.9082 25.8995 34.1675 25.546 33.637Z" fill="#747474"/>
<path d="M32.5844 38.563H8.93213C8.2849 38.563 7.76025 39.0878 7.76025 39.7349C7.76025 40.382 8.2849 40.9068 8.93213 40.9068H32.5844C33.2317 40.9068 33.7563 40.382 33.7563 39.7349C33.7563 39.0878 33.2315 38.563 32.5844 38.563Z" fill="#747474"/>
<path d="M7.76576 29.4494C7.82049 30.0436 8.33517 30.513 8.93213 30.513H24.92C25.5576 30.513 26.0919 29.9788 26.0919 29.3411V14.1968C26.0919 13.5497 25.5672 13.025 24.92 13.025H8.93213C8.2849 13.025 7.76025 13.5497 7.76025 14.1968V29.3411C7.76025 29.3772 7.76236 29.4136 7.76576 29.4494ZM11.8733 28.1693L16.9261 23.3832L21.9788 28.1693H11.8733ZM23.7481 15.3687V26.617L17.732 20.9181C17.2801 20.4899 16.5722 20.4899 16.1202 20.9181L10.104 26.617V15.3687H23.7481Z" fill="#747474"/>
<path d="M19.3445 19.2733C19.7429 20.2289 21.1454 20.2148 21.5192 19.2463C21.9031 18.2519 20.8093 17.2941 19.874 17.7919C19.3473 18.0722 19.1192 18.7234 19.3445 19.2733Z" fill="#747474"/>
<path d="M5.91373 1C4.18299 1 2.57049 1.67102 1.6447 3.21156C1.22412 3.91176 0.999939 4.72199 0.999939 5.53879V42.3824C0.999939 44.8851 3.03595 46.9211 5.53861 46.9211H43.1529V48.2213C43.1529 49.8294 44.1535 51.2075 45.5645 51.7678C45.3949 52.1707 45.3009 52.6129 45.3009 53.0766C45.3009 54.9425 46.819 56.4605 48.6848 56.4605C50.5507 56.4605 52.0687 54.9425 52.0687 53.0766C52.0687 52.7138 52.0107 52.3643 51.9044 52.0364H54.3963C54.2901 52.3643 54.232 52.7138 54.232 53.0766C54.232 54.9425 55.7501 56.4605 57.6159 56.4605C59.4818 56.4605 60.9999 54.9426 60.9999 53.0767C60.9999 51.2109 59.4819 49.6928 57.616 49.6928H46.968C46.1566 49.6928 45.4965 49.0327 45.4965 48.2213V46.9211H57.8103C58.367 46.9211 58.8469 46.5294 58.9584 45.9842L60.976 36.1224C61.0466 35.7775 60.9585 35.4191 60.7359 35.1464C60.5134 34.8739 60.18 34.7155 59.8279 34.7155H51.7572V5.53879C51.7572 2.96406 49.6104 1.01863 47.0975 1.00012L5.91373 1ZM52.8195 37.0593L52.5749 39.6464H49.6163L49.3717 37.0598L52.8195 37.0593ZM50.0826 44.5775L49.8379 41.9903H52.3531L52.1085 44.5775H50.0826ZM43.6297 37.0598H47.0174L47.262 39.6464H44.1936L43.6297 37.0598ZM44.7046 41.9902H47.4837L47.7283 44.5773H45.2686L44.7046 41.9902ZM54.4626 44.5775L54.7073 41.9903H57.3833L56.854 44.5775H54.4626ZM57.8628 39.6464H54.929L55.1737 37.0593H58.3922L57.8628 39.6464ZM49.4131 5.53926V7.76078H9.53142C9.90607 7.08965 10.104 6.32055 10.104 5.55215C10.104 4.78352 9.9056 4.01547 9.53154 3.34387H47.1847C48.3908 3.3925 49.4131 4.28371 49.4131 5.53926ZM5.32217 3.35594C5.36599 3.35172 5.41052 3.35031 5.45506 3.34879C5.48189 3.34762 5.50826 3.34492 5.53533 3.34469C5.54306 3.34469 5.5508 3.34434 5.55853 3.34422C6.77318 3.34785 7.76025 4.3368 7.76025 5.55227C7.76025 5.8566 7.69838 6.14687 7.58646 6.4109C7.25072 7.2032 6.46521 7.76043 5.55209 7.76043C4.33439 7.76043 3.34369 6.76984 3.34369 5.55215C3.34369 4.41215 4.21217 3.47137 5.32217 3.35594ZM5.53861 44.5775C4.3283 44.5775 3.34369 43.5928 3.34369 42.3825V9.53078C3.99431 9.89336 4.7422 10.1014 5.53791 10.1038C5.54259 10.1038 5.54717 10.1045 5.55185 10.1045H49.4136V34.7157H38.2046C37.5574 34.7157 37.0328 35.2404 37.0328 35.8875C37.0328 36.5346 37.5574 37.0594 38.2046 37.0594H41.2308L42.8694 44.5775H5.53861ZM49.725 53.0767C49.725 53.6503 49.2583 54.1169 48.6848 54.1169C48.1113 54.1169 47.6447 53.6503 47.6447 53.0767C47.6447 52.5031 48.1113 52.0366 48.6848 52.0366C49.2583 52.0366 49.725 52.5031 49.725 53.0767ZM57.616 54.1169C57.0425 54.1169 56.5759 53.6503 56.5759 53.0767C56.5759 52.5031 57.0425 52.0366 57.616 52.0366C58.1895 52.0366 58.6562 52.5031 58.6562 53.0767C58.6562 53.6503 58.1895 54.1169 57.616 54.1169Z" stroke="#747474" stroke-width="0.5"/>
<path d="M33.7113 20.5881H41.7899C43.7803 20.5881 45.3997 18.9688 45.3997 16.9783C45.3997 14.9877 43.7804 13.3683 41.7899 13.3683H33.7113C31.7209 13.3683 30.1015 14.9877 30.1015 16.9783C30.1015 18.9688 31.7209 20.5881 33.7113 20.5881ZM33.7113 15.7121H41.7899C42.4879 15.7121 43.056 16.2801 43.056 16.9783C43.056 17.6764 42.4879 18.2444 41.7899 18.2444H33.7113C33.0132 18.2444 32.4452 17.6764 32.4452 16.9783C32.4452 16.2801 33.0132 15.7121 33.7113 15.7121Z" stroke="#747474" stroke-width="0.5"/>
<path d="M14.0504 33.1154C13.4032 33.1154 12.8785 33.6401 12.8785 34.2872C12.8785 34.9343 13.4032 35.4591 14.0504 35.4591H19.6979C20.3451 35.4591 20.8698 34.9343 20.8698 34.2872C20.8698 33.6401 20.3451 33.1154 19.6979 33.1154H14.0504Z" stroke="#747474" stroke-width="0.5"/>
<path d="M43.8721 23.324H32.4328C31.7856 23.324 31.2609 23.8487 31.2609 24.4959C31.2609 25.143 31.7856 25.6677 32.4328 25.6677H43.8721C44.5193 25.6677 45.0439 25.143 45.0439 24.4959C45.0439 23.8487 44.5193 23.324 43.8721 23.324Z" stroke="#747474" stroke-width="0.5"/>
<path d="M43.8721 28.1693H32.4328C31.7856 28.1693 31.2609 28.6941 31.2609 29.3412C31.2609 29.9883 31.7856 30.5131 32.4328 30.5131H43.8721C44.5193 30.5131 45.0439 29.9883 45.0439 29.3412C45.0439 28.6941 44.5193 28.1693 43.8721 28.1693Z" stroke="#747474" stroke-width="0.5"/>
<path d="M25.546 33.637C25.1904 33.1077 24.4528 32.9584 23.9206 33.3122C23.388 33.6664 23.2452 34.407 23.5972 34.9376C23.9508 35.4703 24.6908 35.6131 25.2214 35.2611C25.7533 34.9082 25.8995 34.1675 25.546 33.637Z" stroke="#747474" stroke-width="0.5"/>
<path d="M32.5844 38.563H8.93213C8.2849 38.563 7.76025 39.0878 7.76025 39.7349C7.76025 40.382 8.2849 40.9068 8.93213 40.9068H32.5844C33.2317 40.9068 33.7563 40.382 33.7563 39.7349C33.7563 39.0878 33.2315 38.563 32.5844 38.563Z" stroke="#747474" stroke-width="0.5"/>
<path d="M7.76576 29.4494C7.82049 30.0436 8.33517 30.513 8.93213 30.513H24.92C25.5576 30.513 26.0919 29.9788 26.0919 29.3411V14.1968C26.0919 13.5497 25.5672 13.025 24.92 13.025H8.93213C8.2849 13.025 7.76025 13.5497 7.76025 14.1968V29.3411C7.76025 29.3772 7.76236 29.4136 7.76576 29.4494ZM11.8733 28.1693L16.9261 23.3832L21.9788 28.1693H11.8733ZM23.7481 15.3687V26.617L17.732 20.9181C17.2801 20.4899 16.5722 20.4899 16.1202 20.9181L10.104 26.617V15.3687H23.7481Z" stroke="#747474" stroke-width="0.5"/>
<path d="M19.3445 19.2733C19.7429 20.2289 21.1454 20.2148 21.5192 19.2463C21.9031 18.2519 20.8093 17.2941 19.874 17.7919C19.3473 18.0722 19.1192 18.7234 19.3445 19.2733Z" stroke="#747474" stroke-width="0.5"/>
</svg>
