<svg width="62" height="62" viewBox="0 0 62 62" fill="none" xmlns="http://www.w3.org/2000/svg">
<path d="M27.0034 1C16.6088 0.999063 7.21255 7.18938 3.11087 16.7406C-0.990807 26.2919 0.990482 37.368 8.14876 44.905C15.307 52.442 26.2665 54.9912 36.0163 51.387L38.5833 59.452C38.8657 60.3623 39.7022 60.9873 40.6553 61H40.7033C41.6383 61.006 42.4749 60.4205 42.7894 59.54L47.2374 47.3789C47.261 47.3173 47.3098 47.2686 47.3713 47.245L59.5413 42.784C60.4341 42.4564 61.0199 41.5975 60.9992 40.6466C60.9784 39.6959 60.3556 38.8634 59.4493 38.575L51.3884 36.01C54.3354 28.0327 53.1949 19.1184 48.3344 12.14C43.4738 5.16156 35.5077 1.00129 27.0034 1ZM42.9873 26C42.9163 21.8051 42.1594 17.6502 40.7463 13.7C42.3455 13.129 43.8859 12.4053 45.3463 11.5389C48.7804 15.5983 50.7622 20.6871 50.9783 26H42.9873ZM32.8493 30.111C32.0746 29.857 31.2227 30.0591 30.6448 30.6341C30.0668 31.2092 29.8603 32.06 30.1103 32.836L31.8393 38.266C30.5803 38.125 29.2963 38.047 28.0033 38.018V28H40.9822C40.947 29.5326 40.8224 31.0619 40.6092 32.58L32.8493 30.111ZM8.66533 42.456C5.23958 38.3949 3.26369 33.3087 3.04935 28H11.0254C11.0939 32.1932 11.8437 36.3474 13.2454 40.3C11.653 40.87 10.1193 41.592 8.66533 42.456ZM8.66533 11.543C10.1258 12.4093 11.6663 13.1329 13.2653 13.7041C11.851 17.6528 11.0923 21.8063 11.0193 26.0001H3.02826C3.24599 20.6884 5.22892 15.601 8.66322 11.5431H8.66533V11.543ZM15.1444 39.667C13.8086 35.9189 13.0929 31.9783 13.0254 28H26.0035V38.0189C22.3258 38.0812 18.673 38.6355 15.1424 39.667H15.1444ZM13.0184 26C13.0855 22.0213 13.7946 18.0796 15.1184 14.3269C18.6564 15.3626 22.3174 15.9189 26.0033 15.9809V25.9998H13.0184V26ZM38.1343 12.466C34.8379 13.411 31.432 13.9206 28.0034 13.982V3.06801C32.1284 3.57004 35.7643 7.14402 38.1343 12.466ZM26.0033 3.06801V13.982C22.5745 13.9211 19.1686 13.4111 15.8724 12.465C18.2434 7.14402 21.8783 3.57004 26.0033 3.06801ZM26.0033 40.018V50.927C22.0403 50.44 18.3353 46.996 15.8903 41.5271C19.1813 40.5859 22.581 40.0786 26.0033 40.018ZM28.0034 26V15.981C31.688 15.9189 35.3477 15.3626 38.8843 14.327C40.2095 18.0794 40.92 22.0211 40.9883 26.0001H28.0034V26ZM43.9674 10.039C42.6987 10.7579 41.3692 11.3639 39.9944 11.85C38.8002 9.00602 37.0333 6.43832 34.8033 4.30703C38.2534 5.49754 41.3872 7.45773 43.9674 10.039ZM19.2034 4.30703C16.9722 6.43797 15.2037 9.00566 14.0084 11.85C12.6351 11.3634 11.307 10.7574 10.0393 10.039C12.6196 7.45773 15.7533 5.49754 19.2034 4.30703ZM10.0254 43.969C11.2904 43.2515 12.6158 42.6459 13.9865 42.1591C15.1638 44.9877 16.915 47.5416 19.1295 49.6591C15.705 48.472 12.593 46.5269 10.0254 43.969ZM28.0034 50.976V40.036C29.5116 40.068 31.017 40.1835 32.5124 40.382L34.8254 47.6471C34.8254 47.661 34.8334 47.6751 34.8385 47.689L35.4085 49.4771C33.0353 50.3668 30.5357 50.8728 28.0034 50.976ZM59.0033 40.693C59.0141 40.7911 58.9517 40.8824 58.8564 40.9081L46.6863 45.3691C46.0719 45.5944 45.5877 46.0786 45.3624 46.693L40.9133 58.8541C40.8877 58.947 40.7993 59.0084 40.7033 59.0001C40.605 59.007 40.5163 58.9412 40.4944 58.845L32.0134 32.219C31.9909 32.16 32.0077 32.0932 32.0554 32.052C32.084 32.02 32.1245 32.0011 32.1674 32C32.1897 32.0002 32.2117 32.0045 32.2324 32.013L58.8464 40.482C58.9429 40.5051 59.009 40.5939 59.0033 40.693ZM42.5393 33.193C42.7957 31.4731 42.9436 29.7386 42.9823 28H50.9823C50.8795 30.5308 50.3731 33.029 49.4823 35.4L42.5393 33.193Z" fill="#747474" stroke="#747474"/>
</svg>
