<svg width="32" height="32" viewBox="0 0 32 32" fill="none" xmlns="http://www.w3.org/2000/svg">
<path d="M17.8786 16.0002L26.2786 7.61358C26.5297 7.36251 26.6707 7.02198 26.6707 6.66691C26.6707 6.31185 26.5297 5.97132 26.2786 5.72025C26.0275 5.46918 25.687 5.32812 25.3319 5.32812C24.9769 5.32812 24.6364 5.46918 24.3853 5.72025L15.9986 14.1202L7.61195 5.72025C7.36088 5.46918 7.02035 5.32813 6.66528 5.32813C6.31021 5.32813 5.96969 5.46918 5.71862 5.72025C5.46754 5.97132 5.32649 6.31185 5.32649 6.66691C5.32649 7.02198 5.46754 7.36251 5.71862 7.61358L14.1186 16.0002L5.71862 24.3869C5.59365 24.5109 5.49445 24.6583 5.42676 24.8208C5.35907 24.9833 5.32422 25.1576 5.32422 25.3336C5.32422 25.5096 5.35907 25.6839 5.42676 25.8463C5.49445 26.0088 5.59365 26.1563 5.71862 26.2802C5.84257 26.4052 5.99004 26.5044 6.15251 26.5721C6.31499 26.6398 6.48927 26.6746 6.66528 26.6746C6.8413 26.6746 7.01557 26.6398 7.17805 26.5721C7.34053 26.5044 7.488 26.4052 7.61195 26.2802L15.9986 17.8802L24.3853 26.2802C24.5092 26.4052 24.6567 26.5044 24.8192 26.5721C24.9817 26.6398 25.1559 26.6746 25.3319 26.6746C25.508 26.6746 25.6822 26.6398 25.8447 26.5721C26.0072 26.5044 26.1547 26.4052 26.2786 26.2802C26.4036 26.1563 26.5028 26.0088 26.5705 25.8463C26.6382 25.6839 26.673 25.5096 26.673 25.3336C26.673 25.1576 26.6382 24.9833 26.5705 24.8208C26.5028 24.6583 26.4036 24.5109 26.2786 24.3869L17.8786 16.0002Z" fill="black"/>
</svg>
