<svg width="60" height="61" viewBox="0 0 60 61" fill="none" xmlns="http://www.w3.org/2000/svg">
<path d="M24.7194 42.3597C24.3121 41.8769 23.7087 41.6593 23.101 41.5882H5.60293C4.88964 41.5882 4.30996 41.0085 4.30996 40.2952V37.6662H25.3853C26.5748 37.6662 27.5402 36.7029 27.5402 35.5113C27.5402 34.3196 26.5748 33.3563 25.3853 33.3563H4.30996V4.78397C4.30996 4.52322 4.51253 4.30988 4.7625 4.30988H52.9901C53.2422 4.30988 53.4641 4.53184 53.4641 4.78397V26.6566C53.4641 27.0208 53.5762 27.3462 53.7357 27.6457C54.0977 28.3288 54.7916 28.8116 55.6191 28.8116C56.8108 28.8116 57.774 27.8461 57.774 26.6566V4.78397C57.774 2.14632 55.6277 0 52.9901 0H4.7625C2.13563 0 8.39233e-05 2.14632 8.39233e-05 4.78397V40.2974C8.39233e-05 43.3876 2.5149 45.9002 5.60293 45.9002H21.2952C21.4848 47.0962 21.6228 48.3353 21.6357 49.6929C21.6357 50.9837 21.4978 52.2357 21.2995 53.4641H17.3043C16.1147 53.4641 15.1493 54.4273 15.1493 55.619C15.1493 56.8107 16.1147 57.7739 17.3043 57.7739H26.0964C27.2859 57.7739 28.2513 56.8107 28.2513 55.619C28.2513 54.4273 27.2859 53.4641 26.0964 53.4641H25.6934C25.8615 52.2077 25.9456 50.9018 25.9456 49.5184C25.9197 47.3354 25.6697 45.2257 25.1956 43.2453C25.0685 42.935 24.9392 42.6183 24.7194 42.3597Z" fill="#747474"/>
<path d="M58.5907 39.7716L56.5888 39.0368C56.4315 38.5929 56.2504 38.1597 56.0479 37.7352L56.9443 35.8001C57.3258 34.979 57.1534 34.0093 56.5133 33.3714L53.7658 30.6239C53.1279 29.986 52.1582 29.8136 51.3372 30.1929L49.402 31.0894C48.9991 30.8976 48.5853 30.7295 48.1651 30.5765C48.1436 30.5679 48.1242 30.5571 48.1026 30.5506L47.3678 28.5487C47.0553 27.6996 46.2472 27.1372 45.3464 27.1372H41.4611C40.5582 27.1372 39.7501 27.6996 39.4397 28.5487L38.7028 30.5528C38.261 30.7101 37.8257 30.8911 37.4012 31.0915L35.466 30.1951C34.6472 29.8158 33.6774 29.986 33.0374 30.6261L30.2899 33.3714C29.6499 34.0115 29.4796 34.9812 29.8589 35.8022L30.7553 37.7352C30.5528 38.1597 30.3718 38.595 30.2144 39.0368L28.2147 39.7716C27.3656 40.0841 26.801 40.89 26.801 41.793V41.8016V45.6783C26.801 46.5834 27.3656 47.3893 28.2147 47.6996L30.2144 48.4345C30.3718 48.8762 30.5528 49.3115 30.7532 49.7361L29.8567 51.6669C29.4775 52.4879 29.6477 53.4576 30.2877 54.0977L33.0353 56.8452C33.6753 57.4831 34.645 57.6576 35.4639 57.2762L37.399 56.3797C37.8214 56.5823 38.2567 56.7633 38.7006 56.9206L39.4376 58.9226C39.7458 59.7738 40.5539 60.3384 41.4568 60.3384H45.3421C46.2451 60.3384 47.0532 59.7738 47.3635 58.9269L48.0983 56.9249C48.5422 56.7676 48.9754 56.5866 49.3999 56.3862L51.335 57.2805C52.1561 57.6619 53.1258 57.4874 53.7636 56.8495L56.5112 54.102C57.1512 53.462 57.3236 52.4922 56.9422 51.6734L56.0479 49.7404C56.2483 49.3159 56.4293 48.8827 56.5866 48.4388L58.5885 47.704C59.4376 47.3915 60 46.5834 60 45.6826V41.7973C60.0022 40.8922 59.4376 40.0841 58.5907 39.7716ZM55.6923 44.1742L54.1063 44.7582C53.4469 44.9995 52.9469 45.5469 52.7659 46.2278C52.5439 47.0596 52.2142 47.857 51.7854 48.5961C51.432 49.2038 51.3954 49.9472 51.6927 50.5851L52.4017 52.1194L51.7811 52.7401L50.2468 52.0311C49.6111 51.7337 48.8698 51.7725 48.2578 52.1237C47.5208 52.5526 46.7234 52.8844 45.8873 53.1064C45.2107 53.2852 44.6633 53.7852 44.4198 54.4446L43.838 56.0285H42.9609L42.3769 54.4425C42.1356 53.783 41.5882 53.2831 40.9094 53.1042C40.0776 52.8801 39.2803 52.5504 38.5368 52.1216C37.9291 51.7639 37.1878 51.7315 36.55 52.0289L35.0157 52.7379L34.395 52.1194L35.1062 50.5851C35.4035 49.9451 35.3669 49.2016 35.0135 48.5939C34.5804 47.8483 34.2507 47.0553 34.033 46.23C33.8541 45.549 33.3542 44.9995 32.6926 44.756L31.1044 44.172V43.2971L32.6926 42.7131C33.3542 42.4718 33.8541 41.9222 34.033 41.2391C34.2507 40.4159 34.5804 39.6186 35.0135 38.8709C35.3669 38.2632 35.4035 37.5219 35.1062 36.8818L34.395 35.3497L35.0135 34.7312L36.55 35.4402C37.19 35.7419 37.9313 35.7052 38.5368 35.3475C39.2803 34.9187 40.0776 34.5868 40.9094 34.3649C41.5861 34.186 42.1334 33.6861 42.3769 33.0267L42.9609 31.4406H43.838L44.422 33.0267C44.6633 33.6861 45.2107 34.186 45.8895 34.3649C46.7256 34.589 47.5229 34.9187 48.2599 35.3475C48.8698 35.7009 49.6111 35.7397 50.2489 35.4402L51.7854 34.7291L52.4039 35.3497L51.6949 36.884C51.3975 37.5219 51.4341 38.2632 51.7876 38.8709C52.2164 39.6143 52.5482 40.4116 52.7681 41.2434C52.9491 41.9222 53.449 42.4696 54.1084 42.7131L55.6945 43.2971V44.1742H55.6923Z" fill="#747474"/>
<path d="M43.4008 37.272C39.8365 37.272 36.936 40.1725 36.936 43.7368C36.936 47.3011 39.8365 50.2016 43.4008 50.2016C46.9651 50.2016 49.8656 47.3011 49.8656 43.7368C49.8656 40.1725 46.9651 37.272 43.4008 37.272ZM43.4008 45.8917C42.2113 45.8917 41.2459 44.9263 41.2459 43.7368C41.2459 42.5473 42.2113 41.5819 43.4008 41.5819C44.5903 41.5819 45.5557 42.5473 45.5557 43.7368C45.5557 44.9263 44.5882 45.8917 43.4008 45.8917Z" fill="#747474"/>
<path d="M34.1041 7.62639C33.0288 7.12214 31.7423 7.58976 31.2402 8.66723L22.6097 27.1717C22.1076 28.2492 22.573 29.5335 23.6505 30.0356C23.9457 30.1735 24.256 30.2382 24.5599 30.2382C25.3701 30.2382 26.1481 29.7792 26.5144 28.9948L35.1449 10.4903C35.6492 9.41068 35.1816 8.12849 34.1041 7.62639Z" fill="#747474"/>
<path d="M21.6682 11.2514C20.8903 10.3527 19.5284 10.2558 18.6276 11.0337L11.5098 17.2011C11.0379 17.6106 10.7664 18.2053 10.7664 18.8303C10.7664 19.4552 11.0379 20.05 11.5098 20.4594L18.6276 26.629C19.0349 26.9824 19.537 27.1548 20.0369 27.1548C20.6403 27.1548 21.2415 26.9027 21.6661 26.4114C22.444 25.5127 22.347 24.1508 21.4484 23.3707L16.2097 18.8303L21.4484 14.292C22.3492 13.5119 22.4461 12.15 21.6682 11.2514Z" fill="#747474"/>
<path d="M36.0887 26.4114C36.5154 26.9049 37.1166 27.1549 37.7179 27.1549C38.2178 27.1549 38.7221 26.9804 39.1294 26.6291L46.2471 20.4595C46.7191 20.0501 46.9906 19.4553 46.9906 18.8304C46.9906 18.2054 46.7191 17.6107 46.2471 17.2012L39.1294 11.0338C38.2308 10.258 36.871 10.3485 36.0887 11.2514C35.3108 12.1501 35.4078 13.512 36.3064 14.2921L41.5472 18.8304L36.3064 23.3708C35.4078 24.1509 35.3108 25.5128 36.0887 26.4114Z" fill="#747474"/>
</svg>
