<svg width="90" height="90" viewBox="0 0 90 90" fill="none" xmlns="http://www.w3.org/2000/svg">
<g clip-path="url(#clip0_686_82)">
<path d="M68.2503 0H8.25003C4.11001 0.00487502 0.754875 3.36001 0.75 7.50003V55.5002C0.749625 58.9212 3.06413 61.9086 6.37652 62.7633L7.12653 59.8592C5.13846 59.3466 3.74926 57.5534 3.75001 55.5002V7.50003C3.75001 5.01471 5.76471 3.00001 8.25003 3.00001H68.2503C70.7356 3.00001 72.7503 5.01471 72.7503 7.50003V9.00004H75.7503V7.50003C75.7454 3.36001 72.3903 0.00487502 68.2503 0Z" fill="#BDA76A"/>
<path d="M9.75001 6H6.75V9.00001H9.75001V6Z" fill="#BDA76A"/>
<path d="M15.75 6H12.75V9.00001H15.75V6Z" fill="#BDA76A"/>
<path d="M21.75 6H18.75V9.00001H21.75V6Z" fill="#BDA76A"/>
<path d="M88.8108 82.9397L74.5832 68.7122C75.3306 67.3781 75.9284 65.9655 76.3653 64.5002H78.7503V61.5002H77.0103C77.5752 57.8692 77.1396 54.1529 75.7503 50.7511V36H72.7502V45.5521C71.8594 44.4141 70.8542 43.3707 69.7502 42.4381V30H66.7502V40.3411C65.79 39.7846 64.7867 39.3055 63.7502 38.9086V24H60.7502V37.9981C59.7617 37.7847 58.7591 37.6439 57.7502 37.5766V27H54.7502V37.5766C53.7412 37.6439 52.7387 37.7847 51.7502 37.9981V33H48.7501V38.9086C47.7136 39.3055 46.7105 39.7846 45.7501 40.3411V31.5H42.7501V42.4381C41.6461 43.3707 40.6409 44.4141 39.7501 45.5521V34.5H36.7501V50.7511C35.3607 54.1529 34.9251 57.8692 35.4901 61.5002H15.75V64.5002H36.1351C39.425 75.5968 51.0875 81.9254 62.184 78.6355C64.3706 77.9871 66.4369 76.9862 68.3012 75.6722L82.1898 89.5608C82.7755 90.1463 83.725 90.1463 84.3108 89.5608L88.8108 85.0608C89.3964 84.475 89.3964 83.5255 88.8108 82.9397ZM56.2502 76.5002C46.3134 76.4895 38.2608 68.4369 38.2501 58.5001C38.2501 48.559 46.3091 40.5001 56.2502 40.5001C66.1913 40.5001 74.2502 48.559 74.2502 58.5001C74.2502 68.4412 66.1913 76.5002 56.2502 76.5002ZM83.2503 86.3793L70.6322 73.7612C71.4497 72.9887 72.2046 72.1526 72.8897 71.2607L85.6293 84.0002L83.2503 86.3793Z" fill="#BDA76A"/>
<path d="M56.2501 43.5C47.9657 43.5 41.25 50.2157 41.25 58.5001C41.25 66.7844 47.9657 73.5001 56.2501 73.5001C64.5344 73.5001 71.2501 66.7844 71.2501 58.5001C71.2411 50.2195 64.5307 43.509 56.2501 43.5ZM56.2501 70.5001C51.9683 70.4947 48.0139 68.2081 45.873 64.5001H66.6271C64.4862 68.2081 60.5318 70.4947 56.2501 70.5001ZM44.6445 61.5001C43.4376 56.9326 45.0491 52.0838 48.75 49.1475V58.5001H51.75V47.3835C52.7119 46.9943 53.7205 46.7321 54.7501 46.6035V58.5001H57.7501V46.6035C58.7796 46.7321 59.7882 46.9943 60.7501 47.3835V58.5001H63.7501V49.1475C67.451 52.0838 69.0626 56.9326 67.8556 61.5001H44.6445Z" fill="#BDA76A"/>
<path d="M77.2503 12H17.25C13.11 12.0049 9.75488 15.36 9.75 19.5V67.5002C9.75488 71.6402 13.11 74.9954 17.25 75.0003H36.7501V72.0002H17.25C14.7647 72.0002 12.75 69.9856 12.75 67.5002V19.5C12.75 17.0147 14.7647 15 17.25 15H77.2503C79.7356 15 81.7503 17.0147 81.7503 19.5V67.5002C81.7501 68.5962 81.3502 69.6542 80.6253 70.4762L82.8753 72.4607C84.0843 71.0912 84.7511 69.327 84.7503 67.5002V19.5C84.7454 15.36 81.3903 12.0049 77.2503 12Z" fill="#BDA76A"/>
<path d="M18.75 18H15.75V21H18.75V18Z" fill="#BDA76A"/>
<path d="M24.75 18H21.75V21H24.75V18Z" fill="#BDA76A"/>
<path d="M30.75 18H27.75V21H30.75V18Z" fill="#BDA76A"/>
<path d="M21.75 49.5H18.75V58.5H21.75V49.5Z" fill="#BDA76A"/>
<path d="M27.75 40.5H24.75V58.5001H27.75V40.5Z" fill="#BDA76A"/>
<path d="M33.75 45H30.75V58.5001H33.75V45Z" fill="#BDA76A"/>
</g>
<defs>
<clipPath id="clip0_686_82">
<rect width="90" height="90" fill="white"/>
</clipPath>
</defs>
</svg>
