<svg width="62" height="62" viewBox="0 0 62 62" fill="none" xmlns="http://www.w3.org/2000/svg">
<path d="M60.4366 19.4655C60.0868 19.253 59.6515 19.2384 59.2881 19.4271L45.5339 26.5698C45.0568 26.8175 44.8096 27.3581 44.9339 27.881L45.2327 29.137L35.8666 26.8584C34.1092 26.4305 32.2655 26.8003 30.8085 27.8723L30.2064 28.3154C28.0483 27.0336 25.4719 26.6449 23.0106 27.2543L16.8524 28.7789L17.066 27.881C17.1905 27.358 16.9431 26.8174 16.466 26.5698L2.71205 19.4271C2.34865 19.2384 1.91342 19.2529 1.5635 19.4655C1.21369 19.678 1.00006 20.0577 1.00006 20.467V41.5347C1.00006 42.0457 1.331 42.4977 1.81803 42.6519L11.5269 45.727C11.6424 45.7636 11.7617 45.7817 11.8807 45.7817C12.0811 45.7817 12.2803 45.7303 12.4582 45.6296C12.7415 45.4692 12.9455 45.198 13.0208 44.8811L13.1799 44.2121L14.107 44.6525C13.5854 46.0134 13.8711 47.6155 14.9665 48.7108C15.6888 49.4332 16.6318 49.8029 17.5805 49.8219C17.5996 50.7706 17.9692 51.7135 18.6915 52.4359C19.4138 53.1582 20.3569 53.5279 21.3055 53.5469C21.3246 54.4957 21.6942 55.4386 22.4165 56.1609C23.1389 56.8832 24.0819 57.253 25.0305 57.272C25.0496 58.2207 25.4192 59.1636 26.1416 59.8859C26.8836 60.6279 27.8581 60.9989 28.8328 60.9989C29.8074 60.9989 30.7821 60.6279 31.524 59.8859L33.2898 58.1202C33.7769 57.633 34.1031 57.0452 34.2704 56.4233C34.6444 56.5413 35.0327 56.6013 35.4214 56.6013C36.3961 56.6013 37.3707 56.2303 38.1126 55.4884C38.835 54.766 39.2046 53.8231 39.2237 52.8744C40.1724 52.8553 41.1153 52.4855 41.8377 51.7632C42.5596 51.0413 42.9292 50.099 42.9487 49.1509C43.9364 49.1313 44.8622 48.7386 45.5628 48.038C46.2817 47.3192 46.6775 46.3634 46.6775 45.3468C46.6775 45.3274 46.6763 45.3082 46.6761 45.2887L48.8247 44.2336L48.9787 44.8808C49.0542 45.1977 49.258 45.4688 49.5414 45.6293C49.7192 45.73 49.9183 45.7814 50.1189 45.7814C50.2377 45.7814 50.3571 45.7633 50.4726 45.7266L60.1815 42.6515C60.6685 42.4973 60.9995 42.0453 60.9995 41.5344V20.467C61.0001 20.0577 60.7864 19.678 60.4366 19.4655ZM3.34381 40.6767V22.396L14.5742 28.2282L11.0326 43.112L3.34381 40.6767ZM16.6238 44.9857L18.3896 43.2199C18.6746 42.9348 19.049 42.7923 19.4236 42.7923C19.798 42.7923 20.1724 42.9348 20.4574 43.2199C20.7335 43.496 20.8857 43.8632 20.8857 44.2537C20.8857 44.6443 20.7336 45.0114 20.4574 45.2877L18.6916 47.0534C18.1215 47.6237 17.1938 47.6236 16.6238 47.0534C16.0537 46.4834 16.0537 45.5558 16.6238 44.9857ZM20.349 48.7108L22.1148 46.945C22.3999 46.6599 22.7743 46.5175 23.1487 46.5175C23.5231 46.5175 23.8977 46.66 24.1827 46.945C24.7528 47.5152 24.7528 48.4427 24.1827 49.0128L22.4168 50.7787C21.8468 51.3488 20.9191 51.3489 20.349 50.7787C19.7789 50.2086 19.7789 49.2809 20.349 48.7108ZM24.074 52.436L25.8399 50.6701C26.1249 50.385 26.4994 50.2425 26.8739 50.2425C27.2483 50.2425 27.6227 50.385 27.9077 50.6701C28.4778 51.2402 28.4778 52.1677 27.9077 52.7379L26.1418 54.5037C25.5718 55.0739 24.6442 55.074 24.074 54.5037C23.5039 53.9336 23.5039 53.0061 24.074 52.436ZM31.6329 56.463L29.8671 58.2288C29.2971 58.7989 28.3693 58.7989 27.7992 58.2288C27.2291 57.6587 27.2291 56.7311 27.7992 56.161L29.5651 54.3951C29.8412 54.1189 30.2085 53.9668 30.5989 53.9668C30.9895 53.9668 31.3567 54.1189 31.6329 54.3951C32.203 54.9654 32.203 55.893 31.6329 56.463ZM43.9059 46.3811C43.6298 46.6572 43.2626 46.8093 42.8721 46.8093C42.4817 46.8093 42.1147 46.6573 41.8385 46.3814C41.8384 46.3812 41.8386 46.3815 41.8385 46.3814L35.5132 40.0561C35.0556 39.5984 34.3135 39.5984 33.8558 40.0561C33.3982 40.5137 33.3982 41.2557 33.8558 41.7134L40.1808 48.0384C40.7509 48.6085 40.7509 49.5362 40.1808 50.1063C39.6108 50.6765 38.683 50.6764 38.113 50.1063L31.788 43.7813C31.3304 43.3237 30.5884 43.3237 30.1306 43.7813C29.6729 44.2389 29.673 44.981 30.1306 45.4387L36.4556 51.7637C36.7318 52.0398 36.8839 52.407 36.8839 52.7976C36.8839 53.1882 36.7318 53.5554 36.4557 53.8314C35.8856 54.4016 34.958 54.4014 34.3878 53.8314C34.3878 53.8314 29.64 49.0878 29.565 49.0128C28.8426 48.2905 27.8996 47.9209 26.951 47.9019C26.9319 46.9531 26.5623 46.0101 25.8399 45.2878C25.1181 44.5659 24.1759 44.1963 23.2277 44.1768C23.2081 43.1892 22.8155 42.2633 22.1148 41.5627C20.6308 40.0789 18.2163 40.0789 16.7324 41.5627L15.5511 42.744L13.7347 41.8811L16.2419 31.3448L23.5739 29.5296C25.0953 29.1529 26.6744 29.2825 28.0916 29.8718L25.9925 31.4162C24.2211 32.7194 23.7695 35.1867 24.9643 37.0331C25.7475 38.2433 27.0897 38.9325 28.4727 38.9325C28.9715 38.9325 29.4759 38.8427 29.961 38.6554L36.2109 36.2416C36.2109 36.2416 43.8994 44.3069 43.9059 44.3136C44.4762 44.8834 44.4762 45.8109 43.9059 46.3811ZM45.9097 43.0545C45.8072 42.9192 37.3672 34.0575 37.3672 34.0575C37.0303 33.7041 36.5256 33.6076 36.0968 33.7729L29.1165 36.4687C28.3165 36.7777 27.3978 36.4794 26.9319 35.7595C26.4095 34.9522 26.6069 33.8735 27.3814 33.3037L32.1976 29.7602C33.095 29.1001 34.2305 28.8724 35.3128 29.1357L45.7971 31.6864C45.812 31.69 45.8267 31.6919 45.8416 31.6948L48.269 41.896L45.9097 43.0545ZM58.6563 40.6767L50.9675 43.112L47.4258 28.2282L58.6563 22.396V40.6767Z" fill="#747474"/>
<path d="M10.2369 20.4617H20.4064V21.0246C20.4064 21.6718 20.9311 22.1964 21.5783 22.1964H25.7266C26.3738 22.1964 26.8985 21.6718 26.8985 21.0246C26.8985 20.3773 26.3738 19.8527 25.7266 19.8527H22.7503V19.6341C22.7503 15.8512 25.828 12.7736 29.6108 12.7736H29.8282V14.3742C29.8282 15.0214 30.3528 15.5461 31.0001 15.5461C31.6473 15.5461 32.1719 15.0214 32.1719 14.3742V12.7736H32.3893C36.1722 12.7736 39.2498 15.8512 39.2498 19.6341V19.8527H36.2735C35.6263 19.8527 35.1016 20.3773 35.1016 21.0246C35.1016 21.6718 35.6263 22.1964 36.2735 22.1964H40.4217C41.0689 22.1964 41.5936 21.6718 41.5936 21.0246V20.4617H51.7631C52.4103 20.4617 52.935 19.9371 52.935 19.2898V18.0274C52.935 14.2518 50.45 11.0466 47.0301 9.95902C47.6012 9.17727 47.9393 8.21516 47.9393 7.17512V5.73184C47.9393 3.12324 45.817 1.00098 43.2084 1.00098C40.5998 1.00098 38.4774 3.12324 38.4774 5.73184V7.175C38.4774 8.2141 38.8149 9.17539 39.3851 9.95668C38.3785 10.275 37.4382 10.7805 36.608 11.4577C36.101 11.1951 35.5672 10.978 35.011 10.8124C35.687 9.94813 36.0915 8.86168 36.0915 7.68195V6.09254C36.0915 3.28496 33.8074 1.00098 30.9999 1.00098C28.1925 1.00098 25.9084 3.28508 25.9084 6.09254V7.68195C25.9084 8.86168 26.3128 9.94813 26.9888 10.8124C26.4327 10.978 25.8989 11.1951 25.3919 11.4577C24.5617 10.7805 23.6213 10.275 22.6148 9.95668C23.1849 9.17539 23.5224 8.21398 23.5224 7.175V5.73184C23.5224 3.12324 21.4002 1.00098 18.7915 1.00098C16.1828 1.00098 14.0606 3.12324 14.0606 5.73184V7.175C14.0606 8.21504 14.3987 9.17715 14.9697 9.95891C11.5499 11.0466 9.06491 14.2518 9.06491 18.0273V19.2897C9.06502 19.937 9.58967 20.4617 10.2369 20.4617ZM40.8213 5.73184C40.8213 4.41559 41.8922 3.34473 43.2085 3.34473C44.5248 3.34473 45.5956 4.41559 45.5956 5.73184V7.175C45.5956 8.49125 44.5248 9.56223 43.2085 9.56223C41.8923 9.56223 40.8213 8.49137 40.8213 7.175V5.73184ZM41.9471 11.9059H42.0367V12.9879C42.0367 13.6351 42.5613 14.1597 43.2085 14.1597C43.8558 14.1597 44.3804 13.6351 44.3804 12.9879V11.9059H44.4699C47.8453 11.9059 50.5913 14.6519 50.5913 18.0273V18.1179H41.4665C41.1244 16.0629 40.1 14.2363 38.6335 12.8796C39.6128 12.2466 40.7535 11.9059 41.9471 11.9059ZM28.2522 6.09254C28.2522 4.57742 29.4849 3.34473 31.0001 3.34473C32.5152 3.34473 33.7479 4.57742 33.7479 6.09254V7.68195C33.7479 9.19707 32.5152 10.4298 31.0001 10.4298C29.4849 10.4298 28.2522 9.19707 28.2522 7.68195V6.09254ZM16.4045 5.73184C16.4045 4.41559 17.4753 3.34473 18.7916 3.34473C20.1078 3.34473 21.1788 4.41559 21.1788 5.73184V7.175C21.1788 8.49125 20.108 9.56223 18.7916 9.56223C17.4753 9.56223 16.4045 8.49137 16.4045 7.175V5.73184ZM11.4088 18.0273C11.4088 14.6519 14.1548 11.9059 17.5302 11.9059H17.6197V12.9879C17.6197 13.6351 18.1444 14.1597 18.7916 14.1597C19.4388 14.1597 19.9635 13.6351 19.9635 12.9879V11.9059H20.053C21.2467 11.9059 22.3874 12.2466 23.3666 12.8797C21.9001 14.2364 20.8758 16.063 20.5336 18.118H11.4088V18.0273Z" fill="#747474"/>
<path d="M31.0001 22.1963C31.6473 22.1963 32.1719 21.6717 32.1719 21.0245C32.1719 20.3772 31.6473 19.8526 31.0001 19.8526C30.3529 19.8526 29.8282 20.3772 29.8282 21.0245C29.8282 21.6717 30.3529 22.1963 31.0001 22.1963Z" fill="#747474"/>
<path d="M41.8385 46.3814C42.1147 46.6573 42.4817 46.8093 42.8721 46.8093C43.2626 46.8093 43.6298 46.6572 43.9059 46.3811C44.4762 45.8109 44.4762 44.8834 43.9059 44.3136C43.8994 44.3069 36.2109 36.2416 36.2109 36.2416L29.961 38.6554C29.4759 38.8427 28.9715 38.9325 28.4727 38.9325C27.0897 38.9325 25.7475 38.2433 24.9643 37.0331C23.7695 35.1867 24.2211 32.7194 25.9925 31.4162L28.0916 29.8718C26.6744 29.2825 25.0953 29.1529 23.5739 29.5296L16.2419 31.3448L13.7347 41.8811L15.5511 42.744L16.7324 41.5627C18.2163 40.0789 20.6308 40.0789 22.1148 41.5627C22.8155 42.2633 23.2081 43.1892 23.2277 44.1768C24.1759 44.1963 25.1181 44.5659 25.8399 45.2878C26.5623 46.0101 26.9319 46.9531 26.951 47.9019C27.8996 47.9209 28.8426 48.2905 29.565 49.0128C29.64 49.0878 34.3878 53.8314 34.3878 53.8314C34.9579 54.4014 35.8856 54.4016 36.4557 53.8314C36.7318 53.5554 36.8839 53.1882 36.8839 52.7976C36.8839 52.407 36.7318 52.0398 36.4556 51.7637L30.1306 45.4387C29.673 44.981 29.6729 44.2389 30.1306 43.7813C30.5884 43.3237 31.3304 43.3237 31.788 43.7813L38.113 50.1063C38.683 50.6764 39.6108 50.6765 40.1808 50.1063C40.7509 49.5362 40.7509 48.6085 40.1808 48.0384L33.8558 41.7134C33.3982 41.2557 33.3982 40.5137 33.8558 40.0561C34.3135 39.5984 35.0556 39.5984 35.5132 40.0561L41.8385 46.3814ZM41.8385 46.3814C41.8384 46.3812 41.8386 46.3815 41.8385 46.3814ZM60.4366 19.4655C60.0868 19.253 59.6515 19.2384 59.2881 19.4271L45.5339 26.5698C45.0568 26.8175 44.8096 27.3581 44.9339 27.881L45.2327 29.137L35.8666 26.8584C34.1092 26.4305 32.2655 26.8003 30.8085 27.8723L30.2064 28.3154C28.0483 27.0336 25.4719 26.6449 23.0106 27.2543L16.8524 28.7789L17.066 27.881C17.1905 27.358 16.9431 26.8174 16.466 26.5698L2.71205 19.4271C2.34865 19.2384 1.91342 19.2529 1.5635 19.4655C1.21369 19.678 1.00006 20.0577 1.00006 20.467V41.5347C1.00006 42.0457 1.331 42.4977 1.81803 42.6519L11.5269 45.727C11.6424 45.7636 11.7617 45.7817 11.8807 45.7817C12.0811 45.7817 12.2803 45.7303 12.4582 45.6296C12.7415 45.4692 12.9455 45.198 13.0208 44.8811L13.1799 44.2121L14.107 44.6525C13.5854 46.0134 13.8711 47.6155 14.9665 48.7108C15.6888 49.4332 16.6318 49.8029 17.5805 49.8219C17.5996 50.7706 17.9692 51.7135 18.6915 52.4359C19.4138 53.1582 20.3569 53.5279 21.3055 53.5469C21.3246 54.4957 21.6942 55.4386 22.4165 56.1609C23.1389 56.8832 24.0819 57.253 25.0305 57.272C25.0496 58.2207 25.4192 59.1636 26.1416 59.8859C26.8836 60.6279 27.8581 60.9989 28.8328 60.9989C29.8074 60.9989 30.7821 60.6279 31.524 59.8859L33.2898 58.1202C33.7769 57.633 34.1031 57.0452 34.2704 56.4233C34.6444 56.5413 35.0327 56.6013 35.4214 56.6013C36.3961 56.6013 37.3707 56.2303 38.1126 55.4884C38.835 54.766 39.2046 53.8231 39.2237 52.8744C40.1724 52.8553 41.1153 52.4855 41.8377 51.7632C42.5596 51.0413 42.9292 50.099 42.9487 49.1509C43.9364 49.1313 44.8622 48.7386 45.5628 48.038C46.2817 47.3192 46.6775 46.3634 46.6775 45.3468C46.6775 45.3274 46.6764 45.3082 46.6761 45.2887L48.8247 44.2336L48.9787 44.8808C49.0542 45.1977 49.258 45.4688 49.5414 45.6293C49.7192 45.73 49.9183 45.7814 50.1189 45.7814C50.2377 45.7814 50.3571 45.7633 50.4726 45.7266L60.1815 42.6515C60.6685 42.4973 60.9995 42.0453 60.9995 41.5344V20.467C61.0001 20.0577 60.7864 19.678 60.4366 19.4655ZM3.34381 40.6767V22.396L14.5742 28.2282L11.0326 43.112L3.34381 40.6767ZM16.6238 44.9857L18.3896 43.2199C18.6746 42.9348 19.049 42.7923 19.4236 42.7923C19.798 42.7923 20.1724 42.9348 20.4574 43.2199C20.7335 43.496 20.8857 43.8632 20.8857 44.2537C20.8857 44.6443 20.7336 45.0114 20.4574 45.2877L18.6916 47.0534C18.1215 47.6237 17.1938 47.6236 16.6238 47.0534C16.0537 46.4834 16.0537 45.5558 16.6238 44.9857ZM20.349 48.7108L22.1148 46.945C22.3999 46.6599 22.7743 46.5175 23.1487 46.5175C23.5231 46.5175 23.8977 46.66 24.1827 46.945C24.7528 47.5152 24.7528 48.4427 24.1827 49.0128L22.4168 50.7787C21.8468 51.3488 20.9191 51.3489 20.349 50.7787C19.7789 50.2086 19.7789 49.2809 20.349 48.7108ZM24.074 52.436L25.8399 50.6701C26.1249 50.385 26.4994 50.2425 26.8739 50.2425C27.2483 50.2425 27.6227 50.385 27.9077 50.6701C28.4778 51.2402 28.4778 52.1677 27.9077 52.7379L26.1418 54.5037C25.5718 55.0739 24.6442 55.074 24.074 54.5037C23.5039 53.9336 23.5039 53.0061 24.074 52.436ZM31.6329 56.463L29.8671 58.2288C29.2971 58.7989 28.3693 58.7989 27.7992 58.2288C27.2291 57.6587 27.2291 56.7311 27.7992 56.161L29.5651 54.3951C29.8412 54.1189 30.2085 53.9668 30.5989 53.9668C30.9895 53.9668 31.3567 54.1189 31.6329 54.3951C32.203 54.9654 32.203 55.893 31.6329 56.463ZM45.9097 43.0545C45.8072 42.9192 37.3672 34.0575 37.3672 34.0575C37.0303 33.7041 36.5256 33.6076 36.0968 33.7729L29.1165 36.4687C28.3165 36.7777 27.3978 36.4794 26.9319 35.7595C26.4095 34.9522 26.6069 33.8735 27.3814 33.3037L32.1976 29.7602C33.095 29.1001 34.2305 28.8724 35.3128 29.1357L45.7971 31.6864C45.812 31.69 45.8267 31.6919 45.8416 31.6948L48.269 41.896L45.9097 43.0545ZM58.6563 40.6767L50.9675 43.112L47.4258 28.2282L58.6563 22.396V40.6767ZM10.2369 20.4617H20.4064V21.0246C20.4064 21.6718 20.9311 22.1964 21.5783 22.1964H25.7266C26.3739 22.1964 26.8985 21.6718 26.8985 21.0246C26.8985 20.3773 26.3739 19.8527 25.7266 19.8527H22.7503V19.6341C22.7503 15.8512 25.828 12.7736 29.6108 12.7736H29.8282V14.3742C29.8282 15.0214 30.3528 15.5461 31.0001 15.5461C31.6473 15.5461 32.1719 15.0214 32.1719 14.3742V12.7736H32.3893C36.1722 12.7736 39.2498 15.8512 39.2498 19.6341V19.8527H36.2735C35.6263 19.8527 35.1016 20.3773 35.1016 21.0246C35.1016 21.6718 35.6263 22.1964 36.2735 22.1964H40.4217C41.0689 22.1964 41.5936 21.6718 41.5936 21.0246V20.4617H51.7631C52.4103 20.4617 52.935 19.9371 52.935 19.2898V18.0274C52.935 14.2518 50.45 11.0466 47.0301 9.95902C47.6012 9.17727 47.9393 8.21516 47.9393 7.17512V5.73184C47.9393 3.12324 45.817 1.00098 43.2084 1.00098C40.5998 1.00098 38.4774 3.12324 38.4774 5.73184V7.175C38.4774 8.2141 38.8149 9.17539 39.3851 9.95668C38.3785 10.275 37.4382 10.7805 36.608 11.4577C36.101 11.1951 35.5672 10.978 35.011 10.8124C35.687 9.94813 36.0915 8.86168 36.0915 7.68195V6.09254C36.0915 3.28496 33.8074 1.00098 30.9999 1.00098C28.1925 1.00098 25.9084 3.28508 25.9084 6.09254V7.68195C25.9084 8.86168 26.3128 9.94813 26.9888 10.8124C26.4327 10.978 25.8989 11.1951 25.3919 11.4577C24.5617 10.7805 23.6213 10.275 22.6148 9.95668C23.1849 9.17539 23.5224 8.21399 23.5224 7.175V5.73184C23.5224 3.12324 21.4002 1.00098 18.7915 1.00098C16.1828 1.00098 14.0606 3.12324 14.0606 5.73184V7.175C14.0606 8.21504 14.3987 9.17715 14.9697 9.95891C11.5499 11.0466 9.06491 14.2518 9.06491 18.0273V19.2897C9.06502 19.937 9.58967 20.4617 10.2369 20.4617ZM40.8213 5.73184C40.8213 4.41559 41.8922 3.34473 43.2085 3.34473C44.5248 3.34473 45.5956 4.41559 45.5956 5.73184V7.175C45.5956 8.49125 44.5248 9.56223 43.2085 9.56223C41.8923 9.56223 40.8213 8.49137 40.8213 7.175V5.73184ZM41.9471 11.9059H42.0367V12.9879C42.0367 13.6351 42.5613 14.1597 43.2085 14.1597C43.8558 14.1597 44.3804 13.6351 44.3804 12.9879V11.9059H44.4699C47.8453 11.9059 50.5913 14.6519 50.5913 18.0273V18.1179H41.4665C41.1244 16.0629 40.1 14.2363 38.6335 12.8796C39.6128 12.2466 40.7535 11.9059 41.9471 11.9059ZM28.2522 6.09254C28.2522 4.57742 29.4849 3.34473 31.0001 3.34473C32.5152 3.34473 33.7479 4.57742 33.7479 6.09254V7.68195C33.7479 9.19707 32.5152 10.4298 31.0001 10.4298C29.4849 10.4298 28.2522 9.19707 28.2522 7.68195V6.09254ZM16.4045 5.73184C16.4045 4.41559 17.4753 3.34473 18.7916 3.34473C20.1078 3.34473 21.1788 4.41559 21.1788 5.73184V7.175C21.1788 8.49125 20.108 9.56223 18.7916 9.56223C17.4753 9.56223 16.4045 8.49137 16.4045 7.175V5.73184ZM11.4088 18.0273C11.4088 14.6519 14.1548 11.9059 17.5302 11.9059H17.6197V12.9879C17.6197 13.6351 18.1444 14.1597 18.7916 14.1597C19.4388 14.1597 19.9635 13.6351 19.9635 12.9879V11.9059H20.053C21.2467 11.9059 22.3874 12.2466 23.3666 12.8797C21.9001 14.2364 20.8758 16.063 20.5336 18.118H11.4088V18.0273ZM32.1719 21.0245C32.1719 21.6717 31.6473 22.1963 31.0001 22.1963C30.3529 22.1963 29.8282 21.6717 29.8282 21.0245C29.8282 20.3772 30.3529 19.8526 31.0001 19.8526C31.6473 19.8526 32.1719 20.3772 32.1719 21.0245Z" stroke="#747474"/>
</svg>
