<svg width="16" height="16" viewBox="0 0 16 16" fill="none" xmlns="http://www.w3.org/2000/svg">
<path fill-rule="evenodd" clip-rule="evenodd" d="M8.17325 0.2229C6.12047 0.2229 5.86419 0.232346 5.05819 0.268238C4.25345 0.306019 3.70562 0.432586 3.22391 0.619604C2.72709 0.812288 2.3052 1.07109 1.88519 1.49109C1.46519 1.91109 1.20576 2.33235 1.01371 2.82981C0.82669 3.31152 0.699493 3.85935 0.662342 4.66409C0.624561 5.47009 0.617004 5.72637 0.617004 7.77915C0.617004 9.83193 0.62645 10.0882 0.662342 10.8942C0.700123 11.6983 0.82669 12.2468 1.01371 12.7285C1.20639 13.2247 1.46519 13.6472 1.88519 14.0672C2.3052 14.4866 2.72646 14.7466 3.22391 14.9387C3.70625 15.1251 4.25408 15.2529 5.05819 15.2901C5.86419 15.3278 6.12047 15.3354 8.17325 15.3354C10.226 15.3354 10.4823 15.326 11.2883 15.2901C12.0924 15.2523 12.6409 15.1251 13.1226 14.9387C13.6188 14.746 14.0413 14.4866 14.4613 14.0672C14.8807 13.6472 15.1407 13.2266 15.3328 12.7285C15.5192 12.2468 15.647 11.6983 15.6842 10.8942C15.7219 10.0882 15.7295 9.83193 15.7295 7.77915C15.7295 5.72637 15.7201 5.47009 15.6842 4.66409C15.6464 3.85998 15.5192 3.31089 15.3328 2.82981C15.1401 2.33298 14.8807 1.91109 14.4613 1.49109C14.0413 1.07109 13.6207 0.811658 13.1226 0.619604C12.6409 0.432586 12.0924 0.305389 11.2883 0.268238C10.4823 0.230457 10.226 0.2229 8.17325 0.2229ZM8.17303 1.58326C10.1899 1.58326 10.4305 1.59333 11.227 1.62797C11.9637 1.6626 12.3636 1.78476 12.6293 1.88929C12.9832 2.02593 13.2338 2.18965 13.4996 2.45349C13.7634 2.71795 13.9271 2.9692 14.0638 3.32308C14.167 3.58881 14.2904 3.98866 14.3238 4.7254C14.3597 5.52258 14.3679 5.76186 14.3679 7.77938C14.3679 9.7969 14.3584 10.0368 14.3213 10.8334C14.2829 11.5701 14.1601 11.97 14.0562 12.2357C13.9151 12.5896 13.7546 12.8402 13.4901 13.1059C13.2263 13.3697 12.9712 13.5335 12.6211 13.6701C12.3567 13.7734 11.9505 13.8968 11.2138 13.9302C10.4116 13.9661 10.1754 13.9742 8.15414 13.9742C6.13221 13.9742 5.89608 13.9648 5.09449 13.9277C4.35712 13.8892 3.95097 13.7665 3.6865 13.6626C3.32821 13.5215 3.082 13.3609 2.81817 13.0965C2.55307 12.8326 2.38368 12.5776 2.25145 12.2275C2.14755 11.963 2.02539 11.5569 1.98698 10.8201L1.98546 10.7778C1.95828 10.0173 1.94857 9.74554 1.94857 7.76994C1.94857 5.79629 1.95826 5.52201 1.98536 4.7549L1.98698 4.70903C2.02539 3.97229 2.14755 3.56677 2.25145 3.3023C2.38368 2.94338 2.55307 2.6978 2.81817 2.43271C3.082 2.16887 3.32821 1.99885 3.6865 1.86725C3.95097 1.76272 4.34831 1.63993 5.08504 1.60215L5.12142 1.60086C5.89552 1.57353 6.15487 1.56437 8.14469 1.56437L8.17303 1.58326ZM4.29304 7.77951C4.29304 5.63732 6.02909 3.89938 8.17317 3.89938C10.3154 3.89938 12.0533 5.63543 12.0533 7.77951C12.0533 9.92171 10.3173 11.6596 8.17317 11.6596C6.03098 11.6596 4.29304 9.9236 4.29304 7.77951ZM8.1728 10.2983C6.78119 10.2983 5.65405 9.17118 5.65405 7.77957C5.65405 6.38796 6.78119 5.26082 8.1728 5.26082C9.56441 5.26082 10.6916 6.38796 10.6916 7.77957C10.6916 9.17118 9.56441 10.2983 8.1728 10.2983ZM12.2065 4.65311C12.7065 4.65311 13.1133 4.24696 13.1133 3.74636C13.1133 3.24639 12.7059 2.83961 12.2065 2.84024C11.7066 2.84024 11.2998 3.24639 11.2998 3.74636C11.2998 4.24633 11.7059 4.65311 12.2065 4.65311Z" fill="black"/>
</svg>
