<svg width="16" height="16" viewBox="0 0 16 16" fill="none" xmlns="http://www.w3.org/2000/svg">
<path fill-rule="evenodd" clip-rule="evenodd" d="M8.17319 0.2229C6.12041 0.2229 5.86413 0.232346 5.05813 0.268238C4.25339 0.306019 3.70556 0.432586 3.22385 0.619604C2.72703 0.812288 2.30514 1.07109 1.88513 1.49109C1.46513 1.91109 1.2057 2.33235 1.01365 2.82981C0.826629 3.31152 0.699432 3.85935 0.662281 4.66409C0.6245 5.47009 0.616943 5.72637 0.616943 7.77915C0.616943 9.83193 0.626389 10.0882 0.662281 10.8942C0.700062 11.6983 0.826629 12.2468 1.01365 12.7285C1.20633 13.2247 1.46513 13.6472 1.88513 14.0672C2.30514 14.4866 2.7264 14.7466 3.22385 14.9387C3.70619 15.1251 4.25402 15.2529 5.05813 15.2901C5.86413 15.3278 6.12041 15.3354 8.17319 15.3354C10.226 15.3354 10.4823 15.326 11.2883 15.2901C12.0924 15.2523 12.6408 15.1251 13.1225 14.9387C13.6187 14.746 14.0413 14.4866 14.4613 14.0672C14.8806 13.6472 15.1407 13.2266 15.3327 12.7285C15.5191 12.2468 15.647 11.6983 15.6841 10.8942C15.7219 10.0882 15.7294 9.83193 15.7294 7.77915C15.7294 5.72637 15.72 5.47009 15.6841 4.66409C15.6463 3.85998 15.5191 3.31089 15.3327 2.82981C15.1401 2.33298 14.8806 1.91109 14.4613 1.49109C14.0413 1.07109 13.6206 0.811658 13.1225 0.619604C12.6408 0.432586 12.0924 0.305389 11.2883 0.268238C10.4823 0.230457 10.226 0.2229 8.17319 0.2229ZM8.17344 1.58334C10.1903 1.58334 10.4309 1.59342 11.2274 1.62805C11.9642 1.66268 12.364 1.78484 12.6297 1.88937C12.9836 2.02601 13.2342 2.18973 13.5 2.45357C13.7638 2.71804 13.9275 2.96929 14.0642 3.32317C14.1674 3.5889 14.2909 3.98875 14.3242 4.72548C14.3601 5.52267 14.3683 5.76195 14.3683 7.77947C14.3683 9.79699 14.3589 10.0369 14.3217 10.8335C14.2833 11.5702 14.1605 11.97 14.0566 12.2358C13.9156 12.5897 13.755 12.8403 13.4905 13.106C13.2267 13.3698 12.9717 13.5336 12.6215 13.6702C12.3571 13.7735 11.9509 13.8969 11.2142 13.9303C10.412 13.9661 10.1758 13.9743 8.15455 13.9743C6.13262 13.9743 5.89649 13.9649 5.09489 13.9277C4.35753 13.8893 3.95138 13.7665 3.68691 13.6626C3.32862 13.5216 3.08241 13.361 2.81857 13.0965C2.55347 12.8327 2.38409 12.5777 2.25185 12.2276C2.14796 11.9631 2.0258 11.557 1.98739 10.8202L1.98587 10.7779C1.95869 10.0174 1.94897 9.74563 1.94897 7.77002C1.94897 5.79638 1.95866 5.5221 1.98577 4.75499L1.98739 4.70911C2.0258 3.97238 2.14796 3.56686 2.25185 3.30239C2.38409 2.94347 2.55347 2.69789 2.81857 2.43279C3.08241 2.16895 3.32862 1.99894 3.68691 1.86733C3.95138 1.7628 4.34871 1.64002 5.08545 1.60223L5.12183 1.60095C5.89592 1.57361 6.15528 1.56445 8.1451 1.56445L8.17344 1.58334ZM4.29272 7.77955C4.29272 5.63735 6.02877 3.89941 8.17286 3.89941C10.3151 3.89941 12.053 5.63546 12.053 7.77955C12.053 9.92175 10.3169 11.6597 8.17286 11.6597C6.03066 11.6597 4.29272 9.92363 4.29272 7.77955ZM8.17274 10.2983C6.78113 10.2983 5.65399 9.17118 5.65399 7.77957C5.65399 6.38796 6.78113 5.26082 8.17274 5.26082C9.56435 5.26082 10.6915 6.38796 10.6915 7.77957C10.6915 9.17118 9.56435 10.2983 8.17274 10.2983ZM12.2065 4.65311C12.7065 4.65311 13.1132 4.24696 13.1132 3.74636C13.1132 3.24639 12.7058 2.83961 12.2065 2.84024C11.7065 2.84024 11.2997 3.24639 11.2997 3.74636C11.2997 4.24633 11.7059 4.65311 12.2065 4.65311Z" fill="white"/>
</svg>
