<svg width="133" height="71" viewBox="0 0 133 71" fill="none" xmlns="http://www.w3.org/2000/svg">
<path d="M0.106522 8.59733C0.415131 9.37342 1.29712 9.75465 2.07169 9.44452C2.44989 9.29324 40.3994 -5.42516 76.3339 10.154C97.6467 19.3945 114.025 37.3533 125.088 63.5209L120.348 60.347C119.654 59.884 118.716 60.0671 118.249 60.763C117.783 61.4559 117.969 62.3969 118.663 62.8613L129.445 70.0806L132.421 57.3031C132.611 56.4907 132.105 55.6768 131.291 55.4877C131.176 55.4605 131.061 55.4484 130.946 55.4484C130.259 55.4484 129.637 55.9204 129.474 56.6178L128.044 62.7569C116.668 35.6272 99.7012 16.9875 77.5366 7.37799C64.7198 1.82133 51.664 -0.00012207 40.0439 -0.00012207C18.0503 -0.00012207 1.20937 6.5323 0.953705 6.63366C0.179123 6.94077 -0.200592 7.81974 0.106522 8.59733Z" fill="#BDA76A"/>
</svg>
