<svg width="50" height="51" viewBox="0 0 50 51" fill="none" xmlns="http://www.w3.org/2000/svg">
<g clip-path="url(#clip0_1309_388)">
<path d="M25 0.65918C14.6594 0.65918 6.25 9.06855 6.25 19.4092C6.25 32.4061 23.175 49.4811 23.8937 50.2029C24.2 50.5061 24.6 50.6592 25 50.6592C25.4 50.6592 25.8 50.5061 26.1063 50.2029C26.825 49.4811 43.75 32.4061 43.75 19.4092C43.75 9.06855 35.3406 0.65918 25 0.65918ZM25 46.8373C21.2688 42.8436 9.375 29.3373 9.375 19.4092C9.375 10.7936 16.3844 3.78418 25 3.78418C33.6156 3.78418 40.625 10.7936 40.625 19.4092C40.625 29.3279 28.7313 42.8436 25 46.8373Z" fill="#BDA76A"/>
<path d="M25 10.0342C19.8312 10.0342 15.625 14.2404 15.625 19.4092C15.625 24.5779 19.8312 28.7842 25 28.7842C30.1687 28.7842 34.375 24.5779 34.375 19.4092C34.375 14.2404 30.1687 10.0342 25 10.0342ZM25 25.6592C21.5531 25.6592 18.75 22.8561 18.75 19.4092C18.75 15.9623 21.5531 13.1592 25 13.1592C28.4469 13.1592 31.25 15.9623 31.25 19.4092C31.25 22.8561 28.4469 25.6592 25 25.6592Z" fill="#BDA76A"/>
</g>
<defs>
<clipPath id="clip0_1309_388">
<rect width="50" height="50" fill="white" transform="translate(0 0.65918)"/>
</clipPath>
</defs>
</svg>
