<svg width="875" height="378" viewBox="0 0 875 378" fill="none" xmlns="http://www.w3.org/2000/svg">
<path d="M190.305 186.229C198.245 183.722 204.65 181.832 211.01 179.721C230.927 173.126 249.746 164.376 264.179 148.59C287.385 123.22 298.001 93.1441 285.191 60.4304C272.645 28.3323 246.719 10.7882 211.405 8.80958C189.778 7.62239 168.195 7.27063 146.481 7.88621C101.647 9.20532 56.7703 8.23797 11.8932 8.32591C7.94507 8.32591 2.46156 6.25932 0.970045 12.2832C0.180419 15.3611 0.136551 19.4503 1.5842 22.0885C4.39176 27.3649 10.1823 25.1225 14.7446 25.2983C50.8481 26.6175 52.0325 27.1451 52.208 63.6842C52.6467 146.392 52.6028 229.099 52.4273 311.807C52.3396 348.302 50.6726 349.533 14.0427 351.292C8.12054 351.556 0.83844 349.841 0.794572 359.998C0.794572 370.199 7.72573 368.484 13.8673 368.309C56.2877 367.341 98.6643 364.835 141.085 368.177C146.042 368.572 152.096 370.243 152.227 361.361C152.359 353.711 148.937 351.644 141.83 351.072C103.314 348.038 102.305 347.863 101.779 309.784C100.638 221.8 99.8049 133.772 103.621 45.7884C104.016 37.1263 107.482 34.0044 114.939 32.2016C133.934 27.4969 153.192 27.321 172.494 28.5961C207.677 30.9265 232.023 51.4605 236.849 82.4594C242.508 118.735 224.478 152.943 192.805 165.431C174.117 172.818 154.552 174.928 134.548 173.961C130.425 173.785 125.512 172.202 122.923 177.259C120.204 182.579 124.985 185.129 127.617 188.207C159.422 225.23 189.208 263.88 216.626 304.288C234.787 331.022 259.002 348.962 288.657 359.998C332.218 376.179 376.744 381.588 423.113 373.629C452.636 368.528 481.764 362.592 510.235 353.271C519.228 350.325 522.079 346.06 521.07 336.562C519.403 321.217 519.184 305.563 519.184 290.35C519.184 272.938 512.647 249.238 538.003 239.344C541.644 237.937 541.206 233.672 540.328 230.287C539.012 225.098 534.757 226.022 530.94 226.022C494.749 225.978 458.558 225.89 422.367 225.802C417.585 225.802 412.54 224.834 411.882 232.221C411.268 239.344 414.602 241.543 421.051 241.807C431.623 242.203 442.195 243.126 452.811 243.742C465.753 244.489 472.552 249.985 472.552 264.319C472.552 273.949 472.991 283.666 472.552 293.34C472.552 340.388 484.353 339.772 424.999 349.226C363.057 359.119 306.292 347.687 268.872 289.426C265.231 283.754 260.625 278.742 256.502 273.333C234.699 244.621 212.941 215.865 190.349 186.053L190.305 186.229ZM641.707 283.49C637.233 282.127 636.97 278.83 635.785 276.323C593.979 188.691 549.453 102.334 510.235 13.4704C505.98 3.84097 501.242 -0.336183 490.012 0.103518C463.998 1.11483 437.896 0.543218 411.839 0.103518C373.586 -0.468093 335.552 0.938948 299.141 14.3498C295.193 15.8008 284.139 14.4817 289.447 23.5395C293.175 29.8273 295.808 42.7984 309.451 35.7632C344.238 17.7355 381.35 15.1413 419.34 20.3737C446.538 24.1112 467.858 32.8612 481.062 62.1452C525.808 161.693 573.712 259.835 620.475 358.503C622.098 361.889 623.063 365.802 628.24 365.802C633.899 365.802 635.346 361.933 637.013 357.8C640.216 349.709 643.55 341.663 646.972 333.704C683.777 248.007 726.022 164.859 765.722 80.4807C769.056 73.4455 772.522 66.4543 775.9 59.4631C778.488 62.1013 778.532 63.8601 778.488 65.6189C778.137 141.071 779.146 216.524 776.558 291.933C776.207 302.09 776.119 312.247 775.768 322.404C775.286 335.815 768.442 342.806 754.887 342.982C748.131 343.07 741.376 343.509 734.62 343.729C728.259 343.949 726.855 347.687 726.899 353.403C726.943 359.339 729.97 360.702 735.103 360.57C779.015 359.251 822.926 358.987 866.838 360.57C874.91 360.878 875.48 355.865 874.647 350.237C873.068 339.552 864.25 343.817 858.504 343.553C829.024 342.146 825.602 339.684 825.471 310.796C825.12 226.153 825.208 141.467 825.383 56.8249C825.471 21.2971 827.708 19.1425 862.803 17.6915C869.251 17.4277 875.305 18.3071 874.954 8.32591C874.603 -1.08367 868.725 0.323368 863.066 0.323368C836.526 0.323368 809.985 0.587188 783.445 0.147488C776.426 0.0155775 773.092 2.60981 770.592 8.80958C744.885 71.4229 713.827 131.574 685.312 192.868C671.143 223.339 656.228 253.459 641.707 283.578V283.49Z" fill="#BDA76A"/>
</svg>
