<svg width="153" height="66" viewBox="0 0 153 66" fill="none" xmlns="http://www.w3.org/2000/svg">
<path d="M33.2192 32.5804C34.6084 32.1419 35.7289 31.8111 36.8417 31.4419C40.326 30.288 43.6184 28.7572 46.1434 25.9956C50.2032 21.5571 52.0605 16.2954 49.8195 10.5722C47.6246 4.95668 43.0888 1.88738 36.9108 1.54122C33.1272 1.33352 29.3512 1.27198 25.5523 1.37968C17.7088 1.61045 9.85762 1.44122 2.00646 1.4566C1.31574 1.4566 0.356412 1.09506 0.0954742 2.14893C-0.0426694 2.6874 -0.0503441 3.4028 0.202919 3.86435C0.694097 4.78745 1.70715 4.39513 2.50531 4.4259C8.82155 4.65668 9.02876 4.74899 9.05946 11.1414C9.13621 25.611 9.12853 40.0806 9.09783 54.5501C9.08249 60.9349 8.79085 61.1503 2.38252 61.458C1.34644 61.5041 0.0724503 61.2041 0.0647756 62.9811C0.0647756 64.7657 1.27737 64.4657 2.35182 64.4349C9.7732 64.2657 17.1869 63.8272 24.6083 64.4119C25.4755 64.4811 26.5346 64.7734 26.5577 63.2195C26.5807 61.881 25.9821 61.5195 24.7388 61.4195C18.0004 60.8887 17.8239 60.8579 17.7318 54.1962C17.5323 38.8036 17.3865 23.4033 18.0541 8.0106C18.1232 6.49518 18.7295 5.94901 20.0342 5.63362C23.3573 4.81053 26.7265 4.77976 30.1033 5.00284C36.2584 5.41054 40.5178 9.00293 41.362 14.4261C42.3521 20.7724 39.1978 26.7572 33.6567 28.9418C30.3873 30.2342 26.9644 30.6034 23.4648 30.4342C22.7434 30.4034 21.8838 30.1265 21.431 31.0111C20.9552 31.9419 21.7917 32.3881 22.2522 32.9265C27.8163 39.4036 33.0274 46.1653 37.824 53.2347C41.0013 57.9117 45.2377 61.0503 50.4258 62.9811C58.0467 65.8119 65.8365 66.7581 73.9486 65.3657C79.1136 64.4734 84.2096 63.4349 89.1904 61.8041C90.7637 61.2887 91.2626 60.5425 91.0861 58.881C90.7944 56.1963 90.7561 53.4578 90.7561 50.7962C90.7561 47.75 89.6125 43.6037 94.0485 41.8729C94.6855 41.6267 94.6087 40.8806 94.4553 40.2882C94.225 39.3805 93.4806 39.5421 92.8129 39.5421C86.4813 39.5344 80.1497 39.519 73.8181 39.5036C72.9816 39.5036 72.099 39.3344 71.9839 40.6267C71.8764 41.8729 72.4597 42.2575 73.5879 42.3037C75.4375 42.3729 77.2871 42.5345 79.1443 42.6421C81.4084 42.7729 82.5979 43.7345 82.5979 46.2422C82.5979 47.9269 82.6747 49.6269 82.5979 51.3193C82.5979 59.5502 84.6624 59.4425 74.2786 61.0964C63.442 62.8272 53.511 60.8272 46.9645 50.6346C46.3275 49.6423 45.5217 48.7654 44.8003 47.8192C40.986 42.796 37.1794 37.7651 33.2269 32.5496L33.2192 32.5804ZM112.191 49.5961C111.409 49.3577 111.362 48.7807 111.155 48.3423C103.841 33.0112 96.0516 17.9031 89.1904 2.35662C88.446 0.671971 87.6171 -0.0588146 85.6524 0.0181102C81.1014 0.195037 76.535 0.095035 71.9762 0.0181102C65.2839 -0.081892 58.63 0.164267 52.26 2.51047C51.5693 2.76433 49.6353 2.53355 50.5639 4.1182C51.2163 5.21823 51.6768 7.48751 54.0636 6.25671C60.1496 3.1028 66.6423 2.64894 73.2886 3.56434C78.0469 4.2182 81.7767 5.74901 84.0868 10.8722C91.9149 28.288 100.296 45.4576 108.477 62.7195C108.761 63.3118 108.93 63.9965 109.835 63.9965C110.825 63.9965 111.079 63.3195 111.37 62.5964C111.93 61.181 112.514 59.7733 113.112 58.381C119.551 43.3883 126.942 28.8418 133.888 14.08C134.471 12.8492 135.077 11.6261 135.668 10.403C136.121 10.8645 136.129 11.1722 136.121 11.4799C136.06 24.6802 136.236 37.8805 135.783 51.0731C135.722 52.8501 135.706 54.627 135.645 56.404C135.561 58.7502 134.363 59.9733 131.992 60.0041C130.81 60.0195 129.628 60.0964 128.446 60.1348C127.333 60.1733 127.088 60.8272 127.096 61.8272C127.103 62.8657 127.633 63.1041 128.531 63.0811C136.213 62.8503 143.895 62.8041 151.578 63.0811C152.99 63.1349 153.09 62.258 152.944 61.2733C152.667 59.4041 151.125 60.1502 150.119 60.1041C144.962 59.8579 144.363 59.4271 144.34 54.3732C144.279 39.5652 144.294 24.7494 144.325 9.94141C144.34 3.72589 144.732 3.34895 150.872 3.0951C152 3.04895 153.059 3.2028 152.997 1.4566C152.936 -0.189587 151.908 0.0565726 150.918 0.0565726C146.274 0.0565726 141.631 0.102728 136.988 0.0258027C135.76 0.00272525 135.177 0.456582 134.739 1.54122C130.242 12.4953 124.808 23.0186 119.82 33.7419C117.341 39.0728 114.732 44.3422 112.191 49.6115V49.5961Z" fill="#BDA76A"/>
</svg>
