<svg width="54" height="77" viewBox="0 0 54 77" fill="none" xmlns="http://www.w3.org/2000/svg">
<path fill-rule="evenodd" clip-rule="evenodd" d="M27.0001 0.555664C12.3801 0.555664 0.555664 12.3801 0.555664 27.0001C0.555664 46.8334 27.0001 76.1112 27.0001 76.1112C27.0001 76.1112 53.4445 46.8334 53.4445 27.0001C53.4445 12.3801 41.6201 0.555664 27.0001 0.555664ZM27.0002 36.4446C21.7869 36.4446 17.5557 32.2134 17.5557 27.0001C17.5557 21.7868 21.7869 17.5557 27.0002 17.5557C32.2135 17.5557 36.4446 21.7868 36.4446 27.0001C36.4446 32.2134 32.2135 36.4446 27.0002 36.4446Z" fill="#C2D1D9"/>
<mask id="mask0_663_1781" style="mask-type:luminance" maskUnits="userSpaceOnUse" x="0" y="0" width="54" height="77">
<path fill-rule="evenodd" clip-rule="evenodd" d="M27.0001 0.555664C12.3801 0.555664 0.555664 12.3801 0.555664 27.0001C0.555664 46.8334 27.0001 76.1112 27.0001 76.1112C27.0001 76.1112 53.4445 46.8334 53.4445 27.0001C53.4445 12.3801 41.6201 0.555664 27.0001 0.555664ZM27.0002 36.4446C21.7869 36.4446 17.5557 32.2134 17.5557 27.0001C17.5557 21.7868 21.7869 17.5557 27.0002 17.5557C32.2135 17.5557 36.4446 21.7868 36.4446 27.0001C36.4446 32.2134 32.2135 36.4446 27.0002 36.4446Z" fill="white"/>
</mask>
<g mask="url(#mask0_663_1781)">
<rect x="-18.3333" y="-7" width="90.6667" height="90.6667" fill="#BDA76A"/>
</g>
</svg>
