<svg width="62" height="56" viewBox="0 0 62 56" fill="none" xmlns="http://www.w3.org/2000/svg">
<path d="M6.05478 7.42562C6.29994 8.01414 6.99498 8.30512 7.58525 8.05961C8.17447 7.81457 8.46299 7.11812 8.21807 6.52914C7.97279 5.93945 7.27986 5.65105 6.68877 5.89515C6.09662 6.13961 5.81256 6.83476 6.05478 7.42562Z" fill="#747474"/>
<path d="M10.5337 7.42562C10.7792 8.01496 11.474 8.30418 12.0642 8.05844C12.6536 7.81305 12.9421 7.11988 12.6981 6.52914C12.4544 5.93887 11.7571 5.65164 11.1677 5.89516C10.5756 6.13961 10.2915 6.83477 10.5337 7.42562Z" fill="#747474"/>
<path d="M38.3241 27.2003C38.3241 20.6466 32.9922 15.3147 26.4385 15.3147C19.8848 15.3147 14.553 20.6466 14.553 27.2003C14.553 33.754 19.8849 39.0858 26.4385 39.0858C32.9922 39.0858 38.3241 33.7539 38.3241 27.2003ZM16.8966 27.2003C16.8966 21.9389 21.177 17.6584 26.4384 17.6584C31.6997 17.6584 35.9803 21.9388 35.9803 27.2003C35.9803 32.4617 31.6999 36.7421 26.4384 36.7421C21.1771 36.7421 16.8966 32.4617 16.8966 27.2003Z" fill="#747474"/>
<path d="M33.0087 27.2002C33.0087 26.2956 32.541 25.4856 31.7578 25.0334L25.6555 21.5103C24.83 21.0336 23.7993 21.0713 23.0078 21.601C22.3172 22.063 21.9024 22.8468 21.9024 23.6772V30.7236C21.9024 32.0852 23.0363 33.2296 24.4045 33.2296C24.8341 33.2296 25.2638 33.1165 25.6555 32.8904L31.7579 29.3672C32.541 28.9148 33.0087 28.1048 33.0087 27.2002ZM30.5859 27.3374L24.4836 30.8605C24.3799 30.9208 24.246 30.8433 24.246 30.7236V23.6771C24.246 23.5575 24.3795 23.4798 24.4835 23.54L30.5858 27.0631C30.6895 27.1232 30.6898 27.2775 30.5859 27.3374Z" fill="#747474"/>
<path d="M58.6446 28.5482C56.8873 26.7911 54.2735 26.1037 51.8764 26.762L51.8765 5.45371C51.8765 3.12391 49.9811 1.22852 47.6513 1.22852H5.22568C2.89588 1.22852 1.00049 3.12391 1.00049 5.45371V40.9117C1.00049 43.2419 2.89611 45.1375 5.22627 45.1375H14.3176C14.9648 45.1375 15.4894 44.6129 15.4894 43.9656C15.4894 43.3184 14.9648 42.7938 14.3176 42.7938H5.22627C4.18857 42.7938 3.34424 41.9494 3.34424 40.9117V12.2915H49.5325V27.9197C49.2787 28.1121 49.0369 28.323 48.8117 28.5482L34.5663 42.7938H24.6278C23.9806 42.7938 23.456 43.3184 23.456 43.9656C23.456 44.6129 23.9806 45.1375 24.6278 45.1375H33.7564L32.7489 53.4593C32.659 54.2023 33.3096 54.8532 34.0531 54.7635L43.7179 53.5935C43.9741 53.5626 44.2233 53.4412 44.4058 53.2588L58.9644 38.7003C60.2773 37.387 61.0005 35.6411 61.0005 33.784C61.0005 31.9269 60.2773 30.181 58.9642 28.8679L58.6446 28.5482ZM5.22568 3.57227H47.6512C48.6887 3.57227 49.5326 4.41625 49.5326 5.45371V9.94726H3.34424V5.45371C3.34424 4.41625 4.18822 3.57227 5.22568 3.57227ZM53.7283 28.8556C54.9594 28.8556 56.1167 29.335 56.9872 30.2055L57.3069 30.5252C58.8175 32.0358 59.0581 34.343 58.0288 36.1074L51.4038 29.4824C52.1015 29.0736 52.8981 28.8556 53.7283 28.8556ZM43.5771 50.7727L36.7396 43.9353L49.6408 31.0341L56.4782 37.8715L43.5771 50.7727ZM35.9563 46.4666L41.0457 51.5561L35.2552 52.2571L35.9563 46.4666Z" fill="#747474"/>
<path d="M20.4454 43.285C19.8693 42.4049 18.4733 42.7328 18.3139 43.7569C18.1478 44.824 19.4596 45.5264 20.2586 44.8034C20.6835 44.4189 20.7628 43.7606 20.4454 43.285Z" fill="#747474"/>
<path d="M6.05478 7.42562C6.29994 8.01414 6.99498 8.30512 7.58525 8.05961C8.17447 7.81457 8.46299 7.11812 8.21807 6.52914C7.97279 5.93945 7.27986 5.65105 6.68877 5.89515C6.09662 6.13961 5.81256 6.83476 6.05478 7.42562Z" stroke="#747474"/>
<path d="M10.5337 7.42562C10.7792 8.01496 11.474 8.30418 12.0642 8.05844C12.6536 7.81305 12.9421 7.11988 12.6981 6.52914C12.4544 5.93887 11.7571 5.65164 11.1677 5.89516C10.5756 6.13961 10.2915 6.83477 10.5337 7.42562Z" stroke="#747474"/>
<path d="M38.3241 27.2003C38.3241 20.6466 32.9922 15.3147 26.4385 15.3147C19.8848 15.3147 14.553 20.6466 14.553 27.2003C14.553 33.754 19.8849 39.0858 26.4385 39.0858C32.9922 39.0858 38.3241 33.7539 38.3241 27.2003ZM16.8966 27.2003C16.8966 21.9389 21.177 17.6584 26.4384 17.6584C31.6997 17.6584 35.9803 21.9388 35.9803 27.2003C35.9803 32.4617 31.6999 36.7421 26.4384 36.7421C21.1771 36.7421 16.8966 32.4617 16.8966 27.2003Z" stroke="#747474"/>
<path d="M33.0087 27.2002C33.0087 26.2956 32.541 25.4856 31.7578 25.0334L25.6555 21.5103C24.83 21.0336 23.7993 21.0713 23.0078 21.601C22.3172 22.063 21.9024 22.8468 21.9024 23.6772V30.7236C21.9024 32.0852 23.0363 33.2296 24.4045 33.2296C24.8341 33.2296 25.2638 33.1165 25.6555 32.8904L31.7579 29.3672C32.541 28.9148 33.0087 28.1048 33.0087 27.2002ZM30.5859 27.3374L24.4836 30.8605C24.3799 30.9208 24.246 30.8433 24.246 30.7236V23.6771C24.246 23.5575 24.3795 23.4798 24.4835 23.54L30.5858 27.0631C30.6895 27.1232 30.6898 27.2775 30.5859 27.3374Z" stroke="#747474"/>
<path d="M58.6446 28.5482C56.8873 26.7911 54.2735 26.1037 51.8764 26.762L51.8765 5.45371C51.8765 3.12391 49.9811 1.22852 47.6513 1.22852H5.22568C2.89588 1.22852 1.00049 3.12391 1.00049 5.45371V40.9117C1.00049 43.2419 2.89611 45.1375 5.22627 45.1375H14.3176C14.9648 45.1375 15.4894 44.6129 15.4894 43.9656C15.4894 43.3184 14.9648 42.7938 14.3176 42.7938H5.22627C4.18857 42.7938 3.34424 41.9494 3.34424 40.9117V12.2915H49.5325V27.9197C49.2787 28.1121 49.0369 28.323 48.8117 28.5482L34.5663 42.7938H24.6278C23.9806 42.7938 23.456 43.3184 23.456 43.9656C23.456 44.6129 23.9806 45.1375 24.6278 45.1375H33.7564L32.7489 53.4593C32.659 54.2023 33.3096 54.8532 34.0531 54.7635L43.7179 53.5935C43.9741 53.5626 44.2233 53.4412 44.4058 53.2588L58.9644 38.7003C60.2773 37.387 61.0005 35.6411 61.0005 33.784C61.0005 31.9269 60.2773 30.181 58.9642 28.8679L58.6446 28.5482ZM5.22568 3.57227H47.6512C48.6887 3.57227 49.5326 4.41625 49.5326 5.45371V9.94726H3.34424V5.45371C3.34424 4.41625 4.18822 3.57227 5.22568 3.57227ZM53.7283 28.8556C54.9594 28.8556 56.1167 29.335 56.9872 30.2055L57.3069 30.5252C58.8175 32.0358 59.0581 34.343 58.0288 36.1074L51.4038 29.4824C52.1015 29.0736 52.8981 28.8556 53.7283 28.8556ZM43.5771 50.7727L36.7396 43.9353L49.6408 31.0341L56.4782 37.8715L43.5771 50.7727ZM35.9563 46.4666L41.0457 51.5561L35.2552 52.2571L35.9563 46.4666Z" stroke="#747474"/>
<path d="M20.4454 43.285C19.8693 42.4049 18.4733 42.7328 18.3139 43.7569C18.1478 44.824 19.4596 45.5264 20.2586 44.8034C20.6835 44.4189 20.7628 43.7606 20.4454 43.285Z" stroke="#747474"/>
</svg>
