<svg width="90" height="90" viewBox="0 0 90 90" fill="none" xmlns="http://www.w3.org/2000/svg">
<g clip-path="url(#clip0_686_186)">
<path d="M22.9392 38.8145H15.88C14.9091 38.8145 14.1222 38.0275 14.1222 37.0567V34.3796C13.5908 34.1917 13.0698 33.9758 12.5613 33.7327L10.6682 35.6276C9.98174 36.3139 8.86906 36.3139 8.18265 35.6276L3.19056 30.6355C2.50433 29.9491 2.50433 28.8364 3.19056 28.15L5.08369 26.2552C4.83989 25.7473 4.62333 25.2269 4.43507 24.696H1.75973C0.78891 24.696 0.00195312 23.909 0.00195312 22.9382V15.879C0.00195312 14.9082 0.78891 14.1212 1.75973 14.1212H4.43507C4.62333 13.5898 4.83989 13.0687 5.08369 12.5603L3.19056 10.6672C2.50433 9.98076 2.50433 8.86809 3.19056 8.18168L8.18265 3.18959C8.86906 2.50335 9.98174 2.50335 10.6682 3.18959L12.5613 5.08271C13.0696 4.83891 13.5908 4.62235 14.1222 4.43409V1.75875C14.1222 0.787934 14.9091 0.000976562 15.88 0.000976562H22.9392C23.91 0.000976562 24.697 0.787934 24.697 1.75875V4.43409C25.2278 4.62235 25.7483 4.83891 26.2561 5.08271L28.151 3.18959C28.8374 2.50335 29.9501 2.50335 30.6365 3.18959L35.6286 8.18168C36.3148 8.86809 36.3148 9.98076 35.6286 10.6672L33.7355 12.5603C33.9793 13.0687 34.1958 13.5898 34.3841 14.1212H37.0577C38.0285 14.1212 38.8155 14.9082 38.8155 15.879V22.9382C38.8155 23.909 38.0285 24.696 37.0577 24.696H34.3841C34.1958 25.2269 33.9793 25.7473 33.7355 26.2552L35.6286 28.15C36.3148 28.8364 36.3148 29.9491 35.6286 30.6355L30.6365 35.6276C29.9501 36.3139 28.8374 36.3139 28.151 35.6276L26.2561 33.7327C25.7481 33.9755 25.2277 34.1913 24.697 34.3796V37.0567C24.697 38.0275 23.91 38.8145 22.9392 38.8145ZM17.6377 35.2989H21.1814V33.0788C21.1816 32.2775 21.7239 31.5777 22.4998 31.3773C23.6182 31.0899 24.6905 30.6461 25.6848 30.059C26.3757 29.6508 27.2551 29.7623 27.8223 30.3297L29.3938 31.8994L31.8986 29.3945L30.3289 27.8231C29.7611 27.2552 29.6504 26.3747 30.06 25.6839C30.6478 24.69 31.0927 23.6185 31.3818 22.5005C31.5815 21.724 32.2814 21.1808 33.0833 21.1804H35.2999V17.6368H33.0833C32.2814 17.6364 31.5815 17.0933 31.3818 16.3167C31.0928 15.1982 30.6478 14.126 30.06 13.1316C29.6518 12.4408 29.7632 11.5614 30.3307 10.9941L31.9004 9.42443L29.3938 6.91783L27.8223 8.48929C27.2551 9.0567 26.3757 9.16814 25.6848 8.75998C24.6915 8.17078 23.6198 7.72518 22.5015 7.43638C21.7242 7.23652 21.1811 6.53569 21.1814 5.73309V3.51653H17.6377V5.73309C17.6381 6.53569 17.0949 7.23652 16.3176 7.43638C15.1988 7.72518 14.1266 8.17078 13.1326 8.75998C12.4417 9.16814 11.5623 9.0567 10.9951 8.48929L9.4254 6.91783L6.91881 9.42443L8.49026 10.9941C9.05767 11.5614 9.16912 12.4408 8.76096 13.1316C8.17175 14.1256 7.72616 15.1978 7.43736 16.3167C7.2375 17.094 6.53667 17.6371 5.73407 17.6368H3.51751V21.1804H5.73407C6.53667 21.1801 7.2375 21.7232 7.43736 22.5005C7.72616 23.6188 8.17175 24.6906 8.76096 25.6839C9.16912 26.3747 9.05767 27.2541 8.49026 27.8213L6.91881 29.3928L9.4254 31.8976L10.9951 30.3279C11.5627 29.761 12.4421 29.6503 13.1326 30.059C14.1273 30.647 15.2002 31.0915 16.3194 31.3791C17.0953 31.5795 17.6376 32.2792 17.6377 33.0806V35.2989Z" fill="#BDA76A"/>
<path d="M19.4084 28.2254C14.538 28.2265 10.5889 24.2789 10.5879 19.4084C10.5868 14.538 14.5345 10.5889 19.4049 10.5879C24.2754 10.5868 28.2244 14.5345 28.2254 19.4049V19.4084C28.2196 24.2755 24.2755 28.2196 19.4084 28.2254ZM19.4084 14.1052C16.4796 14.1042 14.1045 16.4779 14.1034 19.4067C14.1024 22.3355 16.4761 24.7106 19.4049 24.7116C22.3337 24.7127 24.7088 22.339 24.7099 19.4102C24.7099 19.4097 24.7099 19.4089 24.7099 19.4084C24.706 16.4819 22.3349 14.1101 19.4084 14.1052Z" fill="#BDA76A"/>
<path d="M71.4744 89.9992C61.2433 89.9992 52.9492 81.7051 52.9492 71.474C52.9492 61.2428 61.2433 52.9487 71.4744 52.9487C81.7056 52.9487 89.9997 61.2428 89.9997 71.474C89.9881 81.7004 81.7008 89.9876 71.4744 89.9992ZM71.4744 56.4643C63.1848 56.4643 56.4648 63.1843 56.4648 71.474C56.4648 79.7636 63.1848 86.4836 71.4744 86.4836C79.7641 86.4836 86.4841 79.7636 86.4841 71.474C86.4744 63.1883 79.7601 56.474 71.4744 56.4643Z" fill="#BDA76A"/>
<path d="M68.3554 78.8479C67.8892 78.8477 67.4422 78.6624 67.1126 78.3329L62.1205 73.3408C61.4223 72.6663 61.403 71.5535 62.0775 70.8553C62.7519 70.1571 63.8648 70.1377 64.563 70.8122C64.5776 70.8263 64.592 70.8407 64.606 70.8553L68.3554 74.6046L78.3448 64.6152C79.0193 63.917 80.1321 63.8976 80.8303 64.5721C81.5285 65.2465 81.5478 66.3594 80.8734 67.0576C80.8593 67.0722 80.8449 67.0866 80.8303 67.1007L69.5981 78.3329C69.2685 78.6624 68.8215 78.8477 68.3554 78.8479Z" fill="#BDA76A"/>
<path d="M54.7065 74.1143H14.9965C10.1287 74.1094 6.18354 70.1651 6.17773 65.2973C6.17773 64.3265 6.96469 63.5396 7.93551 63.5396C8.90633 63.5396 9.69329 64.3265 9.69329 65.2973C9.69716 68.2244 12.0695 70.5958 14.9965 70.5988H54.7065C55.6773 70.5988 56.4643 71.3857 56.4643 72.3566C56.4643 73.3274 55.6773 74.1143 54.7065 74.1143Z" fill="#BDA76A"/>
<path d="M7.93551 54.6994C6.96469 54.6994 6.17773 53.9124 6.17773 52.9416C6.1816 48.0724 10.1273 44.126 14.9965 44.1211H28.2326C29.2034 44.1211 29.9904 44.9081 29.9904 45.8789C29.9904 46.8497 29.2034 47.6367 28.2326 47.6367H14.9965C12.0695 47.6396 9.69716 50.0111 9.69329 52.9381C9.69522 53.9089 8.90985 54.6975 7.93903 54.6994C7.9378 54.6994 7.93674 54.6994 7.93551 54.6994Z" fill="#BDA76A"/>
<path d="M74.1217 47.6368H54.707C53.7362 47.6368 52.9492 46.8498 52.9492 45.879C52.9492 44.9082 53.7362 44.1212 54.707 44.1212H74.1217C77.0484 44.1183 79.4201 41.7465 79.4231 38.8198C79.4231 37.849 80.2101 37.062 81.1809 37.062C82.1517 37.062 82.9387 37.849 82.9387 38.8198C82.9337 43.6873 78.9891 47.6319 74.1217 47.6368Z" fill="#BDA76A"/>
<path d="M81.1806 28.2257C80.2098 28.2257 79.4228 27.4387 79.4228 26.4679C79.4198 23.5412 77.0481 21.1694 74.1214 21.1664H70.5918C69.6209 21.1664 68.834 20.3795 68.834 19.4087C68.834 18.4378 69.6209 17.6509 70.5918 17.6509H74.1214C78.9888 17.6558 82.9335 21.6004 82.9384 26.4679C82.9384 27.4387 82.1514 28.2257 81.1806 28.2257Z" fill="#BDA76A"/>
<path d="M44.1211 21.1664H37.0566C36.0858 21.1664 35.2988 20.3795 35.2988 19.4087C35.2988 18.4378 36.0858 17.6509 37.0566 17.6509H44.1211C45.0919 17.6509 45.8789 18.4378 45.8789 19.4087C45.8789 20.3795 45.0919 21.1664 44.1211 21.1664Z" fill="#BDA76A"/>
<path d="M81.1809 40.5812C76.7977 40.5793 73.2461 37.0245 73.248 32.6414C73.25 28.2582 76.8047 24.7066 81.1879 24.7085C85.5697 24.7104 89.1208 28.2631 89.1208 32.6449C89.1159 37.0274 85.5634 40.5782 81.1809 40.5812ZM81.1809 28.2258C78.7393 28.2277 76.7617 30.2086 76.7636 32.6501C76.7655 35.0917 78.7464 37.0694 81.1879 37.0674C83.6288 37.0655 85.6061 35.0857 85.6052 32.6449C85.6022 30.2035 83.6223 28.2258 81.1809 28.2258Z" fill="#BDA76A"/>
<path d="M7.93637 67.0549C3.55317 67.0549 0 63.5017 0 59.1185C0 54.7353 3.55317 51.1821 7.93637 51.1821C12.3196 51.1821 15.8727 54.7353 15.8727 59.1185C15.8689 63.5001 12.318 67.051 7.93637 67.0549ZM7.93637 54.6994C5.49481 54.6994 3.51556 56.6787 3.51556 59.1203C3.51556 61.5618 5.49481 63.5411 7.93637 63.5411C10.3779 63.5411 12.3572 61.5618 12.3572 59.1203C12.3572 59.1197 12.3572 59.119 12.3572 59.1185C12.3542 56.6785 10.3763 54.7014 7.93637 54.6994Z" fill="#BDA76A"/>
<path d="M63.5322 28.2256H51.1768C46.3068 28.1569 42.4146 24.1532 42.4833 19.2833C42.5506 14.5102 46.4037 10.6572 51.1768 10.5898H63.5322C68.4021 10.6586 72.2944 14.6623 72.2256 19.5322C72.1583 24.3053 68.3053 28.1583 63.5322 28.2256ZM51.1768 14.1054C48.2483 14.1587 45.9177 16.5758 45.9709 19.5042C46.0228 22.3576 48.3234 24.6582 51.1768 24.7101H63.5322C66.4606 24.6568 68.7913 22.2395 68.738 19.3112C68.686 16.458 66.3856 14.1574 63.5322 14.1054H51.1768Z" fill="#BDA76A"/>
<path d="M51.1778 21.1666C51.0626 21.1663 50.9479 21.1545 50.835 21.1314C50.7225 21.1088 50.6123 21.0752 50.5063 21.0312C50.3998 20.9875 50.298 20.9333 50.2022 20.8695C50.0094 20.7423 49.8443 20.5772 49.717 20.3844C49.6532 20.2886 49.5991 20.1868 49.5553 20.0803C49.5114 19.9743 49.4778 19.8641 49.4551 19.7516C49.4082 19.5255 49.4082 19.2921 49.4551 19.066C49.478 18.953 49.5115 18.8422 49.5553 18.7355C49.5994 18.6297 49.6536 18.5285 49.717 18.4332C49.8443 18.2404 50.0094 18.0753 50.2022 17.948C50.2975 17.8835 50.3994 17.8294 50.5063 17.7863C50.6121 17.7415 50.7223 17.7079 50.835 17.6861C51.1762 17.6183 51.5297 17.6531 51.851 17.7863C52.0635 17.8749 52.2571 18.0038 52.4206 18.166C52.5839 18.329 52.7134 18.5225 52.802 18.7355C52.8458 18.8422 52.8793 18.953 52.9022 19.066C52.9467 19.2924 52.9467 19.5252 52.9022 19.7516C52.8795 19.8641 52.8459 19.9743 52.802 20.0803C52.7582 20.1868 52.7041 20.2886 52.6403 20.3844C52.5758 20.4804 52.5023 20.5698 52.4206 20.6516C52.3392 20.7331 52.2497 20.8063 52.1534 20.8695C52.0581 20.933 51.9568 20.9871 51.851 21.0312C51.7448 21.0747 51.6348 21.1082 51.5223 21.1314C51.4089 21.1545 51.2934 21.1663 51.1778 21.1666Z" fill="#BDA76A"/>
<path d="M58.2383 21.1664C58.1202 21.1666 58.0024 21.1548 57.8868 21.1312C57.7743 21.1086 57.6641 21.075 57.5581 21.0311C57.4519 20.9866 57.3501 20.9324 57.254 20.8693C57.158 20.8055 57.0685 20.7326 56.9868 20.6514C56.9085 20.5717 56.8386 20.4847 56.7776 20.3912C56.7138 20.2954 56.6596 20.1936 56.6159 20.0871C56.5719 19.9811 56.5383 19.8709 56.5157 19.7584C56.4687 19.5323 56.4687 19.2989 56.5157 19.0729C56.5385 18.9598 56.5721 18.8491 56.6159 18.7424C56.66 18.6366 56.7141 18.5353 56.7776 18.44C56.8409 18.3437 56.914 18.2542 56.9956 18.1729C57.0776 18.0916 57.1671 18.018 57.2627 17.9531C57.3589 17.8905 57.4607 17.8369 57.5668 17.7932C57.6727 17.7483 57.7829 17.7148 57.8956 17.693C58.1223 17.6473 58.3561 17.6473 58.5829 17.693C58.6955 17.7148 58.8057 17.7483 58.9116 17.7932C59.0177 17.8369 59.1195 17.8905 59.2157 17.9531C59.3113 18.018 59.4008 18.0916 59.4829 18.1729C59.5644 18.2542 59.6375 18.3437 59.7008 18.44C59.7643 18.5353 59.8184 18.6366 59.8625 18.7424C59.9063 18.8491 59.9399 18.9598 59.9627 19.0729C60.0097 19.2989 60.0097 19.5323 59.9627 19.7584C59.9401 19.8709 59.9065 19.9811 59.8625 20.0871C59.8188 20.1936 59.7646 20.2954 59.7008 20.3912C59.6375 20.4875 59.5644 20.577 59.4829 20.6584C59.4011 20.7396 59.3116 20.8126 59.2157 20.8764C59.1195 20.9395 59.0177 20.9936 58.9116 21.0381C58.8056 21.082 58.6954 21.1156 58.5829 21.1383C58.4693 21.159 58.3538 21.1685 58.2383 21.1664Z" fill="#BDA76A"/>
<path d="M47.649 54.6995H35.2936C30.424 54.6995 26.4766 50.752 26.4766 45.8824C26.4766 41.0129 30.424 37.0654 35.2936 37.0654H47.649C52.5186 37.0654 56.466 41.0129 56.466 45.8824C56.466 50.752 52.5186 54.6995 47.649 54.6995ZM35.2936 40.581C32.3656 40.581 29.9921 42.9545 29.9921 45.8824C29.9921 48.8104 32.3656 51.1839 35.2936 51.1839H47.649C50.5769 51.1839 52.9505 48.8104 52.9505 45.8824C52.9505 42.9545 50.5769 40.581 47.649 40.581H35.2936Z" fill="#BDA76A"/>
<path d="M35.2935 47.6367C35.1754 47.6369 35.0576 47.6251 34.9419 47.6016C34.8293 47.5798 34.7191 47.5462 34.6132 47.5014C34.399 47.4151 34.2045 47.2859 34.0419 47.1217C33.9609 47.0399 33.8878 46.9505 33.824 46.8545C33.7602 46.7587 33.706 46.6569 33.6623 46.5504C33.6231 46.4467 33.5935 46.3396 33.5744 46.2305C33.5299 46.0041 33.5299 45.7713 33.5744 45.5449C33.597 45.4324 33.6306 45.3222 33.6746 45.2162C33.7183 45.1097 33.7725 45.0079 33.8363 44.9121C33.8987 44.8177 33.9699 44.7293 34.049 44.6484C34.2126 44.4857 34.4067 44.3566 34.6203 44.2688C34.7261 44.2239 34.8363 44.1904 34.949 44.1686C35.1757 44.1229 35.4095 44.1229 35.6363 44.1686C35.749 44.1904 35.8592 44.2239 35.965 44.2688C36.0713 44.3129 36.1731 44.367 36.2691 44.4305C36.4619 44.5577 36.627 44.7228 36.7543 44.9156C36.8181 45.0114 36.8722 45.1132 36.916 45.2197C36.9599 45.3257 36.9935 45.4359 37.0162 45.5484C37.0631 45.7745 37.0631 46.0079 37.0162 46.234C36.9935 46.3465 36.9599 46.4567 36.916 46.5627C36.8722 46.6692 36.8181 46.771 36.7543 46.8668C36.691 46.9631 36.6178 47.0526 36.5363 47.134C36.4545 47.2157 36.3651 47.2892 36.2691 47.3537C36.1726 47.4159 36.071 47.4696 35.965 47.5137C35.8592 47.5585 35.749 47.5921 35.6363 47.6139C35.5231 47.6329 35.4083 47.6404 35.2935 47.6367Z" fill="#BDA76A"/>
<path d="M42.3535 47.6368C42.2383 47.6365 42.1235 47.6247 42.0107 47.6017C41.8975 47.5795 41.7868 47.5459 41.6802 47.5015C41.5749 47.4573 41.4737 47.4037 41.3779 47.3415C41.1854 47.2125 41.0202 47.0471 40.891 46.8546C40.8277 46.7588 40.7741 46.6568 40.731 46.5505C40.6865 46.4445 40.6524 46.3345 40.6291 46.2218C40.5846 45.9954 40.5846 45.7626 40.6291 45.5362C40.6524 45.4236 40.6865 45.3135 40.731 45.2075C40.7741 45.1012 40.8277 44.9992 40.891 44.9034C40.9555 44.8074 41.029 44.718 41.1107 44.6362C41.1921 44.5547 41.2816 44.4815 41.3779 44.4183C41.4732 44.3548 41.5744 44.3007 41.6802 44.2565C41.7868 44.2121 41.8975 44.1785 42.0107 44.1563C42.2369 44.1106 42.47 44.1106 42.6962 44.1563C42.8089 44.1781 42.9191 44.2117 43.025 44.2565C43.1315 44.3003 43.2333 44.3545 43.3291 44.4183C43.5219 44.5455 43.6869 44.7106 43.8142 44.9034C43.878 44.9992 43.9322 45.101 43.9759 45.2075C44.0208 45.3133 44.0543 45.4236 44.0761 45.5362C44.1231 45.7623 44.1231 45.9957 44.0761 46.2218C44.0543 46.3345 44.0208 46.4447 43.9759 46.5505C43.9322 46.657 43.878 46.7588 43.8142 46.8546C43.7509 46.9509 43.6778 47.0404 43.5962 47.1218C43.5145 47.2035 43.425 47.277 43.3291 47.3415C43.2329 47.4041 43.1311 47.4577 43.025 47.5015C42.9191 47.5463 42.8089 47.5799 42.6962 47.6017C42.5834 47.6247 42.4686 47.6365 42.3535 47.6368Z" fill="#BDA76A"/>
</g>
<defs>
<clipPath id="clip0_686_186">
<rect width="90" height="90" fill="white"/>
</clipPath>
</defs>
</svg>
