<svg width="90" height="90" viewBox="0 0 90 90" fill="none" xmlns="http://www.w3.org/2000/svg">
<g clip-path="url(#clip0_686_151)">
<path d="M89.51 19.4055C89.502 19.2744 89.4763 19.144 89.4331 19.0203C89.417 18.9719 89.4045 18.9258 89.384 18.8789C89.3108 18.7156 89.209 18.5669 89.0837 18.4395L71.0837 0.439453C70.9563 0.313477 70.8069 0.21167 70.6428 0.13916C70.5981 0.118652 70.5527 0.106201 70.5066 0.0900879C70.3792 0.0461426 70.2473 0.0197754 70.1133 0.0117188C70.0876 0.0168457 70.0605 0 70.0291 0H25.0291C20.8894 0.00512696 17.5342 3.35962 17.5291 7.5V18.5398C7.21729 23.0874 0.5625 33.2944 0.5625 44.5649C0.5625 55.8354 7.21729 66.0425 17.5291 70.5901V82.5C17.5342 86.6404 20.8894 89.9949 25.0291 90H82.0291C86.1694 89.9949 89.5247 86.6404 89.5291 82.5V19.5C89.5291 19.467 89.5129 19.4385 89.51 19.4055ZM84.408 18H73.0291C72.2007 18 71.5291 17.3284 71.5291 16.5V5.12109L84.408 18ZM3.59399 44.5649C3.58521 37.7988 6.2688 31.3081 11.053 26.5239C15.8372 21.7397 22.3286 19.0562 29.094 19.0649C29.9465 19.0649 30.7925 19.1067 31.6274 19.188C43.2261 20.3342 52.5608 29.2185 54.2791 40.7461C54.4783 42.0095 54.583 43.2861 54.5925 44.5649C54.6035 49.3689 53.2456 54.0762 50.6792 58.1367C48.6438 61.3813 45.9009 64.1235 42.6555 66.1575C34.7974 71.0925 24.8789 71.3694 16.7578 66.8796C8.63672 62.3906 3.59546 53.844 3.59399 44.5649ZM46.5154 67.0979C46.7205 66.939 46.9233 66.7815 47.124 66.6182C47.8645 66.022 48.5735 65.3884 49.2495 64.7205C49.9175 64.0444 50.551 63.3362 51.1472 62.5964C51.3105 62.3958 51.468 62.1914 51.627 61.9863C51.8086 61.749 52.0056 61.5242 52.1792 61.2825L64.9666 74.0852C65.8132 74.9238 66.29 76.0664 66.29 77.2581C66.29 78.4504 65.8132 79.5923 64.9666 80.4316C63.1956 82.1433 60.3867 82.1433 58.6157 80.4316L45.8115 67.6501C46.0532 67.4744 46.2795 67.2795 46.5154 67.0979ZM82.0291 87H25.0291C22.5439 87 20.5291 84.9851 20.5291 82.5V71.7612C20.6221 71.7913 20.7195 71.811 20.814 71.8396C21.0542 71.9128 21.2974 71.9714 21.5405 72.0388C22.1016 72.189 22.667 72.3391 23.2383 72.4512C23.5188 72.5098 23.7993 72.564 24.0828 72.6138C24.6541 72.7141 25.2305 72.7932 25.8091 72.8599C26.0676 72.8892 26.3225 72.9258 26.5818 72.9478C27.4131 73.0188 28.2495 73.0649 29.094 73.0649C34.0525 73.0686 38.9246 71.7708 43.2231 69.3003L56.4858 82.5498C58.3469 84.5867 61.177 85.4377 63.8525 84.7639C66.5288 84.0908 68.6191 82.0027 69.2944 79.3271C69.9705 76.6516 69.1223 73.8208 67.0862 71.9583L53.8293 58.6934C56.2998 54.3948 57.5984 49.5227 57.594 44.5649C57.594 43.615 57.5486 42.6724 57.4563 41.7378C56.8162 35.1841 53.915 29.0581 49.251 24.4109C43.9167 19.0481 36.6584 16.043 29.094 16.0649C28.2495 16.0649 27.4131 16.1118 26.5818 16.1821C26.3225 16.2048 26.0654 16.2407 25.8076 16.2708C25.2305 16.3352 24.657 16.4172 24.0857 16.5168C23.8008 16.5667 23.5166 16.6208 23.2339 16.6802C22.6699 16.7974 22.1104 16.9351 21.5552 17.0881C21.3062 17.1555 21.0571 17.2156 20.8052 17.2903C20.7122 17.3188 20.6177 17.3386 20.5247 17.3687V7.5C20.5247 5.01489 22.5396 3 25.0247 3H68.5291V16.5C68.5291 18.9851 70.5439 21 73.0291 21H86.5291V82.5C86.5291 84.9851 84.5149 87 82.0291 87Z" fill="#BDA76A"/>
<path d="M62.5293 10.5C62.5293 9.67163 61.8577 9 61.0293 9H28.0293C27.2009 9 26.5293 9.67163 26.5293 10.5C26.5293 11.3284 27.2009 12 28.0293 12H61.0293C61.8577 12 62.5293 11.3284 62.5293 10.5Z" fill="#BDA76A"/>
<path d="M79.0293 36H61.0293C60.2009 36 59.5293 36.6716 59.5293 37.5C59.5293 38.3284 60.2009 39 61.0293 39H79.0293C79.8577 39 80.5293 38.3284 80.5293 37.5C80.5293 36.6716 79.8577 36 79.0293 36Z" fill="#BDA76A"/>
<path d="M79.0293 45H61.0293C60.2009 45 59.5293 45.6716 59.5293 46.5C59.5293 47.3284 60.2009 48 61.0293 48H79.0293C79.8577 48 80.5293 47.3284 80.5293 46.5C80.5293 45.6716 79.8577 45 79.0293 45Z" fill="#BDA76A"/>
<path d="M80.5293 55.5C80.5293 54.6716 79.8577 54 79.0293 54H59.5293C58.7009 54 58.0293 54.6716 58.0293 55.5C58.0293 56.3284 58.7009 57 59.5293 57H79.0293C79.8577 57 80.5293 56.3284 80.5293 55.5Z" fill="#BDA76A"/>
<path d="M80.5293 64.5C80.5293 63.6716 79.8577 63 79.0293 63H65.5293C64.7009 63 64.0293 63.6716 64.0293 64.5C64.0293 65.3284 64.7009 66 65.5293 66H79.0293C79.8577 66 80.5293 65.3284 80.5293 64.5Z" fill="#BDA76A"/>
<path d="M62.5293 19.5C62.5293 18.6716 61.8577 18 61.0293 18H49.0293C48.2009 18 47.5293 18.6716 47.5293 19.5C47.5293 20.3284 48.2009 21 49.0293 21H61.0293C61.8577 21 62.5293 20.3284 62.5293 19.5Z" fill="#BDA76A"/>
<path d="M80.5293 28.5C80.5293 27.6716 79.8577 27 79.0293 27H56.5293C55.7009 27 55.0293 27.6716 55.0293 28.5C55.0293 29.3284 55.7009 30 56.5293 30H79.0293C79.8577 30 80.5293 29.3284 80.5293 28.5Z" fill="#BDA76A"/>
<path d="M23.5293 37.5H34.0293C34.8577 37.5 35.5293 36.8284 35.5293 36C35.5293 35.1716 34.8577 34.5 34.0293 34.5H23.5293C22.7009 34.5 22.0293 35.1716 22.0293 36C22.0293 36.8284 22.7009 37.5 23.5293 37.5Z" fill="#BDA76A"/>
<path d="M41.5293 45C41.5293 44.1716 40.8577 43.5 40.0293 43.5H17.5293C16.7009 43.5 16.0293 44.1716 16.0293 45C16.0293 45.8284 16.7009 46.5 17.5293 46.5H40.0293C40.8577 46.5 41.5293 45.8284 41.5293 45Z" fill="#BDA76A"/>
<path d="M34.0293 52.5H23.5293C22.7009 52.5 22.0293 53.1716 22.0293 54C22.0293 54.8284 22.7009 55.5 23.5293 55.5H34.0293C34.8577 55.5 35.5293 54.8284 35.5293 54C35.5293 53.1716 34.8577 52.5 34.0293 52.5Z" fill="#BDA76A"/>
<path d="M39.772 64.3498C43.4305 62.4016 46.4642 59.4587 48.523 55.8618C48.6417 55.6545 48.7706 55.4538 48.8819 55.2436C48.9398 55.1352 48.9852 55.0231 49.0408 54.9147C49.2686 54.4768 49.4905 54.0388 49.6868 53.5905C49.8839 53.1423 50.0384 52.716 50.1988 52.2751C50.2449 52.1477 50.3035 52.0231 50.3489 51.8942C54.1634 40.8017 48.8167 28.6391 38.0648 23.9509C27.3121 19.2627 14.762 23.622 9.23078 33.966C7.48981 37.2246 6.58307 40.864 6.59186 44.559C6.57794 52.4868 10.7418 59.8352 17.5496 63.8972C24.3575 67.9599 32.8016 68.135 39.772 64.3586V64.3498ZM19.7469 61.6772C18.1143 60.7873 16.6187 59.6667 15.3055 58.3498C14.3944 57.4394 13.5748 56.4426 12.8577 55.3725C12.5032 54.8422 12.1773 54.298 11.8777 53.7392C7.3631 45.2146 9.75519 34.6699 17.5064 28.9284C25.2576 23.187 36.0418 23.9721 42.8804 30.7756C48.9368 36.8891 50.2991 46.2377 46.2401 53.8256V53.8381C44.4515 57.1845 41.7093 59.9245 38.3621 61.7116C32.5555 64.8662 25.544 64.8552 19.7469 61.6831V61.6772Z" fill="#BDA76A"/>
<path d="M82.0293 72C81.2009 72 80.5293 72.6716 80.5293 73.5V79.5C80.5293 80.3284 79.8577 81 79.0293 81H73.0293C72.2009 81 71.5293 81.6716 71.5293 82.5C71.5293 83.3284 72.2009 84 73.0293 84H79.0293C81.5151 84 83.5293 81.9851 83.5293 79.5V73.5C83.5293 72.6716 82.8577 72 82.0293 72Z" fill="#BDA76A"/>
</g>
<defs>
<clipPath id="clip0_686_151">
<rect width="90" height="90" fill="white"/>
</clipPath>
</defs>
</svg>
