<svg width="60" height="60" viewBox="0 0 60 60" fill="none" xmlns="http://www.w3.org/2000/svg">
<g clip-path="url(#clip0_617_3402)">
<path d="M58.8876 49.6745L48.0565 39.1623C47.3549 38.4811 46.4299 38.1154 45.4467 38.1288C45.1176 38.1337 44.7961 38.1825 44.488 38.2701L39.6058 33.5318C40.0981 32.788 40.5465 32.0122 40.9471 31.2039C41.0057 31.0857 41.0503 30.9642 41.0823 30.8413H42.6912C43.7267 30.8413 44.566 30.0016 44.566 28.9659C44.566 27.9302 43.7264 27.0907 42.691 27.0907L36.4826 27.0909V23.4489H40.6705C41.7061 23.4489 42.5454 22.6093 42.5454 21.5737C42.5454 20.538 41.706 19.6985 40.6705 19.6985H36.4826V16.2723H42.6911C43.7267 16.2723 44.566 15.4326 44.566 14.397C44.566 13.3614 43.7265 12.5218 42.6911 12.5218H41.2019C40.4505 10.9013 39.4941 9.37098 38.3583 7.97328C30.8478 -1.27011 17.2189 -2.67824 7.97756 4.83383C3.50089 8.47285 0.708894 13.6377 0.116042 19.377C-0.476692 25.1163 1.20061 30.7429 4.83893 35.2206C8.47725 39.698 13.6411 42.4905 19.3793 43.0834C20.1354 43.1615 20.8892 43.2002 21.639 43.2002C25.8379 43.2002 29.901 41.9854 33.4123 39.6815L38.2297 44.3571C38.0233 44.8307 37.9178 45.3475 37.9256 45.8809C37.9404 46.8623 38.3351 47.7778 39.0367 48.4586L49.868 58.9709C50.5796 59.6614 51.5011 60.0049 52.422 60.0049C53.3797 60.0049 54.3367 59.6329 55.0547 58.8929L58.9653 54.8621C60.3737 53.4105 60.3388 51.0835 58.8876 49.6745ZM41.5276 40.623L40.6739 41.503L36.3852 37.3406C36.6845 37.0604 36.9751 36.7728 37.2566 36.4777L41.5276 40.623ZM19.7646 39.3527C15.0228 38.8627 10.7554 36.5552 7.74893 32.855C4.74225 29.1548 3.35616 24.5052 3.84612 19.7623C4.33608 15.0195 6.64315 10.7516 10.3425 7.74442C17.9794 1.53664 29.2419 2.70043 35.4483 10.3386C36.01 11.0298 36.5171 11.7604 36.9679 12.5216H34.6077C33.5721 12.5216 32.7328 13.3612 32.7328 14.3968V28.9661C32.7328 29.4635 32.9303 29.9405 33.282 30.2922C33.6337 30.6439 34.1105 30.8415 34.6078 30.8415L36.872 30.8414C35.8151 32.5914 34.4686 34.1373 32.8547 35.4492C29.1552 38.4562 24.5071 39.8424 19.7646 39.3527ZM52.4208 56.2222L41.7071 45.8239L45.5035 41.9107L56.2172 52.3089L52.4208 56.2222ZM20.6948 16.7118V19.2677C20.6948 19.5061 20.8961 19.7074 21.1344 19.7074H26.4134C28.7234 19.7074 30.6028 21.5873 30.6028 23.8979V26.4535C30.6028 28.7641 28.7234 30.644 26.4134 30.644H18.8196C17.784 30.644 16.9448 29.8044 16.9448 28.7688C16.9448 27.7331 17.7842 26.8936 18.8196 26.8936H26.4134C26.6516 26.8936 26.853 26.6921 26.853 26.4536V23.898C26.853 23.6595 26.6516 23.4581 26.4134 23.4581H21.1344C18.8243 23.4581 16.9449 21.5783 16.9449 19.2678V16.712C16.9449 14.4015 18.8242 12.5218 21.1344 12.5218H28.7282C29.7638 12.5218 30.6031 13.3614 30.6031 14.397C30.6031 15.4326 29.7637 16.2723 28.7282 16.2723H21.1344C20.896 16.2722 20.6948 16.4735 20.6948 16.7118ZM51.8062 30.7452C55.4752 30.7452 58.4603 27.7595 58.4603 24.0897V19.0581C58.4603 15.3882 55.4752 12.4026 51.8062 12.4026C48.1371 12.4026 45.152 15.3883 45.152 19.0581V24.0897C45.152 27.7596 48.1371 30.7452 51.8062 30.7452ZM48.9019 19.0581C48.9019 17.4562 50.2048 16.1532 51.8062 16.1532C53.4076 16.1532 54.7104 17.4563 54.7104 19.0581V24.0897C54.7104 25.6916 53.4075 26.9946 51.8062 26.9946C50.2048 26.9946 48.9019 25.6914 48.9019 24.0897V19.0581Z" fill="#747474"/>
</g>
<defs>
<clipPath id="clip0_617_3402">
<rect width="60" height="60" fill="white"/>
</clipPath>
</defs>
</svg>
