<svg width="18" height="16" viewBox="0 0 18 16" fill="none" xmlns="http://www.w3.org/2000/svg">
<path fill-rule="evenodd" clip-rule="evenodd" d="M17.036 5.83232L11.7082 5.05825L9.32644 0.230548C9.25863 0.115239 9.13486 0.0444336 9.00109 0.0444336C8.86733 0.0444336 8.74356 0.115239 8.67575 0.230548L6.29293 5.05716L0.963695 5.83232C0.826991 5.85205 0.71334 5.94768 0.670518 6.07899C0.627696 6.21031 0.663129 6.35455 0.761921 6.45107L4.61813 10.2093L3.70797 15.5157C3.68474 15.6517 3.74069 15.7891 3.85232 15.8703C3.96395 15.9514 4.11195 15.9622 4.23418 15.8982L8.99982 13.393L13.7655 15.8971C13.8877 15.9612 14.0357 15.9503 14.1473 15.8692C14.259 15.7881 14.3149 15.6506 14.2917 15.5146L13.3815 10.2093L17.2377 6.45107C17.3365 6.3546 17.372 6.21042 17.3292 6.07913C17.2865 5.94783 17.173 5.85217 17.0363 5.83232H17.036Z" fill="#F5A623"/>
</svg>
