<svg width="54" height="60" viewBox="0 0 54 60" fill="none" xmlns="http://www.w3.org/2000/svg">
<path d="M37.0781 60H7.07813C3.20087 60 0.046875 56.846 0.046875 52.9688V7.03125C0.046875 3.15399 3.20087 0 7.07813 0H37.0781C40.9554 0 44.1094 3.15399 44.1094 7.03125V13.7251H39.4219V7.03125C39.4219 5.73898 38.3704 4.6875 37.0781 4.6875H7.07813C5.78586 4.6875 4.73438 5.73898 4.73438 7.03125V52.9688C4.73438 54.261 5.78586 55.3125 7.07813 55.3125H37.0781C38.3704 55.3125 39.4219 54.261 39.4219 52.9688V46.0689H44.1094V52.9688C44.1094 56.846 40.9554 60 37.0781 60ZM26.7656 9.38919H17.3906V14.0767H26.7656V9.38919ZM24.4219 48.2954C24.4219 47.0009 23.3727 45.9517 22.0781 45.9517C20.7836 45.9517 19.7344 47.0009 19.7344 48.2954C19.7344 49.59 20.7836 50.6392 22.0781 50.6392C23.3727 50.6392 24.4219 49.59 24.4219 48.2954ZM32.6154 41.6158L39.1875 18.2954H34.3174L27.7452 41.6158H32.6154ZM26.4081 35.4936L19.9564 30.0142L26.4081 24.5352L23.3736 20.9624L12.7155 30.0142L23.3736 39.0665L26.4081 35.4936ZM53.9408 30.0142L43.2831 20.9624L40.2486 24.5348L46.6999 30.0142L40.2486 35.4936L43.2831 39.0665L53.9408 30.0142Z" fill="#747474"/>
</svg>
