<svg width="60" height="60" viewBox="0 0 60 60" fill="none" xmlns="http://www.w3.org/2000/svg">
<g clip-path="url(#clip0_617_3331)">
<path d="M32.8281 27.3163H27.1721C26.1853 27.3163 25.3586 26.5694 25.2589 25.5876L25.0195 23.2312C24.7036 23.0709 24.3958 22.8953 24.0971 22.705L21.8708 23.694C20.9768 24.0913 19.9263 23.7537 19.4312 22.9095L16.6032 18.0878C16.0981 17.2265 16.3362 16.1219 17.1512 15.5451L19.1116 14.1579C19.0959 13.825 19.0959 13.4914 19.1116 13.1586L17.1512 11.7714C16.3362 11.1946 16.0981 10.09 16.6032 9.22872L19.4312 4.40705C19.9263 3.56295 20.9766 3.22526 21.8708 3.62244L24.0971 4.61154C24.3959 4.42128 24.7036 4.24564 25.0195 4.08538L25.2589 1.72885C25.3586 0.746923 26.1853 0 27.1721 0H32.828C33.8148 0 34.6416 0.746923 34.7412 1.72872L34.9805 4.08513C35.2966 4.24538 35.6042 4.42103 35.9031 4.61128L38.1294 3.62218C39.0241 3.22487 40.0739 3.56269 40.5689 4.4068L43.3969 9.22846C43.9021 10.0897 43.6641 11.1944 42.849 11.7712L40.8887 13.1583C40.9043 13.4913 40.9043 13.8247 40.8887 14.1577L42.849 15.5449C43.6641 16.1217 43.9022 17.2263 43.3969 18.0876L40.5689 22.9092C40.0739 23.7532 39.0239 24.0912 38.1294 23.6937L35.9031 22.7047C35.6042 22.895 35.2967 23.0706 34.9807 23.2309L34.7413 25.5872C34.6416 26.5692 33.8149 27.3163 32.8281 27.3163ZM28.9096 23.4701H31.0904L31.2672 21.7296C31.341 21.0012 31.8223 20.3781 32.5084 20.1221C33.221 19.8563 33.8822 19.48 34.4737 19.0036C35.0351 18.5515 35.8021 18.4514 36.4607 18.744L38.1207 19.4814L39.1862 17.6647L37.7505 16.6488C37.1498 16.2238 36.8444 15.4933 36.9636 14.7673C37.0841 14.034 37.0841 13.2822 36.9636 12.5488C36.8444 11.8228 37.1498 11.0923 37.7505 10.6673L39.1862 9.65141L38.1207 7.83474L36.4607 8.57218C35.8019 8.86474 35.0353 8.76449 34.4739 8.31256C33.8822 7.83615 33.221 7.45987 32.5084 7.1941C31.8223 6.93821 31.3412 6.31513 31.2672 5.58667L31.0903 3.84615H28.9096L28.7328 5.5868C28.6589 6.31513 28.1777 6.93833 27.4917 7.19423C26.779 7.46013 26.1177 7.83641 25.526 8.31282C24.9646 8.76462 24.1977 8.86474 23.5392 8.57231L21.8792 7.835L20.8137 9.65154L22.2494 10.6674C22.85 11.0924 23.1554 11.8229 23.0362 12.549C22.9157 13.2822 22.9157 14.0342 23.0362 14.7674C23.1554 15.4935 22.85 16.224 22.2494 16.649L20.8137 17.6649L21.8792 19.4815L23.5392 18.7441C24.1977 18.4514 24.9646 18.5517 25.526 19.0036C26.1177 19.48 26.779 19.8563 27.4917 20.1222C28.1777 20.3781 28.6589 21.0012 28.7328 21.7296L28.9096 23.4701Z" fill="#747474"/>
<path d="M28.0261 16.9238L24.789 14.0588L27.3381 11.1787L29.1748 12.8043L32.5327 9.21729L35.3404 11.8459L30.7044 16.7981C30.0646 17.4069 29.0812 17.7566 28.0261 16.9238Z" fill="#747474"/>
<path d="M49.0344 42.0988C45.041 42.0988 41.7922 38.845 41.7922 34.8455C41.7922 30.846 45.041 27.5923 49.0344 27.5923C53.0277 27.5923 56.2766 30.846 56.2766 34.8455C56.2766 38.845 53.0277 42.0988 49.0344 42.0988ZM49.0344 31.4384C47.1618 31.4384 45.6384 32.9668 45.6384 34.8455C45.6384 36.7242 47.1618 38.2527 49.0344 38.2527C50.9069 38.2527 52.4304 36.7242 52.4304 34.8455C52.4304 32.9668 50.9069 31.4384 49.0344 31.4384Z" fill="#747474"/>
<path d="M10.9657 42.0988C6.97233 42.0988 3.72336 38.845 3.72336 34.8455C3.72336 30.846 6.9722 27.5923 10.9657 27.5923C14.9591 27.5923 18.2078 30.846 18.2078 34.8455C18.2078 38.845 14.9591 42.0988 10.9657 42.0988ZM10.9657 31.4384C9.0931 31.4384 7.56951 32.9668 7.56951 34.8455C7.56951 36.7242 9.09297 38.2527 10.9657 38.2527C12.8384 38.2527 14.3617 36.7242 14.3617 34.8455C14.3617 32.9668 12.8384 31.4384 10.9657 31.4384Z" fill="#747474"/>
<path d="M38.5986 36.9664C38.5986 32.2175 34.7413 28.354 30 28.354C25.2587 28.354 21.4014 32.2176 21.4014 36.9664C21.4014 41.0531 24.259 44.4817 28.0773 45.3591L28.0766 51.8404L31.9227 51.8409L31.9235 45.359C35.7414 44.4814 38.5986 41.053 38.5986 36.9664ZM30 41.7329C27.3795 41.7329 25.2476 39.5946 25.2476 36.9666C25.2476 34.3385 27.3795 32.2002 30 32.2002C32.6205 32.2002 34.7525 34.3384 34.7525 36.9664C34.7525 39.5945 32.6205 41.7329 30 41.7329Z" fill="#747474"/>
<path d="M39.0558 60.0003H20.9443C18.6196 60.0003 16.7285 58.1091 16.7285 55.7844V52.4109C16.7285 49.0364 17.9963 45.8203 20.2982 43.3552L23.1094 45.9802C21.4748 47.7305 20.5746 50.0144 20.5746 52.4109V55.7844C20.5746 55.9882 20.7404 56.1541 20.9443 56.1541H39.0558C39.2596 56.1541 39.4255 55.9884 39.4255 55.7844V52.4109C39.4255 50.0141 38.5252 47.73 36.8902 45.9794L39.7009 43.354C42.0036 45.8194 43.2718 49.0358 43.2718 52.4108V55.7843C43.2717 58.1091 41.3804 60.0003 39.0558 60.0003Z" fill="#747474"/>
<path d="M56.25 53.59H51.5986V49.7438H56.1539V47.152C56.1539 45.7275 55.735 44.3536 54.9429 43.1786L58.1317 41.0283C59.354 42.8409 60 44.9584 60 47.152V49.84C60 51.9077 58.3179 53.59 56.25 53.59Z" fill="#747474"/>
<path d="M45.6649 49.7437H49.0345V53.5898H45.6649V49.7437Z" fill="#747474"/>
<path d="M10.9657 49.7437H14.3353V53.5898H10.9657V49.7437Z" fill="#747474"/>
<path d="M8.40157 53.5898H3.75003C1.68234 53.5898 3.05176e-05 51.9075 3.05176e-05 49.8398V47.1519C3.05176e-05 45.1943 0.522851 43.2721 1.51183 41.5933L4.8258 43.5454C4.1849 44.6331 3.84618 45.8803 3.84618 47.1519V49.7436H8.40157V53.5898Z" fill="#747474"/>
</g>
<defs>
<clipPath id="clip0_617_3331">
<rect width="60" height="60" fill="white"/>
</clipPath>
</defs>
</svg>
