<svg width="25" height="25" viewBox="0 0 25 25" fill="none" xmlns="http://www.w3.org/2000/svg">
<g clip-path="url(#clip0_603_106)">
<path d="M12.5005 0C5.60844 0 6.19888e-05 5.60664 6.19888e-05 12.4987C6.19888e-05 19.3918 5.60849 25 12.5005 25C19.3925 25 25 19.3918 25 12.4987C25 5.60664 19.3926 0 12.5005 0ZM12.5005 22.4878C12.4883 22.4878 12.4759 22.4862 12.4637 22.4862V2.51395C12.4759 2.51395 12.4883 2.51215 12.5005 2.51215C18.0073 2.51215 22.4878 6.99198 22.4878 12.4987C22.4878 18.0065 18.0073 22.4878 12.5005 22.4878Z" fill="#151515"/>
</g>
<defs>
<clipPath id="clip0_603_106">
<rect width="25" height="25" fill="white"/>
</clipPath>
</defs>
</svg>
