<svg width="18" height="17" viewBox="0 0 18 17" fill="none" xmlns="http://www.w3.org/2000/svg">
<path d="M16.7272 3.53191C16.1436 3.78844 15.5204 3.9632 14.8643 4.04299C15.533 3.64006 16.0473 3.00501 16.2907 2.2473C15.6635 2.61329 14.9685 2.87971 14.2286 3.02809C13.6377 2.39567 12.7956 2 11.8605 2C10.0687 2 8.61595 3.45278 8.61595 5.24254C8.61595 5.49973 8.64562 5.74702 8.6997 5.98376C6.00253 5.85649 3.61201 4.56132 2.01217 2.6034C1.73058 3.07953 1.57297 3.63281 1.57297 4.23555C1.57297 5.36322 2.1467 6.35438 3.01586 6.93668C2.48368 6.91953 1.98315 6.77313 1.54659 6.53045V6.57068C1.54659 8.14348 2.66305 9.45513 4.1488 9.75387C3.87645 9.82707 3.58893 9.86663 3.29415 9.86663C3.08708 9.86663 2.88858 9.84685 2.69009 9.80992C3.1062 11.0978 4.30246 12.0369 5.72622 12.0633C4.61833 12.9331 3.21436 13.4514 1.70223 13.4514C1.44504 13.4514 1.18851 13.4363 0.930664 13.4072C2.37421 14.3265 4.07494 14.864 5.91416 14.864C11.8849 14.864 15.1459 9.92071 15.1459 5.64085C15.1459 5.50302 15.1459 5.36388 15.136 5.22539C15.7697 4.77103 16.323 4.19664 16.7582 3.5451L16.7272 3.53191Z" fill="white"/>
</svg>
