<svg width="38" height="62" viewBox="0 0 38 62" fill="none" xmlns="http://www.w3.org/2000/svg">
<path d="M32.0001 1H6.00012C4.67453 1.00159 3.40368 1.52888 2.46634 2.46622C1.529 3.40356 1.00171 4.67441 1.00012 6V56C1.00171 57.3256 1.529 58.5964 2.46634 59.5338C3.40368 60.4711 4.67453 60.9984 6.00012 61H32.0001C33.3257 60.9984 34.5966 60.4711 35.5339 59.5338C36.4712 58.5964 36.9985 57.3256 37.0001 56V6C36.9985 4.67441 36.4712 3.40356 35.5339 2.46622C34.5966 1.52888 33.3257 1.00159 32.0001 1ZM13.0001 3H25.0001V4C25.0001 4.26522 24.8948 4.51957 24.7072 4.70711C24.5197 4.89464 24.2653 5 24.0001 5H14.0001C13.7349 5 13.4806 4.89464 13.293 4.70711C13.1055 4.51957 13.0001 4.26522 13.0001 4V3ZM35.0001 56C35.0001 56.7957 34.6841 57.5587 34.1214 58.1213C33.5588 58.6839 32.7958 59 32.0001 59H6.00012C5.20447 59 4.44141 58.6839 3.8788 58.1213C3.31619 57.5587 3.00012 56.7957 3.00012 56V6C3.00012 5.20435 3.31619 4.44129 3.8788 3.87868C4.44141 3.31607 5.20447 3 6.00012 3H11.0001V4C11.0001 4.79565 11.3162 5.55871 11.8788 6.12132C12.4414 6.68393 13.2045 7 14.0001 7H24.0001C24.7958 7 25.5588 6.68393 26.1214 6.12132C26.684 5.55871 27.0001 4.79565 27.0001 4V3H32.0001C32.7958 3 33.5588 3.31607 34.1214 3.87868C34.6841 4.44129 35.0001 5.20435 35.0001 6V56Z" fill="#747474"/>
<path d="M26.0001 55H12.0001C11.7349 55 11.4806 55.1054 11.293 55.2929C11.1055 55.4804 11.0001 55.7348 11.0001 56C11.0001 56.2652 11.1055 56.5196 11.293 56.7071C11.4806 56.8946 11.7349 57 12.0001 57H26.0001C26.2653 57 26.5197 56.8946 26.7072 56.7071C26.8948 56.5196 27.0001 56.2652 27.0001 56C27.0001 55.7348 26.8948 55.4804 26.7072 55.2929C26.5197 55.1054 26.2653 55 26.0001 55Z" fill="#747474"/>
<path d="M27.0001 40C27.2653 40 27.5197 39.8946 27.7072 39.7071C27.8948 39.5196 28.0001 39.2652 28.0001 39C28.0001 38.7348 27.8948 38.4804 27.7072 38.2929C27.5197 38.1054 27.2653 38 27.0001 38H21.0001C20.7349 38 20.4806 38.1054 20.293 38.2929C20.1055 38.4804 20.0001 38.7348 20.0001 39C20.0001 39.2652 20.1055 39.5196 20.293 39.7071C20.4806 39.8946 20.7349 40 21.0001 40H23.0001V48H21.0001C20.7349 48 20.4806 48.1054 20.293 48.2929C20.1055 48.4804 20.0001 48.7348 20.0001 49C20.0001 49.2652 20.1055 49.5196 20.293 49.7071C20.4806 49.8946 20.7349 50 21.0001 50H27.0001C27.2653 50 27.5197 49.8946 27.7072 49.7071C27.8948 49.5196 28.0001 49.2652 28.0001 49C28.0001 48.7348 27.8948 48.4804 27.7072 48.2929C27.5197 48.1054 27.2653 48 27.0001 48H25.0001V40H27.0001Z" fill="#747474"/>
<path d="M11.0001 38C10.7349 38 10.4806 38.1054 10.293 38.2929C10.1055 38.4804 10.0001 38.7348 10.0001 39V46C10.0001 47.0609 10.4216 48.0783 11.1717 48.8284C11.9218 49.5786 12.9393 50 14.0001 50C15.061 50 16.0784 49.5786 16.8285 48.8284C17.5787 48.0783 18.0001 47.0609 18.0001 46V39C18.0001 38.7348 17.8948 38.4804 17.7072 38.2929C17.5197 38.1054 17.2653 38 17.0001 38C16.7349 38 16.4806 38.1054 16.293 38.2929C16.1055 38.4804 16.0001 38.7348 16.0001 39V46C16.0001 46.5304 15.7894 47.0391 15.4143 47.4142C15.0393 47.7893 14.5306 48 14.0001 48C13.4697 48 12.961 47.7893 12.5859 47.4142C12.2108 47.0391 12.0001 46.5304 12.0001 46V39C12.0001 38.7348 11.8948 38.4804 11.7072 38.2929C11.5197 38.1054 11.2653 38 11.0001 38Z" fill="#747474"/>
<path d="M14.0001 23C15.061 23 16.0784 22.5786 16.8285 21.8284C17.5787 21.0783 18.0001 20.0609 18.0001 19V12C18.0001 11.7348 17.8948 11.4804 17.7072 11.2929C17.5197 11.1054 17.2653 11 17.0001 11C16.7349 11 16.4806 11.1054 16.293 11.2929C16.1055 11.4804 16.0001 11.7348 16.0001 12V19C16.0001 19.5304 15.7894 20.0391 15.4143 20.4142C15.0393 20.7893 14.5306 21 14.0001 21C13.4697 21 12.961 20.7893 12.5859 20.4142C12.2108 20.0391 12.0001 19.5304 12.0001 19V12C12.0001 11.7348 11.8948 11.4804 11.7072 11.2929C11.5197 11.1054 11.2653 11 11.0001 11C10.7349 11 10.4806 11.1054 10.293 11.2929C10.1055 11.4804 10.0001 11.7348 10.0001 12V19C10.0001 20.0609 10.4216 21.0783 11.1717 21.8284C11.9218 22.5786 12.9393 23 14.0001 23Z" fill="#747474"/>
<path d="M20.4851 22.857C20.7124 22.9935 20.9846 23.0342 21.2419 22.9701C21.4992 22.906 21.7205 22.7423 21.8571 22.515L24.0001 18.944L26.1431 22.515C26.2822 22.7372 26.5029 22.8959 26.7577 22.957C27.0126 23.0181 27.2813 22.9767 27.5059 22.8417C27.7306 22.7067 27.8932 22.4889 27.9589 22.2351C28.0246 21.9814 27.988 21.712 27.8571 21.485L25.1661 17L27.8571 12.515C27.988 12.288 28.0246 12.0186 27.9589 11.7649C27.8932 11.5111 27.7306 11.2933 27.5059 11.1583C27.2813 11.0233 27.0126 10.9819 26.7577 11.043C26.5029 11.1041 26.2822 11.2628 26.1431 11.485L24.0001 15.056L21.8571 11.485C21.7181 11.2628 21.4974 11.1041 21.2425 11.043C20.9877 10.9819 20.719 11.0233 20.4943 11.1583C20.2697 11.2933 20.107 11.5111 20.0413 11.7649C19.9757 12.0186 20.0122 12.288 20.1431 12.515L22.8341 17L20.1431 21.485C20.0066 21.7123 19.9659 21.9845 20.03 22.2418C20.0942 22.4991 20.2579 22.7204 20.4851 22.857Z" fill="#747474"/>
<path d="M30.7201 26.04L6.72012 33.04C6.59405 33.0768 6.47646 33.138 6.37406 33.2202C6.27166 33.3024 6.18645 33.404 6.12331 33.5192C6.06017 33.6343 6.02032 33.7608 6.00605 33.8913C5.99177 34.0219 6.00335 34.1539 6.04012 34.28C6.07689 34.4061 6.13813 34.5237 6.22035 34.6261C6.30257 34.7285 6.40415 34.8137 6.51929 34.8768C6.63443 34.94 6.76089 34.9798 6.89143 34.9941C7.02198 35.0084 7.15405 34.9968 7.28012 34.96L31.2801 27.96C31.5347 27.8857 31.7494 27.7134 31.8769 27.4808C32.0045 27.2483 32.0344 26.9746 31.9601 26.72C31.8859 26.4654 31.7135 26.2507 31.481 26.1232C31.2484 25.9957 30.9747 25.9657 30.7201 26.04Z" fill="#747474"/>
<path d="M32.0001 1H6.00012C4.67453 1.00159 3.40368 1.52888 2.46634 2.46622C1.529 3.40356 1.00171 4.67441 1.00012 6V56C1.00171 57.3256 1.529 58.5964 2.46634 59.5338C3.40368 60.4711 4.67453 60.9984 6.00012 61H32.0001C33.3257 60.9984 34.5966 60.4711 35.5339 59.5338C36.4712 58.5964 36.9985 57.3256 37.0001 56V6C36.9985 4.67441 36.4712 3.40356 35.5339 2.46622C34.5966 1.52888 33.3257 1.00159 32.0001 1ZM13.0001 3H25.0001V4C25.0001 4.26522 24.8948 4.51957 24.7072 4.70711C24.5197 4.89464 24.2653 5 24.0001 5H14.0001C13.7349 5 13.4806 4.89464 13.293 4.70711C13.1055 4.51957 13.0001 4.26522 13.0001 4V3ZM35.0001 56C35.0001 56.7957 34.6841 57.5587 34.1214 58.1213C33.5588 58.6839 32.7958 59 32.0001 59H6.00012C5.20447 59 4.44141 58.6839 3.8788 58.1213C3.31619 57.5587 3.00012 56.7957 3.00012 56V6C3.00012 5.20435 3.31619 4.44129 3.8788 3.87868C4.44141 3.31607 5.20447 3 6.00012 3H11.0001V4C11.0001 4.79565 11.3162 5.55871 11.8788 6.12132C12.4414 6.68393 13.2045 7 14.0001 7H24.0001C24.7958 7 25.5588 6.68393 26.1214 6.12132C26.684 5.55871 27.0001 4.79565 27.0001 4V3H32.0001C32.7958 3 33.5588 3.31607 34.1214 3.87868C34.6841 4.44129 35.0001 5.20435 35.0001 6V56Z" stroke="#747474"/>
<path d="M26.0001 55H12.0001C11.7349 55 11.4806 55.1054 11.293 55.2929C11.1055 55.4804 11.0001 55.7348 11.0001 56C11.0001 56.2652 11.1055 56.5196 11.293 56.7071C11.4806 56.8946 11.7349 57 12.0001 57H26.0001C26.2653 57 26.5197 56.8946 26.7072 56.7071C26.8948 56.5196 27.0001 56.2652 27.0001 56C27.0001 55.7348 26.8948 55.4804 26.7072 55.2929C26.5197 55.1054 26.2653 55 26.0001 55Z" stroke="#747474"/>
<path d="M27.0001 40C27.2653 40 27.5197 39.8946 27.7072 39.7071C27.8948 39.5196 28.0001 39.2652 28.0001 39C28.0001 38.7348 27.8948 38.4804 27.7072 38.2929C27.5197 38.1054 27.2653 38 27.0001 38H21.0001C20.7349 38 20.4806 38.1054 20.293 38.2929C20.1055 38.4804 20.0001 38.7348 20.0001 39C20.0001 39.2652 20.1055 39.5196 20.293 39.7071C20.4806 39.8946 20.7349 40 21.0001 40H23.0001V48H21.0001C20.7349 48 20.4806 48.1054 20.293 48.2929C20.1055 48.4804 20.0001 48.7348 20.0001 49C20.0001 49.2652 20.1055 49.5196 20.293 49.7071C20.4806 49.8946 20.7349 50 21.0001 50H27.0001C27.2653 50 27.5197 49.8946 27.7072 49.7071C27.8948 49.5196 28.0001 49.2652 28.0001 49C28.0001 48.7348 27.8948 48.4804 27.7072 48.2929C27.5197 48.1054 27.2653 48 27.0001 48H25.0001V40H27.0001Z" stroke="#747474"/>
<path d="M11.0001 38C10.7349 38 10.4806 38.1054 10.293 38.2929C10.1055 38.4804 10.0001 38.7348 10.0001 39V46C10.0001 47.0609 10.4216 48.0783 11.1717 48.8284C11.9218 49.5786 12.9393 50 14.0001 50C15.061 50 16.0784 49.5786 16.8285 48.8284C17.5787 48.0783 18.0001 47.0609 18.0001 46V39C18.0001 38.7348 17.8948 38.4804 17.7072 38.2929C17.5197 38.1054 17.2653 38 17.0001 38C16.7349 38 16.4806 38.1054 16.293 38.2929C16.1055 38.4804 16.0001 38.7348 16.0001 39V46C16.0001 46.5304 15.7894 47.0391 15.4143 47.4142C15.0393 47.7893 14.5306 48 14.0001 48C13.4697 48 12.961 47.7893 12.5859 47.4142C12.2108 47.0391 12.0001 46.5304 12.0001 46V39C12.0001 38.7348 11.8948 38.4804 11.7072 38.2929C11.5197 38.1054 11.2653 38 11.0001 38Z" stroke="#747474"/>
<path d="M14.0001 23C15.061 23 16.0784 22.5786 16.8285 21.8284C17.5787 21.0783 18.0001 20.0609 18.0001 19V12C18.0001 11.7348 17.8948 11.4804 17.7072 11.2929C17.5197 11.1054 17.2653 11 17.0001 11C16.7349 11 16.4806 11.1054 16.293 11.2929C16.1055 11.4804 16.0001 11.7348 16.0001 12V19C16.0001 19.5304 15.7894 20.0391 15.4143 20.4142C15.0393 20.7893 14.5306 21 14.0001 21C13.4697 21 12.961 20.7893 12.5859 20.4142C12.2108 20.0391 12.0001 19.5304 12.0001 19V12C12.0001 11.7348 11.8948 11.4804 11.7072 11.2929C11.5197 11.1054 11.2653 11 11.0001 11C10.7349 11 10.4806 11.1054 10.293 11.2929C10.1055 11.4804 10.0001 11.7348 10.0001 12V19C10.0001 20.0609 10.4216 21.0783 11.1717 21.8284C11.9218 22.5786 12.9393 23 14.0001 23Z" stroke="#747474"/>
<path d="M20.4851 22.857C20.7124 22.9935 20.9846 23.0342 21.2419 22.9701C21.4992 22.906 21.7205 22.7423 21.8571 22.515L24.0001 18.944L26.1431 22.515C26.2822 22.7372 26.5029 22.8959 26.7577 22.957C27.0126 23.0181 27.2813 22.9767 27.5059 22.8417C27.7306 22.7067 27.8932 22.4889 27.9589 22.2351C28.0246 21.9814 27.988 21.712 27.8571 21.485L25.1661 17L27.8571 12.515C27.988 12.288 28.0246 12.0186 27.9589 11.7649C27.8932 11.5111 27.7306 11.2933 27.5059 11.1583C27.2813 11.0233 27.0126 10.9819 26.7577 11.043C26.5029 11.1041 26.2822 11.2628 26.1431 11.485L24.0001 15.056L21.8571 11.485C21.7181 11.2628 21.4974 11.1041 21.2425 11.043C20.9877 10.9819 20.719 11.0233 20.4943 11.1583C20.2697 11.2933 20.107 11.5111 20.0413 11.7649C19.9757 12.0186 20.0122 12.288 20.1431 12.515L22.8341 17L20.1431 21.485C20.0066 21.7123 19.9659 21.9845 20.03 22.2418C20.0942 22.4991 20.2579 22.7204 20.4851 22.857Z" stroke="#747474"/>
<path d="M30.7201 26.04L6.72012 33.04C6.59405 33.0768 6.47646 33.138 6.37406 33.2202C6.27166 33.3024 6.18645 33.404 6.12331 33.5192C6.06017 33.6343 6.02032 33.7608 6.00605 33.8913C5.99177 34.0219 6.00335 34.1539 6.04012 34.28C6.07689 34.4061 6.13813 34.5237 6.22035 34.6261C6.30257 34.7285 6.40415 34.8137 6.51929 34.8768C6.63443 34.94 6.76089 34.9798 6.89143 34.9941C7.02198 35.0084 7.15405 34.9968 7.28012 34.96L31.2801 27.96C31.5347 27.8857 31.7494 27.7134 31.8769 27.4808C32.0045 27.2483 32.0344 26.9746 31.9601 26.72C31.8859 26.4654 31.7135 26.2507 31.481 26.1232C31.2484 25.9957 30.9747 25.9657 30.7201 26.04Z" stroke="#747474"/>
</svg>
