<svg width="60" height="60" viewBox="0 0 60 60" fill="none" xmlns="http://www.w3.org/2000/svg">
<g clip-path="url(#clip0_617_3292)">
<path d="M54.7267 0.117188H5.27356C2.36579 0.117188 0.00012207 2.48285 0.00012207 5.39062V54.6094C0.00012207 57.5171 2.36579 59.8828 5.27356 59.8828H54.7267C57.6345 59.8828 60.0001 57.5171 60.0001 54.6094V5.39062C60.0001 2.48285 57.6345 0.117188 54.7267 0.117188ZM5.27356 3.63281H54.7267C55.6959 3.63281 56.4845 4.42137 56.4845 5.39062V14.1797H3.51575V5.39062C3.51575 4.42137 4.3043 3.63281 5.27356 3.63281ZM54.7267 56.3672H5.27356C4.3043 56.3672 3.51575 55.5786 3.51575 54.6094V17.6953H56.4845V54.6094C56.4845 55.5786 55.6959 56.3672 54.7267 56.3672Z" fill="white"/>
<path d="M35.966 23.1108C35.0737 22.7284 34.0403 23.1418 33.6579 24.034L23.111 48.6434C22.7285 49.5357 23.1419 50.5691 24.0342 50.9515C24.9268 51.334 25.9601 50.9204 26.3423 50.0283L36.8892 25.4189C37.2717 24.5266 36.8583 23.4932 35.966 23.1108Z" fill="white"/>
<path d="M20.8259 28.9019C20.2193 28.1438 19.113 28.021 18.3552 28.6275L9.56617 35.6587C8.68738 36.3615 8.6868 37.7006 9.56617 38.404L18.3552 45.4352C19.1133 46.0418 20.2197 45.9187 20.8259 45.1607C21.4323 44.4027 21.3095 43.2964 20.5513 42.6901L13.4781 37.0313L20.5513 31.3727C21.3095 30.7663 21.4323 29.6601 20.8259 28.9019Z" fill="white"/>
<path d="M50.4341 35.6588L41.6451 28.6275C40.887 28.021 39.7807 28.1439 39.1744 28.902C38.5679 29.6601 38.6908 30.7663 39.449 31.3726L46.5222 37.0314L39.449 42.69C38.6908 43.2965 38.5679 44.4026 39.1744 45.1607C39.7817 45.9196 40.888 46.041 41.6451 45.4351L50.4341 38.4039C51.3129 37.7011 51.3135 36.3621 50.4341 35.6588Z" fill="white"/>
<path d="M8.90637 10.6641C9.87719 10.6641 10.6642 9.87706 10.6642 8.90625C10.6642 7.93544 9.87719 7.14844 8.90637 7.14844C7.93556 7.14844 7.14856 7.93544 7.14856 8.90625C7.14856 9.87706 7.93556 10.6641 8.90637 10.6641Z" fill="white"/>
<path d="M15.9376 10.6641C16.9084 10.6641 17.6954 9.87706 17.6954 8.90625C17.6954 7.93544 16.9084 7.14844 15.9376 7.14844C14.9668 7.14844 14.1798 7.93544 14.1798 8.90625C14.1798 9.87706 14.9668 10.6641 15.9376 10.6641Z" fill="white"/>
<path d="M22.9689 10.6641C23.9397 10.6641 24.7267 9.87706 24.7267 8.90625C24.7267 7.93544 23.9397 7.14844 22.9689 7.14844C21.9981 7.14844 21.2111 7.93544 21.2111 8.90625C21.2111 9.87706 21.9981 10.6641 22.9689 10.6641Z" fill="white"/>
<path d="M40.547 10.6641H51.0939C52.0647 10.6641 52.8517 9.87703 52.8517 8.90625C52.8517 7.93547 52.0647 7.14844 51.0939 7.14844H40.547C39.5762 7.14844 38.7892 7.93547 38.7892 8.90625C38.7892 9.87703 39.5762 10.6641 40.547 10.6641Z" fill="white"/>
</g>
<defs>
<clipPath id="clip0_617_3292">
<rect width="60" height="60" fill="white"/>
</clipPath>
</defs>
</svg>
